<?xml version="1.0" standalone="no"?>
<!DOCTYPE svg PUBLIC "-//W3C//DTD SVG 20010904//EN"
 "http://www.w3.org/TR/2001/REC-SVG-20010904/DTD/svg10.dtd">
<svg version="1.0" xmlns="http://www.w3.org/2000/svg"
 width="261.000000pt" height="261.000000pt" viewBox="0 0 261.000000 261.000000"
 preserveAspectRatio="xMidYMid meet">
<metadata>
Created by potrace 1.14, written by Peter Selinger 2001-2017
</metadata>
<g transform="translate(0.000000,261.000000) scale(0.100000,-0.100000)"
fill="#000000" stroke="none">
<path d="M997 2468 c-74 -76 -94 -81 -116 -30 -8 17 -19 32 -25 32 -6 0 -34
-19 -61 -43 -28 -24 -77 -62 -110 -84 -70 -48 -142 -120 -179 -181 -24 -39
-30 -43 -55 -37 l-29 6 -23 -96 c-21 -87 -22 -101 -10 -158 13 -61 96 -347
129 -440 13 -39 14 -52 4 -67 -7 -12 -8 -20 -2 -20 5 0 10 -19 10 -42 l0 -43
-19 24 c-10 13 -24 22 -31 19 -9 -3 -3 -15 19 -40 25 -29 35 -54 51 -134 14
-69 27 -106 44 -124 12 -14 36 -47 51 -75 45 -78 179 -203 266 -248 193 -98
395 -58 568 113 78 77 165 213 206 323 10 27 24 51 32 54 10 4 13 31 13 104 0
103 6 123 54 176 21 25 18 37 -7 27 -8 -3 -23 -24 -33 -47 l-17 -42 -9 35 c-4
19 -10 127 -12 240 -5 302 -23 371 -131 515 -77 102 -98 120 -123 104 -29 -18
-61 1 -136 79 -67 68 -88 77 -84 35 5 -42 -27 -42 -51 -1 -62 105 -86 138
-100 136 -9 -1 -46 -32 -84 -70z m436 -505 c63 -26 93 -71 142 -218 13 -38 37
-103 54 -144 37 -88 48 -198 32 -316 -14 -99 -44 -161 -91 -186 -46 -25 -101
-25 -117 0 -20 32 -88 36 -182 12 -105 -27 -109 -27 -103 5 l5 26 -26 -25
c-47 -48 -137 -45 -156 5 -5 14 -10 17 -15 10 -4 -6 0 -25 9 -42 l16 -30 -30
0 c-85 0 -191 -47 -191 -85 0 -7 -15 -16 -34 -19 -96 -18 -149 66 -161 254
-15 230 -21 276 -47 327 -7 14 -9 58 -6 117 6 111 34 180 84 207 57 31 168 58
286 69 65 6 159 22 210 35 79 21 107 24 188 19 52 -4 112 -13 133 -21z m-3
-990 c-25 -87 -140 -184 -194 -163 -34 13 -174 -5 -196 -25 -9 -8 -24 -15 -32
-15 -25 0 -83 27 -116 55 -26 22 -82 103 -82 119 0 15 54 3 110 -23 148 -70
306 -42 434 79 28 26 58 49 66 52 21 7 25 -25 10 -79z m-192 -3 c-9 -6 -38
-12 -65 -15 l-48 -5 50 14 c63 17 87 19 63 6z"/>
<path d="M1267 1680 c-54 -14 -97 -38 -97 -55 0 -20 9 -19 65 6 39 17 61 20
129 16 44 -2 92 -8 105 -12 18 -6 23 -5 19 5 -10 32 -152 57 -221 40z"/>
<path d="M717 1595 c-26 -6 -64 -25 -84 -42 -64 -51 -54 -73 13 -28 50 34 109
48 166 41 45 -6 71 6 52 24 -17 15 -99 18 -147 5z"/>
<path d="M1285 1511 c-27 -12 -75 -61 -86 -89 -17 -45 -9 -57 13 -19 27 45 35
47 36 6 0 -17 8 -39 17 -49 15 -17 19 -16 90 8 70 24 75 27 75 54 0 16 -5 38
-10 49 -15 28 7 25 54 -7 34 -24 37 -24 27 -5 -26 48 -151 78 -216 52z m31
-70 c-9 -14 -33 -14 -41 -1 -4 6 -1 18 6 26 11 13 14 13 27 0 8 -8 11 -19 8
-25z"/>
<path d="M714 1425 c-39 -17 -84 -70 -84 -98 0 -19 3 -18 20 10 10 17 28 37
39 43 19 10 20 8 15 -19 -3 -15 -1 -38 5 -50 10 -18 21 -21 71 -21 32 0 62 5
65 10 9 15 27 12 20 -2 -4 -7 1 -4 10 7 9 11 14 30 12 43 -2 12 -1 22 3 22 4
0 20 -10 36 -22 l29 -23 -28 37 c-52 68 -142 94 -213 63z m62 -64 c-9 -13 -16
-14 -35 -2 -12 8 -13 12 -1 26 12 14 15 14 28 1 8 -8 11 -19 8 -25z"/>
<path d="M1633 827 c7 -16 25 -28 52 -35 22 -6 48 -14 58 -17 10 -4 17 -3 17
4 0 8 -120 71 -135 71 -2 0 2 -11 8 -23z"/>
<path d="M1610 680 c22 -30 140 -78 160 -65 16 10 -13 28 -102 63 l-78 30 20
-28z"/>
<path d="M1607 541 c3 -12 6 -21 7 -21 1 0 39 -13 85 -29 46 -16 90 -27 98
-24 21 8 -16 31 -95 57 -37 13 -75 26 -84 30 -13 6 -15 3 -11 -13z"/>
<path d="M2035 408 c-67 -24 -73 -28 -37 -23 40 5 122 39 122 50 0 3 -1 4 -2
3 -2 0 -39 -14 -83 -30z"/>
</g>
</svg>
