<svg xmlns="http://www.w3.org/2000/svg" width="72" height="68" viewBox="0 0 72 68" fill="none">
    <g style="mix-blend-mode:screen">
      <path d="M66.5099 61.9994C66.7957 61.9734 67.0814 61.4799 67.3672 62.0254C67.4797 62.2505 67.6616 62.4409 67.7222 62.7959C67.6876 62.8912 67.7568 62.8392 67.8174 62.7959L67.6702 62.6487C67.6183 62.7093 67.5663 62.7786 67.523 62.8479C67.523 62.8565 67.5837 62.9171 67.7222 62.8046C68.0686 62.6055 68.7959 62.8998 69.2029 62.8565C69.6272 62.8046 69.9043 62.692 70.3719 62.9344C70.9001 63.2115 70.8655 63.3241 70.5538 63.6963C70.4412 63.8349 70.4671 64.0859 70.4325 64.2851C70.3199 64.3976 70.216 64.5015 70.0082 64.7613C69.9736 64.8565 70.0429 64.8046 70.1035 64.7613C70.0515 64.7093 70.0082 64.666 69.9563 64.6141C69.9043 64.6747 69.8523 64.7353 69.809 64.8132C69.809 64.8219 69.8697 64.8825 70.0082 64.7699C70.216 64.5102 70.3199 64.4063 70.4325 64.2937C70.7789 64.2331 70.9434 64.995 71.385 64.4842C71.7141 64.1033 71.8267 64.5621 71.9392 64.692C72.0258 64.7959 72.0172 65.0989 71.9306 65.2201C71.2811 66.1379 70.1727 66.5275 69.2462 66.5102C66.9862 66.4582 64.7867 66.9431 62.544 66.9257C55.5993 66.8651 48.646 66.8911 41.7013 66.9257C40.6622 66.9257 39.6231 67.1682 38.5754 67.2115C38.3243 67.2201 38.0645 66.9084 37.8047 66.7526C38.0298 66.5188 38.3849 66.2591 37.6835 66.2591C37.2505 66.2591 36.8089 66.311 36.3846 66.2331C36.1941 66.1985 35.9776 65.9128 35.9257 65.705C35.8737 65.5058 36.0296 65.2634 36.0988 65.0383C35.8391 65.0123 35.5706 65.0124 35.3282 64.9431C34.9905 64.8479 34.5835 64.7872 34.367 64.5535C34.1938 64.3717 34.1332 63.8955 34.2458 63.6704C34.4623 63.2375 33.631 62.9864 34.1332 62.5881C34.0639 62.5016 33.9947 62.3544 33.9167 62.3544C33.5184 62.3197 33.4751 62.06 33.6396 61.8176C33.7176 61.6964 34.0206 61.731 34.4449 61.6877L34.2198 61.6877C34.3583 61.8868 34.5055 62.0773 34.6441 62.2764C34.722 62.1985 34.8692 62.1033 34.8606 62.0513C34.8259 61.9041 34.7134 61.7656 34.4449 61.6877C34.6701 60.5102 34.7567 59.2375 34.4969 58.086C34.012 55.9475 34.3583 53.8176 34.2111 51.6878C34.1852 51.2809 34.3584 50.8566 33.9773 50.467C33.8475 50.3372 33.9946 49.8956 34.0639 49.6099C34.2458 48.8393 34.5315 48.0515 33.7955 47.4108C33.4405 47.0991 33.5704 46.7182 33.5704 46.3632C33.5617 44.1381 33.5704 41.9043 33.5617 39.6793C33.5617 38.6923 33.0162 38.1728 32.1676 38.571C31.5268 38.8827 30.938 38.7875 30.3232 38.8394C29.9422 38.8741 29.5612 38.8135 29.1802 38.8568C28.7732 38.9087 28.3575 38.7096 27.9332 39.0213C27.7687 39.1511 27.3098 38.8308 26.998 38.8568C26.4958 38.9001 26.0022 39.0645 25.5 39.1598C24.9978 39.2637 24.4263 38.926 23.9673 39.4109C23.8981 39.4801 23.6123 39.3329 23.4304 39.3156C22.8589 39.255 22.1835 39.0039 21.7246 39.2117C21.1964 39.4542 20.7201 39.4368 20.2092 39.4888C19.7763 39.5321 19.2307 39.8178 18.9537 39.6446C18.5553 39.4022 18.4947 39.8697 18.3389 39.7918C17.9838 39.61 17.3517 40.268 17.2045 39.3416C17.1352 38.9347 16.8408 39.4542 16.6503 39.5061C16.1654 39.6446 15.7238 40.0169 15.3254 39.3762C15.2389 39.2377 15.2042 39.2723 14.9444 39.636C14.8665 39.7399 14.6673 39.8264 14.5548 39.8005C14.3123 39.7399 14.0785 39.4801 13.8707 39.5061C13.0914 39.61 12.5199 39.3329 12.0609 38.7182C11.8012 38.3633 11.5587 38.4931 11.273 38.7442C10.8227 39.1425 10.7534 39.1165 10.7274 38.4845C10.7014 37.8697 10.2425 37.4802 10.0866 36.952C9.98271 36.5884 9.34194 36.1901 10.0087 35.7226C10.0693 35.6793 9.75758 35.2031 9.74026 34.9174C9.69697 34.2161 9.72296 33.5062 9.73162 32.7962C9.73162 32.3633 9.67101 32.1382 9.27269 32.5884C9.21207 32.4239 9.0735 32.1469 9.1168 32.1209C9.50647 31.8438 9.41122 31.4456 9.3939 31.0819C9.3506 29.7486 9.28999 28.4066 9.22937 27.0733C9.22937 27.0733 9.12547 27.0733 9.07352 27.0733C9.07352 25.2292 9.07351 23.3937 9.06485 21.5496C9.06485 21.4457 8.93497 21.3504 8.85704 21.2465C8.8224 21.3418 8.75312 21.4284 8.74446 21.5236C8.74446 22.9348 8.74447 24.3374 8.72715 25.7487C8.72715 25.8439 8.58859 25.9391 8.51931 26.0344C8.48468 25.9391 8.41541 25.8439 8.41541 25.7573C8.41541 24.5625 8.41541 23.3764 8.41541 22.1816C8.41541 21.8526 8.44139 21.5323 8.41541 21.2033C8.37211 20.7444 8.52797 20.2682 8.76177 20.0171C8.85702 19.9132 8.90898 19.7141 8.90032 19.5669C8.85703 18.502 8.78776 17.4457 8.74446 16.3895C8.71848 15.7921 8.75313 15.1946 8.72715 14.6059C8.72715 14.5193 8.52798 14.4328 8.41541 13.4631C8.41541 12.0951 8.42407 11.6189 8.41541 11.1341C8.41541 11.0129 8.30285 10.9003 8.23358 10.7791C8.19028 10.8657 8.10369 10.9523 8.10369 11.0388C8.09503 12.0518 8.09503 13.0735 8.10369 14.0864C8.10369 14.173 8.2076 14.2509 8.25955 14.3375C8.31151 14.2336 8.40675 14.1211 8.41541 14.0172C8.43273 13.5323 8.41541 13.0562 8.41541 13.4544C8.41541 16.0691 8.41543 17.8007 8.40677 19.5323C8.40677 19.6362 8.27686 19.7314 8.19893 19.8266C8.16429 19.7314 8.09502 19.6448 8.09502 19.5496C8.08637 19.0647 8.11234 18.5712 8.09502 18.0864C7.99112 15.9652 7.87854 13.844 7.76597 11.7228C7.76597 11.6276 7.71401 11.4717 7.65339 11.4544C7.51485 11.4198 7.30703 11.3852 7.22911 11.4631C6.78749 11.8614 6.38916 12.3116 5.9562 12.7098C5.52324 13.1081 5.01234 13.16 4.24167 13.0302C3.89531 12.9696 3.59224 12.9436 3.46235 13.5237C3.34112 14.0518 2.76096 14.0605 2.62241 13.541C2.44922 12.8916 2.34533 13.1081 2.00762 13.3851C1.43611 13.8527 1.41014 13.818 0.90791 13.1687C0.77802 12.9955 0.596181 12.8657 0.448972 12.7098C-0.183146 12.0172 -0.157168 11.7834 0.587522 11.238C0.630818 11.2033 0.665433 11.1254 0.700071 11.1254C0.985822 11.1427 1.21097 11.7055 1.54868 11.2033C1.07242 10.909 1.46209 10.7358 1.63527 10.5107C1.85176 10.225 2.0076 9.896 2.24141 9.63627C2.35397 9.50639 2.61375 9.52371 2.78694 9.43714C2.9428 9.35922 3.07271 9.22934 3.21126 9.11678C3.44505 9.06484 3.79143 9.27262 3.86069 8.85704C3.91265 8.54536 3.80873 8.16442 3.95593 7.922C4.1118 7.66226 4.33693 7.24668 4.83916 7.61032C5.11625 7.81811 6.01682 7.52373 6.1467 7.28131C6.17268 7.23802 6.17268 7.16009 6.1467 7.12546C5.70509 6.37222 6.09476 5.99994 6.75286 5.71423C6.83945 5.67959 6.82212 5.42851 6.87407 5.28998C7.02128 4.92635 7.13385 4.31164 7.35899 4.26835C8.14697 4.12117 7.6967 3.58437 7.76597 3.24671C7.85256 2.84845 8.11235 2.81381 8.32017 2.98697C8.78777 3.37658 8.96095 3.3939 9.16012 2.7359C9.25537 2.4069 9.75759 2.1818 10.0953 1.93937C10.5716 1.61037 11.0565 1.35063 11.0651 0.623362C11.0738 -0.0606132 12.0176 0.623362 12.1649 -5.23096e-06C12.338 0.233759 12.6411 0.467524 12.6584 0.709948C12.693 1.29869 12.8056 1.39392 13.2039 0.926394C13.3079 0.805186 13.4204 0.68397 13.5503 0.580073C14.0179 0.190463 14.3556 0.155833 14.7626 0.606044C15.5073 1.41989 16.3126 2.21642 16.9014 3.13416C17.7067 4.40687 18.3129 5.8008 19.0403 7.11681C19.1875 7.3852 19.2914 7.54971 19.0662 7.80079C19.0143 7.8614 19.0662 8.01723 19.0662 8.12113C19.8542 7.93066 19.7243 8.59731 19.9754 8.99557C20.3478 9.61029 21.1184 9.96527 21.3176 10.7185C21.4735 11.3246 21.7679 11.844 22.1489 12.3289C22.3567 12.5973 22.2874 13.3505 22.9369 12.7185C23.0062 12.9955 23.0494 13.2726 23.1447 13.541C23.2053 13.7055 23.3352 13.844 23.4391 13.9912C23.5603 13.8613 23.7335 13.7488 23.7768 13.5929C23.9067 13.186 24.0885 13.4025 24.1665 13.5756C24.2964 13.844 24.4609 14.1644 24.4176 14.4328C24.2964 15.134 23.3612 15.6276 22.4953 15.6449C22.1056 15.6449 21.7246 15.8873 21.3263 15.9392C20.9539 15.9912 20.5469 16.0258 20.1919 15.9392C19.4819 15.7574 18.7025 15.6102 18.5553 14.6579C18.538 14.5367 18.4081 14.3548 18.3129 14.3375C17.9578 14.2856 17.7587 14.199 18.157 13.9219C18.486 13.6968 18.8584 13.5323 19.2913 13.3419C19.3173 13.3419 19.2654 13.3419 19.2221 13.3419C19.2481 13.4284 19.2654 13.5237 19.3173 13.5929C19.3346 13.6102 19.4472 13.5583 19.5165 13.541C19.4645 13.4804 19.4126 13.4111 19.2913 13.3505C19.1788 13.2553 19.1182 13.0821 19.1095 13.0821C18.1657 13.3938 17.6807 12.251 16.7802 12.3462C16.5637 12.3722 16.5897 12.0605 16.7802 11.3592C16.8235 11.1774 16.5377 10.8917 16.3819 10.6752C16.1567 10.3722 16.0182 10.3549 15.9576 10.7964C15.9056 11.1427 15.6632 11.4631 15.6545 11.8007C15.6199 13.3765 15.7151 14.9609 15.5939 16.528C15.5506 17.0648 16.4598 17.5409 15.6545 18.0604C16.2 18.528 15.9143 19.1513 15.9576 19.7141C16.0009 20.3115 15.9662 20.9089 15.9662 21.5063L15.9662 30.6404C15.9662 31.2378 16.0095 31.8438 15.9576 32.4326C15.8883 33.3157 15.7151 34.1901 15.6545 35.0733C15.6112 35.7053 15.819 35.8265 15.871 35.7572C16.2347 35.2464 16.4252 35.8351 16.633 35.9044C17.04 36.0343 17.2738 35.3416 17.7327 35.7745C17.8799 35.9131 18.3129 35.7572 18.6073 35.7226C19.1961 35.662 19.7849 35.5321 20.3737 35.5581C20.8846 35.5841 21.3869 35.0819 21.8978 35.5408C22.4173 34.8049 23.2573 35.9564 23.7768 35.2118C24.4869 35.2118 25.1883 35.1771 25.8983 35.2204C26.4179 35.2551 26.9634 35.0126 27.457 35.4022C27.5176 35.4542 27.7514 35.2637 27.9159 35.2204C28.3056 35.0992 28.7559 34.8222 29.0762 34.9261C29.7343 35.1512 30.3232 34.8655 30.938 34.8828C31.5874 34.9001 32.2455 34.9261 32.8949 34.8828C33.4491 34.8395 33.9947 34.6144 34.5575 34.5884C35.0771 34.5624 34.8 34.0603 35.0684 33.9131C35.1983 33.8438 35.3022 33.7053 35.4148 33.6014C35.4667 33.7399 35.562 33.8958 35.5533 34.0256C35.51 34.4499 35.6832 34.6404 36.0988 34.5538C36.5491 34.4672 37.008 34.1901 37.4237 34.2594C38.255 34.3979 38.991 34.5971 39.5712 33.6966C39.753 33.4109 40.2812 33.4629 40.5323 33.8352C40.8527 34.3027 41.1991 34.7616 41.1125 35.3936C41.0952 35.5321 41.1904 35.688 41.2251 35.8265C41.2944 35.7139 41.355 35.6014 41.4329 35.4975C41.5888 35.2897 41.7533 35.0906 41.9178 34.8828C42.1862 35.2031 42.5153 35.4975 42.7145 35.8611C42.827 36.0689 42.7318 36.3893 42.7318 36.6663C42.7318 38.7356 42.7231 40.7961 42.7318 42.8654C42.7318 43.9736 42.2642 45.0212 42.3767 46.1554C42.4807 47.229 42.6279 48.3891 42.3421 49.4021C41.9438 50.848 42.1949 52.2679 42.065 53.6878C41.9871 54.4583 41.8486 55.2289 41.7446 55.9995C41.6407 56.77 41.7706 57.5232 41.4848 58.3371C41.1904 59.1596 41.4156 60.1639 41.4329 61.0816C41.4329 61.1596 41.6494 61.2375 41.7706 61.3154C42.1256 60.692 42.6279 61.6184 43.0781 61.1596C43.7103 60.5275 44.3337 61.3154 44.9832 61.3241C45.6413 61.3327 46.2128 60.6487 46.9228 61.0903C47.0873 61.1942 47.4164 61.3241 47.4597 61.2721C48.0052 60.5968 48.5075 61.1596 49.0097 61.3154C49.2521 61.3933 49.4773 61.8089 49.7284 61.3241C51.1139 61.402 52.4993 61.099 53.8761 61.4972C54.1532 61.5751 54.5083 61.3154 54.8287 61.3154C57.3831 61.2981 59.9376 61.2894 62.492 61.3154C62.9337 61.3154 63.5744 61.7223 63.765 61.5492C64.2585 61.099 64.5702 61.6617 64.8387 61.5838C65.3323 61.4366 65.618 61.3327 65.7479 61.9474C65.7479 61.9821 66.051 61.9474 66.2155 61.9474C66.2501 62.034 66.2848 62.1293 66.3194 62.2158C66.3887 62.1293 66.4666 62.034 66.5359 61.9474L66.5099 61.9994ZM14.295 16.7271C14.1565 15.4977 14.5807 13.9912 13.9833 12.5367C13.9053 12.3375 14.0525 12.0345 14.0958 11.7834L13.9833 9.97393C13.9833 9.75748 13.94 9.54102 13.9746 9.33323C14.1045 8.57999 13.7928 7.89602 13.6369 7.18607C13.6196 7.09083 13.559 7.00425 13.5243 6.90901C13.4551 7.01291 13.3252 7.1168 13.3252 7.2207C13.3079 8.74449 13.2732 10.2683 13.3252 11.7834C13.3771 13.2639 13.2213 14.7271 13.5849 16.2336C13.8707 17.4197 13.7322 18.7271 13.6196 19.9652C13.4984 21.2119 14.0439 22.3634 13.966 23.5842C13.7755 26.4846 14.243 29.3677 14.295 32.2594C14.295 32.3114 14.2777 32.3806 14.295 32.4239C14.347 32.4932 14.4162 32.5538 14.4855 32.6057C14.4855 32.6057 14.5894 32.5365 14.5894 32.4932C14.6067 32.2767 14.6154 32.0603 14.6154 31.8525C14.6154 29.8439 14.6587 27.8266 14.6067 25.8179C14.5461 23.8526 14.8232 21.8786 14.3297 19.9046C14.1045 18.9868 14.2863 17.9565 14.2863 16.7358L14.295 16.7271ZM9.77491 16.6925C9.54977 15.9219 10.0347 15.1167 9.51515 14.4154C9.48051 15.16 9.38524 15.8959 9.41988 16.6405C9.44585 17.2812 9.16011 17.9652 9.61905 18.5539C9.67101 17.9219 9.72295 17.2899 9.77491 16.6925ZM9.67967 23.3764C9.73162 24.0344 9.78357 24.7184 9.83553 25.4023C10.3378 24.753 9.97406 24.0171 10.0347 23.3244C10.0866 22.6491 9.98274 21.9478 9.9481 21.2639C9.43721 21.9132 9.90479 22.6578 9.68831 23.3677L9.67967 23.3764ZM18.9103 37.3243C18.945 37.3936 18.9883 37.4628 19.0229 37.5321C19.0576 37.4975 19.1268 37.4542 19.1268 37.4282C19.1095 37.3503 19.0576 37.281 19.0229 37.2117C18.9883 37.2464 18.9536 37.281 18.9103 37.3243ZM18.7025 12.4155C18.7025 12.4155 18.8064 12.3375 18.8064 12.3116C18.7891 12.2336 18.7372 12.1644 18.7025 12.0951C18.6679 12.1297 18.5986 12.173 18.5986 12.199C18.6159 12.2769 18.6679 12.3462 18.7025 12.4155ZM0.804006 11.8094C0.734731 11.844 0.665441 11.8873 0.596166 11.922C0.630803 11.9566 0.674092 12.0258 0.70007 12.0258C0.778005 12.0085 0.847272 11.9566 0.916547 11.922C0.881909 11.8873 0.847295 11.8527 0.804006 11.8094ZM16.3732 8.77913C16.4425 8.74449 16.5117 8.70121 16.581 8.66658C16.5464 8.63195 16.5031 8.56268 16.4771 8.56268C16.3992 8.57999 16.3299 8.63195 16.2606 8.66658C16.2953 8.70121 16.3299 8.73584 16.3732 8.77913ZM17.395 8.50208C17.395 8.50208 17.4989 8.42415 17.4989 8.39818C17.4816 8.32025 17.4296 8.25099 17.395 8.18173C17.3603 8.21636 17.2911 8.25966 17.2911 8.28563C17.3084 8.36355 17.3603 8.43282 17.395 8.50208ZM6.46709 7.03022C6.46709 7.03022 6.54502 7.13413 6.571 7.13413C6.64893 7.11681 6.71821 7.06485 6.78748 7.03022C6.75284 6.99559 6.70955 6.92633 6.68358 6.92633C6.60564 6.94365 6.53637 6.99559 6.46709 7.03022Z" fill="#4F4F4F"/>
      <path d="M8.75308 28.6144C8.75308 28.1902 8.74442 27.7573 8.75308 27.3331C8.75308 27.2465 8.85698 27.1685 8.90894 27.082C8.96089 27.1339 9.06479 27.1859 9.06479 27.2465C9.07345 28.2075 9.07345 29.1685 9.06479 30.1296C9.06479 30.1988 8.94357 30.2594 8.88296 30.32C8.83966 30.2335 8.75308 30.1469 8.75308 30.0603C8.73576 29.5841 8.75308 29.0993 8.75308 28.6144Z" fill="#4F4F4F"/>
      <path d="M66.1894 61.9994C66.2587 61.9128 66.3366 61.8176 66.4059 61.731C66.4405 61.8176 66.4751 61.9128 66.5098 61.9994L66.1807 61.9994L66.1894 61.9994Z" fill="#4F4F4F"/>
      <path d="M2.90835 8.95232C2.90835 8.95232 3.0036 8.84843 3.01225 8.84843C3.08153 8.88306 3.14215 8.94366 3.21143 8.99561L3.06421 9.14279C3.01225 9.08219 2.9603 9.01292 2.90835 8.95232Z" fill="#4F4F4F"/>
    </g>
  </svg>