<svg xmlns="http://www.w3.org/2000/svg" width="169" height="158" viewBox="0 0 169 158" fill="none">
    <path d="M91.8101 108.472C92.5438 109.039 92.7209 108.112 93.1934 107.973C93.4344 107.939 95.8735 106.965 96.0955 106.867C99.4887 105.309 102.016 102.579 104.955 100.389C105.704 99.8258 106.257 98.9938 106.899 98.2951C107.201 97.961 107.509 97.654 107.826 97.3393C107.17 97.0881 106.992 97.7964 106.557 97.9835C106.419 98.0465 106.331 98.1945 106.192 98.2575C106.063 98.3128 105.913 98.3219 105.77 98.3405C105.794 98.2115 105.771 98.0246 105.849 97.9632C107.134 96.9435 108.066 95.6371 108.992 94.3038C109.317 93.8408 109.932 93.3847 110.458 93.3136C111.117 93.2316 111.033 93.1252 110.765 92.708C110.719 92.65 110.93 92.3407 110.955 92.3523C111.199 92.4419 111.43 92.5739 111.663 92.6885C111.535 92.4279 111.353 92.1786 111.306 91.901C111.262 91.6677 111.387 91.1904 111.414 91.1847C112.499 91.2219 112.5 89.9926 113.274 89.5989C113.666 89.3982 113.03 89.3513 112.861 89.2177C112.806 89.1673 112.88 88.8247 112.977 88.748C114.534 87.6542 115.122 86.6682 115.568 84.9283C115.838 83.8793 116.677 82.9926 116.568 81.8034C117.95 79.4161 118.325 76.6933 119.026 74.1047C119.711 71.5931 119.775 68.896 119.945 66.2725C119.974 65.8719 120.002 65.5503 120.092 65.1479C120.234 64.532 120.604 63.8283 120.012 63.1805C119.849 62.9948 119.769 62.6169 119.826 62.3512C120.26 60.1797 119.432 58.1436 119.2 56.0445C119.068 54.8263 118.679 53.6224 118.696 52.4125C118.699 51.6226 118.472 50.9993 118.255 50.2894C117.631 48.233 117.189 46.1272 116.619 44.0595C116.169 42.4007 115.646 40.7685 115.141 39.1211C114.902 38.3032 114.799 37.4396 115.074 36.6546C115.253 36.166 115.066 36.2673 114.781 36.1467C114.397 35.9794 114.084 35.6448 113.736 35.3852C113.453 35.7829 113.044 36.1396 112.905 36.5802C112.093 39.1298 110.736 41.4671 109.972 44.0574C109.57 45.416 109.004 46.8259 108.155 47.94C107.658 48.6026 107.539 49.2476 107.269 49.9189C106.543 51.7232 105.883 53.5702 104.967 55.2735C104.051 56.9768 103.485 58.8434 102.334 60.4494C101.801 61.1871 101.835 62.3413 100.793 62.7744C100.6 62.8488 100.332 62.9671 100.199 62.8992C100.051 62.8119 99.9617 62.5206 99.9586 62.3182C99.9505 61.9309 100.046 61.5556 100.065 61.1627C100.078 60.9797 100.011 60.7964 99.9808 60.5997C99.7935 60.7011 99.5812 60.7908 99.4016 60.9018C99.2703 60.9744 99.16 61.0935 99.0344 61.1931C98.3719 61.6085 98.3219 61.5852 98.1427 60.625C98.1143 60.49 98.0686 60.353 97.9989 59.9674C97.9532 59.8304 97.9219 59.9497 97.8926 60.0517C97.9966 60.0637 98.0832 60.0737 98.1872 60.0857C98.1915 59.972 98.1958 59.8584 98.1751 59.733C98.1674 59.7234 98.0461 59.7094 97.9912 59.9577C97.5128 60.605 97.324 60.1091 97.1439 59.8425C96.5868 58.9616 96.6928 57.964 96.9238 57.0248C97.0727 56.4184 97.3968 55.8148 97.7803 55.3058C98.0708 54.9178 97.8429 54.0749 98.7212 54.1497C98.7732 54.1557 98.9301 53.9367 98.9014 53.8807C98.5386 53.0662 98.5473 52.3032 99.1474 51.5909C98.5297 49.9391 99.9485 48.7503 100.145 47.2714C100.266 46.3722 100.596 45.3389 101.196 44.7055C102.026 43.8265 101.575 42.7823 101.964 41.9226C102.564 40.5956 102.921 39.179 103.469 37.8461C104.16 36.1168 104.558 34.2572 105.651 32.6972C105.81 32.4609 105.825 32.1026 106.02 31.9319C106.511 31.4792 107.198 31.1545 106.591 30.3293C107.132 29.8999 107.244 29.4649 107.218 28.698C107.203 27.985 107.089 26.6898 108.364 26.3713C107.713 25.2339 108.843 25.0304 109.367 24.52C109.485 24.4107 109.728 24.4386 109.924 24.4086C109.798 24.5873 109.541 24.8386 109.583 24.9313C109.832 25.4429 110.155 25.9105 110.45 26.4011C110.537 26.3321 110.684 26.2787 110.701 26.2017C110.786 25.8514 110.845 25.4894 110.904 25.1274L111.656 25.539C111.658 25.3636 111.659 25.2057 111.662 25.0303C111.672 24.8647 111.69 24.7087 111.708 24.5527C112.876 24.7752 114.185 24.6977 115.148 25.3355C116.103 25.9637 116.917 26.6722 118.127 26.6097C118.459 27.9212 119.501 27.4091 120.345 27.5589C121.334 27.7345 122.257 28.2623 123.231 28.4975C124.163 28.719 124.906 29.6565 126.022 29.1967C126.095 29.17 126.494 29.5936 126.482 29.7766C126.43 30.2272 126.645 30.3399 126.954 30.2525C128.285 29.9053 129.147 31.0321 130.279 31.268C131.128 31.4448 131.762 32.5013 132.82 31.9296C133.768 32.7677 135.035 32.5975 136.114 32.9854C137.193 33.3732 138.234 33.8707 139.288 34.3258C139.613 34.4774 140.057 34.5814 140.203 34.844C140.58 35.5372 141.036 35.4582 141.671 35.2854C142.088 35.1754 142.772 35.184 143.013 35.4489C143.898 36.385 145.248 36.4002 146.176 37.192C145.968 38.6169 147.049 37.1609 147.024 37.5269C146.967 38.3281 147.703 38.2637 148.033 38.6003C148.409 38.9949 149.014 39.1611 149.506 39.4637C150.111 39.8496 150.868 39.9105 151.355 40.5637C151.864 41.2459 151.725 41.3879 150.957 41.352C150.887 41.344 150.737 41.8097 150.736 42.0466C150.748 42.3993 150.876 42.7389 150.836 43.5422C150.839 43.7445 150.971 43.5138 151.095 43.2735C150.934 43.3075 150.716 43.2912 150.617 43.3852C150.399 43.6059 150.234 43.8942 150.063 44.1556C150.262 44.1082 150.453 44.0512 150.836 43.5422C151.21 42.9618 151.526 42.6645 151.72 42.7308C152.101 42.8537 152.292 43.1744 151.869 43.5734C151.407 44.0031 152.439 44.9475 151.323 45.1876C150.972 45.2613 150.617 45.5277 150.297 45.4821C149.194 45.3023 148.028 45.2031 147.017 44.7616C143.83 43.3845 140.588 42.1767 137.348 40.9516C135.321 40.1822 133.41 39.0839 131.244 38.6762C130.445 38.5227 130.043 37.4402 129.049 37.7559C127.753 36.7372 126.035 36.6358 124.712 35.8424C123.571 35.1576 122.292 34.8961 121.195 34.2076C121.014 34.099 120.77 34.0884 120.579 33.9874C120.124 33.7505 119.988 32.4879 119.326 33.281C118.97 33.7053 119.096 34.9755 119.483 35.5031C120.792 37.2521 121.549 39.2185 122.123 41.2516C122.541 42.7311 123.324 44.0155 123.771 45.472C124.203 46.9092 124.723 48.339 125.348 49.7018C126.07 51.2866 126.248 53.0194 126.815 54.6479C127.349 56.1934 127.589 57.8455 128.02 59.4407C128.204 60.1292 128.161 60.8882 128.235 61.6168C128.376 62.9853 128.91 64.2938 128.93 65.6484C128.952 66.9856 129.176 68.3198 129.107 69.6027C128.929 72.8311 129.168 76.0902 128.142 79.2824C127.598 80.9583 127.418 82.7552 126.827 84.4521C125.999 86.8417 125.398 89.3189 123.785 91.3547C123.058 94.3092 121.151 96.6096 119.51 99.0459C118.367 100.741 117.273 102.459 115.646 103.781C114.902 104.372 114.178 105.088 113.742 105.907C112.938 107.394 111.509 108.134 110.32 109.156C109.151 110.163 107.918 111.11 106.677 112.047C105.899 112.633 105.051 113.133 104.241 113.681C103.49 114.182 102.793 114.971 101.978 115.114C100.993 115.282 100.416 116.322 99.344 116.102C96.5205 117.822 93.377 118.584 90.1899 119.191C88.6282 119.485 87.0361 119.662 85.4519 119.769C84.4344 119.836 83.8356 120.233 83.2619 121.097C82.38 122.427 81.2598 123.615 80.2493 124.842C78.2089 127.312 75.5973 129.021 73.1161 130.896C71.346 132.237 69.1905 133.113 67.076 133.861C65.0617 134.577 62.9998 135.174 60.8578 135.551C59.1458 135.854 57.415 136.014 55.6939 136.167C54.1308 136.321 52.5286 136.127 50.9551 135.99C44.8653 135.42 39.0825 133.708 33.6566 130.879C31.0475 129.516 28.5257 128.005 26.2115 126.14C25.182 125.319 24.5858 124.091 23.5324 123.478C22.283 122.737 21.4298 121.681 20.7599 120.559C19.137 117.799 17.4041 115.079 16.4433 111.983C16.1124 110.891 15.7738 109.79 15.5239 108.681C15.4461 108.364 15.6123 107.76 15.8149 107.678C16.1641 107.543 16.8037 107.555 17.0321 107.783C17.6615 108.418 18.3356 108.97 18.9884 109.554C19.6584 110.141 20.194 111.133 20.3292 112.018C20.4551 112.832 20.7512 113.463 21.161 114.098C21.6072 114.8 22.0823 115.478 22.5478 116.164C22.8639 116.622 23.5096 117.039 22.7385 117.635C22.8075 117.722 22.8629 117.851 22.9379 117.886C24.1112 118.372 24.3539 118.4 24.917 119.229C25.2485 119.706 25.8264 119.72 26.1132 120.28C26.3063 120.663 26.9819 120.819 27.4453 121.066C28.522 121.629 29.5534 122.433 30.693 122.678C31.4476 122.836 30.2552 124.27 31.5715 123.667C31.9054 123.512 32.5168 123.846 32.9398 124.061C33.8262 124.524 34.9337 124.59 35.5733 125.594C35.6613 125.745 36.4464 126.476 37.1078 125.841C37.2548 125.709 37.7148 125.832 38.0014 125.936C39.0231 126.29 39.7303 127.241 41.099 127.021C42.1285 126.85 43.2862 127.396 44.3718 127.653C45.2168 127.865 44.4646 128.068 44.3674 128.302C44.342 128.37 44.5914 128.644 44.6551 128.625C46.7227 128.056 46.8363 128.06 48.5919 128.447C49.0366 128.551 49.5639 128.699 49.9574 128.56C50.8199 128.238 51.4739 128.507 52.2626 128.826C52.8763 129.064 53.7593 129.402 54.4096 128.634C54.525 128.7 54.648 128.776 54.7633 128.842C54.7639 128.684 54.7666 128.509 54.7672 128.351C55.0934 128.186 55.3172 127.615 55.7833 128.143C55.7174 128.258 55.6418 128.381 55.5758 128.497C55.7338 128.497 55.9091 128.5 56.0671 128.501C56.81 128.683 57.4963 128.595 58.1014 128.068C58.5598 128.586 58.801 128.017 59.1176 127.86C59.576 128.378 59.8171 127.809 60.1337 127.652C60.8675 128.22 61.0445 127.292 61.5171 127.153C62.7291 127.609 63.4664 126.772 64.2762 126.145C64.3222 126.203 64.4045 126.327 64.4142 126.319C65.4566 125.807 66.522 125.324 67.5301 124.729C68.4241 124.208 69.0291 123.224 70.2276 123.187C70.4126 123.182 70.5698 122.884 70.7745 122.784C71.3613 122.492 71.0776 121.142 72.2513 121.55C72.2474 120.592 73.1959 120.438 73.6567 119.867C73.9955 119.441 73.7441 119.184 73.3015 119.063C70.9302 118.456 68.5763 117.851 66.2128 117.253C65.9318 117.177 65.6391 117.126 65.3621 117.015C63.2905 116.17 61.2285 115.318 59.1761 114.458C58.1798 114.036 57.2028 113.598 56.2298 113.126C55.2644 112.664 54.3011 112.184 53.3804 111.639C50.4125 109.883 47.4271 108.204 44.6998 106.037C42.6889 104.435 40.794 102.742 38.8761 101.019C36.4494 98.8339 34.6235 96.2351 32.6934 93.7032C31.4264 92.0468 30.5653 90.0684 29.7272 88.119C28.6543 85.6157 27.9803 83.0793 27.9506 80.3626C27.9463 79.484 27.8921 78.5821 28.0091 77.7174C28.1362 76.7662 28.1849 75.6566 28.7156 74.9362C29.256 74.2082 29.6981 73.4952 29.9345 72.6619C30.1533 71.9056 31.3873 72.6274 31.3257 71.6368C31.2825 70.8679 31.8327 70.5888 32.2986 70.2035C32.8397 69.7741 33.3522 69.2887 33.9393 68.9174C34.5535 68.5403 35.2423 68.2772 35.8872 67.9388C36.5243 67.5908 36.9034 66.7388 37.8524 66.9623C37.9467 66.982 38.0806 66.734 38.2156 66.7056C38.8731 66.5619 38.2712 65.3071 39.2915 65.5212C39.0968 66.5262 39.6169 66.0505 40.0835 65.9638C40.872 65.8263 41.6353 65.7562 42.3444 65.2408C42.7849 64.9228 43.4194 64.7501 43.9724 64.7523C45.8468 64.7927 47.7286 64.9218 49.6008 65.0585C50.9414 65.1603 52.2406 65.4681 53.5416 65.8376C55.3199 66.3323 57.198 66.4171 58.9253 67.1254C59.5293 67.3707 60.1586 67.5486 60.7297 67.8515C62.387 68.7098 64.1047 69.4259 65.7738 70.2592C66.3141 70.5235 67.2993 70.356 67.1813 71.4576C67.1713 71.5443 67.5116 71.7152 67.7059 71.7815C69.5492 72.3979 71.5531 73.8318 72.8745 74.8622C74.5437 76.1522 75.9187 77.7859 77.7291 78.9166C78.0982 79.1435 78.3449 79.5934 78.6286 79.951C80.0703 81.768 81.512 83.585 82.9613 85.4117C83.5595 86.1655 84.2253 86.8657 84.3772 87.9106C84.5028 88.8032 85.0626 89.5087 85.5741 90.2526C86.0185 90.8922 86.2697 91.6851 86.4999 92.4316C87.6144 96.0989 88.2528 99.8605 88.4805 103.68C88.5692 105.122 88.18 106.596 88.0201 108.062C87.9163 108.963 88.218 109.164 89.1385 108.796C89.81 108.531 90.4548 108.193 91.1263 107.928C91.2093 107.893 91.3667 108.052 91.4994 108.12C91.1998 108.358 90.9002 108.595 90.6006 108.833C90.5523 108.871 90.5441 109.02 90.5671 109.049C90.6554 109.12 90.8284 109.219 90.8767 109.181C91.1916 108.963 91.4835 108.715 91.7831 108.478L91.8101 108.472ZM106.426 32.2245C106.404 32.3361 106.373 32.4555 106.351 32.5671L106.646 32.6011C106.65 32.4874 106.647 32.3641 106.633 32.2484C106.626 32.2388 106.505 32.2248 106.604 32.8861L106.474 32.7218C106.4 32.8274 106.309 32.9311 106.278 33.0504C106.274 33.0851 106.431 33.1647 106.512 33.2267C106.534 33.115 106.565 32.9957 106.408 32.2225L106.426 32.2245ZM76.1383 125.694C76.1167 125.806 76.0854 125.925 76.0638 126.037C76.1678 126.049 76.2544 126.059 76.3584 126.071C76.3627 125.957 76.3593 125.834 76.3463 125.718C76.3386 125.709 76.2173 125.695 76.1941 126.201C76.0685 126.301 75.9526 126.393 74.9525 126.919C75.1531 126.854 75.3554 126.851 75.481 126.751C75.597 126.659 75.7099 126.365 75.6772 126.344C75.4929 126.191 75.2679 126.086 75.0622 125.965C75.0283 126.26 74.9964 126.537 75.8269 126.493C75.9423 126.559 76.0653 126.634 76.1806 126.7C76.1812 126.542 76.1839 126.367 76.1287 125.702L76.1383 125.694ZM61.5851 130.91C61.6968 130.932 61.8161 130.963 61.9278 130.985L61.9617 130.69C61.848 130.686 61.7247 130.689 61.6091 130.702C61.5994 130.71 61.5854 130.831 62.2467 130.732L62.0824 130.862C62.1881 130.936 62.2917 131.027 62.4111 131.058C62.4457 131.062 62.5253 130.904 62.5873 130.824C62.4756 130.802 62.3563 130.771 61.5831 130.928L61.5851 130.91ZM106.653 109.814C108.722 107.936 110.715 106.26 112.543 104.416C113.209 103.746 113.678 102.87 114.49 102.305C114.538 102.266 114.445 101.852 114.309 101.739C114.205 101.648 113.758 101.72 113.752 101.772C113.517 103.281 111.838 103.527 111.161 104.757C110.54 105.88 109.125 106.577 108.058 107.455C107.341 108.04 106.637 108.662 105.866 109.179C105.076 109.711 104.173 110.081 103.375 110.604C101.893 111.575 100.341 112.397 98.7239 113.097C96.6724 113.985 94.6896 115.038 92.5293 115.65C91.6305 115.906 90.766 116.246 89.8786 116.556C89.7416 116.602 89.637 116.748 89.5113 116.848C89.6343 116.923 89.7917 117.082 89.8844 117.04C91.53 116.474 93.4032 116.831 94.9268 115.953C96.5817 115.002 98.3737 114.462 100.12 113.785C100.45 113.665 100.876 113.705 101.159 113.527C103.058 112.288 104.926 111.011 89.0218 116.905C89.1334 116.927 89.2527 116.958 89.3644 116.98C89.3764 116.876 89.3863 116.789 89.3983 116.685C89.2847 116.681 89.1613 116.684 89.0457 116.697C89.036 116.705 89.0221 116.826 106.667 109.85L106.653 109.814ZM39.4165 94.4165C40.9277 95.7059 42.3672 97.0836 43.981 98.2443C44.6304 98.7055 45.1752 99.3127 45.8692 99.6912C46.5536 100.077 47.2473 100.535 47.9223 100.85C49.2973 101.491 50.2416 102.9 51.8768 103.035C54.5369 104.642 57.4925 105.588 60.3042 106.869C61.8812 107.587 63.6039 108.031 65.2741 108.549C67.7237 109.314 70.3384 109.255 72.784 110.055C73.394 110.248 74.1172 110.068 74.7895 110.102C75.7757 110.154 76.7773 110.226 77.7479 110.337C78.0425 110.371 77.5148 111.294 78.1347 110.944C79.1677 110.361 80.1707 109.58 80.38 108.296C80.7078 106.288 81.5764 104.386 81.4422 102.272C81.3605 100.998 81.5082 99.7154 81.5228 98.4438C81.5624 95.735 80.6341 93.1957 79.9275 90.638C79.7527 90.0208 79.4262 89.2719 79.022 88.6633C78.5949 88.0257 78.0558 87.4455 77.5997 86.831C77.0975 86.1584 76.3968 85.5332 76.2206 84.7753C76.0558 84.0714 74.7759 84.2049 75.2479 83.2319C73.6106 82.6568 72.719 81.0964 71.2426 80.2677C69.8642 79.5029 68.4335 78.8112 67.1267 77.9581C62.8991 75.1702 58.1376 73.8927 53.3042 72.7824C50.8577 72.2194 48.3257 72.3228 45.891 72.6481C43.0111 73.0274 40.1813 73.8868 37.9058 75.8813C37.3683 76.355 37.0399 77.0723 36.5024 77.546C34.832 79.0131 34.2577 81.028 34.0783 83.0445C33.9473 84.4871 34.3997 86.0496 34.8584 87.4811C35.1877 88.5113 35.9085 89.4198 36.4847 90.3643C36.8982 91.0442 37.7229 91.508 37.6035 92.4689C38.7574 92.5141 38.847 93.7187 39.4165 94.4165ZM54.3191 133.998C54.3069 134.181 54.2886 134.416 54.3059 134.418C54.8336 134.488 55.3879 134.63 55.9044 134.567C59.5129 134.114 63.307 133.497 66.8106 132.276C67.972 131.875 68.9727 131.191 70.1935 130.884C71.3679 130.598 71.9311 128.985 73.3935 128.943C73.4282 128.947 73.4878 128.506 73.452 128.283C73.435 128.202 73.1177 128.06 73.0867 128.1C71.1261 129.876 68.5422 130.43 66.2397 131.438C62.6809 132.986 58.8496 133.774 54.9324 133.858C54.73 133.861 54.5178 133.951 54.3268 134.008L54.3191 133.998ZM37.7534 73.0098C37.4442 73.2552 37.3109 73.3452 37.2026 73.4469C36.9723 73.6925 36.4498 73.8079 36.8042 74.3142C37.1606 74.8031 37.4491 74.4324 37.7294 74.2101C39.6351 72.6823 41.7832 71.718 44.2122 71.3657C44.3818 71.3414 44.5081 71.0837 44.657 70.9341C44.4897 70.8621 44.315 70.7015 44.155 70.7182C41.742 70.9318 39.5595 71.813 37.7554 72.9925L37.7534 73.0098ZM36.1343 68.3098C35.933 68.5324 35.7667 68.6801 35.6408 68.8588C35.6215 68.8741 35.8055 69.1061 35.8248 69.0907C36.6626 68.678 37.4831 68.2633 38.2999 67.8042C38.3848 67.7525 38.3914 67.5425 38.4421 67.4079C38.2994 67.4266 38.1434 67.4086 38.0238 67.4562C37.3676 67.7406 36.7268 68.0444 36.1439 68.3021L36.1343 68.3098ZM92.8802 109.245C92.6746 109.581 92.566 109.762 92.4498 109.933C92.6754 109.88 92.938 109.735 93.1323 109.801C93.8636 110.008 94.2318 109.48 94.6936 109.129C94.7902 109.052 94.8352 108.891 94.9012 108.776C94.7335 108.783 94.5525 108.753 94.3982 108.797C93.8543 108.945 93.3258 109.112 92.8802 109.245ZM99.0303 106.239C98.7614 106.516 98.4112 106.888 98.0514 107.268C98.7537 107.498 99.0165 106.817 99.4433 106.542C99.8625 106.256 100.192 105.838 100.567 105.477C99.8646 105.247 99.6478 105.986 99.0206 106.247L99.0303 106.239ZM96.1315 108.004C96.0598 108.092 95.8179 108.363 95.5837 108.643C96.1487 108.998 96.2862 108.338 96.6298 108.176C96.8981 108.057 97.1186 107.819 97.3449 107.608C97.3932 107.57 97.3938 107.412 97.3688 107.4C97.2708 107.336 97.1055 107.247 97.0398 107.283C96.7849 107.438 96.5586 107.649 96.1238 107.994L96.1315 108.004ZM73.4281 125.057C73.1162 125.021 72.8215 124.987 72.5269 124.953C72.5916 125.154 72.6134 125.499 72.7077 125.519C72.9407 125.554 73.2049 125.47 73.4422 125.392C73.4616 125.377 73.4238 125.171 73.4281 125.057ZM36.2407 71.1232C36.1821 71.3272 36.1215 71.5485 36.0609 71.7698C36.2558 71.6781 36.4968 71.6445 36.6361 71.5024C36.7947 71.3451 36.8593 71.0891 36.9622 70.8814C36.7616 70.9461 36.561 71.0108 36.258 71.1252L36.2407 71.1232ZM97.4177 110.637C97.3904 110.722 97.2971 110.922 97.3221 110.934C97.5451 111.056 97.7815 111.215 98.0165 111.233C98.1031 111.243 98.2124 110.905 98.321 110.724C98.0263 110.69 97.7297 110.673 97.4177 110.637ZM108.576 95.6257C108.388 95.964 108.322 96.0794 108.264 96.2044C108.431 96.1974 108.62 96.2367 108.767 96.1833C108.869 96.1336 108.906 95.9623 108.974 95.8296C108.817 95.75 108.661 95.653 108.586 95.618L108.576 95.6257ZM110.089 36.405C110.221 36.6309 110.305 36.8162 110.445 36.9729C110.483 37.0212 110.667 36.9545 110.784 36.9242C110.7 36.7389 110.628 36.5285 110.525 36.3586C110.494 36.3199 110.303 36.3769 110.099 36.3973L110.089 36.405ZM108.166 27.253C108.298 27.4789 108.382 27.6642 108.522 27.8209C108.56 27.8692 108.743 27.8025 108.861 27.7722C108.777 27.5869 108.705 27.3765 108.601 27.2066C108.571 27.1679 108.38 27.2249 108.175 27.2453L108.166 27.253ZM64.1955 127.532C64.3899 127.598 64.5532 127.705 64.6015 127.666C64.7581 127.526 64.8667 127.346 64.983 127.175C64.8734 127.136 64.7197 127.021 64.6637 127.05C64.5091 127.173 64.3755 127.342 64.1879 127.522L64.1955 127.532ZM50.1498 134.519C50.3441 134.585 50.5074 134.691 50.5558 134.653C50.7124 134.513 50.821 134.332 50.9372 134.161C50.8276 134.122 50.6739 134.008 50.6179 134.037C50.4633 134.159 50.3297 134.328 50.1421 134.509L50.1498 134.519ZM101.991 108.741C102.063 108.574 102.145 108.399 102.228 108.206C102.086 108.225 101.89 108.176 101.82 108.247C101.681 108.389 101.605 108.591 101.504 108.781C101.646 108.763 101.787 108.761 101.991 108.741ZM44.8655 65.4611C44.6773 65.7995 44.6113 65.9148 44.553 66.0398C44.7206 66.0328 44.9093 66.0721 45.0559 66.0187C45.1582 65.9691 45.1955 65.7977 45.2635 65.6651C45.1058 65.5854 44.9501 65.4885 44.8751 65.4535L44.8655 65.4611ZM66.2897 126.579C66.5113 126.561 66.7 126.6 66.7793 126.521C66.9186 126.379 66.9945 126.177 67.0954 125.987C66.9528 126.006 66.7738 125.959 66.6772 126.035C66.5226 126.158 66.4293 126.358 66.282 126.569L66.2897 126.579ZM68.39 128.472C68.6116 128.453 68.8003 128.493 68.8796 128.414C69.0189 128.272 69.0948 128.07 69.1957 127.88C69.0531 127.898 68.8741 127.852 68.7775 127.928C68.6228 128.051 68.5296 128.251 68.3823 128.462L68.39 128.472ZM41.9245 66.6765C41.8582 66.8708 41.8152 67.0151 41.7743 67.1421C41.9749 67.0774 42.1965 67.059 42.3665 66.9557C42.4535 66.8867 42.4657 66.7037 42.499 66.567C42.2927 66.6047 42.0941 66.6521 41.9245 66.6765ZM91.6755 109.87C91.4495 110.002 91.2643 110.086 91.1077 110.226C91.0593 110.265 91.126 110.448 91.1564 110.566C91.3417 110.482 91.552 110.409 91.7219 110.306C91.7606 110.275 91.7035 110.084 91.6832 109.88L91.6755 109.87ZM56.447 129.396C56.447 129.396 56.4 129.575 56.423 129.604C56.5113 129.676 56.6307 129.707 56.7307 129.754C56.7387 129.684 56.7776 129.575 56.7546 129.546C56.6663 129.474 56.547 129.443 56.447 129.396ZM58.7142 128.999C58.6276 128.989 58.5583 128.981 58.4889 128.973C58.5116 129.081 58.515 129.204 58.5647 129.306C58.5877 129.335 58.7033 129.322 58.7727 129.33C58.7596 129.215 58.7369 129.107 58.7142 128.999ZM61.9933 128.051C61.9466 128.151 61.9077 128.26 61.861 128.36C61.9304 128.368 62.04 128.407 62.069 128.384C62.1407 128.296 62.172 128.177 62.2186 128.077C62.1493 128.069 62.0799 128.061 61.9933 128.051ZM63.2544 127.775C63.3544 127.821 63.464 127.86 63.564 127.907C63.572 127.838 63.611 127.728 63.588 127.699C63.4997 127.627 63.3803 127.596 63.2803 127.549L63.2544 127.775ZM67.6858 128.716C67.7324 128.616 67.7714 128.506 67.818 128.406C67.7487 128.398 67.639 128.359 67.6101 128.382C67.5384 128.47 67.5071 128.59 67.4605 128.69L67.6858 128.716ZM33.7992 73.1864C33.7992 73.1864 33.7523 73.3654 33.7753 73.3943C33.8636 73.466 33.9829 73.4973 34.0829 73.544C34.0909 73.4746 34.1299 73.365 34.1069 73.336C34.0186 73.2643 33.8992 73.233 33.7992 73.1864ZM74.3827 123.859C74.4693 123.869 74.5387 123.877 74.608 123.885C74.5853 123.777 74.5819 123.653 74.5323 123.551C74.5092 123.522 74.3936 123.535 74.3243 123.527C74.3373 123.643 74.36 123.751 74.3827 123.859ZM34.524 72.6113C34.524 72.6113 34.477 72.7903 34.5 72.8193C34.5884 72.8909 34.7077 72.9223 34.8077 72.9689C34.8157 72.8996 34.8547 72.7899 34.8316 72.7609C34.7433 72.6893 34.624 72.658 34.524 72.6113ZM35.3072 72.3679C35.3938 72.3779 35.4631 72.3859 35.5325 72.3939C35.5098 72.2859 35.5064 72.1625 35.4567 72.0602C35.4337 72.0312 35.3181 72.0443 35.2487 72.0363C35.2618 72.1519 35.2845 72.2599 35.3072 72.3679ZM73.6551 117.821C73.6551 117.821 73.8341 117.868 73.8631 117.845C73.9347 117.757 73.966 117.638 74.0126 117.538C73.9433 117.53 73.8336 117.491 73.8047 117.514C73.733 117.602 73.7017 117.721 73.6551 117.821ZM38.0716 70.4737C38.0617 70.5603 38.0537 70.6297 38.0457 70.699C38.1537 70.6763 38.277 70.6729 38.3793 70.6233C38.4083 70.6003 38.3953 70.4846 38.4033 70.4153C38.2876 70.4283 38.1796 70.451 38.0716 70.4737ZM39.0976 67.2814C39.0877 67.3681 39.0797 67.4374 39.0717 67.5068C39.1797 67.4841 39.303 67.4807 39.4053 67.4311C39.4343 67.4081 39.4213 67.2924 39.4292 67.2231C39.3136 67.2361 39.2056 67.2588 39.0976 67.2814ZM43.8457 67.0735C43.7991 67.1735 43.7601 67.2831 43.7135 67.3832C43.7828 67.3911 43.8925 67.4301 43.9215 67.4071C43.9931 67.3188 44.0244 67.1994 44.071 67.0994C44.0017 67.0915 43.9324 67.0835 43.8457 67.0735ZM88.6435 111.189C88.7435 111.236 88.8532 111.275 88.9532 111.321C88.9612 111.252 89.0001 111.142 88.9771 111.113C88.8888 111.042 88.7695 111.01 88.6695 110.964C88.6615 111.033 88.6535 111.103 88.6435 111.189ZM110.029 94.2213C109.942 94.2113 109.873 94.2033 109.803 94.1953C109.826 94.3033 109.829 94.4266 109.879 94.529C109.902 94.5579 110.018 94.5449 110.087 94.5529C110.074 94.4373 110.051 94.3293 110.029 94.2213ZM116.331 98.5918C116.284 98.6918 116.245 98.8014 116.199 98.9014C116.268 98.9094 116.378 98.9484 116.407 98.9254C116.478 98.837 116.51 98.7177 116.556 98.6177C116.487 98.6097 116.418 98.6017 116.331 98.5918ZM115.03 94.7099L115.056 94.4846C114.948 94.5073 114.825 94.5106 114.723 94.5603C114.694 94.5833 114.707 94.699 114.699 94.7683C114.814 94.7553 114.922 94.7326 115.03 94.7099ZM100.962 55.128C100.875 55.118 100.806 55.11 100.737 55.1021C100.759 55.21 100.763 55.3334 100.812 55.4357C100.835 55.4647 100.951 55.4517 101.02 55.4597C101.007 55.344 100.985 55.236 100.962 55.128ZM109.171 37.2124C109.124 37.3124 109.085 37.422 109.038 37.522C109.108 37.53 109.217 37.569 109.246 37.546C109.318 37.4576 109.349 37.3383 109.396 37.2383C109.327 37.2303 109.257 37.2223 109.171 37.2124ZM113.989 34.7909C113.989 34.7909 114.168 34.8379 114.197 34.8149C114.269 34.7265 114.3 34.6072 114.347 34.5072C114.277 34.4992 114.168 34.4602 114.139 34.4832C114.067 34.5716 114.036 34.6909 113.989 34.7909ZM117.349 37.2592C117.339 37.3459 117.331 37.4152 117.323 37.4846C117.431 37.4619 117.554 37.4585 117.657 37.4088C117.686 37.3858 117.673 37.2702 117.681 37.2009C117.565 37.2139 117.457 37.2366 117.349 37.2592ZM118.131 36.2606C118.131 36.2606 118.31 36.3075 118.339 36.2845C118.411 36.1962 118.442 36.0768 118.489 35.9769C118.42 35.9689 118.31 35.9299 118.281 35.9529C118.209 36.0412 118.178 36.1606 118.131 36.2606ZM134.749 38.5094C134.749 38.5094 134.928 38.5564 134.957 38.5334C135.029 38.4451 135.06 38.3257 135.107 38.2257C135.038 38.2178 134.928 38.1788 134.899 38.2018C134.827 38.2901 134.796 38.4094 134.749 38.5094ZM149.86 42.3321C149.85 42.4187 149.842 42.4881 149.834 42.5574C149.942 42.5347 150.066 42.5314 150.168 42.4817C150.197 42.4587 150.184 42.343 150.192 42.2737C150.076 42.2867 149.968 42.3094 149.86 42.3321ZM88.0105 116.841C88.0105 116.841 87.9636 117.02 87.9866 117.049C88.0749 117.121 88.1942 117.152 88.2942 117.199C88.3022 117.13 88.3412 117.02 88.3182 116.991C88.2298 116.919 88.1105 116.888 88.0105 116.841Z" fill="#F2F2F2"/>
    <path d="M99.0129 103.875C99.7634 103.611 100.006 102.646 100.897 102.837C100.406 103.29 99.9667 103.827 99.4162 104.185C98.8464 104.559 98.5367 105.419 97.6531 105.238C98.1289 104.766 98.597 104.284 99.0129 103.875Z" fill="#F2F2F2"/>
    <path d="M103.268 101.239C102.758 101.55 102.248 101.86 101.748 102.162C101.737 101.335 102.549 101.227 102.982 100.82C103.524 100.312 104.205 99.9601 104.816 99.5388C104.675 100.453 103.696 100.569 103.26 101.23L103.268 101.239Z" fill="#F2F2F2"/>
    <path d="M95.7058 105.979C96.1793 105.604 96.4209 105.412 96.6528 105.228C96.7011 105.19 96.8551 105.225 96.8608 105.252C96.9008 105.362 96.9502 105.543 96.8999 105.599C96.691 105.812 96.4494 106.003 96.1848 106.166C95.8815 106.36 95.563 106.534 95.2444 106.708C95.4403 106.379 95.6362 106.05 95.6905 105.96L95.7058 105.979Z" fill="#F2F2F2"/>
    <path d="M93.8991 107.413C93.7251 107.551 93.5665 107.708 93.3772 107.827C93.3096 107.881 93.1769 107.813 93.0729 107.801C93.1062 107.664 93.1165 107.499 93.1978 107.403C93.3487 107.236 93.5227 107.098 93.7196 106.988C93.9552 106.849 94.2215 106.748 94.4724 106.627C94.3425 106.841 94.2202 107.064 94.0903 107.277C94.0573 107.335 93.9744 107.369 93.9164 107.415L93.8991 107.413Z" fill="#F2F2F2"/>
    <path d="M67.4391 124.376C67.1285 124.48 66.9279 124.545 66.735 124.619C66.8379 124.412 66.9025 124.156 67.0611 123.998C67.2004 123.856 67.4337 123.813 67.6363 123.731C67.5757 123.952 67.5151 124.174 67.4565 124.378L67.4391 124.376Z" fill="#F2F2F2"/>
    <path d="M60.221 126.968C60.4176 126.938 60.5526 126.91 60.6876 126.882C60.5673 127.087 60.4624 127.312 60.3171 127.506C60.2862 127.547 60.1265 127.484 60.0225 127.472C60.0964 127.288 60.1607 127.111 60.223 126.951L60.221 126.968Z" fill="#F2F2F2"/>
    <path d="M33.7357 67.7874C34.1079 67.681 34.2352 67.643 34.3702 67.6147C34.3253 67.7763 34.3207 67.969 34.2354 68.0996C34.1637 68.188 33.9884 68.1853 33.8438 68.2214C33.8021 68.0497 33.743 67.8761 33.726 67.7951L33.7357 67.7874Z" fill="#F2F2F2"/>
    <path d="M64.3636 125.461C64.5602 125.431 64.6952 125.403 64.8302 125.375C64.7099 125.58 64.605 125.805 64.4597 125.999C64.4287 126.04 64.2691 125.977 64.1651 125.965C64.239 125.781 64.3033 125.604 64.3656 125.444L64.3636 125.461Z" fill="#F2F2F2"/>
    <path d="M91.5263 108.114C91.6423 108.022 91.7546 107.886 91.8839 107.831C92.0382 107.787 92.2192 107.817 92.3848 107.827C92.3092 107.95 92.2586 108.085 92.1676 108.188C92.067 108.3 91.926 108.38 91.8101 108.472L91.5187 108.105L91.5263 108.114Z" fill="#F2F2F2"/>
    <path d="M54.4174 128.644C54.418 128.486 54.4206 128.311 54.4212 128.153C54.5366 128.219 54.6596 128.294 54.7749 128.36L54.4077 128.652L54.4174 128.644Z" fill="#F2F2F2"/>
    <path d="M55.8007 128.145C55.9587 128.145 56.134 128.148 56.292 128.149C56.2261 128.264 56.1504 128.387 56.0845 128.502L55.7931 128.135L55.8007 128.145Z" fill="#F2F2F2"/>
    <path d="M58.0687 127.589C58.0687 127.589 58.269 127.604 58.2767 127.613C58.2994 127.721 58.2854 127.843 58.2888 127.966C58.1848 127.954 58.0981 127.944 57.9941 127.932C58.0158 127.82 58.0471 127.701 58.0687 127.589Z" fill="#F2F2F2"/>
    <path d="M59.0868 127.364C59.0868 127.364 59.2871 127.379 59.2948 127.388C59.3174 127.496 59.3035 127.618 59.3069 127.741C59.2029 127.729 59.1162 127.719 59.0122 127.707C59.0338 127.595 59.0651 127.476 59.0868 127.364Z" fill="#F2F2F2"/>
    <path d="M61.4862 126.658C61.4862 126.658 61.6865 126.672 61.6942 126.682C61.7169 126.79 61.7029 126.911 61.7063 127.034L61.4116 127C61.4333 126.889 61.4646 126.769 61.4862 126.658Z" fill="#F2F2F2"/>
    <path d="M62.7722 126.472C62.8189 126.372 62.8502 126.253 62.9218 126.164C62.9508 126.141 63.0605 126.18 63.1298 126.188C63.0832 126.288 63.0519 126.408 62.9802 126.496C62.9512 126.519 62.8416 126.48 62.7722 126.472Z" fill="#F2F2F2"/>
  </svg>