<svg xmlns="http://www.w3.org/2000/svg" width="164" height="123" viewBox="0 0 164 123" fill="none">
  <path d="M118.803 105.444C118.898 105.193 118.858 104.796 119.329 104.871C121.162 105.167 122.964 105.546 124.845 104.991C125.641 104.756 126.574 105.056 127.418 104.923C129.257 104.646 131.091 104.355 132.867 103.745C133.566 103.505 134.301 103.327 134.987 103.047C135.559 102.819 136.18 102.904 136.771 102.574C137.143 102.366 138.154 101.886 138.524 102.94C138.643 102.88 138.798 102.837 138.883 102.736C138.941 102.666 138.947 102.481 138.895 102.41C138.586 101.974 139.729 101.994 139.168 101.508C139.487 101.449 139.823 101.311 140.128 101.345C140.599 101.398 140.563 101.014 140.729 100.799C140.835 100.809 140.949 100.824 141.055 100.833C141.003 100.718 140.947 100.59 140.895 100.474C140.826 99.397 142.074 99.9697 142.345 99.3104C142.45 99.3864 142.564 99.467 142.669 99.543C143.042 99.8335 143.727 100.14 143.707 100.396C143.672 100.877 143.863 101.13 144.112 101.424C144.195 101.522 144.314 101.593 144.427 101.674C144.478 101.511 144.625 101.31 144.569 101.203C144.421 100.928 143.884 100.786 144.308 100.349C144.451 100.2 144.7 99.9512 144.801 99.9919C145.052 100.087 145.239 100.327 145.454 100.515C144.511 100.775 145.13 101.147 145.448 101.543C145.475 101.556 145.422 101.529 145.378 101.507C145.359 101.608 145.327 101.714 145.344 101.811C145.353 101.837 145.494 101.843 145.573 101.862C145.552 101.773 145.535 101.676 145.444 101.551C146.125 101.346 146.134 101.351 146.019 101.879C145.954 102.179 145.268 102.803 146.353 102.461C146.419 102.439 146.699 102.76 146.71 102.932C146.803 104.31 145.708 105.689 144.223 106.447C141.672 107.746 139.002 108.695 136.275 109.56C133.588 110.412 130.827 110.738 128.048 110.989C125.703 111.195 123.356 111.102 120.992 110.933C119.214 110.81 117.437 110.664 115.706 110.321C114.231 110.02 112.761 109.599 111.299 109.183C108.896 108.507 106.888 107.124 104.674 106.122C103.035 105.383 101.732 104.139 100.285 103.11C97.6551 101.253 94.4077 97.0506 93.1369 94.7479C92.3562 93.3282 91.8861 91.7349 91.305 90.2068C90.6248 88.4394 90.0068 86.6153 89.8572 84.7428C89.6728 82.3536 89.21 80.0102 89.0344 77.6255C88.894 75.7134 88.6166 73.8087 88.4366 71.8873C88.3324 70.7919 88.5018 69.7036 88.2697 68.5981C87.8054 66.4091 87.7168 64.1577 87.2261 61.9553C86.7311 59.7396 86.0502 57.5838 85.3116 55.454C84.3796 52.7928 83.071 50.2823 81.2873 48.0717C80.0182 46.5015 78.5841 45.1019 76.9901 43.8198C75.3302 42.4929 73.4087 41.7637 71.6312 40.7314C70.8281 40.2646 70.0164 39.7712 69.1499 39.4715C67.2673 38.8177 65.4396 37.9702 63.4475 37.6816C62.6939 37.5727 62.1078 37.0286 61.2605 37.0159C60.4178 36.9945 59.6029 36.3775 58.7437 36.2368C57.9549 36.1099 57.2184 35.5996 56.3645 35.8164C54.5477 34.7528 52.4122 34.701 50.4535 34.1524C48.6402 33.6448 46.8381 32.877 44.892 32.8668C43.7165 32.1096 42.3226 32.0386 41.0146 31.7566C38.6363 31.248 36.2814 30.6072 33.9393 30.0062C31.6853 29.4282 29.3619 29.1804 27.1584 28.3955C26.9032 28.3092 26.5892 28.3811 26.3026 28.3563C26.1306 28.3458 25.9633 28.3044 25.787 28.2806C25.8465 28.5107 25.8391 28.8283 25.9879 28.9489C27.4327 30.1545 28.2239 31.8568 29.3842 33.2714C31.744 36.154 34.0058 39.1195 36.1433 42.1765C36.8747 43.2162 37.566 44.2909 38.1554 45.4131C38.3677 45.8212 38.4449 46.5148 38.2296 46.8701C37.9649 47.3221 37.3533 47.5853 36.8649 47.8894C36.7672 47.9502 36.5397 47.745 36.3677 47.7345C35.8782 47.6944 35.849 47.0587 35.3332 47.0051C34.932 46.9659 34.5367 46.7635 34.1588 46.5921C33.113 46.1229 32.4065 45.2511 31.6241 44.4624C29.9327 42.7425 28.5706 40.7478 26.8347 39.0716C26.4718 38.7194 26.2471 38.2274 25.9467 37.7964C25.0891 36.5701 24.0625 35.4789 23.1336 34.3269C22.2439 33.2282 21.4926 31.9676 20.3139 31.0867C19.9677 30.8318 19.8226 30.3141 19.566 29.9277C18.4434 28.2663 16.8585 26.9446 15.8959 25.1656C15.7008 24.8107 15.4745 24.4731 15.2838 24.1093C15.0323 23.6479 15.2654 23.2795 15.6079 23.0005C16.3908 22.3594 16.832 21.4547 17.4967 20.7198C17.6216 20.5842 17.6676 20.3861 17.8394 19.9641C17.9191 19.9384 17.9129 20.1237 17.9112 20.3002C18.0401 20.1999 18.213 20.1222 18.2717 19.986C18.3707 19.7928 18.3861 19.5679 18.4411 19.3522C18.2768 19.4565 18.108 19.5696 17.8306 19.9596C17.5624 20.31 17.3632 20.3743 17.2077 20.4831C17.0344 20.605 16.8915 20.7757 16.7356 20.9286C16.7864 20.6996 16.7759 20.4171 16.9097 20.2639C17.6012 19.4984 18.3102 18.7419 19.0498 18.0122C21.9373 15.1455 24.9647 12.417 27.874 9.57261C29.1616 8.31427 30.3542 6.82994 32.096 6.07028C32.7326 5.04388 33.9046 5.69961 34.7124 5.22649C34.7642 5.34173 34.8823 5.4576 34.8549 5.55441C34.8178 5.73498 34.6751 5.88362 34.6205 6.05519C34.5293 6.36321 34.4689 6.67593 34.3997 6.98417C34.5741 6.75198 34.6966 6.40456 34.9316 6.29212C35.4238 6.0454 35.9684 5.8698 36.5165 5.77365C36.7729 5.72761 37.1112 5.88977 37.3214 6.06393C37.4002 6.12648 37.2466 6.49126 37.2004 6.71146C37.1773 6.82155 37.1408 6.93593 37.1177 7.04603C37.2415 7.02076 37.3739 7.02204 37.4759 6.97449C37.7951 6.82757 38.0971 6.62754 38.4248 6.50718C39.3372 6.17629 39.5655 6.29325 39.936 7.23682C40.0523 7.5292 40.0722 7.75005 39.7696 8.01628C39.0396 8.66226 38.3663 9.37058 37.68 10.0611C37.6354 10.1048 37.6995 10.3261 37.7826 10.4019C37.8482 10.4688 38.0553 10.4972 38.1044 10.4448C38.701 9.9078 39.3545 9.41111 39.8504 8.78933C40.1586 8.404 40.487 8.21746 40.9058 8.26568C41.2408 8.30425 41.6138 9.43758 41.42 9.85933C40.9197 10.9444 40.3711 11.9938 39.4233 12.8053C37.3894 14.5683 35.3861 16.358 33.3392 18.1032C31.2834 19.8439 29.1405 21.4734 27.229 23.3655C27.073 23.5184 26.9477 23.6981 26.8181 23.8645C27.0122 23.8753 27.2243 23.8508 27.4137 23.8924C29.9367 24.4863 32.4602 25.0361 35.0478 25.3526C35.9338 25.4628 36.8629 25.6837 37.7523 25.8953C38.6021 26.0978 39.4526 26.2341 40.2895 26.3967C41.1882 26.5687 42.1539 26.6532 42.9986 26.9306C44.8991 27.5494 46.8764 27.5422 48.7829 27.9977C50.8568 28.4945 52.9585 28.8504 55.0508 29.268C56.2973 29.5185 57.5486 29.7381 58.7769 30.0458C60.1901 30.4038 61.5755 30.9027 62.9891 31.2166C63.9448 31.4289 64.8366 31.8525 65.8552 31.9418C66.6401 32.0113 67.2809 32.8383 68.2138 32.6621C69.2911 33.5243 70.6942 33.5557 71.8937 34.1146C72.9744 34.6238 73.9337 35.3701 75.2169 35.4841C75.7373 35.5289 76.4315 35.8402 76.8397 36.537C77.1045 36.9941 77.8575 37.1692 78.3887 37.4524C79.2626 37.911 80.1542 38.3566 81.0325 38.8065C81.2911 39.9034 82.8257 39.5698 83.0844 40.6667C86.4321 42.7028 88.6393 45.8399 90.8871 48.8979C92.3769 50.9248 93.6844 53.091 94.5172 55.513C94.749 56.186 95.0961 56.8073 95.4076 57.4546C95.6803 58.0045 95.3952 58.7342 95.9689 59.1943C96.2696 61.4214 96.8754 63.594 97.2069 65.8258C97.568 68.1946 97.62 70.5825 97.9016 72.955C98.0446 74.1479 97.9534 75.3649 97.9903 76.57C98.1272 80.6754 98.2288 84.7848 98.7721 88.8544C99.2001 92.0667 100.031 95.1639 102.053 97.8402C102.702 98.6938 103.588 99.2364 104.287 99.9935C105.611 101.414 107.418 102.085 109.123 102.847C110.375 103.411 111.804 103.588 113.16 103.928C113.886 104.112 114.622 104.256 115.357 104.422C115.635 104.486 115.938 104.63 116.198 104.598C117.162 104.448 117.939 104.879 118.804 105.356C118.83 105.369 118.777 105.342 118.733 105.32C118.715 105.421 118.683 105.527 118.7 105.624C118.708 105.65 118.849 105.656 118.929 105.675C118.907 105.586 118.891 105.489 118.799 105.364L118.803 105.444ZM25.2156 13.3991C25.4514 13.1984 25.5714 13.1157 25.6607 13.0063C25.7365 12.9232 25.7641 12.8043 25.8181 12.699C25.6634 12.7195 25.4696 12.6867 25.3805 12.7741C25.2869 12.8703 25.285 13.0688 25.9008 12.3644C25.9302 12.5235 25.9421 12.6516 25.9674 12.7754C26.0694 12.7279 26.2153 12.7028 26.2513 12.6326C26.3232 12.4921 26.3116 12.3198 26.3352 12.1656C26.2067 12.2217 26.0824 12.2911 25.2068 13.3946L25.2156 13.3991ZM140.448 102.496C140.683 102.295 140.803 102.212 140.893 102.103C140.969 102.02 140.996 101.901 141.05 101.795C140.895 101.816 140.702 101.783 140.612 101.871C140.519 101.967 140.517 102.165 141.133 101.461C141.162 101.62 141.174 101.748 141.199 101.872C141.301 101.824 141.447 101.799 141.483 101.729C141.555 101.589 141.544 101.416 141.567 101.262C141.439 101.318 141.314 101.388 140.439 102.491L140.448 102.496ZM21.9716 16.1608C21.2495 15.9905 21.4278 16.7248 21.1296 16.9822C20.4075 16.8119 20.5857 17.5462 20.2876 17.8036C19.5654 17.6333 19.7437 18.3676 18.8342 19.3207C19.07 19.12 19.19 19.0373 19.2793 18.9279C19.3551 18.8448 19.3828 18.7259 19.4367 18.6205C19.2821 18.6411 19.0882 18.6083 18.9991 18.6957C18.9055 18.7919 18.9036 18.9904 19.4367 18.6205C20.1589 18.7909 19.9806 18.0566 20.2788 17.7991C21.0009 17.9694 20.8226 17.2352 21.1208 16.9777C21.8429 17.1481 21.6647 16.4138 22.0455 15.8218C22.0749 15.9809 22.0869 16.109 22.1122 16.2328C22.2141 16.1853 22.36 16.1602 22.396 16.0899C22.468 15.9494 22.4564 15.7772 22.4799 15.623C22.3514 15.6791 22.2272 15.7485 21.9629 16.1563L21.9716 16.1608ZM33.4108 15.2575C33.4268 14.9665 33.4377 14.7503 33.4486 14.5342C33.324 14.6477 33.2167 14.7923 33.0701 14.8835C32.9236 14.9748 32.6897 14.9769 32.5826 15.0994C31.7429 16.1327 30.6764 16.8945 29.649 17.7097C28.6262 18.5161 27.6205 19.3756 26.7155 20.32C25.7527 21.3123 24.572 22.0157 23.5918 22.9769C23.4804 23.0862 23.43 23.271 23.3536 23.4203C23.5476 23.431 23.791 23.3672 23.9358 23.4525C24.4491 23.7708 24.4889 23.3034 24.7427 23.0676C26.0211 21.8489 27.2429 20.5458 28.6738 19.5271C30.1225 18.4954 31.1391 16.9652 32.7403 16.1336C32.829 16.0903 32.709 15.7185 32.8029 15.6002C32.9412 15.4383 33.1933 15.379 33.4195 15.262L33.4108 15.2575ZM145.126 103.861C145.151 103.53 145.162 103.314 145.177 103.089C144.943 103.157 144.656 103.177 144.491 103.325C143.895 103.84 143.359 104.43 142.763 104.945C142.523 105.155 142.003 105.088 142.152 105.641C142.449 105.516 142.741 105.4 143.029 105.27C143.299 105.154 143.587 105.068 143.827 104.903C144.285 104.572 144.708 104.201 145.126 103.861ZM131.68 104.612C131.696 104.776 131.673 104.93 131.716 104.952C131.87 105.02 132.038 105.039 132.201 105.067C132.193 104.975 132.225 104.825 132.186 104.794C132.045 104.722 131.878 104.68 131.685 104.603L131.68 104.612ZM142.752 102.434C142.839 102.59 142.873 102.74 142.956 102.772C143.106 102.826 143.278 102.815 143.45 102.825C143.389 102.727 143.364 102.581 143.276 102.536C143.136 102.465 142.959 102.463 142.756 102.425L142.752 102.434ZM21.885 18.2782C22.0403 18.1914 22.1907 18.1576 22.2224 18.074C22.2768 17.9245 22.2652 17.7523 22.2757 17.5803C22.178 17.6412 22.0321 17.6662 21.9872 17.754C21.9152 17.8945 21.9135 18.071 21.8762 18.2737L21.885 18.2782ZM23.2035 14.7298C23.0872 14.892 22.9756 15.0233 22.9079 15.1771C22.8854 15.221 22.9947 15.3324 23.0557 15.408C23.1628 15.2855 23.292 15.1631 23.3815 15.0316C23.3995 14.9965 23.2948 14.8763 23.2123 14.7343L23.2035 14.7298ZM16.2431 23.9466C16.244 23.8584 16.236 23.7656 16.2369 23.6774C16.1837 23.6945 16.091 23.7024 16.0775 23.7288C16.0546 23.8168 16.0713 23.914 16.0704 24.0023C16.1236 23.9852 16.1767 23.968 16.2431 23.9466ZM18.2557 21.6407C18.2566 21.5524 18.2487 21.4597 18.2495 21.3714C18.1964 21.3885 18.1036 21.3965 18.0901 21.4228C18.0672 21.5108 18.0839 21.6081 18.0831 21.6963C18.1362 21.6792 18.1893 21.6621 18.2557 21.6407ZM18.7454 21.2041C18.7454 21.2041 18.8913 21.1791 18.9048 21.1527C18.9277 21.0647 18.911 20.9675 18.9118 20.8792C18.8587 20.8964 18.766 20.9043 18.7525 20.9306C18.7295 21.0186 18.7463 21.1159 18.7454 21.2041ZM21.3628 18.4319C21.2963 18.4533 21.2432 18.4705 21.1901 18.4876C21.2424 18.5587 21.2857 18.6474 21.3557 18.7055C21.3821 18.719 21.462 18.6712 21.5151 18.6541C21.4673 18.5742 21.415 18.503 21.3628 18.4319ZM23.9972 14.3492C23.9089 14.3484 23.8161 14.3563 23.7279 14.3554C23.745 14.4086 23.753 14.5013 23.7793 14.5148C23.8674 14.5377 23.9646 14.521 24.0529 14.5219C24.0357 14.4688 24.0186 14.4156 23.9972 14.3492ZM24.7426 13.4783C24.6762 13.4998 24.623 13.5169 24.5699 13.534C24.6222 13.6051 24.6655 13.6938 24.7355 13.7519C24.7619 13.7654 24.8418 13.7176 24.8949 13.7005C24.8471 13.6206 24.7949 13.5495 24.7426 13.4783ZM28.0169 10.7655C28.0178 10.6772 28.0099 10.5845 28.0107 10.4963C27.9576 10.5134 27.8648 10.5213 27.8513 10.5476C27.8284 10.6357 27.8451 10.7329 27.8443 10.8212L28.0169 10.7655ZM35.8021 12.1257C35.8012 12.2139 35.8092 12.3067 35.8083 12.3949C35.8615 12.3778 35.9542 12.3699 35.9677 12.3435C35.9906 12.2555 35.9739 12.1582 35.9748 12.07C35.9216 12.0871 35.8685 12.1043 35.8021 12.1257Z" fill="#F2F2F2"/>
  <path d="M140.72 100.795C140.668 100.68 140.612 100.551 140.56 100.436C140.666 100.446 140.78 100.46 140.886 100.47L140.715 100.804L140.72 100.795Z" fill="#F2F2F2"/>
  <path d="M16.0188 21.5261C16.0711 21.5972 16.1189 21.6771 16.1712 21.7483C16.118 21.7654 16.0381 21.8132 16.0118 21.7997C15.9417 21.7416 15.8985 21.6529 15.8462 21.5818L16.0188 21.5261Z" fill="#F2F2F2"/>
</svg>