<svg xmlns="http://www.w3.org/2000/svg" width="137" height="137" viewBox="0 0 137 137" fill="none">
    <g style="mix-blend-mode:screen">
      <path d="M70.5645 70.1222C70.9331 70.1297 71.3619 70.2727 71.6552 70.1298C73.8817 69.0618 76.1609 68.0916 78.4326 67.1289C79.9671 66.4821 81.4564 65.73 82.9984 65.0756C83.3971 64.9026 83.871 64.8952 84.3148 64.8726C84.7963 64.8576 84.6534 65.151 84.4277 65.3014C83.6605 65.8129 84.1419 66.189 84.5707 66.5125C84.7512 66.6479 85.1198 66.5652 85.2778 66.7081C85.5862 66.9865 85.8646 67.2197 86.3009 67.1445C86.0827 67.4529 85.8195 67.7462 85.654 68.0772C85.5713 68.2502 85.6315 68.506 85.6315 68.7166C85.8045 68.7091 86.0678 68.7768 86.1204 68.6941C86.4439 68.2503 86.9704 68.0547 87.3315 68.2955C87.9559 68.7092 88.6555 69.1682 88.8436 70.0031C89.0242 70.8005 89.2951 71.6129 89.2726 72.4178C89.2576 73.14 89.8744 73.7267 89.4833 74.5843C89.2652 75.0581 89.852 75.8556 89.9649 76.525C90.1907 77.9092 90.281 79.3234 90.567 80.6924C90.8454 82.0088 90.9734 83.3403 91.1691 84.6642C91.4174 86.2665 91.4928 87.9064 92.1097 89.471C92.4106 90.2233 92.2151 91.1711 92.2378 92.0211C91.0417 91.9533 92.5312 93.1419 91.6662 93.2246C91.7038 93.3224 91.7715 93.4954 91.7865 93.4954C92.614 93.2849 91.9521 94.3379 92.5087 94.353C92.3809 94.7667 92.3283 95.2256 92.1101 95.5791C91.9146 95.895 91.5611 96.1282 91.2376 96.3313C90.8766 96.5569 90.4629 96.8653 90.0792 96.8728C89.5301 96.8803 88.981 96.6621 88.4393 96.5116C87.4765 96.2407 86.6415 95.6916 85.7538 95.2402C84.4449 94.5631 82.9554 94.2019 81.6766 93.4796C79.5628 92.2834 77.2684 91.4934 75.1621 90.3349C73.8531 89.6126 72.4088 89.1913 71.1676 88.3412C69.9339 87.4986 68.3918 87.2352 67.1656 86.4001C65.962 85.5876 64.5177 85.1964 63.4118 84.3764C62.0803 83.3908 60.8617 83.6766 59.8463 84.346C59.1167 84.8199 58.214 84.4587 57.5596 85.2636C57.1309 85.7976 56.1229 85.8878 55.3556 86.1285C53.8813 86.6098 52.6703 87.6854 51.0756 87.926C50.6468 87.9936 50.5415 88.5653 50.5416 89.0768C50.5718 91.484 50.5946 93.8836 50.5346 96.2907C50.5046 97.3288 50.6551 98.3518 50.3844 99.42C50.1663 100.3 50.4748 101.316 50.5576 102.271C50.6253 103.121 50.49 103.933 49.9184 104.746C49.8055 104.798 49.9109 104.813 50.0011 104.828L50.0011 104.573C49.9033 104.58 49.798 104.595 49.7002 104.618C49.6927 104.625 49.6927 104.731 49.9109 104.753C50.3547 105.603 50.3924 106.483 50.3097 107.424C50.2271 108.364 49.9939 109.394 50.5507 110.312C50.1896 111.095 50.4981 111.869 50.5283 112.652C50.566 113.893 50.4081 115.134 50.3781 116.383C50.3706 116.796 50.5662 117.218 50.5286 117.631C50.4986 117.902 50.8371 118.241 50.2128 118.534C49.5734 118.827 50.6265 119.038 50.5664 119.444C50.5137 119.768 50.2881 119.963 50.4461 120.452C50.732 121.295 50.5816 122.288 50.5366 123.22C50.5215 123.717 50.138 124.326 50.326 124.68C50.5593 125.139 50.5442 125.56 50.5443 125.996C50.5594 127.531 50.5746 129.065 50.5371 130.607C50.5296 131.036 50.4318 131.495 50.2513 131.886C49.3563 133.97 48.4161 134.037 47.4004 132.585C46.8061 131.735 46.0915 130.946 45.9484 129.764C45.8807 129.155 45.4669 128.636 45.6925 127.899C45.8806 127.29 45.5194 126.477 45.7827 125.928C46.2264 125.003 46.0458 124.251 45.7825 123.356C45.617 122.814 45.9178 122.137 45.9253 121.513C45.9252 120.941 45.7747 120.369 45.7521 119.79C45.7145 119.12 45.5489 118.368 45.7896 117.812C46.1581 116.947 45.5789 116.232 45.7142 115.419C45.8495 114.577 45.8194 113.674 45.7065 112.824C45.6689 112.546 45.5936 112.35 45.6387 112.019C45.7515 111.079 45.7815 110.131 45.5633 109.131C45.3451 108.145 45.014 106.897 46.0294 105.987C46.3303 105.716 45.2772 105.43 46.0068 105.167C46.9095 104.836 45.4953 104.535 45.9992 104.151C46.1045 104.076 46.27 103.324 45.5478 103.459C45.5177 103.294 45.4801 103.121 45.4575 102.948C45.0887 99.5851 45.1938 96.2151 45.1634 92.8451C45.1559 92.2659 45.043 91.6867 45.0204 91.1075C45.0053 90.8968 45.073 90.6636 45.1482 90.4681C45.2159 90.2951 45.4566 90.0243 45.4415 90.0092C44.6742 89.3623 44.9675 88.5875 45.0427 87.7751C45.1254 87.0153 44.9222 86.2255 44.8921 85.4432C44.8619 84.5706 44.8995 83.7055 44.8768 82.8405C44.8693 82.4267 44.8392 82.186 45.441 82.1409C45.7494 82.1184 46.6746 81.9605 46.2984 81.0879C46.8776 80.7043 47.4418 80.2605 48.051 79.9521C48.6603 79.6438 49.405 79.5761 50.0519 78.7337L49.8413 78.9443C49.9541 78.9969 50.0895 79.1023 50.1798 79.0722C50.5333 78.9744 50.8793 78.839 51.2103 78.6886C51.3006 78.6435 51.3382 78.4855 51.3983 78.3802C51.2479 78.3351 51.0749 78.2222 50.9395 78.2523C50.6386 78.3275 50.3678 78.4779 50.0519 78.7337C49.6983 78.8013 49.5554 78.6584 49.4125 78.5155C49.5102 78.4177 49.6155 78.2673 49.7284 78.2447C50.2248 78.1394 50.4655 77.9589 50.0668 77.485C49.8938 77.2819 50.1796 76.319 49.3597 77.0787C49.2093 77.2292 48.5473 77.0486 48.3216 76.8229C47.7499 76.2512 46.5163 76.6723 46.3657 75.4988C46.3657 75.4537 46.0498 75.3784 46.0272 75.4161C45.5534 76.1908 44.944 75.4611 44.6732 75.3407C43.9962 75.0398 43.2289 74.8291 42.6346 74.4755C41.95 74.0768 41.3858 73.663 40.5659 73.6103C40.3929 73.6028 39.8588 73.2943 40.1596 72.7076C40.4755 72.1059 40.6109 71.5191 39.5126 71.3836C39.0387 71.3159 38.6249 70.6314 38.2413 70.1725C38.136 70.0521 38.2713 69.7512 38.2638 69.5331C38.2638 69.4127 38.2036 69.2021 38.1284 69.187C37.0451 68.9763 36.8946 68.209 36.9096 67.2763C36.9246 66.4789 36.2927 65.4408 37.8422 65.3958C38.0153 65.3883 38.1958 65.0423 38.3311 64.8166C38.3612 64.7564 38.2709 64.5458 38.1807 64.5007C38.0754 64.4405 37.9099 64.4856 37.7745 64.4856C37.7745 64.5458 37.7971 64.6586 37.7745 64.6812C37.3307 64.9595 36.8869 65.2227 36.4506 65.4935C36.3528 64.8691 36.932 64.6661 37.2479 64.3501C38.2934 63.3197 39.512 62.5224 40.7907 61.8004C41.5053 61.4017 41.8889 60.4916 42.8291 60.439C44.1454 59.1076 46.0636 58.6038 47.267 57.1295C48.6737 56.7008 49.6365 55.5425 50.9603 54.9257C51.8855 54.497 52.6979 53.6696 53.5855 53.0529C53.954 52.8047 54.3076 52.5866 54.7062 52.3835C55.5337 51.9623 56.346 51.4508 57.0756 50.7814C57.8353 50.0819 58.7229 49.435 59.7384 49.0364C60.453 48.7582 60.8215 48.0586 61.6189 47.7578C62.5967 47.3968 63.3489 46.4791 64.2214 45.8323C64.6727 45.5013 65.1842 45.2456 65.6581 44.9523C66.4178 44.4784 67.1324 43.9444 67.847 43.4254C68.5089 42.944 69.2235 42.5153 69.8252 41.9437C69.9832 41.7857 70.3067 41.8083 70.5022 41.6579C71.2695 41.1013 72.1345 40.7327 72.8791 40.0784C73.9472 39.1306 75.2636 38.4763 76.4897 37.7016C76.6928 37.5737 77.0087 37.5737 77.1591 37.4083C78.5657 35.8813 80.5139 35.0616 82.0408 33.6851C83.3497 33.5347 83.7934 32.083 85.0571 31.7521C86.1328 31.4738 86.8473 30.4283 87.9305 29.9921C88.5548 29.7439 88.9911 29.0068 89.8636 28.1342C90.0742 27.9236 89.9162 28.0515 89.7959 28.2019C89.7131 28.3148 89.6981 28.4802 89.6455 28.6232C89.7658 28.5931 89.9238 28.6006 90.0065 28.5329C90.4353 28.1493 90.7813 27.7281 91.4432 27.6228C91.7215 27.5852 91.9096 26.991 92.1427 26.6375C91.729 26.7804 91.3002 26.8781 90.9317 27.0812C90.6534 27.2391 90.4503 27.5325 89.8636 28.1192C89.2919 28.4953 89.0437 28.4727 88.8707 28.5704C88.5923 28.7284 88.3968 29.0443 88.111 29.1647C87.9154 29.2549 87.6295 29.1345 87.3888 29.1195C87.4791 28.954 87.5392 28.7584 87.6671 28.6305C88.3441 27.9536 89.2542 27.6452 90.0741 27.1864C90.2998 27.0661 90.5631 26.9232 90.6608 26.7201C90.736 26.5697 90.5705 26.1033 90.5329 26.1108C89.1037 26.1859 87.7571 25.4712 86.3655 25.5388C85.1093 25.6064 83.9584 25.1625 82.7623 25.0044C81.5663 24.8464 80.3552 24.914 79.1591 24.6807C77.4591 24.3496 75.7139 24.2743 73.9838 24.0786C73.5926 24.0334 73.3293 23.8303 73.585 23.4391C74.0739 22.6644 73.427 22.559 72.9832 22.386C72.577 22.2355 72.1256 22.1001 71.7044 22.1151C71.2229 22.1301 71.1627 21.9195 71.2379 21.5584C71.4034 20.8062 70.8016 20.4752 70.3728 20.1216C69.7183 19.5875 69.6431 19.5724 69.5151 18.4215C69.4925 18.2485 69.4022 18.0679 69.312 17.9175C69.1013 17.5414 68.2212 17.3231 68.9809 16.7139C69.3269 16.4431 69.0937 15.6683 69.876 15.7737C70.0339 15.7962 70.237 15.4126 70.4476 15.2472C70.5905 15.1343 70.929 15.0215 70.929 15.0366C71.388 15.9317 72.253 15.3827 72.8999 15.5482C73.6296 15.7363 74.4119 15.6913 75.0288 16.2479C75.1416 16.3608 75.435 16.4436 75.5177 16.3909C76.2624 15.7967 76.4054 16.4963 76.601 16.9175C76.7063 17.1282 76.5785 17.5268 76.9922 17.2034C77.5488 16.7672 77.6691 16.692 78.2333 16.7296C78.8802 16.7748 79.5271 16.82 80.1741 16.8802C80.9338 16.963 81.0692 17.3692 80.5202 18.0537C80.4073 18.1063 80.5127 18.1214 80.6029 18.1364L80.6029 17.8807C80.5051 17.8882 80.3998 17.9032 80.302 17.9258C80.2945 17.9333 80.2945 18.0386 80.5126 18.0612C80.9264 18.159 81.1145 18.3922 81.3251 18.4223C81.8291 18.4901 82.6264 18.2494 82.8145 18.4977C83.311 19.1597 83.7623 18.0163 84.3566 18.7009C84.2738 18.7686 84.0482 18.6783 84.0106 18.731C83.8902 18.9115 83.8301 19.1371 83.7473 19.3402C83.958 19.3854 84.1987 19.5208 84.3566 19.4531C84.477 19.408 84.4845 19.0996 84.3491 18.7084C84.695 18.0013 85.2366 17.3996 86.0792 18.2572C86.1845 18.3625 86.4929 18.2648 86.711 18.2873C86.8389 18.2949 87.0796 18.325 87.0871 18.3475C87.0872 19.3104 87.531 19.002 88.0801 18.7689C88.5465 18.5733 88.7195 18.8667 88.9227 19.3557C89.1709 19.965 89.532 19.4084 89.8027 19.1677C89.9156 19.2203 90.0585 19.3332 90.1413 19.2956C90.4722 19.1452 90.9762 18.7164 91.074 18.7992C91.5931 19.228 92.4054 18.9572 92.7891 19.5967C92.8493 19.702 92.9922 19.7546 93.0975 19.8299C93.5338 18.9423 94.3236 19.4313 94.7449 19.6269C95.8507 20.146 97.0242 19.6647 98.145 20.1086C99.5292 20.6503 101.019 20.8911 102.463 21.2974C102.583 21.3275 102.628 21.6585 102.704 21.839C102.929 21.7488 103.162 21.5607 103.388 21.5758C103.9 21.5909 104.404 21.7037 104.9 21.779C105.427 21.8543 105.983 21.8693 105.871 22.6742C105.863 22.7269 106.533 22.8548 106.871 22.9827C107.623 23.2536 108.458 23.4266 109.098 23.8705C109.624 24.2316 110.053 24.8861 110.264 25.5029C110.429 25.9844 110.204 26.6162 110.113 27.1729C110.076 27.391 109.925 27.5866 109.82 27.7972C110.091 27.7972 110.437 27.9025 110.61 27.7747C111.031 27.4437 111.279 27.3159 111.197 28.0154C111.144 28.4442 111.054 28.8805 110.919 29.3017C110.332 31.0619 109.828 32.8296 109.099 34.5521C108.632 35.6654 108.211 36.8539 107.812 38.0198C106.955 40.472 106.15 42.9317 105.248 45.3689C104.473 47.4525 103.503 49.4609 102.811 51.5671C102.533 52.402 102.014 52.906 101.442 53.3874C101.111 53.6732 100.457 53.8913 100.111 53.7408C99.682 53.5678 99.7873 52.9961 100.043 52.5448C100.126 52.4018 99.9527 52.1235 99.9 51.9054C99.7345 51.9655 99.554 52.0106 99.3961 52.0934C99.2832 52.1611 99.2155 52.2889 99.1102 52.3642C98.8996 52.4995 98.6815 52.6124 98.4633 52.7252C98.373 52.4995 98.1775 52.2588 98.2 52.0406C98.2601 51.499 98.0345 51.3486 97.5455 51.1906C97.2973 51.1078 97.1844 50.5737 97.0414 50.2352C96.2816 48.4373 97.1089 46.7073 97.4548 45.0223C97.718 43.7059 98.1166 42.3745 98.5227 41.0657C98.8235 40.1179 99.523 39.298 99.3273 38.1847C99.237 37.6732 100.177 37.5153 99.8989 36.8157C99.7635 36.4696 99.6582 36.1537 99.2745 36.3417C98.7179 36.6125 98.1312 36.9284 97.7025 37.3571C97.1835 37.8761 96.5892 38.1845 95.9649 38.5079C95.3556 38.8313 95.1225 39.6061 94.2499 39.7264C93.603 39.8166 93.415 40.9374 92.5123 40.817C91.4668 42.1784 89.812 42.7199 88.4505 43.615C86.6377 44.8109 84.9604 46.2626 82.8993 47.0899C82.2299 47.3531 81.8689 48.2557 81.0189 48.3384C80.026 49.557 78.3486 49.8051 77.288 50.9409C76.5207 50.9107 76.2048 51.5576 75.7009 51.9412C75.2571 52.2797 74.7305 52.5053 74.2717 52.8287C73.4894 53.3853 72.8125 54.2879 71.955 54.4684C70.9169 54.694 70.6236 55.8449 69.5179 55.9276C68.9687 55.9651 68.8033 57.0483 67.9683 56.9806C66.8852 58.2894 64.9595 58.3945 63.914 59.771C62.8534 60.0643 62.2367 61.0572 61.1986 61.4333C60.8676 61.5536 60.0853 61.6137 60.1155 62.3659C59.3632 62.2004 59.2129 63.1632 58.6637 63.1858C57.9943 63.2083 57.8288 63.9154 57.385 63.983C56.7231 64.0883 56.4373 64.6449 55.9408 64.8705C54.2784 65.6452 53.2179 67.3527 51.3599 67.8265C51.029 67.9167 50.7808 68.3605 50.5025 68.6539C49.7954 69.3759 49.8105 69.6167 50.7358 70.0004C51.0442 70.1283 51.3601 70.0681 51.3978 70.527C51.4881 71.535 52.1425 71.1213 52.6691 71.016C52.9399 71.1514 53.2558 71.4674 53.474 71.4148C54.7076 71.0989 55.5501 71.6857 56.4077 72.453C56.8516 72.8517 57.1225 73.8598 58.0627 73.1452C58.1078 73.2957 58.1379 73.4612 58.2056 73.6041C58.3486 73.9275 58.5291 74.1833 58.9128 73.8599C59.4243 74.7175 60.0035 73.9578 60.5451 73.8976C60.846 73.8676 60.9588 73.1529 61.4628 73.5667L61.0416 73.9879C61.2146 74.0857 61.4252 74.2964 61.5456 74.2512C62.6965 73.8226 63.885 73.4465 64.9531 72.8599C65.7654 72.4086 66.8788 72.529 67.4203 71.5813C68.6615 71.5588 69.7296 71.1376 70.5344 70.1673L70.5645 70.1222ZM47.6023 115.758C47.497 115.713 47.3842 115.66 47.2788 115.615C47.2939 115.751 47.309 115.901 47.324 116.036C47.324 116.232 47.324 116.413 47.4444 116.729L47.3165 116.601C47.2639 116.698 47.1962 116.796 47.1812 116.901C47.1812 116.932 47.3241 116.984 47.3993 117.029C47.4068 116.932 47.4219 116.826 47.309 116.608C47.309 116.413 47.309 116.232 47.309 116.036L47.7151 115.63L47.5873 115.758C47.6851 115.811 47.7829 115.879 47.8882 115.894C47.9183 115.894 47.9709 115.751 48.016 115.675C47.9182 115.668 47.8129 115.653 47.5948 115.766L47.6023 115.758ZM74.807 69.8366C74.3632 69.4379 74.2128 69.9494 73.957 70.1149C73.2725 69.7011 73.2124 70.5135 72.8212 70.679C72.3774 70.2803 72.227 70.7918 71.1137 71.4687C71.4221 71.3408 71.5726 71.2957 71.7004 71.213C71.8057 71.1528 71.8734 71.04 71.9637 70.9497C71.7982 70.9196 71.6101 70.8218 71.4898 70.882C71.3619 70.9497 71.2942 71.1528 71.9637 70.9497C72.4075 71.3484 72.5579 70.8369 72.8137 70.6715C73.4982 71.0852 73.5584 70.2728 73.9495 70.1074C74.3934 70.5061 74.5438 69.9946 74.9951 69.5132C74.9725 69.6862 74.9424 69.8216 74.9274 69.957C75.0478 69.942 75.2057 69.9645 75.2659 69.9044C75.3862 69.784 75.4314 69.6035 75.5066 69.453C75.3561 69.4681 75.2057 69.4982 74.7995 69.8291L74.807 69.8366ZM70.1885 71.5062C70.1659 71.6792 70.1358 71.8146 70.1208 71.95C70.2412 71.935 70.3991 71.9576 70.4593 71.8974C70.5797 71.7771 70.6248 71.5965 70.7 71.4461C70.5495 71.4611 70.3991 71.4912 69.9929 71.8222C69.5491 71.4234 69.3987 71.935 69.1429 72.1004C68.4584 71.6866 68.3982 72.499 66.5027 73.4919C66.8863 73.349 67.2474 73.2437 67.5784 73.0782C67.7514 72.9955 67.8642 72.8074 67.9996 72.657C67.9996 72.657 67.8943 72.5216 67.8717 72.5291C67.4053 72.6946 66.9465 72.8675 66.4952 73.0631C66.4651 73.0781 66.4952 73.2737 68.0071 72.6645C68.6917 73.0783 68.7518 72.2659 69.1429 72.1004C69.5868 72.4991 69.7372 71.9876 70.1885 71.5062ZM53.2639 79.4636C53.0307 78.6587 52.9931 78.6511 50.902 80.005C51.2856 79.8621 51.6467 79.7568 51.9776 79.5914C52.1506 79.5086 52.2635 79.3206 52.3989 79.1701C52.3989 79.1701 52.2935 79.0347 52.271 79.0423C51.8046 79.2077 51.3458 79.3807 50.8944 79.5762C50.8643 79.5913 50.8944 79.7869 52.4064 79.1777C52.6697 79.3507 52.8051 79.8622 53.3768 79.3357L53.2489 79.4636C53.3467 79.5162 53.4445 79.5839 53.5498 79.599C53.5799 79.599 53.6325 79.4561 53.6777 79.3809C53.5799 79.3733 53.4746 79.3583 53.2564 79.4711L53.2639 79.4636ZM76.7928 68.9792C77.4774 69.393 77.5375 68.5806 77.9287 68.4151C78.3725 68.8139 78.5229 68.3024 79.245 67.6705L78.7787 68.1369C78.9517 68.1595 79.1623 68.2497 79.2751 68.1821C79.7265 67.8962 80.5088 68.0768 80.614 67.2795C80.6216 67.2419 80.5689 67.1441 80.5689 67.1441C80.0499 67.3471 79.5459 67.5502 78.7862 68.1294C78.3423 67.7306 78.1919 68.2422 77.9362 68.4076C77.2516 67.9939 77.1915 68.8063 75.9429 69.4832C76.2513 69.3553 76.4017 69.3102 76.5296 69.2275C76.6349 69.1673 76.7026 69.0545 76.7928 68.9642C76.6274 68.9341 76.4393 68.8363 76.3189 68.8965C76.1911 68.9641 76.1234 69.1672 76.7928 68.9642L76.7928 68.9792ZM84.2448 33.7379C84.1095 33.8733 83.959 33.9936 83.8387 34.1441C83.771 34.2268 83.7635 34.3698 83.7259 34.4826C83.8312 34.4826 83.9816 34.5277 84.0418 34.4826C84.3276 34.2269 84.5984 33.9561 84.8541 33.6703C84.8993 33.6251 84.8617 33.4973 84.8617 33.407C84.7413 33.422 84.6059 33.422 84.5081 33.4747C84.4028 33.5348 84.3276 33.6552 85.5386 33.0008C85.4484 33.0911 85.3355 33.1738 85.2678 33.2716C85.1926 33.392 85.1701 33.5349 85.1249 33.6703C85.2904 33.6101 85.4785 33.5725 85.6139 33.4672C85.817 33.3093 85.99 33.1212 86.1554 32.9256C86.2307 32.8504 86.2306 32.7 86.2683 32.5872C86.1178 32.6323 85.9523 32.6473 85.8169 32.7225C85.7116 32.7827 85.6364 32.903 84.2373 33.7304L84.2448 33.7379ZM60.9119 49.6985C60.7013 49.7135 60.438 49.6608 60.3026 49.7661C59.9115 50.082 59.573 50.4657 59.212 50.8267C58.9938 50.8492 58.7381 50.8041 58.5876 50.9094C58.2341 51.1727 57.9784 51.6541 57.5872 51.7894C56.1956 52.2933 55.0899 53.1583 54.1121 54.2264C53.9015 54.2414 53.6382 54.1887 53.5028 54.2941C53.1117 54.61 52.7732 54.9936 45.9207 59.4688C45.8982 59.6418 45.8831 59.8374 45.8681 60.033C46.2517 59.7998 46.6429 59.6945 47.0265 60.0331C47.0717 59.8826 47.0792 59.6795 47.1845 59.5893C47.4402 59.3787 47.9593 59.2659 47.9818 59.0628C48.0495 58.5287 48.3052 58.273 48.7415 58.0473C49.9751 57.3854 51.1861 56.701 52.1339 55.6329C52.2316 55.5351 52.2316 55.3546 52.2843 55.2117C52.1188 55.2869 51.9232 55.332 51.7803 55.4448C50.8551 56.1142 50.0202 56.9642 49.0047 57.423C48.4105 57.6862 48.1171 58.1601 47.6357 58.4459C47.1017 58.7693 46.5676 59.0928 52.4272 55.3546C52.6378 55.3396 52.9011 55.3923 53.0365 55.287C53.4276 54.971 53.7661 54.5874 54.1272 54.2264C54.1723 54.2715 54.2626 54.3618 54.2626 54.3618C54.6161 54.1136 54.9997 53.8804 55.3231 53.5871C55.782 53.1734 55.6617 54.6478 56.2108 53.8429C57.0533 53.9332 57.1887 53.4518 57.1209 52.7673C57.1059 52.6469 57.2262 52.4213 57.3165 52.3912C58.2191 52.1806 58.5801 51.3231 59.2345 50.8192C59.4452 50.8041 59.7084 50.8568 59.8438 50.7515C60.235 50.4356 60.5734 50.052 61.619 49.0065C61.4836 49.1419 61.3256 49.2697 61.2053 49.4202C61.1225 49.533 61.1075 49.6835 61.0548 49.8264C61.2128 49.7587 61.4084 49.7286 61.5438 49.6233C61.8371 49.3751 62.1079 49.0893 62.3636 48.8034C62.4389 48.7282 62.4389 48.5778 62.4765 48.4649C62.326 48.5101 62.1455 48.5251 62.0176 48.6078C61.8596 48.7056 61.7468 48.8786 60.9194 49.706L60.9119 49.6985ZM70.0961 43.3428C69.9608 43.4782 69.8028 43.6061 69.6824 43.7565C69.5997 43.8694 69.5847 44.0198 69.532 44.1627C69.69 44.095 69.8856 44.065 70.021 43.9597C70.3143 43.7114 70.5851 43.4256 70.8408 43.1398C70.9161 43.0646 70.916 42.9141 70.9537 42.8013C70.8032 42.8464 70.6227 42.8614 70.4948 42.9442C70.3368 43.042 70.224 43.215 68.6294 44.2228C68.494 44.3582 68.3435 44.4786 68.2232 44.629C68.1555 44.7117 68.148 44.8547 68.1104 44.9675C68.2157 44.9675 68.3661 45.0126 68.4263 44.9675C68.7122 44.7118 68.9829 44.441 69.2387 44.1552C69.2838 44.11 69.2462 43.9822 69.2462 43.8919C69.1258 43.9069 68.9904 43.9069 68.8926 43.9596C68.7873 44.0197 68.7121 44.1401 70.0661 43.3428L70.0961 43.3428ZM64.4024 51.143C64.3121 51.4289 64.1617 51.6395 64.1918 51.82C64.2294 52.0382 65.2374 52.2338 65.2299 52.1059C65.2148 51.7599 65.1245 51.4139 64.9966 51.0904C64.9816 51.0453 64.6355 51.1205 63.3568 51.6921C63.244 51.9102 63.1462 52.1283 63.0334 52.3465C63.1838 52.3014 63.3869 52.3089 63.4772 52.2186C63.6502 52.0306 63.7555 51.7748 63.8984 51.5567C63.7329 51.6018 63.5674 51.6469 64.4099 51.1505L64.4024 51.143ZM48.3821 81.4115C48.495 81.4491 48.668 81.5168 48.841 81.5845C48.7206 80.9527 49.2321 80.6819 49.5781 80.3058C49.4652 80.2531 49.3073 80.1403 49.2396 80.1779C48.9688 80.3434 48.7281 80.6894 48.4723 80.7044C47.4117 80.757 48.1865 81.0955 49.7812 79.9974C49.7586 80.1704 49.7285 80.3058 49.7135 80.4412C49.8338 80.4262 49.9918 80.4487 50.052 80.3886C50.1723 80.2682 50.2175 80.0877 50.2927 79.9373C50.1422 79.9523 49.9918 79.9824 48.3896 81.419L48.3821 81.4115ZM63.6443 74.1837L63.1855 74.6425C63.2983 74.6952 63.4412 74.808 63.5165 74.7779C64.2536 74.4771 64.9757 74.1612 65.6903 73.8228C65.7806 73.7776 65.8182 73.6197 65.8708 73.5068C65.7881 73.4542 65.6752 73.3564 65.6226 73.379C64.8854 73.6647 64.1558 73.9731 62.328 75.154C62.6364 75.0261 62.7868 74.981 62.9147 74.8983C63.02 74.8381 63.0877 74.7253 63.1779 74.635C63.0125 74.6049 62.8244 74.5071 62.704 74.5673C62.5762 74.6349 62.5085 74.838 63.6368 74.1762L63.6443 74.1837ZM42.9044 61.4771C42.6261 61.7554 42.4682 61.8832 42.3478 62.0337C42.2275 62.1991 42.1523 62.4098 42.062 62.5903C42.2275 62.5151 42.4156 62.4624 42.566 62.3722C43.4611 61.793 44.3487 61.2064 45.2212 60.6046C45.319 60.5369 45.3491 60.3865 45.4168 60.2737C45.2513 60.1984 45.0106 60.0028 44.9203 60.063C44.1832 60.5444 43.4686 61.0634 41.0691 62.9663C41.3775 62.8385 41.528 62.7934 41.6558 62.7106C41.7611 62.6504 41.8288 62.5376 41.9191 62.4474C41.7536 62.4173 41.5655 62.3194 41.4452 62.3796C41.3173 62.4473 41.2496 62.6504 42.8969 61.4695L42.9044 61.4771ZM47.0268 63.0269C46.6506 62.9818 46.267 62.9141 45.8909 62.899C45.748 62.8914 45.5073 62.9817 45.4922 63.072C45.2516 64.1401 44.206 64.5237 43.2131 65.3962C43.3109 65.4037 43.4163 65.4188 43.514 65.4263L43.514 65.1705C43.4162 65.1781 43.3184 65.1856 43.2131 65.2156C43.2056 65.2232 43.2056 65.3285 43.6419 65.2984C44.0932 65.1781 46.6357 64.08 46.7259 63.8995C46.8613 63.6287 46.9365 63.3278 47.2599 62.5831C47.2073 62.8916 47.1321 63.1172 47.1847 63.1548C47.3653 63.2752 47.591 63.3354 47.7941 63.4182C47.8392 63.2075 47.9746 62.9668 47.9069 62.8089C47.8617 62.6885 47.5533 62.681 47.0418 63.042L47.0268 63.0269ZM73.9624 40.6351C73.5261 41.0714 73.3832 41.2143 73.2403 41.3572C73.2027 41.3948 73.2178 41.5302 73.2328 41.5452C73.3306 41.5829 73.481 41.643 73.5337 41.5904C73.8346 41.3347 74.0753 40.9736 74.4062 40.7931C75.0005 40.4697 75.6323 40.1087 76.2792 40.0335C77.1894 39.9358 76.926 38.8901 77.5955 38.672C77.6557 38.657 77.7008 38.5366 77.7309 38.5367C78.7088 38.6119 78.972 37.6717 79.5888 37.2204C79.6866 37.1527 79.6941 36.9496 79.7317 36.8067C79.6114 36.8368 79.4459 36.8217 79.3706 36.8969C78.1596 38.153 76.58 38.8901 75.2035 39.9055C74.6996 40.2741 74.1279 40.5298 80.4162 36.408C80.3259 36.4983 80.2131 36.581 80.1454 36.6788C80.0702 36.7992 80.0477 36.9421 80.0025 37.0775C80.168 37.0173 80.3561 36.9797 80.4915 36.8744C80.6946 36.7165 80.8675 36.5284 81.033 36.3329C81.1082 36.2576 81.1082 36.1072 81.1458 35.9944C80.9954 36.0395 80.8299 36.0545 80.6945 36.1297C80.5892 36.1899 80.514 36.3103 73.9323 40.62L73.9624 40.6351ZM57.9109 55.4528C57.8282 55.6709 57.738 55.8816 57.6552 56.0997C57.7906 56.0546 57.9787 56.0471 58.0539 55.9568C58.2194 55.7462 58.3322 55.4829 58.4525 55.2422C58.287 55.3024 58.1291 55.3701 53.0142 58.7246C52.8788 58.8751 52.6607 59.0481 52.5629 59.2813C52.5178 59.3866 52.7134 59.5972 52.8036 59.7627C52.9014 59.6649 53.0744 59.5972 53.0819 59.4844C53.1722 59.018 53.3151 58.7096 53.8191 59.0933C54.2479 59.4168 54.5187 59.0256 54.5788 58.815C54.8044 58.0478 55.1429 57.5588 56.0381 57.777C56.0757 57.7846 56.181 57.6341 56.196 57.5589C56.3464 56.7315 56.7601 56.5134 57.5199 56.9271C57.5726 56.9497 57.8057 56.7165 57.8809 56.5661C57.9185 56.4984 57.8207 56.2652 57.7455 56.2502C57.4145 56.1749 56.9782 55.9943 56.7526 56.1448C55.4814 56.9496 54.2628 57.8371 57.8658 55.4678L57.9109 55.4528ZM77.4784 82.7225L77.3505 82.5946C77.2978 82.6924 77.2302 82.7902 77.2151 82.8955C77.2151 82.9256 77.358 82.9782 77.4333 83.0234C77.4408 82.9256 77.4558 82.8203 72.363 79.6681C72.4307 79.7959 72.4909 80.0818 72.5962 80.0969C73.7396 80.3076 74.522 81.2103 75.5676 81.609C76.4628 81.9476 77.2903 82.399 78.1403 82.8278C79.028 83.2792 80.1187 83.332 80.7356 84.2798C80.8109 84.4002 81.0892 84.4679 81.2472 84.4454C81.8565 84.3326 82.195 84.6711 82.6163 85.0172C83.0827 85.3933 83.692 85.5964 84.2411 85.8748C84.2486 85.3558 84.2937 84.8292 84.2711 84.3102C84.256 83.8739 84.1356 83.4376 84.0529 83.0239C83.654 80.9702 83.3906 78.8866 83.1573 76.8029C83.0067 75.5241 83.0443 75.4865 81.8107 75.8775C81.1713 76.0806 80.5621 76.404 79.9227 76.6071C78.8621 76.9605 77.8992 77.5021 76.8762 77.9082C75.5072 78.4497 74.078 78.8708 72.6864 79.3446C72.5736 79.3822 72.5059 79.5252 77.4633 82.7225L77.4784 82.7225ZM74.9259 49.5566L74.798 49.4287C74.7454 49.5265 74.6777 49.6243 74.6626 49.7296C74.6626 49.7597 74.8056 49.8123 74.8808 49.8575C74.8883 49.7597 74.9033 49.6544 74.7905 49.4362C75.0688 49.2933 75.3245 49.0978 75.6254 49.0226C76.1745 48.8797 76.5582 48.5412 76.9418 48.1576C77.8669 47.2625 77.8745 47.2851 79.3037 46.9993C79.4767 46.9617 79.6196 46.6834 79.7475 46.4954C79.8828 46.2998 79.9806 45.9162 80.1085 45.9087C81.0563 45.8636 81.327 44.976 81.9513 44.5322C82.2146 44.3442 82.4102 44.0283 82.696 43.923C82.9969 43.8177 83.4182 44.0133 83.6739 43.8629C83.9221 43.72 84.0274 43.0881 84.2079 43.0881C85.0053 43.0731 85.1707 42.1253 86.0358 42.0727C86.6827 42.0276 86.9609 40.9068 87.8711 40.7489C88.4578 40.6587 89.1348 40.4331 89.2777 39.6433C90.0224 39.696 90.1502 38.846 90.6768 38.6805C91.2635 38.5 91.7449 38.2293 92.0984 37.7704C92.3767 37.4019 92.7378 37.4019 93.144 37.3568C93.6028 37.3042 94.3776 37.1763 94.4453 36.9432C94.8213 35.3635 96.5439 35.311 97.3412 34.2579C98.2438 34.4084 97.8225 33.2048 98.5446 33.1146C99.7106 32.9718 100.139 31.8359 100.952 31.2041C101.019 31.1515 100.997 30.9785 101.012 30.8581C100.891 30.8882 100.756 30.9032 100.658 30.9559C99.026 31.896 97.4163 32.9189 95.9495 34.0547C94.4903 35.198 92.9333 36.2284 91.4138 37.2213C89.601 38.4021 87.9162 39.8613 85.8476 40.651C84.6291 42.0952 82.711 42.6141 81.4097 43.9605C80.4468 43.9905 80.1235 45.021 79.3562 45.2767C78.777 45.4798 78.3182 45.8333 77.8142 46.0965C77.1071 46.4425 76.7837 47.0969 76.182 47.473C75.9262 47.6385 75.6028 47.8716 75.3395 47.834C74.6926 47.7437 74.3992 48.1724 74.0006 48.5109C73.3537 49.0525 72.8723 49.7294 72.0901 50.1657C70.8414 50.8576 69.6003 51.6323 68.4419 52.4597C67.6145 53.0464 66.915 53.8512 65.9672 54.2574C65.0194 54.6635 64.1168 55.0546 63.6354 56.0475C62.808 55.8218 62.6426 56.8598 61.9957 56.9199C61.2209 56.9876 61.0103 57.7398 60.4687 58.0707C59.9422 58.3866 59.3856 58.7928 58.8063 58.8454C58.5055 58.8755 58.1594 58.3639 58.2272 59.1237C58.2573 59.5449 58.2799 59.8835 57.6555 59.7706C57.144 59.6803 56.7303 59.778 56.783 60.4776C56.7905 60.6055 56.5799 60.8612 56.452 60.8838C54.8423 61.1093 54.0827 63.1027 52.2698 62.8844C52.2698 62.9446 52.2548 63.0198 52.2698 63.08C52.4278 64.0805 51.3897 63.5689 51.0513 64.0277C50.6902 64.5091 50.3593 65.1409 49.5394 65.1635C48.8097 65.186 49.0806 66.4497 48.1854 66.412C48.1403 66.412 48.0576 66.6151 48.02 66.728C47.9598 66.9085 47.9222 67.0815 47.4483 67.3598C47.5461 67.3673 47.6514 67.3824 47.7492 67.3899C47.7492 67.2996 47.7492 67.2244 47.7492 67.1342C47.6514 67.1417 47.5461 67.1567 47.4483 67.1793C47.4408 67.1868 47.4408 67.2921 47.8771 67.262C47.9899 67.3147 48.1855 67.42 48.2081 67.3975C49.2837 66.0661 51.2395 66.0061 52.2549 64.5844C53.1425 64.8703 53.3455 63.8248 54.0752 63.6368C54.7447 63.4638 55.226 62.6213 55.8503 62.1475C56.2339 61.8541 56.7078 61.5307 57.1592 61.4856C57.8813 61.4104 57.7308 61.2299 57.3773 60.8613C57.3547 60.8387 57.46 60.6883 57.4976 60.6055C58.4906 61.3578 58.4003 60.41 58.656 59.9136C58.7613 59.718 59.19 59.4548 59.2352 59.4999C60.0025 60.1619 60.213 59.3044 60.6418 59.0411C60.9201 58.8681 60.5063 58.1234 61.221 58.3566C61.7701 58.5297 61.8453 58.0784 62.0559 57.7925C62.8759 58.447 63.109 57.5369 63.5979 57.2435C63.9289 57.048 63.6956 55.882 64.5908 56.6569C64.7337 56.4839 64.9368 56.3109 65.012 56.1153C65.2226 55.4834 65.5159 54.9945 66.6142 55.1902C66.3434 55.2202 66.223 55.1901 66.1779 55.2353C66.0576 55.3556 65.9824 55.5211 65.8771 55.6715C65.9523 55.7167 66.0877 55.822 66.1027 55.8069C66.2532 55.6565 66.3886 55.476 66.3058 55.1074C66.6367 54.957 67.2536 54.8066 67.246 54.6636C67.2309 53.9265 67.5694 53.7535 68.2088 53.8212C68.3743 53.8363 68.6902 53.7611 68.6902 53.746C68.6074 52.7155 69.3747 53.0616 69.8862 52.9713C70.0592 52.9488 70.3601 52.7833 70.3526 52.7306C70.2322 51.9784 71.0596 51.9033 71.2552 51.9033C71.9849 51.8958 72.1428 51.5723 72.1578 50.9555C72.1578 50.8653 72.4587 50.7901 72.6242 50.6998C72.7747 51.9184 73.1808 50.9556 73.4291 50.7676C73.8428 50.4592 74.1737 50.068 74.1812 49.4888C74.1812 49.4587 74.5799 49.4362 74.9259 49.5415L74.9259 49.5566ZM68.9102 78.2762C69.4743 77.8926 69.7828 78.7577 70.4297 78.2613C71.1292 77.7272 72.1447 77.6145 73.0022 77.2836C73.8673 76.9451 74.6571 76.4111 75.6274 76.3735C76.2216 75.3731 77.365 75.7493 78.2075 75.3582C78.4332 75.2529 78.6663 75.0799 78.8017 74.8844C79.1928 74.2977 79.8473 74.1698 80.434 73.9743C81.0282 73.7712 81.6977 73.8239 82.2995 73.6284C82.4725 73.5758 82.5326 73.0793 82.5627 72.7784C82.5702 72.7107 82.1866 72.5076 82.0437 72.5452C81.2839 72.7934 80.4866 73.0039 79.8021 73.4025C78.8694 73.929 77.8539 74.1922 76.8685 74.5457C75.003 75.2075 73.303 76.2305 71.3999 76.7945C70.6327 77.0201 69.9181 77.3886 69.1885 77.7271C69.0681 77.7873 69.0305 78.0204 68.9027 78.2687L68.9102 78.2762ZM50.7218 85.3308C50.6466 85.5715 50.5413 85.7369 50.5789 85.7896C50.6768 85.9325 50.8573 86.1131 50.9927 86.1131C51.3011 86.1056 51.6246 86.0379 51.9029 85.9101C52.7453 85.534 53.5577 85.0677 54.4152 84.7217C55.7316 84.2028 57.0856 83.7666 58.4245 83.2853C58.5373 83.2477 58.6652 83.1499 58.7178 83.0521C58.8457 82.849 58.9585 82.6309 58.9961 82.3977C59.0036 82.345 58.6952 82.172 58.5222 82.1645C57.1832 82.059 56.1151 82.8112 55.032 83.3979C54.4076 83.7363 53.8736 84.15 53.1289 84.1424C52.0758 84.1273 51.6245 85.2706 50.7068 85.3157L50.7218 85.3308ZM67.1325 45.7949C67.2002 45.652 67.3431 45.3436 67.486 45.0351C67.2303 45.2307 66.9821 45.4187 66.7113 45.5993C66.5609 45.7046 66.3878 45.7873 66.2299 45.8851C65.1542 46.5545 64.0109 47.1261 63.1309 48.0663C63.0556 48.1415 63.0632 48.2995 63.0331 48.4198C63.161 48.4274 63.2889 48.45 63.4167 48.4274C63.6048 48.4048 63.8906 48.435 63.9659 48.3296C64.7255 47.2089 66.0795 46.8329 67.1401 45.7874L67.1325 45.7949ZM48.2829 62.4478C48.3055 62.5155 48.3356 62.6058 48.3431 62.6133C48.4635 62.5832 48.5763 62.5306 48.6967 62.5005C49.7573 62.3125 50.2913 61.4325 50.9833 60.7705C51.3444 60.4095 51.6527 59.9808 51.9837 59.5896C51.3518 59.4993 51.2541 60.2741 50.8178 60.3493C49.855 60.5298 49.4639 61.5377 48.5913 61.7483C48.0121 61.8912 48.4409 62.2598 48.2905 62.4553L48.2829 62.4478ZM49.7212 83.3072C49.8566 83.3072 49.9845 83.2997 50.1124 83.3072C51.2633 83.3449 52.1659 82.7883 52.9557 82.0286C53.0385 81.9459 53.0535 81.8105 53.0986 81.6902C52.9482 81.7202 52.7977 81.7202 52.6548 81.7729C51.7371 82.1188 50.8194 82.4648 49.9092 82.8183C49.8115 82.8559 49.7588 83.0138 49.6986 83.1191C49.6761 83.1718 49.6987 83.2395 49.7137 83.2997L49.7212 83.3072ZM66.7868 49.4958C66.6965 49.5861 66.5837 49.6688 66.516 49.7666C66.3806 49.9622 66.2678 50.1803 66.1399 50.3834C66.3882 50.3909 66.6364 50.4135 66.8847 50.406C67.7948 50.3835 67.9378 50.2406 67.8399 49.4508C67.7872 49.0521 67.4713 48.8565 67.2005 49.0671C67.0501 49.1874 66.9297 49.3378 66.7868 49.4808L66.7868 49.4958ZM82.3493 35.0617C82.5374 35.4905 81.4692 35.2798 81.8228 35.9643C82.1162 35.7312 82.4246 35.498 82.7104 35.2573C82.8608 35.137 83.0038 34.994 83.1241 34.8436C83.1617 34.791 83.094 34.648 83.0489 34.5578C83.0263 34.5352 82.8984 34.5277 82.8608 34.5653C82.7179 34.6931 82.5825 34.8436 82.3493 35.0767L82.3493 35.0617ZM47.88 106.965C48.0154 107.1 48.1433 107.258 48.2938 107.363C48.3539 107.408 48.4893 107.348 48.5871 107.311C48.6022 107.296 48.6097 107.183 48.5871 107.13C48.4968 106.844 48.4667 106.498 48.2862 106.303C48.1583 106.175 47.8047 106.273 47.5565 106.265C47.5791 106.408 47.5716 106.566 47.6242 106.694C47.6769 106.807 47.8048 106.874 47.895 106.965L47.88 106.965ZM72.112 41.9137C71.924 42.1018 71.7284 42.2673 71.5629 42.4779C71.5178 42.523 71.6156 42.6659 71.6382 42.7637L72.6762 41.7257C72.5859 41.6956 72.4655 41.6204 72.3978 41.643C72.285 41.6956 72.2098 41.816 72.112 41.9137ZM71.0989 74.0413C71.0236 74.2068 70.9635 74.282 70.986 74.3196C71.0312 74.3949 71.1064 74.5002 71.1741 74.5077C71.4148 74.5077 71.6706 74.4927 71.9038 74.425C71.9865 74.4024 72.0467 74.237 72.1144 74.1392C71.9865 74.0715 71.8586 73.9586 71.7232 73.9586C71.49 73.9511 71.2568 74.0188 71.0913 74.0488L71.0989 74.0413ZM87.562 31.5642C87.4266 31.6996 87.2687 31.8275 87.1558 31.9854C87.1107 32.0306 87.2085 32.1735 87.2386 32.2638L88.2766 31.2258C88.1713 31.1957 88.0434 31.1129 87.9908 31.1505C87.8328 31.2633 87.7049 31.4213 87.5695 31.5567L87.562 31.5642ZM89.2366 94.4205C89.1764 94.6762 89.1538 94.8041 89.1313 94.9169C89.4171 94.8869 89.703 94.8568 89.9813 94.8192C89.9361 94.7139 89.906 94.5334 89.8308 94.5033C89.6428 94.4356 89.4321 94.4355 89.2441 94.413L89.2366 94.4205ZM73.8143 73.0862C73.8444 73.2216 73.8444 73.4322 73.9046 73.4473C74.1002 73.5074 74.3184 73.53 74.529 73.515C74.5591 73.515 74.5741 73.2442 74.5966 73.1013C74.3409 73.1013 74.0851 73.0862 73.8294 73.0862L73.8143 73.0862ZM48.0157 111.674C48.3166 111.628 48.595 111.591 48.8808 111.561C48.8357 111.455 48.798 111.252 48.7454 111.245C48.5423 111.222 48.3166 111.237 48.121 111.297C48.0609 111.313 48.0533 111.516 48.0157 111.674ZM72.8966 73.372C72.7838 73.6352 72.7387 73.7405 72.686 73.8534C72.9719 73.8835 73.2577 73.9136 73.5361 73.9512C73.506 73.8309 73.521 73.6654 73.4533 73.6127C73.2878 73.5074 73.0847 73.4547 72.8966 73.387L72.8966 73.372ZM84.7102 19.3704C84.6275 19.9195 84.5823 20.0549 84.5974 20.1903C84.6049 20.3483 84.6651 20.4987 84.7028 20.6567C84.8532 20.5665 85.139 20.4612 85.1315 20.3634C85.124 20.1603 84.981 19.9572 84.7177 19.3629L84.7102 19.3704ZM92.5265 28.1946C92.3986 28.4579 92.3159 28.6158 92.2407 28.7813C92.4287 28.7136 92.6469 28.6911 92.7973 28.5858C92.9327 28.4805 92.9928 28.2849 93.0906 28.1269C92.9026 28.1495 92.6995 28.172 92.5265 28.1946ZM91.2102 29.7366C91.2403 29.556 91.2703 29.3605 91.3004 29.1649C91.1424 29.2627 90.9393 29.3153 90.834 29.4507C90.7137 29.6011 90.6836 29.8268 90.6159 30.0149C90.7814 29.9396 90.9469 29.8644 91.1951 29.7366L91.2102 29.7366ZM89.1266 30.4661C88.9987 30.7293 88.916 30.8873 88.8408 31.0528C89.0288 30.9851 89.247 30.9626 89.3974 30.8573C89.5328 30.752 89.5929 30.5564 89.6907 30.3984C89.5027 30.421 89.2996 30.4435 89.1266 30.4661ZM83.7412 38.1384C83.6434 38.3716 83.5456 38.5897 83.4479 38.8079C83.6133 38.7327 83.824 38.7026 83.9368 38.5898C84.0947 38.4168 84.185 38.1761 84.2978 37.9579C84.1248 38.0106 83.9593 38.0707 83.7412 38.1384ZM88.2136 95.8346C88.2813 95.812 88.4167 95.7519 88.5672 95.6917C88.522 95.5864 88.507 95.4209 88.4242 95.3682C88.3114 95.3005 88.1459 95.3156 87.9954 95.3005C88.0406 95.4058 88.0857 95.5262 88.2061 95.8271L88.2136 95.8346ZM87.0702 94.6009C86.9799 94.7062 86.8595 94.8265 86.8746 94.8416C86.9799 94.977 87.1153 95.0973 87.2432 95.2102C87.2432 95.2102 87.4313 95.0522 87.4237 95.0297C87.3259 94.8867 87.2056 94.7513 87.0702 94.6009ZM48.7832 114.698C48.6102 114.825 48.4523 114.923 48.3319 115.059C48.2943 115.096 48.3696 115.247 48.4072 115.344C48.5576 115.254 48.7306 115.171 48.866 115.066C48.8961 115.036 48.8284 114.878 48.7908 114.705L48.7832 114.698ZM53.6395 72.182C53.6621 72.2497 53.7223 72.3851 53.7825 72.5356C53.8878 72.4905 54.0533 72.4754 54.1059 72.3927C54.1736 72.2799 54.1586 72.1144 54.1736 71.9639C54.0683 72.0091 53.9479 72.0542 53.647 72.1745L53.6395 72.182ZM54.6933 81.5248C54.8663 81.5624 54.9942 81.585 55.1071 81.6076C55.0318 81.4421 54.9942 81.254 54.8889 81.1186C54.8212 81.0509 54.6632 81.0584 54.5428 81.0433C54.5955 81.2164 54.6557 81.3819 54.6933 81.5248ZM82.0173 21.1605C82.055 21.3486 82.0399 21.5141 82.1152 21.5742C82.2506 21.6796 82.4311 21.7247 82.6041 21.7924C82.574 21.6721 82.5966 21.5141 82.5213 21.4389C82.401 21.3185 82.2204 21.2583 82.0249 21.153L82.0173 21.1605ZM68.3514 48.6233C68.5244 48.661 68.6748 48.7362 68.7124 48.6986C68.8328 48.5632 68.908 48.3977 68.9907 48.2398C68.8929 48.2172 68.75 48.1344 68.7049 48.1645C68.5845 48.2849 68.4868 48.4428 68.3438 48.6158L68.3514 48.6233ZM48.5021 75.9353C48.4269 75.9353 48.3667 75.9353 48.3065 75.9353C48.3366 76.0255 48.3516 76.1308 48.4043 76.2136C48.4269 76.2362 48.5247 76.2136 48.5848 76.2136C48.5623 76.1158 48.5322 76.0255 48.5021 75.9353ZM46.9625 109.387C47.0377 109.387 47.0979 109.387 47.158 109.387C47.1279 109.296 47.1129 109.191 47.0602 109.108C47.0377 109.086 46.9399 109.108 46.8797 109.108C46.9023 109.206 46.9324 109.296 46.9625 109.387ZM49.1512 106.19L49.1512 105.994C49.0609 106.024 48.9556 106.039 48.8729 106.092C48.8503 106.115 48.8729 106.212 48.8729 106.273C48.9707 106.25 49.0609 106.22 49.1512 106.19ZM51.9025 81.0356C51.8273 81.0356 51.7671 81.0356 51.7069 81.0356C51.737 81.1259 51.7521 81.2312 51.8048 81.3139C51.8273 81.3365 51.9251 81.314 51.9853 81.314C51.9627 81.2162 51.9326 81.1259 51.9025 81.0356ZM47.0803 75.0852C47.0051 75.0851 46.9449 75.0851 46.8847 75.0851C46.9148 75.1754 46.9299 75.2807 46.9825 75.3635C47.0051 75.386 47.1029 75.3635 47.1631 75.3635C47.1405 75.2657 47.1104 75.1754 47.0803 75.0852ZM55.3853 81.0434C55.3853 81.0434 55.5433 81.066 55.5659 81.0434C55.6185 80.9607 55.6336 80.8554 55.6636 80.7651C55.6035 80.7651 55.5057 80.7425 55.4831 80.7651C55.4305 80.8478 55.4154 80.9531 55.3853 81.0434ZM45.8306 60.9131C45.8005 61.0034 45.7779 61.1011 45.7478 61.1914C45.808 61.1914 45.9058 61.214 45.9284 61.1914C45.981 61.1087 45.9961 61.0034 46.0261 60.9131C45.966 60.9131 45.9058 60.9131 45.8306 60.9131ZM46.3947 60.349C46.3646 60.4392 46.3421 60.537 46.312 60.6273C46.3722 60.6273 46.4699 60.6499 46.4925 60.6273C46.5452 60.5446 46.5602 60.4392 46.5903 60.349C46.5301 60.349 46.4699 60.349 46.3947 60.349ZM68.4288 78.7726C68.4288 78.7726 68.5868 78.7952 68.6093 78.7726C68.662 78.6899 68.677 78.5846 68.7071 78.4943C68.6469 78.4943 68.5491 78.4717 68.5266 78.4943C68.4739 78.577 68.4589 78.6824 68.4288 78.7726ZM69.2786 75.3651C69.2786 75.3651 69.256 75.5231 69.2786 75.5456C69.3613 75.5983 69.4666 75.6133 69.5569 75.6434C69.5569 75.5833 69.5795 75.4855 69.5569 75.4629C69.4741 75.4102 69.3688 75.3952 69.2786 75.3651ZM91.3954 94.2777C91.4857 94.3078 91.5835 94.3304 91.6738 94.3605C91.6738 94.3003 91.6963 94.2025 91.6738 94.1799C91.591 94.1273 91.4857 94.1122 91.3954 94.0821C91.3954 94.1423 91.3954 94.2025 91.3954 94.2777ZM53.6157 55.5202C53.5405 55.5202 53.4803 55.5202 53.4202 55.5202C53.4502 55.6104 53.4653 55.7158 53.518 55.7985C53.5405 55.8211 53.6383 55.7985 53.6985 55.7985C53.6759 55.7007 53.6458 55.6105 53.6157 55.5202ZM88.9278 89.8243C88.8977 89.9146 88.8752 90.0124 88.8451 90.1027C88.9053 90.1027 89.0031 90.1252 89.0256 90.1027C89.0783 90.0199 89.0933 89.9146 89.1234 89.8244C89.0632 89.8244 89.003 89.8244 88.9278 89.8243ZM55.1052 56.2876C55.1955 56.3177 55.2933 56.3402 55.3835 56.3703C55.3835 56.3102 55.4061 56.2124 55.3835 56.1898C55.3008 56.1371 55.1955 56.1221 55.1052 56.092L55.1052 56.2876ZM87.7918 88.1167C87.7617 88.207 87.7392 88.3048 87.7091 88.395C87.7693 88.395 87.8671 88.4176 87.8896 88.395C87.9423 88.3123 87.9573 88.207 87.9874 88.1167L87.7918 88.1167ZM90.7406 88.1169C90.6653 88.1169 90.6051 88.1169 90.545 88.1169C90.5751 88.2072 90.5901 88.3125 90.6428 88.3952C90.6653 88.4178 90.7631 88.3952 90.8233 88.3953C90.8007 88.2975 90.7706 88.2072 90.7406 88.1169ZM76.1612 72.5297C76.1312 72.62 76.1086 72.7178 76.0785 72.808C76.1387 72.808 76.2365 72.8306 76.259 72.808C76.3117 72.7253 76.3267 72.62 76.3568 72.5297C76.2966 72.5297 76.2365 72.5297 76.1612 72.5297ZM59.641 54.3848C59.641 54.3848 59.6184 54.5427 59.641 54.5653C59.7238 54.618 59.8291 54.633 59.9193 54.6631C59.9193 54.6029 59.9419 54.5051 59.9193 54.4826C59.8366 54.4299 59.7313 54.4149 59.641 54.3848ZM77.786 71.6723C77.786 71.6723 77.944 71.6949 77.9665 71.6723C78.0192 71.5896 78.0342 71.4842 78.0643 71.394C78.0041 71.394 77.9063 71.3714 77.8838 71.394C77.8311 71.4767 77.8161 71.582 77.786 71.6723ZM78.636 71.1082C78.636 71.1082 78.6134 71.2661 78.636 71.2887C78.7187 71.3414 78.824 71.3564 78.9143 71.3865C78.9143 71.3263 78.9369 71.2286 78.9143 71.206C78.8315 71.1533 78.7262 71.1383 78.636 71.1082ZM61.3409 53.3318C61.341 53.407 61.341 53.4672 61.341 53.5274C61.4312 53.4973 61.5365 53.4822 61.6193 53.4296C61.6418 53.407 61.6193 53.3092 61.6193 53.249C61.5215 53.2716 61.4312 53.3017 61.3409 53.3318ZM79.7718 71.0255C79.7718 70.9503 79.7718 70.8901 79.7718 70.8299C79.6815 70.86 79.5762 70.8751 79.4935 70.9277C79.4709 70.9503 79.4935 71.0481 79.4935 71.1082C79.5913 71.0857 79.6816 71.0556 79.7718 71.0255ZM81.1857 67.0539C81.276 67.0839 81.3738 67.1065 81.464 67.1366C81.464 67.0764 81.4866 66.9786 81.464 66.9561C81.3813 66.9034 81.276 66.8884 81.1857 66.8583L81.1857 67.0539ZM69.2763 45.0202C69.2763 45.0202 69.4343 45.0428 69.4569 45.0203C69.5095 44.9375 69.5246 44.8322 69.5546 44.7419C69.4945 44.7419 69.3967 44.7194 69.3741 44.7419C69.3215 44.8247 69.3064 44.93 69.2763 45.0202ZM85.4336 37.3637C85.4336 37.3637 85.5916 37.3863 85.6142 37.3637C85.6668 37.281 85.6819 37.1757 85.7119 37.0854C85.6518 37.0854 85.554 37.0629 85.5314 37.0854C85.4788 37.1682 85.4637 37.2735 85.4336 37.3637ZM74.0136 20.9192L73.818 20.9192C73.8481 21.0095 73.8632 21.1148 73.9158 21.1975C73.9384 21.2201 74.0362 21.1975 74.0964 21.1975C74.0738 21.0998 74.0437 21.0095 74.0136 20.9192ZM91.3835 33.5955C91.4737 33.6256 91.5715 33.6482 91.6618 33.6783C91.6618 33.6181 91.6844 33.5203 91.6618 33.4977C91.579 33.4451 91.4737 33.43 91.3835 33.3999C91.3835 33.4601 91.3835 33.5203 91.3835 33.5955ZM93.9334 31.497C93.9334 31.5722 93.9334 31.6324 93.9334 31.6926C94.0237 31.6625 94.129 31.6474 94.2117 31.5948C94.2343 31.5722 94.2117 31.4744 94.2117 31.4143C94.1139 31.4368 94.0236 31.4669 93.9334 31.497ZM83.0778 19.2274C83.0026 19.2274 82.9424 19.2274 82.8823 19.2273C82.9123 19.3176 82.9274 19.4229 82.9801 19.5057C83.0026 19.5282 83.1004 19.5057 83.1606 19.5057C83.138 19.4079 83.1079 19.3176 83.0778 19.2274ZM87.3356 20.9277C87.3657 20.8374 87.3882 20.7397 87.4183 20.6494C87.3581 20.6494 87.2603 20.6268 87.2378 20.6494C87.1851 20.7321 87.1701 20.8374 87.14 20.9277L87.3356 20.9277ZM86.8465 19.4307C86.9368 19.4608 87.0346 19.4834 87.1248 19.5135C87.1248 19.4533 87.1474 19.3555 87.1248 19.333C87.0421 19.2803 86.9368 19.2653 86.8465 19.2352C86.8465 19.2953 86.8465 19.3555 86.8465 19.4307Z" fill="#4F4F4F"/>
      <path d="M65.9739 43.4328C66.0341 43.5381 66.1469 43.6509 66.147 43.7563C66.147 43.8616 66.0718 44.0271 65.9815 44.0722C64.6501 44.6964 63.5745 45.6968 62.3634 46.4565C61.1148 47.2387 60.0467 48.382 58.5272 48.7279C57.8503 49.6155 56.8348 50.0743 55.9548 50.7136C55.2929 51.195 54.6309 51.6764 53.9389 52.1126C53.8562 52.1653 53.6154 51.9697 53.4499 51.8944C53.5176 51.7816 53.5628 51.6312 53.653 51.571C54.4353 51.0595 55.2477 50.5932 56.0149 50.0667C56.7972 49.5252 57.4741 48.6225 58.3241 48.4345C59.3547 48.2014 59.7458 47.2537 60.7236 46.9378C61.7466 46.6069 62.5514 45.5914 63.4691 44.8995C64.1686 44.3654 64.8907 43.854 65.6204 43.35C65.6805 43.3049 65.8536 43.4027 65.9739 43.4328Z" fill="#4F4F4F"/>
      <path d="M78.7688 34.5951C79.3705 34.219 79.9647 33.8504 80.5515 33.4894C81.1382 33.1133 81.3713 32.3386 82.2514 32.2258C82.6726 32.1807 83.0036 31.5188 83.4173 31.2104C83.8159 30.917 84.2898 30.729 84.7035 30.4658C85.2827 30.0972 85.8544 29.691 86.4336 29.3225C86.5389 29.2623 86.7119 29.3 86.8548 29.2924C86.8323 29.5407 86.8097 29.7889 86.7872 30.0221C85.9748 29.9468 85.7642 30.7742 85.2226 31.0751C83.2895 32.1657 81.4315 33.3616 79.7617 34.8208C79.5962 34.9712 79.2728 34.9185 79.0471 35.0088C78.8214 35.0991 78.6184 35.2721 78.4077 35.4074C78.5281 35.1517 78.6484 34.8809 78.7763 34.6026L78.7688 34.5951Z" fill="#4F4F4F"/>
      <path d="M71.6603 39.4464C72.2771 39.0402 72.9164 38.6566 73.5332 38.2204C74.1049 37.8293 74.353 36.9642 75.2482 37.0771C75.7897 36.2046 76.8203 36.0166 77.5574 35.4149C77.6101 35.3622 77.8734 35.5654 78.0313 35.6481C77.9561 35.7534 77.896 35.8888 77.7907 35.964C76.8203 36.6635 75.8876 37.4157 74.8496 38.0174C73.8793 38.5815 73.1196 39.4766 71.9913 39.7774C71.728 39.8451 71.5023 40.0256 71.2541 40.1535C71.382 39.9353 71.4948 39.7172 71.6452 39.4614L71.6603 39.4464Z" fill="#4F4F4F"/>
      <path d="M52.6901 53.0152C52.2839 53.1957 51.7423 53.301 51.3888 53.6094C50.095 54.7376 48.6433 55.6326 47.2367 56.5879C46.665 56.979 46.1009 57.3626 45.5217 57.7311C45.4389 57.7838 45.3035 57.7537 45.1907 57.7612C45.2208 57.6408 45.2208 57.4754 45.296 57.4152C46.2513 56.6856 47.1539 55.8733 48.1919 55.2715C49.1171 54.7375 49.9821 54.1283 50.8396 53.5115C51.3586 53.143 51.7648 52.6616 52.4343 52.5187C52.6675 52.4661 52.8555 52.263 53.0661 52.1276C52.9608 52.3833 52.848 52.6466 52.6901 53.0152Z" fill="#4F4F4F"/>
      <path d="M69.8329 41.3645C69.4116 41.6503 68.7497 42.1317 68.0502 42.5604C67.5763 42.8537 67.0573 43.0718 66.5683 43.32C66.5533 43.3351 66.4555 43.2523 66.463 43.2448C66.7413 42.7258 67.0045 42.2368 67.7041 42.1692C67.9222 42.1466 68.1629 41.921 68.3134 41.7405C68.8173 41.1162 69.4943 40.7852 70.1863 40.4543C70.3518 40.3791 70.5248 40.2963 70.6903 40.2211C70.6301 40.3866 70.585 40.5672 70.4872 40.7101C70.3744 40.868 70.2014 40.9959 69.8329 41.3645Z" fill="#4F4F4F"/>
      <path d="M38.3235 62.1011C39.1283 61.5069 39.9257 60.9202 40.7531 60.3486C40.8057 60.311 41.0163 60.4012 41.069 60.484C41.1367 60.5968 41.1593 60.8752 41.1142 60.8902C40.0837 61.3339 39.2412 62.0711 38.316 62.6803C38.1731 62.7781 37.985 62.8157 37.8271 62.8834C37.9023 62.7179 37.9625 62.5373 38.0527 62.3869C38.1204 62.2741 38.2408 62.1989 38.331 62.1086L38.3235 62.1011Z" fill="#4F4F4F"/>
      <path d="M66.8259 71.0171C67.3826 70.7613 67.9317 70.4981 68.4883 70.2725C68.6312 70.2198 68.8268 70.3101 68.9923 70.3402C68.8945 70.4982 68.7366 70.8066 68.729 70.799C67.9693 70.4304 67.8264 71.7017 67.0968 71.3932C66.9914 71.348 66.8485 71.3706 66.7282 71.3706C66.7582 71.2502 66.7883 71.1299 66.8259 71.0171Z" fill="#4F4F4F"/>
      <path d="M81.3361 65.0229C80.8096 65.6096 80.2304 66.0834 79.3578 65.8727C79.8844 65.286 80.4635 64.8122 81.3361 65.0229Z" fill="#4F4F4F"/>
      <path d="M42.34 59.7845C42.0617 60.0628 41.9188 60.2057 41.7834 60.3411C41.7458 60.3787 41.6104 60.3637 41.6028 60.3411C41.5577 60.2508 41.49 60.1079 41.5351 60.0477C41.6479 59.8898 41.7909 59.7468 41.9488 59.634C42.1444 59.4836 42.355 59.3482 42.5656 59.2128C42.4829 59.461 42.3851 59.7093 42.3626 59.792L42.34 59.7845Z" fill="#4F4F4F"/>
      <path d="M74.2503 68.1366C74.634 67.9636 74.7016 67.1587 75.3862 67.5725C75.0025 67.7455 74.9349 68.5503 74.2503 68.1366Z" fill="#4F4F4F"/>
      <path d="M77.3642 66.7226C76.9806 66.8956 76.9129 67.7005 76.2284 67.2867C76.612 67.1137 76.6796 66.3088 77.3642 66.7226Z" fill="#4F4F4F"/>
      <path d="M63.4711 72.6717C63.0875 72.8447 63.0198 73.6496 62.3353 73.2358C62.7189 73.0628 62.7866 72.2579 63.4711 72.6717Z" fill="#4F4F4F"/>
      <path d="M43.3854 58.6337C43.6412 58.5133 43.8066 58.4381 43.9646 58.3554C43.8969 58.5434 43.8668 58.7691 43.7465 58.9195C43.6412 59.0549 43.4456 59.1151 43.2801 59.2053C43.3102 59.0098 43.3403 58.8142 43.3704 58.6337L43.3854 58.6337Z" fill="#4F4F4F"/>
      <path d="M70.5645 70.1222L70.2786 69.8363C70.3688 69.746 70.4516 69.6182 70.5569 69.558C70.6848 69.5053 70.8427 69.5129 70.9857 69.5054C70.933 69.6182 70.9029 69.7386 70.8352 69.8363C70.76 69.9416 70.6472 70.0244 70.5569 70.1146L70.5645 70.1222Z" fill="#4F4F4F"/>
      <path d="M71.4067 69.5054C71.5947 69.197 71.6624 68.9939 71.7903 68.9262C71.9107 68.866 72.0987 68.9639 72.2642 68.994C72.174 69.0842 72.0987 69.1895 72.001 69.2572C71.8731 69.34 71.7302 69.3776 71.4142 69.5129L71.4067 69.5054Z" fill="#4F4F4F"/>
      <path d="M61.4928 73.5216C61.7561 73.3486 61.8914 72.8371 62.3428 73.2433C62.0795 73.4163 61.9442 73.9278 61.4928 73.5216Z" fill="#4F4F4F"/>
      <path d="M72.4601 68.678C72.6707 68.6479 72.8212 68.6329 72.9641 68.6104C72.8889 68.7608 72.8362 68.9488 72.7234 69.0617C72.6632 69.1218 72.5053 69.0993 72.3849 69.1143C72.3999 68.9789 72.43 68.8435 72.4526 68.6705L72.4601 68.678Z" fill="#4F4F4F"/>
      <path d="M73.3926 68.648C73.5806 68.3396 73.6483 68.1365 73.7761 68.0688C73.8965 68.0086 74.0846 68.1064 74.2501 68.1365C74.1598 68.2268 74.0846 68.3321 73.9868 68.3998C73.8589 68.4825 73.716 68.5201 73.4001 68.6555L73.3926 68.648Z" fill="#4F4F4F"/>
      <path d="M76.2285 67.2867C75.9653 67.4597 75.8299 67.9712 75.3785 67.5649C75.6418 67.3919 75.7772 66.8804 76.2285 67.2867Z" fill="#4F4F4F"/>
      <path d="M78.4927 66.3767C78.6807 66.0683 78.7484 65.8652 78.8762 65.7975C78.9966 65.7373 79.1847 65.8351 79.3502 65.8652C79.2599 65.9555 79.1847 66.0608 79.0869 66.1285C78.959 66.2112 78.8161 66.2488 78.5002 66.3842L78.4927 66.3767Z" fill="#4F4F4F"/>
      <path d="M81.5314 64.7069C81.742 64.6769 81.8924 64.6618 82.0354 64.6393C81.9602 64.7897 81.9075 64.9778 81.7947 65.0906C81.7345 65.1508 81.5765 65.1282 81.4562 65.1432C81.4712 65.0078 81.5013 64.8724 81.5239 64.6994L81.5314 64.7069Z" fill="#4F4F4F"/>
      <path d="M46.3209 79.8166L46.3209 79.621C46.4112 79.6511 46.5165 79.6662 46.5992 79.7188C46.6218 79.7414 46.5992 79.8392 46.5992 79.8994C46.5015 79.8768 46.4112 79.8467 46.3209 79.8166Z" fill="#4F4F4F"/>
      <path d="M48.1111 79.0495C48.1863 79.0495 48.2465 79.0495 48.3067 79.0495C48.2766 79.1397 48.2616 79.2451 48.2089 79.3278C48.1863 79.3504 48.0886 79.3278 48.0284 79.3278C48.0509 79.23 48.081 79.1397 48.1111 79.0495Z" fill="#4F4F4F"/>
      <path d="M52.6087 70.5496C52.6087 70.5496 52.7817 70.5421 52.7893 70.5496C52.8194 70.6399 52.8194 70.7452 52.8344 70.8505L52.5787 70.8505C52.5862 70.7527 52.6012 70.6474 52.6087 70.5496Z" fill="#4F4F4F"/>
      <path d="M58.8451 73.386C58.8451 73.386 59.0181 73.3785 59.0256 73.386C59.0557 73.4763 59.0557 73.5816 59.0707 73.6869L58.815 73.6869C58.8225 73.5891 58.8375 73.4838 58.8451 73.386Z" fill="#4F4F4F"/>
      <path d="M63.5992 72.5438C63.697 72.5514 63.8023 72.5664 63.8926 72.5815C63.8474 72.6567 63.8023 72.8071 63.7647 72.7996C63.6594 72.7845 63.5616 72.7168 63.4638 72.6642C63.5089 72.619 63.5465 72.5814 63.5917 72.5363L63.5992 72.5438Z" fill="#4F4F4F"/>
      <path d="M65.5997 71.9723C65.6298 71.882 65.6448 71.7767 65.6974 71.694C65.72 71.6714 65.8178 71.694 65.878 71.694C65.8479 71.7842 65.8329 71.8896 65.7802 71.9723C65.7576 71.9949 65.6598 71.9723 65.5997 71.9723Z" fill="#4F4F4F"/>
      <path d="M69.8496 69.934C69.8496 69.934 69.8421 69.761 69.8496 69.7535C69.9399 69.7234 70.0452 69.7234 70.1505 69.7084C70.1505 69.7987 70.1505 69.8739 70.1505 69.9642C70.0527 69.9566 69.9474 69.9416 69.8496 69.934Z" fill="#4F4F4F"/>
      <path d="M77.4923 66.5947C77.59 66.6023 77.6954 66.6173 77.7856 66.6324C77.7405 66.7076 77.6954 66.858 77.6578 66.8505C77.5524 66.8355 77.4547 66.7677 77.3569 66.7151L77.4847 66.5872L77.4923 66.5947Z" fill="#4F4F4F"/>
      <path d="M89.7352 18.6787C89.7352 18.6787 89.9082 18.6712 89.9157 18.6787C89.9458 18.769 89.9458 18.8743 89.9609 18.9796L89.7051 18.9796C89.7126 18.8818 89.7277 18.7765 89.7352 18.6787Z" fill="#4F4F4F"/>
    </g>
  </svg>