<svg xmlns="http://www.w3.org/2000/svg" width="185" height="178" viewBox="0 0 185 178" fill="none">
    <g style="mix-blend-mode:screen">
      <path d="M71.2139 81.9788C70.4783 81.2351 72.0216 80.7077 71.3953 79.9728C71.9613 79.1912 72.0306 78.2273 72.3212 77.346C72.6678 76.2925 73.6816 75.5269 73.6452 74.3151C73.0463 75.3198 72.4279 76.3137 71.8486 77.3291C71.3332 78.2271 70.3494 82.0524 70.2418 83.3885C70.1529 84.4812 70.0986 85.5801 69.9599 86.6711C69.655 89.0661 70.2146 91.3876 70.5041 93.7393C70.6461 94.9199 70.6941 96.0873 71.4527 97.1606C71.9271 97.8252 71.274 99.092 72.4992 99.5195C72.5187 99.5302 72.4405 99.7665 72.4414 99.8811C72.491 101.417 73.3492 102.634 74.1114 103.886C74.2243 104.075 74.5441 104.325 74.6854 104.276C75.7338 103.935 75.532 105.118 76.0811 105.367C75.6172 107.054 77.243 107.56 77.9706 108.528C78.2798 108.938 78.7977 109.499 79.6213 109.594C80.2219 109.655 80.7931 110.398 81.2978 110.914C82.9804 112.618 85.396 113.886 87.6821 113.903C88.917 113.917 90.176 114.097 91.379 113.891C93.0582 113.603 94.5979 112.896 95.4252 111.217C95.5487 110.967 95.6429 110.562 95.8393 110.505C96.6603 110.255 96.878 109.74 96.6914 108.966C97.5533 108.828 96.9456 107.989 97.365 107.546C97.7222 107.17 97.708 106.452 97.8582 105.875C98.0031 105.307 98.2323 104.747 98.2928 104.172C98.4021 103.204 98.4217 102.239 98.4565 101.268C98.4654 100.88 98.5312 100.295 98.3126 100.137C97.6472 99.6603 97.9919 99.6328 98.4521 99.4401C98.5685 99.3895 98.5739 98.9613 98.5579 98.7116C98.4301 96.9934 98.2072 95.2868 98.0243 93.5766C97.6931 90.5809 96.4308 87.8506 95.762 84.9623C94.4774 83.4118 94.0715 81.3897 92.985 79.7318C91.9172 78.1094 90.8138 76.5056 89.7104 74.9018C89.2369 74.2124 88.7074 73.5557 88.1984 72.8849C88.7964 72.3236 89.4041 71.7675 89.9977 71.1911C91.7472 69.4955 96.1497 66.6099 98.1302 65.8392C98.7468 65.5923 99.3358 65.2797 99.9436 65.0027C100.551 64.7256 101.132 64.3579 101.761 64.1812C102.597 63.9522 103.472 63.8591 104.339 63.7109C105.196 63.5573 106.052 63.3141 106.92 63.2805C110.373 63.1355 113.745 63.5554 117.138 64.3796C120.131 65.0998 122.689 66.5715 125.298 67.9952C125.924 68.3364 126.54 68.8119 126.953 69.3796C127.67 70.3668 128.756 70.9089 129.604 71.7264C129.868 71.9849 129.923 72.1164 129.955 72.5011C130.07 73.7307 130.1 73.7218 129.836 74.4147C129.452 75.3972 128.953 76.4054 128.867 77.4235C128.812 78.1289 128.374 78.5366 128.214 79.1087C128.745 79.4366 128.276 79.7386 128.055 80.1889C128.093 80.26 128.229 80.1952 128.351 80.1348C128.372 80.2601 128.441 80.412 128.398 80.4902C128.313 80.6465 128.145 80.7451 128.016 80.865C127.987 80.7095 127.973 80.5496 128.055 80.1889C128.058 79.9748 127.941 79.9108 127.814 79.8415C127.443 80.4509 127.042 81.0691 127.83 81.7649C127.859 81.7809 127.8 81.7489 127.751 81.7222C127.834 81.6405 127.912 81.5437 128.013 81.4975C128.044 81.4886 128.139 81.6166 128.206 81.6788C128.11 81.7152 128.009 81.7614 127.835 81.7551C127.475 82.066 127.634 82.4951 127.561 82.8611C127.359 83.7655 127.972 84.455 128.003 85.2581C128.04 86.0514 128.085 86.7355 128.571 87.4952C129.266 88.5463 129.497 89.8896 129.942 91.0961C130.305 92.0805 131.141 92.6635 131.495 93.6426C131.794 94.4653 132.362 95.4471 133.4 95.7982C133.464 95.8204 133.563 95.8488 133.576 95.8941C133.735 96.4628 133.978 96.8999 134.581 97.1905C135.085 97.4278 135.424 97.9929 135.884 98.3581C136.417 98.7758 136.987 99.1499 137.557 99.4991C138.088 99.8271 138.661 100.102 139.218 100.406C139.834 100.742 140.412 101.171 141.066 101.389C142.578 101.896 144.148 101.878 145.716 101.63C146.367 101.529 147.045 101.518 147.641 101.286C150.638 100.093 151.714 96.7496 151.683 94.1333C151.649 91.477 150.805 89.0257 150.001 86.5709C149.575 85.2605 148.876 84.0299 148.151 82.8482C147.008 80.969 145.799 79.1174 144.513 77.3128C143.546 75.948 142.415 74.697 141.366 73.389C141.161 73.1376 141.033 72.8142 140.786 72.616C140.36 72.257 140.666 71.9293 140.857 71.7419C141.651 70.9833 142.475 70.2408 143.34 69.5844C145.051 68.2859 146.771 66.9927 148.75 66.1074C149.206 65.8996 149.523 65.2733 149.974 65.1899C150.937 65.0053 151.978 65.1423 152.75 64.3332C153.848 64.6914 154.724 63.876 155.734 63.7678C156.649 63.6712 157.563 63.5994 158.486 63.5827C159.458 63.5678 160.428 63.6026 161.402 63.6525C164.949 63.7998 168.279 64.7164 171.189 66.7735C172.905 67.9759 174.006 69.7937 175.236 71.4668C175.289 71.5335 175.027 71.8728 174.876 72.0567C174.72 72.2503 174.356 72.5212 174.38 72.5718C174.596 72.9184 174.866 73.4461 175.164 73.4817C175.909 73.5582 176.431 73.7165 176.788 74.4566C176.913 74.7151 177.464 74.9142 177.804 74.8965C178.837 74.839 179.828 74.5558 180.758 74.0611C181.504 73.6695 181.732 73.1347 181.709 72.2721C181.644 70.601 181.205 69.0809 180.313 67.6939C180.119 67.398 179.703 67.0692 179.394 67.0781C178.93 67.0913 178.803 67.1615 178.972 66.6196C179.061 66.3389 178.933 65.7365 178.771 65.6858C177.731 65.3596 177.285 64.3174 176.376 63.8464C175.319 63.2954 174.338 62.5827 173.227 62.1792C171.997 61.7365 170.759 61.2637 169.486 60.924C168.158 60.5675 166.881 60.0733 165.506 59.8048C161.587 59.0613 156.942 58.6953 153.289 59.2765C151.07 59.6252 148.689 59.48 146.716 60.8637C145.625 60.5854 144.85 61.3546 143.928 61.6503C141.625 62.3845 139.786 63.9424 137.685 65.0277C137.172 65.2932 137.033 65.6867 136.776 66.066C136.176 66.9561 135.284 67.2428 134.356 66.7114C133.541 66.2537 132.532 66.0332 132.125 65.0372L124.756 61.0167C123.805 61.132 123.11 60.5242 122.31 60.1767C121.52 59.8345 120.693 59.5608 119.875 59.3172C118.751 58.9829 117.6 58.7224 116.47 58.3979C113.333 57.5232 110.116 57.2134 106.876 56.9924C104.833 56.8543 102.815 57.1604 100.794 57.3768C99.9245 57.4602 99.0752 57.6688 98.208 57.817C97.3506 57.9705 96.471 58.0485 95.6305 58.2873C94.8753 58.5093 94.1778 58.9276 93.4404 59.21C92.041 59.7525 90.6417 60.295 89.2103 60.7567C87.8696 61.1918 86.6843 61.8765 85.5346 62.6821C84.3182 63.54 83.021 64.2905 81.9663 65.3635C81.4954 65.8546 81.0281 65.9674 80.4115 65.5168C79.3241 64.7206 77.9346 64.4316 77.0453 63.249C76.7317 62.8243 75.5695 63.0018 75.3155 62.5842C74.9441 61.9631 74.3853 61.5694 73.8887 61.5267C72.5826 61.4101 71.6294 60.6237 70.5366 60.1162C69.0911 59.4416 67.5008 59.1952 65.9993 58.693C65.1917 58.4299 64.2704 58.1427 63.3508 58.0848C62.3815 58.0251 61.4202 57.881 60.458 57.7618C59.5651 57.655 58.6607 57.4531 57.7589 57.4556C55.1725 57.4774 52.5791 57.5586 50.0558 58.3248C48.963 58.6542 47.7476 58.6504 46.6867 59.0606C45.282 59.6129 44.0106 60.4789 42.6476 61.1174C41.3913 61.6999 40.381 62.645 39.2393 63.3661C37.1753 64.6619 35.448 66.2936 33.8007 68.0576C33.4693 68.4093 33.4294 66.8786 32.9433 67.9322C32.7816 68.2751 32.4484 68.5371 32.1934 68.8417C32.1259 68.919 32.0139 68.9847 32.0059 69.0691C31.8237 70.2631 31.8379 70.2835 30.6829 70.8199C30.3133 70.986 30.0716 71.4754 30.2848 71.503C30.721 71.5635 31.1244 71.2891 30.7343 72.0272C30.2047 73.0444 30.2145 73.0497 29.0693 73.3124C29.4797 73.5364 30.1087 73.7781 29.3784 74.2799C28.2189 75.0802 27.7905 76.3301 27.4386 77.5329C27.2858 78.0455 27.1285 78.5429 26.8974 79.0128C26.4576 79.8887 25.7663 80.6908 25.5592 81.6049C25.3637 82.4746 25.0927 83.3665 24.9069 84.2416C24.7167 85.1015 24.3604 86.0103 24.0405 86.8755C23.9578 87.0967 23.7028 87.2619 23.5313 87.4599C23.5749 87.2174 23.6433 86.9758 23.6469 86.7368C23.6549 86.513 23.5883 86.2864 23.5466 86.0607C22.347 87.8408 22.3113 89.9517 22.0757 91.9407C21.7602 94.6343 21.4392 97.3376 21.5954 100.073C21.6362 100.742 21.2275 101.445 21.8947 102.012C21.5055 102.725 21.6041 103.451 21.9079 104.149C22.193 104.812 21.3454 105.389 21.8429 106.104C22.2124 106.636 21.8766 107.251 21.8206 107.842C21.7708 108.398 21.4535 109.189 22.1722 109.708C22.2886 109.797 22.206 110.157 22.2175 110.392C21.9856 110.329 21.6311 110.351 21.5467 110.203C20.9782 109.246 20.2044 108.457 19.5585 107.572C17.9532 105.377 16.1987 103.316 14.5418 101.17C14.1465 100.662 13.8 99.7632 13.3585 99.7125C12.6095 99.6209 12.3661 99.0443 11.8375 98.7812C10.9562 98.351 10.1175 97.8427 9.25216 97.3833C8.49876 96.9975 6.53167 97.3952 6.02609 98.0196C5.48409 98.6876 5.42808 99.1389 5.93533 99.8595C6.6798 100.912 7.50067 101.918 8.26023 102.967C10.4306 105.939 12.6719 108.874 14.9551 111.755C16.747 114.026 18.5122 116.346 20.5084 118.475C20.8345 118.83 21.189 119.087 21.5372 119.379C21.9388 119.712 22.2453 120.336 22.6664 120.401C23.211 120.495 22.9071 121.47 23.6312 121.143C23.6765 121.129 23.8267 121.249 23.8542 121.315C24.2993 122.521 25.1495 122.846 26.3374 122.505C26.5639 122.438 26.8527 122.583 27.1024 122.567C27.6266 122.536 28.1605 122.511 28.6723 122.41C29.9259 122.181 30.6075 121.094 31.5146 120.385C32.2734 119.784 32.7461 118.825 33.3379 118.019C33.4632 117.859 33.5405 117.648 33.7084 117.549C35.6551 116.189 37.044 114.272 38.7162 112.648C40.017 111.38 41.236 110.029 42.5324 108.745C43.8705 107.408 45.1367 105.994 46.3877 104.585C46.6836 104.251 46.8089 103.813 46.7539 103.263C46.7157 102.798 47.3403 102.048 46.8215 101.791C46.332 101.549 45.5128 101.749 45.1476 102.488C45.0623 102.644 44.8597 102.736 44.7158 102.861C44.7424 102.672 44.73 102.463 44.8011 102.286C44.9859 101.854 45.408 101.476 45.0731 100.951C44.9407 100.752 44.7168 100.465 44.5471 100.474C44.3028 100.48 44.0513 100.824 43.8176 100.811C43.6586 100.8 43.5547 100.363 43.3601 100.232C42.9808 99.9741 40.8405 100.201 40.5153 100.518C39.7103 101.296 38.7782 101.866 37.8213 102.434C37.2207 102.791 36.6707 103.264 36.5436 104.032C35.5432 103.448 35.5529 104.988 34.779 104.895C34.7293 104.893 34.6511 105.13 34.5871 105.247C34.3383 105.656 33.2961 106.521 32.938 106.642C32.4031 106.832 32.1428 106.589 32.0904 106.104C32.0594 105.858 32.1438 105.588 32.1527 105.339C32.1919 104.105 32.2106 102.885 32.2649 101.647C32.3209 100.358 32.2047 99.0143 32.5175 97.7902C32.825 96.5758 32.7495 95.3427 33.0019 94.1363C33.2641 92.9352 33.457 91.7217 33.6748 90.5091C33.8294 89.6678 34.3919 88.9856 34.5092 88.0733C34.6043 87.3643 34.9171 86.5586 35.1633 85.8053C35.4094 85.052 36.3103 84.5165 35.9515 83.5472C37.19 83.4621 36.3834 82.3373 36.8258 81.8052C37.3048 81.2296 37.5083 80.415 37.973 79.819C39.5342 77.8177 40.509 75.357 42.6618 73.8054C43.3621 72.0572 45.1995 71.3859 46.359 70.0278C47.3995 68.7949 49.1312 68.1547 50.4968 67.1626C52.982 65.3739 55.8464 64.4008 58.7633 63.9127C60.7481 63.5755 62.9524 63.7891 64.9221 64.2932C66.9655 64.8249 69.0889 65.3494 70.92 66.526C71.9328 67.1801 73.0167 67.7968 73.8278 68.6578C74.2551 69.1066 74.6806 69.4655 75.1817 69.8023C76.0666 70.412 76.2185 71.0401 75.7138 71.9186C75.5858 72.1531 75.3992 72.3556 75.2517 72.5795C75.0527 72.4328 74.8537 72.2862 74.6547 72.1396C74.5214 72.3839 74.3881 72.6282 74.2548 72.8725C74.1482 73.0679 74.1535 73.0581 74.6511 73.076C74.7506 73.0796 74.8492 73.2475 74.9505 73.3408C74.5293 73.5548 75.3271 74.3705 74.4458 74.3588C73.862 75.638 72.8828 76.6887 72.6686 78.2203C72.4828 79.5138 71.7124 80.7165 71.2095 81.9637C71.8269 82.5288 71.029 82.829 70.8486 83.4153C70.8859 83.4864 71.0228 83.4215 71.1445 83.3611C71.1649 83.4864 71.2342 83.6383 71.1915 83.7165C71.1062 83.8729 70.9383 83.9714 70.8095 84.0913C70.7802 83.9359 70.766 83.7759 70.8486 83.4153C70.3609 82.7053 71.149 82.3999 71.2095 81.9637L71.2139 81.9788ZM32.4798 77.1261C32.5162 77.222 32.5624 77.3233 32.5988 77.4193C32.5082 77.4459 32.4327 77.4681 32.3421 77.4947C32.3207 77.3943 32.3048 77.2842 32.2986 77.1793C32.3039 77.1696 32.4096 77.1385 32.4229 77.7417L32.5135 77.5756C32.5953 77.6582 32.6921 77.7364 32.7383 77.8377C32.7472 77.8679 32.6192 77.963 32.557 78.0305C32.5206 77.9345 32.4744 77.8332 32.4949 77.1216L32.4798 77.1261ZM88.4891 96.2231C88.5255 96.3191 88.5717 96.4203 88.6081 96.5163C88.5175 96.5429 88.442 96.5651 88.3514 96.5917C88.3301 96.4914 88.3087 96.391 88.3079 96.2764C88.3132 96.2666 88.4189 96.2355 88.4322 96.8387L88.5228 96.6726C88.6046 96.7553 88.7014 96.8335 88.7476 96.9347C88.7565 96.965 88.6285 97.06 88.5663 97.1275C88.5299 97.0315 88.4837 96.9302 88.5042 96.2186L88.4891 96.2231ZM72.199 84.3803C72.3661 84.3066 72.4931 84.2365 72.6246 84.1814C72.645 84.3067 72.7143 84.4586 72.6717 84.5368C72.5864 84.6931 72.4185 84.7917 72.2896 84.9116C72.2603 84.7561 72.2461 84.5962 72.7189 83.0789C72.6815 83.4263 72.6806 83.5906 72.6353 83.7434C72.606 83.8669 72.5127 83.9682 72.4487 84.0854C72.3696 83.9282 72.216 83.7682 72.2408 83.6296C72.2711 83.4813 72.455 83.3534 72.1892 84.375L72.199 84.3803ZM24.7245 89.0619C24.8915 88.9882 25.0186 88.9181 25.15 88.863C25.1705 88.9883 25.2398 89.1402 25.1971 89.2184C25.1118 89.3747 24.9439 89.4733 24.815 89.5932C24.7857 89.4378 24.7715 89.2778 25.2443 87.7606C25.207 88.1079 25.2061 88.2723 25.1607 88.4251C25.1314 88.5485 25.0381 88.6498 24.9741 88.7671C24.8951 88.6098 24.7414 88.4499 24.7663 88.3113C24.7965 88.1629 24.9804 88.035 24.7147 89.0566L24.7245 89.0619ZM88.1672 99.7882C88.3343 99.7145 88.4613 99.6443 88.5928 99.5892C88.6132 99.7145 88.6825 99.8664 88.6399 99.9446C88.5546 100.101 88.3867 100.2 88.2578 100.319C88.2285 100.164 88.2143 100.004 88.6871 98.4868C88.6497 98.8341 88.6488 98.9985 88.6035 99.1513C88.5742 99.2747 88.4809 99.376 88.4169 99.4933C88.3379 99.336 88.1842 99.1761 88.2091 99.0375C88.2393 98.8891 88.4232 98.7612 88.1575 99.7828L88.1672 99.7882ZM23.0363 90.5755C22.4188 90.0103 23.2167 89.7102 23.0871 88.5997C23.2728 88.422 23.4682 88.2497 23.6486 88.0818C23.6477 88.2462 23.7152 88.4479 23.6512 88.5651C23.5135 88.7943 23.2878 88.9755 23.111 89.1834C23.1074 89.0039 23.1039 88.8244 23.2869 89.2793C23.9043 89.8445 23.1065 90.1446 22.7964 90.8757C22.9634 90.802 23.0905 90.7318 23.222 90.6768C23.2424 90.802 23.3117 90.954 23.269 91.0321C23.1837 91.1885 23.0158 91.287 22.887 91.407C22.8576 91.2515 22.8434 91.0916 23.0558 90.5861L23.0363 90.5755ZM141.929 94.2762C142.131 93.9049 142.329 93.5433 142.503 92.7127C142.539 92.8087 142.585 92.91 142.622 93.0059C142.531 93.0326 142.456 93.0548 142.365 93.0814C142.344 92.981 142.328 92.8708 142.321 92.766C142.327 92.7562 142.433 92.7252 142.531 93.172C143.149 93.7372 142.351 94.0373 142.041 94.7684C142.208 94.6947 142.335 94.6245 142.466 94.5695C142.487 94.6947 142.556 94.8467 142.513 94.9248C142.428 95.0812 142.26 95.1798 142.131 95.2997C142.102 95.1442 142.088 94.9843 142.3 94.4788M136.399 80.633C136.563 80.6339 136.779 80.5868 136.832 80.6535C137.222 81.1706 137.606 81.6975 137.925 82.2519C138.506 83.279 138.866 84.5024 139.649 85.3225C140.662 86.3701 140.619 87.7036 141.101 88.8666C141.797 90.5654 142.027 92.352 141.743 94.1749C141.71 94.3979 141.667 94.6155 141.63 94.8234C141.404 94.7505 141.021 94.7318 140.961 94.5852C140.497 93.4826 139.532 92.7655 138.931 91.7277C137.13 88.5896 135.986 85.3405 136.367 81.6679M29.5755 101.206C29.7612 101.029 29.9567 100.856 30.1371 100.689C30.1362 100.853 30.2037 101.055 30.1397 101.172C30.002 101.401 29.7763 101.582 29.5995 101.79C29.5959 101.611 29.5924 101.431 29.5159 102.176C29.683 102.102 29.81 102.032 29.9415 101.977C29.9619 102.102 30.0312 102.254 29.9886 102.332C29.9033 102.488 29.7354 102.587 29.6065 102.707C29.5772 102.551 29.563 102.391 29.5906 101.202L29.5755 101.206ZM25.6088 84.9542C25.7047 84.7783 25.7812 84.5918 25.8967 84.4265C25.9598 84.3341 26.101 84.2844 26.2032 84.2134C26.2343 84.3191 26.324 84.4568 26.2965 84.5306C26.1241 84.893 25.9322 85.2448 25.7207 85.5859C25.6887 85.6445 25.5492 85.6444 25.4586 85.6711C25.4381 85.5458 25.3982 85.4099 25.4222 85.2962C25.4515 85.1727 25.5501 85.0617 25.2533 86.2565C25.4576 86.1144 25.6362 85.9963 25.8104 85.863C25.7988 86.0469 25.8361 86.2575 25.7464 86.3987C25.6291 86.6137 25.4292 86.7709 25.263 86.9592C25.2559 86.7398 25.2542 86.5106 25.6043 84.9391L25.6088 84.9542ZM88.1476 101.73C88.1946 101.946 88.3208 102.18 88.2595 102.362C88.1315 102.736 87.9005 103.066 87.2287 104.297C87.3247 104.122 87.4064 103.925 87.5219 103.76C87.6108 103.644 87.7574 103.584 87.8854 103.489C87.864 103.668 87.8915 103.873 87.8258 104.04C87.6632 104.408 87.4561 104.764 87.2446 105.105C87.1913 105.203 87.0403 105.247 86.9381 105.318C86.939 105.154 86.9008 104.968 86.9461 104.815C86.9977 104.628 87.1381 104.464 87.7245 103.389C87.6775 103.173 87.5513 102.939 87.6126 102.757C87.7406 102.383 87.9716 102.053 88.4186 100.699C88.3813 101.046 88.3804 101.211 88.3351 101.363C88.3057 101.487 88.2124 101.588 88.1484 101.705C88.0694 101.548 87.9157 101.388 87.9406 101.25C87.9708 101.101 88.1547 100.973 88.1484 101.705L88.1476 101.73ZM134.331 79.1241C134.557 78.918 134.748 78.7306 134.934 78.5529C135.017 78.8648 135.229 79.2211 135.15 79.4822C134.795 80.6202 134.585 81.7484 134.707 82.9433C134.726 83.1184 134.52 83.3102 134.418 83.4959L134.216 83.8672C134.13 83.7694 134.028 83.6761 133.978 83.5597C133.241 82.004 134.208 80.6041 134.141 84.004C134.211 83.9916 134.382 83.9578 134.382 83.9578C134.508 84.4705 134.639 84.9982 134.725 85.5144C134.737 85.5845 134.556 85.7773 134.471 85.7693C134.124 85.7319 133.864 84.3726 134.326 79.109L134.331 79.1241ZM95.4733 97.0666L95.6492 96.7442C95.7354 96.8419 95.8713 96.9414 95.8775 97.0463C96.0347 98.2225 96.2363 99.4104 96.2886 100.593C96.3161 101.216 95.8985 101.889 95.9918 102.485C96.093 103.136 95.2685 103.904 96.2004 104.45C96.2004 104.45 96.0884 104.795 96.0191 104.782C95.1973 104.778 95.6317 105.446 95.4949 105.79C95.3083 106.271 95.2692 106.808 95.1172 107.296C95.0665 107.458 94.8355 107.649 94.696 107.649C94.5468 107.644 94.3549 107.438 94.2758 107.28C94.0902 106.9 94.044 106.52 94.3274 106.116C94.5584 105.786 94.7868 105.391 94.8153 105.013C94.9452 102.497 95.6063 100.03 95.4084 97.4877C95.3951 97.3029 95.4671 97.1013 95.611 96.2795C95.6475 96.3755 95.6937 96.4768 95.7301 96.5727C95.6395 96.5994 95.5639 96.6216 95.4733 96.6482C95.452 96.5478 95.436 96.4376 95.4298 96.3328C95.4351 96.323 95.5409 96.292 95.4688 97.0515L95.4733 97.0666ZM82.1456 82.0724C82.4281 81.5545 82.6112 81.1726 82.828 80.8217C82.9284 80.6609 83.1212 80.5632 83.2651 80.4389C83.3051 80.5748 83.33 80.7152 83.3904 80.8369C83.5343 81.131 83.7386 81.4073 83.8372 81.7147C84.093 82.501 84.8953 82.9134 85.0418 83.8302C85.1741 84.7266 85.6725 85.5565 85.955 86.4334C86.3583 87.6932 86.6958 88.9806 87.0937 90.2501C87.2057 90.6029 87.7032 91.0392 87.6063 91.2399C86.9363 92.5608 88.1552 93.8599 87.5909 95.1497C88.0582 96.5713 87.6778 98.0122 87.5871 99.4336C87.4839 100.924 87.4447 102.437 86.6175 103.837C86.2994 104.374 86.477 105.257 85.7591 105.689C85.3842 105.168 84.9995 104.641 84.6246 104.119C84.2879 103.644 83.8553 103.205 83.6501 102.675C82.9394 100.816 82.2741 98.9439 81.6745 97.0444C80.5704 93.5129 80.3512 89.8935 81.0089 86.2707C81.2756 84.8058 81.2286 83.1952 82.1553 82.0777L82.1456 82.0724ZM29.628 99.8782C29.628 99.8782 29.573 99.7467 29.5703 99.6819C29.5384 98.9036 29.3536 98.08 29.534 97.3543C29.9731 95.5269 29.728 93.6053 30.3109 91.7931C30.5633 91.0051 30.8717 90.0448 30.7571 89.3483C30.5848 88.3159 31.7834 87.816 31.3695 86.8547C31.3286 86.7436 32.4038 84.6801 32.4731 84.5531C32.9245 83.7722 33.3368 82.9701 33.8272 82.2106C33.9072 82.0641 34.2457 82.0712 34.4625 81.9993C34.506 82.1752 34.6331 82.384 34.5789 82.5066C34.3096 83.0698 33.9471 83.5948 33.7072 84.1739C33.4664 84.778 33.3633 85.4318 33.1269 86.051C32.9563 86.5032 32.5937 86.8887 32.4578 87.3471C32.3058 87.8348 32.1707 88.4077 32.2986 88.8706C32.4825 89.5796 31.6225 89.2498 31.5763 89.8459C31.4784 91.1874 30.8537 92.495 30.8403 93.8445C30.8224 95.5973 29.7428 97.2273 30.2758 99.0397C30.3335 99.236 30.0936 99.5363 29.9559 99.7654C29.9132 99.8436 29.7435 99.8525 29.6325 99.8933L29.628 99.8782ZM78.9586 81.7537C79.3825 81.0467 79.5131 80.4586 80.1839 80.3681C80.2488 80.3654 80.3314 80.0048 80.2879 79.8289C80.2062 79.4673 80.2622 79.2949 80.6336 79.4975C80.7704 79.5722 80.9241 79.8716 80.8814 79.9498C79.8009 81.6047 79.7537 83.6204 78.9193 85.3588C78.467 86.304 78.9831 87.4732 78.2474 88.4033C78.1221 88.5631 78.3842 89.0358 78.4668 89.3725C78.4793 89.4427 78.5263 89.5191 78.5094 89.5733C78.465 89.7012 78.3762 89.8176 78.3122 89.9349C78.1851 89.8655 77.9781 89.8033 77.947 89.6976C77.3919 87.6702 77.8656 85.7096 78.349 83.7543C78.5357 82.9939 78.7916 82.2459 78.9382 81.768L78.9586 81.7537ZM149.403 96.4524C149.196 96.6692 149.01 96.8468 148.829 97.0395C148.733 96.797 148.582 96.5624 148.561 96.3226C148.53 95.9379 148.588 95.5514 148.597 95.1632C148.62 94.2624 148.622 93.3509 148.66 92.4456C148.664 92.3212 148.769 92.1756 148.861 92.0992C148.913 92.0512 149.14 92.0992 149.154 92.1446C149.611 93.5607 149.68 94.9928 149.398 96.4622L149.403 96.4524ZM27.9414 78.9358C28.208 78.4472 28.4497 77.9577 28.7456 77.4852C28.8095 77.3679 29.0148 77.3404 29.1516 77.2756C29.132 77.4044 29.1471 77.5394 29.108 77.6576C28.7384 78.8 27.5095 79.5878 27.7636 80.9817C27.6436 80.9923 27.4766 81.066 27.394 81.0083C27.2483 80.9034 27.0226 80.6662 27.0555 80.5827C27.315 80.0141 27.633 79.4776 27.9316 78.9304L27.9414 78.9358ZM179.683 72.3587C179.349 72.0877 179.41 70.7898 179.754 70.6477C179.814 70.63 179.925 70.5891 179.93 70.6042C180.138 70.9205 180.451 71.2306 180.493 71.5709C180.529 71.8312 180.224 72.1341 180.04 72.4015C180.013 72.4503 179.802 72.373 179.683 72.3587ZM36.0469 78.096C36.317 77.7869 36.278 77.2077 36.8617 77.1838C36.7142 77.5471 36.5711 77.9255 36.4138 78.2835C36.3374 78.4701 36.2361 78.6557 36.1206 78.8209C36.0789 78.8742 35.9154 78.8484 35.8114 78.8298C35.7821 78.8138 35.7368 78.6876 35.7635 78.6387C35.8497 78.4575 35.9607 78.2772 36.062 78.0916L36.0469 78.096ZM72.9492 80.5417C73.0451 80.3658 73.1269 80.1695 73.2522 80.0096C73.2841 79.951 73.4565 80.007 73.556 80.0106C73.3108 80.4601 73.0655 80.9095 72.8203 81.359C72.7687 81.2675 72.6381 81.1582 72.6604 81.0942C72.727 80.9024 72.8479 80.7274 72.9438 80.5515L72.9492 80.5417ZM26.9301 82.5558C26.8661 82.673 26.8163 82.8107 26.7328 82.9173C26.6084 83.0523 26.4449 83.166 26.301 83.2904C26.3277 83.102 26.3099 82.9021 26.381 82.7254C26.4796 82.4749 26.6129 82.2306 26.7755 82.0023C26.8386 81.9099 26.9994 81.8708 27.1061 81.8149C27.1114 81.9446 27.1513 82.0805 27.1273 82.1942C27.098 82.3177 26.9994 82.4287 26.9301 82.5558ZM29.566 84.907C29.3936 84.9904 29.2062 85.0784 29.0187 85.1663C29.0702 84.9788 29.0631 84.7594 29.168 84.6137C29.2835 84.4485 29.5012 84.3517 29.67 84.2283C29.6433 84.4166 29.6167 84.6049 29.5616 84.8919L29.566 84.907ZM89.0875 102.471C89.3594 102.252 89.4518 102.176 89.554 102.104C89.5735 102.255 89.6375 102.416 89.6126 102.555C89.5841 102.654 89.4376 102.713 89.33 102.794C89.235 102.666 89.1248 102.542 89.0822 102.481L89.0875 102.471ZM70.8095 84.6492C70.8983 84.8118 71.0182 84.9407 70.9916 84.9895C70.8911 85.1503 70.7472 85.2747 70.613 85.4043C70.5615 85.3128 70.4363 85.1938 70.4531 85.1396C70.5384 84.9832 70.6682 84.8385 70.7997 84.6439L70.8095 84.6492ZM75.9575 80.9785C76.2293 80.7591 76.3218 80.6827 76.4239 80.6117C76.4435 80.7618 76.5074 80.9235 76.4825 81.0621C76.4541 81.1607 76.3075 81.2202 76.2 81.301C76.1049 81.1731 75.9948 81.0496 75.9521 80.9883L75.9575 80.9785ZM39.4735 107.773C39.6849 107.851 39.8724 107.902 40.0332 108.003C40.0821 108.029 40.0509 108.203 40.0421 108.312C39.8644 108.266 39.6662 108.234 39.4992 108.168C39.4601 108.147 39.4815 107.968 39.4681 107.783L39.4735 107.773ZM29.1977 103.967C29.2751 103.756 29.3266 103.569 29.427 103.408C29.4537 103.359 29.6269 103.39 29.7362 103.399C29.69 103.577 29.658 103.775 29.5922 103.942C29.5709 103.981 29.3923 103.959 29.2075 103.973L29.1977 103.967ZM143.304 94.5448C143.381 94.3333 143.433 94.1459 143.533 93.9851C143.56 93.9363 143.733 93.9674 143.842 93.9763C143.796 94.154 143.764 94.3521 143.698 94.5191C143.677 94.5582 143.499 94.5368 143.314 94.5501L143.304 94.5448ZM175.593 71.7885C175.865 71.5691 175.958 71.4927 176.06 71.4217C176.079 71.5718 176.143 71.7335 176.118 71.8721C176.09 71.9707 175.943 72.0302 175.836 72.111C175.741 71.9831 175.631 71.8596 175.588 71.7983L175.593 71.7885ZM88.644 104.144C88.9159 103.925 89.0083 103.848 89.1105 103.777C89.1301 103.927 89.194 104.089 89.1691 104.228C89.1407 104.326 88.9941 104.386 88.8866 104.467C88.7915 104.339 88.6814 104.215 88.6387 104.154L88.644 104.144ZM72.3413 82.353C72.6132 82.1337 72.7056 82.0573 72.8078 81.9862C72.8273 82.1364 72.8913 82.2981 72.8664 82.4366C72.838 82.5353 72.6914 82.5947 72.5839 82.6756C72.4888 82.5476 72.3786 82.4241 72.336 82.3628L72.3413 82.353ZM177.597 73.4395C177.521 73.4617 177.461 73.4795 177.4 73.4972C177.404 73.3977 177.388 73.2876 177.416 73.189C177.432 73.1596 177.537 73.1534 177.598 73.1357C177.604 73.2405 177.6 73.34 177.597 73.4395ZM131.905 79.6646C131.883 79.5891 131.865 79.5287 131.847 79.4683C131.947 79.4718 132.057 79.4559 132.156 79.4843C132.185 79.5003 132.191 79.6052 132.209 79.6656C132.104 79.6718 132.005 79.6682 131.905 79.6646ZM129.525 79.2155L129.329 79.2732C129.332 79.1737 129.316 79.0636 129.345 78.965C129.361 78.9357 129.465 78.9295 129.526 78.9117C129.532 79.0165 129.529 79.116 129.525 79.2155ZM143.849 93.2443C143.773 93.2665 143.713 93.2842 143.652 93.302C143.656 93.2025 143.64 93.0923 143.668 92.9937C143.684 92.9644 143.789 92.9582 143.85 92.9404C143.856 93.0453 143.852 93.1448 143.849 93.2443ZM86.3799 70.2442C86.4368 70.326 86.4883 70.4175 86.5452 70.4992C86.4847 70.517 86.3932 70.5685 86.3639 70.5525C86.2866 70.485 86.2404 70.3837 86.1835 70.3019C86.244 70.2842 86.3044 70.2664 86.3799 70.2442ZM75.5859 83.7049C75.6676 83.6481 75.7592 83.5966 75.8409 83.5397C75.8587 83.6001 75.9102 83.6916 75.8942 83.721C75.8267 83.7982 75.7254 83.8444 75.6436 83.9013C75.6259 83.8408 75.6081 83.7804 75.5859 83.7049ZM95.4449 95.4915C95.5267 95.4347 95.6182 95.3831 95.7 95.3263C95.7177 95.3867 95.7692 95.4782 95.7532 95.5075C95.6857 95.5848 95.5844 95.631 95.5027 95.6878L95.4449 95.4915ZM89.7908 95.2088C89.7908 95.2088 89.9427 95.1395 89.972 95.1555C90.0493 95.2231 90.0955 95.3244 90.1524 95.4061C90.092 95.4238 90.0004 95.4754 89.9711 95.4594C89.8938 95.3918 89.8476 95.2905 89.7908 95.2088ZM89.7507 97.165C89.8324 97.1082 89.9239 97.0567 90.0057 96.9998C90.0234 97.0602 90.075 97.1518 90.059 97.1811C89.9914 97.2584 89.8901 97.3045 89.8084 97.3614C89.7906 97.301 89.7729 97.2406 89.7507 97.165ZM88.5485 98.0434C88.4917 97.9617 88.4401 97.8702 88.3833 97.7884C88.4437 97.7707 88.5352 97.7192 88.5645 97.7351C88.6418 97.8027 88.688 97.904 88.7449 97.9857L88.5485 98.0434ZM92.1918 102.314C92.2736 102.257 92.3651 102.205 92.4468 102.149C92.4646 102.209 92.5161 102.3 92.5001 102.33C92.4326 102.407 92.3313 102.453 92.2495 102.51C92.2318 102.45 92.214 102.389 92.1918 102.314ZM89.6705 100.799C89.746 100.776 89.8064 100.759 89.8668 100.741C89.8632 100.84 89.8792 100.951 89.8508 101.049C89.8348 101.078 89.73 101.085 89.6695 101.102C89.6633 100.998 89.6669 100.898 89.6705 100.799ZM35.5146 79.6062C35.4578 79.5244 35.4062 79.4329 35.3494 79.3512C35.4098 79.3334 35.5013 79.2819 35.5307 79.2979C35.6079 79.3654 35.6541 79.4667 35.711 79.5485L35.5146 79.6062ZM35.033 80.6748L34.8366 80.7325C34.8402 80.633 34.8242 80.5229 34.8527 80.4243C34.8687 80.3949 34.9735 80.3887 35.0339 80.371C35.0401 80.4758 35.0366 80.5753 35.033 80.6748ZM30.8608 80.8837C30.8386 80.8082 30.8208 80.7477 30.803 80.6873C30.9025 80.6909 31.0127 80.6749 31.1113 80.7034C31.1406 80.7194 31.1468 80.8242 31.1646 80.8846C31.0598 80.8908 30.9603 80.8873 30.8608 80.8837ZM30.5995 81.3625C30.6564 81.4442 30.7079 81.5357 30.7648 81.6175C30.7043 81.6352 30.6128 81.6867 30.5835 81.6707C30.5062 81.6032 30.46 81.5019 30.4032 81.4202C30.4636 81.4024 30.524 81.3847 30.5995 81.3625ZM22.982 91.9533C22.982 91.9533 23.0513 92.1053 23.0353 92.1346C22.9678 92.2119 22.8665 92.258 22.7847 92.3149C22.767 92.2545 22.7154 92.1629 22.7314 92.1336C22.799 92.0564 22.9002 92.0102 22.982 91.9533ZM22.9535 92.8888C22.9535 92.8888 23.0228 93.0407 23.0068 93.0701C22.9392 93.1473 22.838 93.1935 22.7562 93.2503C22.7385 93.1899 22.6869 93.0984 22.7029 93.0691C22.7705 92.9918 22.8717 92.9457 22.9535 92.8888ZM22.2906 94.8476C22.2684 94.7721 22.2506 94.7117 22.2328 94.6513C22.3323 94.6548 22.4425 94.6389 22.5411 94.6673C22.5704 94.6833 22.5766 94.7881 22.5944 94.8485C22.4896 94.8547 22.3901 94.8512 22.2906 94.8476ZM22.4815 95.4971C22.4815 95.4971 22.5508 95.649 22.5348 95.6783C22.4673 95.7556 22.366 95.8018 22.2843 95.8586C22.2665 95.7982 22.215 95.7067 22.231 95.6774C22.2985 95.6001 22.3998 95.5539 22.4815 95.4971ZM23.9686 98.7684C24.0255 98.8501 24.077 98.9417 24.1338 99.0234C24.0734 99.0412 23.9819 99.0927 23.9526 99.0767C23.8753 99.0091 23.8291 98.9079 23.7722 98.8261C23.8327 98.8084 23.8931 98.7906 23.9686 98.7684ZM23.0427 100.279C23.1182 100.257 23.1787 100.239 23.2391 100.222C23.2355 100.321 23.2515 100.431 23.2231 100.53C23.2071 100.559 23.1022 100.565 23.0418 100.583C23.0356 100.478 23.0391 100.379 23.0427 100.279ZM29.904 104.974C29.8223 105.031 29.7308 105.082 29.649 105.139C29.6312 105.079 29.5797 104.987 29.5957 104.958C29.6632 104.881 29.7645 104.835 29.8463 104.778C29.864 104.838 29.8818 104.899 29.904 104.974Z" fill="#4F4F4F"/>
      <path d="M26.2641 77.3612C25.7318 78.7319 25.1498 80.1008 24.6619 81.4831C24.1847 82.8458 23.7866 84.2263 23.3636 85.6058C23.3245 85.724 23.3742 85.8653 23.3796 85.995C23.5022 85.9097 23.679 85.8413 23.7581 85.7196C24.3827 84.8305 24.1331 83.5911 24.9008 82.742C24.5206 81.9512 25.1666 81.4414 25.466 80.8693C26.3902 79.1291 26.7013 77.1179 27.8848 75.5065C27.9479 75.4142 27.9088 75.2534 27.9133 75.129C27.7658 75.2134 27.5694 75.2711 27.4903 75.3928C27.1029 76.0563 26.7502 76.7261 26.3823 77.4003C26.3432 77.379 26.2988 77.3674 26.2446 77.3505L26.2641 77.3612Z" fill="#4F4F4F"/>
      <path d="M28.7095 74.0417C28.8055 73.8659 28.921 73.7006 28.9974 73.5141C29.0347 73.4457 28.9539 73.3382 28.9272 73.2476C28.8108 73.2982 28.6651 73.3328 28.5923 73.4198C28.467 73.5797 28.371 73.7556 28.3044 73.9475C28.2164 74.1785 28.1675 74.4308 28.0991 74.6724C28.2688 74.5241 28.4483 74.3811 28.618 74.2327C28.6642 74.1945 28.6819 74.1155 28.7139 74.0568L28.7095 74.0417Z" fill="#4F4F4F"/>
      <path d="M127.862 77.9404C127.851 78.0994 127.855 78.2789 127.853 78.4681C127.965 78.4024 128.145 78.374 128.178 78.2905C128.244 78.1235 128.236 77.9289 128.253 77.7352C128.141 77.8009 128.024 77.8516 127.862 77.9404Z" fill="#4F4F4F"/>
      <path d="M128.198 79.138C127.985 79.225 127.788 79.3076 127.576 79.3946C127.655 79.5519 127.719 79.7136 127.798 79.8708L128.198 79.138Z" fill="#4F4F4F"/>
      <path d="M128.681 76.0669C128.599 76.1237 128.498 76.1699 128.431 76.2472C128.415 76.2765 128.466 76.368 128.484 76.4284C128.566 76.3716 128.667 76.3254 128.734 76.2481C128.75 76.2188 128.699 76.1273 128.681 76.0669Z" fill="#4F4F4F"/>
      <path d="M29.8548 72.2447C29.9543 72.2483 30.0592 72.2421 30.1587 72.2457C30.1409 72.1853 30.1347 72.0804 30.1054 72.0644C30.0068 72.036 29.8966 72.052 29.7971 72.0484C29.8149 72.1088 29.8326 72.1692 29.8548 72.2447Z" fill="#4F4F4F"/>
    </g>
  </svg>