<svg xmlns="http://www.w3.org/2000/svg" width="89" height="50" viewBox="0 0 89 50" fill="none">
    <path d="M75.6444 29.5782C76.6219 29.7029 76.0123 28.3915 76.8799 28.2745C77.721 28.163 77.6452 27.2816 77.8338 26.6707C78.0443 25.9784 78.8578 25.5974 78.8129 24.7867C78.9535 24.7744 79.202 24.7786 79.2145 24.732C79.565 23.1911 81.2454 22.5557 81.7146 21.0841C81.724 21.0492 81.9313 21.0673 82.0455 21.0605C82.0461 21.1979 82.0584 21.3385 82.059 21.4759C82.0571 21.7624 82.0436 22.0458 82.0332 22.3175C82.2927 22.1874 82.73 22.0925 82.7768 21.9178C82.9688 21.1082 83.7604 21.5075 84.1437 21.1485C84.2204 21.2813 84.3849 21.4128 84.3738 21.5471C84.351 21.8654 84.3164 22.1806 84.7571 21.8869C85.0353 21.6869 85.1996 21.3066 85.4918 21.1478C85.7101 21.0316 86.0478 21.1221 86.325 21.1589C87.0487 21.253 86.4219 22.0085 86.796 22.1961C87.1934 22.3899 87.6725 22.4185 88.0878 22.5921C88.1894 22.6319 88.1952 22.9828 88.1655 23.187C87.8664 25.3281 86.6094 27.038 85.5729 28.8567C85.5457 28.9118 85.4051 28.9241 85.3926 28.9707C84.9215 30.7288 83.7605 32.1273 82.9937 33.7314C82.2301 35.3237 81.4283 36.9184 80.5226 38.4353C79.4092 40.3083 77.3164 40.9456 75.5872 42.0421C75.4807 42.1134 75.2601 42.1916 75.1879 42.1348C74.0667 41.3352 72.5012 42.6129 71.4846 41.3297C71.4272 41.2644 71.2727 41.2355 71.1819 41.2486C69.8714 41.6212 68.5659 40.9969 67.3535 41.0963C66.1909 41.1966 65.0844 40.3885 63.9685 41.013C61.5757 40.534 59.1954 40.0085 56.8017 39.5793C55.8863 39.4089 55.0338 38.6314 54.0056 39.2544C53.917 39.3055 53.6222 39.1017 53.4693 38.9734C53.1551 38.702 51.538 37.6573 51.0395 37.5611C50.3749 37.433 49.9863 37.0667 49.8449 36.4299C49.8256 36.3623 49.915 36.2615 49.9011 36.2203C49.6081 35.73 49.3004 35.2482 48.9926 34.7664C49.7959 34.47 50.6026 33.9748 51.4157 33.968C51.8428 33.9577 52.3774 33.6392 52.9493 34.067C53.2697 34.3151 54.067 33.8548 54.6495 33.8237C55.2055 33.798 55.7632 34.3718 56.3509 33.8553C56.9934 34.951 57.8207 34.0994 58.567 34.0623C58.7076 34.05 58.8459 33.9998 58.9887 34.0256C60.8692 34.3672 62.7434 34.7321 64.627 35.0621C66.0587 35.3085 67.5052 35.5463 68.9525 35.7344C69.2794 35.7721 69.6415 35.632 69.9763 35.547C70.4167 35.4404 70.7328 34.7264 70.4646 34.3301C69.3962 32.8209 66.519 28.7929 64.0116 27.2974C62.7118 26.5123 61.5933 25.3765 60.1442 24.7761C59.8306 24.6421 59.5754 24.3366 59.2556 24.226C57.3196 23.5325 55.3743 22.874 53.4205 22.2007C52.686 22.7527 52.4263 21.6723 51.808 21.7437C50.803 21.8613 49.7993 21.5549 48.8246 21.6057C48.3066 21.6291 47.8065 21.6324 47.3469 21.4843C46.0816 21.0829 44.7696 21.3678 43.5118 21.2179C41.3811 20.9715 39.2685 21.2166 37.1471 21.1223C36.6532 21.1023 36.167 21.1467 35.6777 21.2028C35.3965 21.2273 35.1331 21.4188 34.8613 21.4084C34.3325 21.379 33.8318 21.2448 33.6282 20.6536C33.2628 20.9925 32.9176 21.3493 32.5235 21.6555C31.9577 22.0904 31.7916 20.6607 31.1455 21.3487C30.9525 20.9975 30.2004 20.6836 31.0761 20.2568C31.0761 20.2568 31.0336 19.9959 30.9467 19.9476C30.828 19.8784 30.5835 19.8128 30.5329 19.8617C30.169 20.2883 29.6886 20.6838 29.528 21.1898C29.3215 21.8208 29.0202 21.8274 28.5467 21.6382C27.8815 21.3726 27.3589 21.3199 27.3136 22.2811C27.3088 22.3921 27.1416 22.5969 27.0569 22.5867C26.1282 22.5126 25.2833 23.1972 24.3471 22.8715C24.598 22.2149 24.4665 21.6805 23.641 21.035C23.5146 20.9013 23.5641 21.0893 23.6167 21.2656C23.7053 21.2145 23.8669 21.1704 23.8677 21.1207C23.8687 20.8839 23.8201 20.6462 23.7947 20.4148C23.7053 20.5156 23.619 20.6048 23.6527 21.0381C23.5264 22.1149 23.5264 22.1149 23.2006 21.8404C22.7133 21.4229 22.367 20.8059 21.4898 21.1449C21.1542 21.2796 20.9352 21.2584 21.2074 21.5934C21.4222 21.8631 21.7349 22.0467 22.015 22.259C22.1795 22.3905 22.3619 22.5018 22.5295 22.6215C22.3213 22.6531 22.0938 22.6171 21.9399 22.7256C21.727 22.8682 21.6001 23.1088 21.4244 23.2988C21.2487 23.4888 21.1008 23.7612 20.8864 23.8161C20.4925 23.9351 20.0569 23.9307 19.6468 23.9706C19.6726 23.8277 19.6899 23.6701 19.7157 23.5273C19.7446 23.3728 19.7704 23.23 19.8109 23.0786C19.2052 23.1035 18.2509 22.9851 18.1423 23.53C17.9119 24.7162 17.2253 24.1578 16.6544 24.1921C16.5667 24.1935 16.4872 24.3969 16.3947 24.5093C16.0302 24.0997 15.6773 23.6931 15.3128 23.2835C15.5396 23.1821 15.7588 23.0162 15.9872 23.0025C17.5613 22.9501 18.5107 21.969 18.3275 20.5098C18.3307 20.4981 18.0083 20.5366 17.8538 20.5076C17.6062 20.4538 17.1915 20.4175 17.1497 20.294C17.0809 20.0385 17.1714 19.7008 17.3014 19.4486C17.359 19.3268 17.6487 19.3171 17.8281 19.2528C18.8319 18.8604 20.1187 18.8558 20.2323 17.3138C20.241 17.1415 20.7142 17.0062 20.9683 16.8496C21.0169 17.0873 21.0213 17.3505 21.1142 17.5626C21.2265 17.8423 21.3621 18.1282 21.5692 18.3334C21.6785 18.4376 21.9722 18.3665 22.1826 18.373C21.5052 17.268 23.3758 18.0189 23.0538 17.1713C23.7134 16.8988 24.5514 16.7989 24.9659 16.3234C25.4519 15.7673 25.8043 17.2469 26.1845 16.2007C26.4299 15.5177 27.0759 16.2274 27.649 16.2313C27.684 16.2406 27.6141 16.2219 27.5559 16.2063C27.5596 16.3321 27.5486 16.4664 27.5935 16.5783C27.6106 16.6078 27.7807 16.5785 27.8801 16.5802C27.832 16.4799 27.7871 16.3681 27.6459 16.2429C27.8986 15.9986 28.2228 15.6737 28.6104 15.5779C29.1596 15.438 29.7599 16.7844 30.3274 15.5513C31.5668 16.2827 32.7099 15.6031 33.8867 15.3569C34.3093 15.2704 34.6909 15.7096 35.2465 15.3593C35.7283 15.0516 36.463 15.0114 37.0796 15.0393C37.6729 15.061 38.2503 15.3281 38.8326 15.4841C38.9024 15.5028 38.9862 15.5627 39.0538 15.5434C41.1469 14.719 43.2779 15.9888 45.3636 15.4246C45.4988 15.3859 45.7061 15.404 45.7837 15.4872C46.536 16.3128 47.5761 16.0174 48.4915 16.1878C49.4069 16.3582 50.3614 16.2895 51.2674 16.4949C53.3209 16.9827 55.3494 17.5637 57.3958 18.1245C58.3041 18.3679 59.3742 18.3801 59.7316 19.5615C59.768 19.6586 59.962 19.773 60.0731 19.7778C60.5763 19.7629 61.1236 19.2107 61.5389 20.0832C61.7225 20.4693 62.4394 20.961 62.6896 20.8658C63.3904 20.5793 63.5682 21.3133 64.0706 21.3481C64.5963 21.3891 64.9614 21.9362 65.3247 22.071C66.4991 22.4855 67.543 23.0148 68.4856 23.829C70.5003 25.5793 72.6962 27.166 74.2235 29.3847C74.6801 30.0561 74.9746 29.2365 75.2857 29.5196C75.2483 29.6593 75.1844 29.8044 75.1703 29.9504C75.1592 30.0847 75.1979 30.2198 75.2102 30.3604C75.3376 30.2573 75.5055 30.1899 75.5895 30.0627C75.6704 29.9471 75.6644 29.7833 75.7049 29.6319L75.6444 29.5782ZM24.3365 19.3245C24.3845 19.4248 24.4294 19.5366 24.4774 19.6368C24.566 19.5857 24.6399 19.5431 24.7285 19.4919C24.6657 19.4002 24.5912 19.3054 24.5136 19.2223C24.502 19.2191 24.3987 19.2788 24.6754 19.6899C24.6908 19.8188 24.7031 19.9594 24.7184 20.0883C24.8428 19.9968 24.9819 19.8968 25.0159 19.4441C25.1988 19.6928 25.2375 19.828 25.3074 19.8467C25.4937 19.8967 25.6987 19.8767 25.9061 19.8948C25.9077 19.7955 25.9343 19.6029 25.9111 19.5967C25.6782 19.5343 25.4243 19.5037 25.1094 19.7937C24.958 19.7531 24.8183 19.7157 24.3396 19.3129L24.3365 19.3245ZM77.0757 29.5C76.1695 29.4818 76.5708 30.3132 75.7289 31.6849C75.9591 31.3847 76.0812 31.2552 76.1598 31.1016C76.2291 30.9828 76.2316 30.8338 76.269 30.694C76.0896 30.7583 75.8496 30.7688 75.7656 30.8961C75.6784 31.0349 75.7271 31.2726 76.269 30.694C77.1753 30.7122 76.774 29.8809 77.077 29.0761C77.1529 29.2587 77.2001 29.4086 77.262 29.55C77.3716 29.467 77.5394 29.3997 77.5644 29.3065C77.6143 29.1202 77.5563 28.9175 77.5449 28.7272C77.4058 28.8272 77.2752 28.942 77.0641 29.4969L77.0757 29.5ZM86.4944 24.4863C86.4823 24.1586 86.4726 23.869 86.4597 23.591C86.2002 23.7211 85.7838 23.7843 85.7192 23.9791C85.4199 24.9097 84.4323 25.3814 84.1176 26.1831C83.1549 28.6581 81.5031 30.7238 80.2796 33.054C79.6422 34.2684 79.0877 35.5924 78.0382 36.6215C77.6487 37.0038 76.7278 37.5058 77.2152 38.4351C77.7732 38.1229 78.3868 37.9753 78.7603 37.3267C79.0646 36.7967 79.8128 36.473 79.9975 35.9235C80.458 34.6243 81.1908 33.4729 81.978 32.3984C82.8188 31.2635 82.8261 29.6057 84.2427 28.8372C84.3872 28.7636 84.4249 28.4368 84.4461 28.2179C84.5414 27.0704 85.3764 26.2833 85.8659 25.3412C86.0231 25.0339 86.2704 24.7632 86.4711 24.4801L86.4944 24.4863ZM33.9237 16.2902C33.9176 16.8252 33.9158 17.1117 33.917 17.3866C34.0445 17.2835 34.2534 17.2022 34.2878 17.0742C34.3595 16.8064 34.3466 16.5284 34.3602 16.245C34.1815 16.2595 33.9998 16.2857 33.9121 16.2871L33.9237 16.2902ZM81.9628 27.3778C81.9391 27.0469 81.9308 26.8451 81.9109 26.6401C81.7647 26.813 81.5634 26.9588 81.4754 27.1473C81.4022 27.3274 81.454 27.5534 81.4475 27.7638C81.6193 27.6351 81.8058 27.4979 81.9628 27.3778ZM19.7074 22.6266C19.8985 22.5655 20.0368 22.5152 20.1603 22.4734C19.9927 22.3536 19.8492 22.1904 19.6692 22.1172C19.5644 22.0891 19.4136 22.186 19.287 22.2394C19.4367 22.3793 19.5895 22.5076 19.7074 22.6266ZM19.1244 21.1226C19.1855 21.3137 19.1969 21.5039 19.2551 21.5195C19.4562 21.5609 19.6613 21.541 19.8632 21.5327C19.8299 21.424 19.8301 21.2368 19.775 21.2096C19.5887 21.1597 19.3783 21.1532 19.1275 21.111L19.1244 21.1226ZM20.0057 19.1375C20.0663 19.1911 20.2021 19.2899 20.3464 19.4034C20.4242 19.2995 20.578 19.191 20.5828 19.0799C20.5853 18.9309 20.4768 18.777 20.4063 18.6209C20.3285 18.7248 20.236 18.8373 20.0089 19.1258L20.0057 19.1375ZM35.3453 19.9282C35.4887 20.0915 35.5678 20.2624 35.6757 20.2788C35.8682 20.3054 36.071 20.2475 36.2791 20.2159C36.1814 20.1148 36.114 19.947 35.9976 19.9158C35.8113 19.8659 35.6 19.9091 35.3484 19.9166L35.3453 19.9282ZM78.7386 26.6012C78.7796 26.7744 78.8174 26.9592 78.8638 27.1588C78.9648 27.0611 79.1358 26.9821 79.1607 26.889C79.1874 26.6965 79.1294 26.4937 79.0978 26.2856C78.9967 26.3833 78.8871 26.4663 78.7386 26.6012ZM54.888 37.0324C54.9307 37.1063 54.9648 37.1653 54.9989 37.2243C55.0704 37.1437 55.1652 37.0692 55.2166 36.9707C55.226 36.9358 55.1484 36.8526 55.1143 36.7935C55.0311 36.8711 54.9596 36.9518 54.888 37.0324ZM18.4414 22.0877C18.484 22.1615 18.5181 22.2206 18.5522 22.2796C18.6238 22.199 18.7186 22.1245 18.77 22.026C18.7793 21.9911 18.7018 21.9079 18.6677 21.8488C18.5845 21.9264 18.513 22.007 18.4414 22.0877ZM20.3781 20.1233C20.3998 20.2289 20.433 20.3376 20.4547 20.4433C20.5137 20.4092 20.6225 20.3759 20.6318 20.341C20.6366 20.23 20.5917 20.1181 20.5701 20.0125C20.511 20.0466 20.452 20.0807 20.3781 20.1233ZM78.412 32.9904C78.3904 32.8848 78.3571 32.776 78.3355 32.6704C78.2765 32.7045 78.1677 32.7377 78.1583 32.7727C78.1535 32.8837 78.1985 32.9956 78.2201 33.1012L78.412 32.9904ZM82.4321 32.5201C82.4537 32.6258 82.487 32.7345 82.5086 32.8402C82.5677 32.8061 82.6764 32.7728 82.6858 32.7379C82.6906 32.6269 82.6457 32.515 82.6241 32.4094L82.4321 32.5201ZM28.5342 18.3777C28.5342 18.3777 28.702 18.3104 28.7114 18.2755C28.7161 18.1644 28.6712 18.0526 28.6496 17.9469C28.5906 17.981 28.4818 18.0143 28.4724 18.0492C28.4677 18.1603 28.5126 18.2721 28.5342 18.3777ZM78.3453 27.5566C78.2397 27.5782 78.1309 27.6114 78.0253 27.633C78.0594 27.6921 78.0926 27.8008 78.1276 27.8102C78.2386 27.815 78.3505 27.7701 78.4561 27.7485C78.422 27.6894 78.388 27.6304 78.3453 27.5566ZM57.1017 18.5698C57.0279 18.6124 56.9688 18.6465 56.9098 18.6806C56.9905 18.7522 57.0649 18.847 57.1635 18.8983C57.1984 18.9077 57.2816 18.8302 57.3407 18.7961C57.2631 18.7129 57.1824 18.6414 57.1017 18.5698ZM83.4265 24.151C83.4265 24.151 83.5943 24.0836 83.6037 24.0487C83.6085 23.9377 83.5636 23.8258 83.5419 23.7202C83.4829 23.7543 83.3741 23.7875 83.3648 23.8225C83.36 23.9335 83.4049 24.0454 83.4265 24.151ZM83.8529 22.7927C83.9267 22.7501 83.9858 22.716 84.0448 22.6819C83.9641 22.6103 83.8897 22.5155 83.7911 22.4642C83.7562 22.4548 83.673 22.5323 83.614 22.5664C83.6915 22.6496 83.7722 22.7212 83.8529 22.7927Z" fill="#4F4F4F"/>
    <path d="M12.4145 21.5709C12.2762 20.9224 13.9652 21.6994 13.2093 20.5609C13.3414 20.5339 13.5154 20.4432 13.614 20.4946C13.8895 20.6308 14.1214 20.9301 14.39 20.9522C14.536 20.9663 14.7213 20.5542 14.8948 20.3261C14.9873 20.2137 15.1435 20.1432 15.1778 20.0151C15.4164 19.218 16.2038 19.8658 16.5848 19.4687C16.5191 19.9003 16.4681 20.3234 16.4024 20.7551C16.1221 20.7299 15.7852 20.5897 15.5933 20.7005C15.2537 20.8965 15.0164 21.2697 14.7047 21.5481C13.8947 22.242 13.8984 22.3678 14.7054 23.5949C14.7788 23.9265 14.8405 24.255 14.9139 24.5867C14.5745 24.5956 14.2289 24.6278 13.881 24.6219C13.5945 24.62 13.3173 24.5832 12.5504 24.2779C12.364 24.2279 12.4905 24.3616 12.6325 24.4371C12.7512 24.5064 12.9003 24.5089 13.0401 24.5463C12.9758 24.3669 12.9652 24.127 12.838 24.0429C12.6991 23.9558 12.4614 24.0044 12.5419 24.2631C13.6595 25.4486 13.6895 25.7561 13.4759 26.4601C13.2623 27.1641 12.827 26.7854 12.202 26.0439C12.0423 25.8014 12.1489 26.2418 12.2587 26.6706C12.261 26.7086 12.4567 26.7236 12.4567 26.7236C12.5503 26.3743 12.6904 26.0375 12.7227 25.6843C12.7306 25.5616 12.4909 25.385 12.3403 25.2948C12.2534 25.2465 12.0824 25.3255 12.2167 26.0354C12.1341 26.9492 11.8085 27.1864 11.4541 27.3909C11.0555 27.621 10.6429 27.81 10.2388 28.0137C10.0943 28.0873 9.97847 28.1935 9.84247 28.2819C9.82709 28.153 9.82648 28.0155 9.79945 27.8835C9.73771 27.555 9.66431 27.2233 9.59092 26.8917C9.80053 26.9478 10.2019 27.0803 10.2081 27.057C10.5196 26.267 10.7963 25.4676 11.0876 24.6596C10.5944 24.777 10.1096 24.9092 9.62261 25.0033C9.49056 25.0304 9.34314 24.9285 9.19175 24.8879C9.08093 24.696 8.97862 24.5188 8.86779 24.3269C8.90523 24.1871 8.96908 24.042 8.98323 23.8961C8.99425 23.7618 8.95559 23.6266 8.94333 23.486C8.81585 23.5892 8.64803 23.6565 8.55237 23.7806C8.47147 23.8962 8.47749 24.0601 8.43694 24.2114C7.4831 23.7187 6.87209 24.9277 5.96295 24.7341C5.9513 24.7309 5.85375 25.1415 5.78283 25.3596C5.55925 25.9611 6.81672 26.4853 5.84993 27.1123C6.25667 27.2712 6.66026 27.4417 7.05536 27.5975C6.67456 28.5063 5.75112 27.248 5.34018 28.0364C5.09483 27.3217 4.53815 27.9088 4.19588 27.7422C4.03056 27.6605 4.01311 27.3064 3.9 27.0764C3.67377 26.6165 2.96509 26.3268 2.68205 26.6378C2.5421 26.7875 3.34974 27.4531 2.32019 27.2896C1.44515 27.155 0.990814 26.5216 0.447054 25.989C0.406714 25.9533 0.510285 25.7065 0.591183 25.5909C0.630072 25.5389 0.863811 25.5516 0.897912 25.6106C1.24204 26.1895 1.50112 26.4337 1.97653 25.6376C2.34692 25.0006 2.93726 25.5456 3.36188 25.6843C4.46108 26.0537 5.07476 25.9062 5.40586 24.9966C5.53751 24.645 5.69015 24.2616 5.68435 23.9106C5.67252 23.3958 5.22754 22.7275 6.35855 23.1179C6.63179 23.2161 7.10761 22.7446 7.58154 22.5596C7.61647 22.569 7.54658 22.5502 7.48836 22.5346C7.4921 22.6604 7.48109 22.7947 7.526 22.9066C7.54305 22.9361 7.71313 22.9068 7.81253 22.9085C7.7645 22.8083 7.71962 22.6964 7.57842 22.5712C7.99412 22.3706 8.51459 22.1981 9.24553 22.0321C9.2734 22.1144 9.12036 22.1733 8.98208 22.2236C9.06504 22.3331 9.13242 22.5009 9.22558 22.5259C9.4119 22.5758 9.61465 22.5178 9.80492 22.5064C9.7049 22.3673 9.5901 22.2367 9.24553 22.0321C10.1157 21.6413 10.8615 21.6997 11.4827 22.2072C11.6673 22.3565 11.8549 22.6813 12.0187 22.6753C12.3876 22.6494 12.7474 22.4712 13.1148 22.3575C12.8884 22.0847 12.6767 21.8034 12.4503 21.5305L12.4145 21.5709Z" fill="#4F4F4F"/>
    <path d="M7.88984 27.8835L7.01647 27.6495C7.07263 27.4399 7.22277 27.2056 7.17329 27.0176C7.0658 26.6269 6.59566 26.2389 7.18313 25.9096C7.54913 25.7082 8.66161 26.6802 8.54618 27.111C8.46819 27.402 8.11924 27.633 7.9015 27.8866L7.88984 27.8835Z" fill="#4F4F4F"/>
    <path d="M8.58045 28.0062C8.74805 28.126 8.93045 28.2372 9.09805 28.357C8.87201 28.4088 8.59169 28.3836 8.43156 28.5154C8.0406 28.81 7.72097 29.211 7.31296 29.4761C7.19172 29.5559 6.848 29.3016 6.61281 29.2011C6.71243 29.0157 6.80038 28.8271 6.9 28.6416C7.6985 29.1551 7.71833 27.4508 8.58045 28.0062Z" fill="#4F4F4F"/>
    <path d="M9.2457 26.3625C8.50209 26.0635 8.2636 25.4629 8.40091 24.2518L8.84342 24.3704C8.95425 24.5623 9.05656 24.7395 9.16738 24.9314C9.20022 25.4144 9.22449 25.8827 9.25732 26.3657L9.2457 26.3625Z" fill="#4F4F4F"/>
    <path d="M16.3904 20.752C16.6457 20.8703 16.8894 20.9856 17.1479 21.0923C16.8146 21.265 16.4897 21.4525 16.1564 21.6252L16.3904 20.752Z" fill="#4F4F4F"/>
    <path d="M4.14515 28.3028C4.37181 28.3885 4.55816 28.4384 4.73512 28.5233C4.75841 28.5295 4.66336 28.7911 4.66024 28.8027C4.4708 28.7644 4.2697 28.723 4.08962 28.6498C4.06633 28.6436 4.11624 28.4573 4.14515 28.3028Z" fill="#4F4F4F"/>
    <path d="M16.7424 24.5152C16.8913 24.7048 16.9913 24.844 17.0945 24.9714C16.9042 24.9829 16.6898 25.0377 16.5151 24.9909C16.422 24.966 16.3546 24.7982 16.2716 24.6886C16.413 24.6266 16.563 24.5795 16.7455 24.5036L16.7424 24.5152Z" fill="#4F4F4F"/>
    <path d="M78.4574 24.2046C78.5942 24.0666 78.6836 23.9658 78.7699 23.8766C78.7953 24.108 78.8439 24.3457 78.8429 24.5825C78.842 24.6322 78.6805 24.6762 78.5919 24.7274C78.5424 24.5394 78.4898 24.3631 78.4457 24.2015L78.4574 24.2046Z" fill="#4F4F4F"/>
    <path d="M75.2018 29.4597C75.2392 29.32 75.248 29.1476 75.3172 29.0289C75.4129 28.9048 75.5722 28.8227 75.6965 28.7312C75.7088 28.8717 75.7475 29.0069 75.7364 29.1412C75.7223 29.2872 75.6584 29.4323 75.621 29.572L75.1785 29.4535L75.2018 29.4597Z" fill="#4F4F4F"/>
    <path d="M15.0885 24.6335C15.1365 24.7337 15.1814 24.8456 15.2178 24.9427C15.1184 24.941 14.9452 24.9819 14.9313 24.9408C14.8864 24.8289 14.8974 24.6946 14.8936 24.5688L15.0916 24.6218L15.0885 24.6335Z" fill="#4F4F4F"/>
    <path d="M49.7787 33.9288C49.7571 33.8231 49.7122 33.7113 49.7169 33.6002C49.7263 33.5653 49.8351 33.5321 49.8942 33.498C49.9158 33.6036 49.9607 33.7155 49.9559 33.8265C49.9465 33.8614 49.8378 33.8947 49.7787 33.9288Z" fill="#4F4F4F"/>
    <path d="M14.6937 23.5918C14.8857 23.481 15.0628 23.3787 15.2548 23.2679L14.6937 23.5918Z" fill="#4F4F4F"/>
    <path d="M12.0519 21.8981C12.0519 21.8981 11.9465 21.7326 11.9496 21.721C12.0212 21.6403 12.1245 21.5806 12.2194 21.5062L12.3643 21.7572C12.264 21.8052 12.1521 21.8501 12.0519 21.8981Z" fill="#4F4F4F"/>
    <path d="M9.91851 20.5902L10.1105 20.4794C10.1321 20.5851 10.177 20.6969 10.1722 20.8079C10.1628 20.8429 10.0541 20.8761 9.99503 20.9102C9.96177 20.8015 9.94014 20.6959 9.91851 20.5902Z" fill="#4F4F4F"/>
    <path d="M15.7912 21.964C15.7912 21.964 15.6858 21.7985 15.6889 21.7869C15.7604 21.7062 15.8638 21.6465 15.9586 21.5721C16.0098 21.6607 16.0524 21.7345 16.1035 21.8231C16.0033 21.8711 15.8914 21.916 15.7912 21.964Z" fill="#4F4F4F"/>
    <path d="M23.9206 23.2063C23.9206 23.2063 23.8151 23.0408 23.8183 23.0292C23.8898 22.9485 23.9932 22.8889 24.088 22.8144C24.1392 22.903 24.1818 22.9768 24.2329 23.0654C24.1327 23.1134 24.0208 23.1583 23.9206 23.2063Z" fill="#4F4F4F"/>
    <path d="M76.2172 27.6727C76.2887 27.5921 76.3719 27.5145 76.4435 27.4339C76.4776 27.4929 76.5551 27.5761 76.5458 27.611C76.4944 27.7096 76.3996 27.784 76.328 27.8647C76.2939 27.8056 76.2598 27.7465 76.2172 27.6727Z" fill="#4F4F4F"/>
    <path d="M77.1618 26.291C77.2425 26.3625 77.32 26.4457 77.4007 26.5172C77.3417 26.5513 77.2585 26.6289 77.2235 26.6195C77.125 26.5681 77.0505 26.4733 76.9699 26.4018L77.1618 26.291Z" fill="#4F4F4F"/>
    <path d="M77.8075 25.2785C77.8791 25.1978 77.9622 25.1203 78.0338 25.0396C78.0679 25.0987 78.1455 25.1818 78.1361 25.2168C78.0847 25.3153 77.9899 25.3897 77.9184 25.4704L77.8075 25.2785Z" fill="#4F4F4F"/>
  </svg>