<svg xmlns="http://www.w3.org/2000/svg" width="164" height="74" viewBox="0 0 164 74" fill="none">
    <g style="mix-blend-mode:screen">
      <path d="M23.9434 36.6035C24.221 36.6828 24.6176 36.8414 24.8292 37.1455C25.2919 37.8329 25.5696 38.6525 26.0587 39.3134C26.5611 40.0008 26.1909 41.1376 27.2354 41.521C27.1561 41.6532 27.1032 41.8382 26.9842 41.9176C26.7991 42.0365 26.2174 41.8647 26.614 42.367C27.1693 43.0808 27.8039 43.7418 28.3989 44.4159C28.5707 44.5878 28.7294 44.7464 28.9013 44.9183C28.9541 45.2223 28.9409 45.5924 29.0996 45.8172C29.2582 46.0287 31.5058 48.2891 31.876 48.9104C32.3387 49.6903 32.775 50.4703 33.8591 50.4042C34.0046 50.4042 34.2293 50.4703 34.269 50.5628C35.0226 52.4002 36.8471 52.9951 38.2617 54.0527C38.4997 54.2377 38.8302 54.555 38.817 54.7929C38.7773 55.5464 39.0418 56.1677 39.7292 56.2999C40.1259 56.3792 40.5886 57.3046 41.0646 56.3792C41.8182 56.9476 42.6511 57.4367 43.2989 58.0977C44.0261 58.8379 43.9732 58.7983 45.0441 58.9041C45.6522 58.9702 46.2207 59.446 46.8157 59.7368C46.5645 61.1909 47.6222 60.8472 48.3626 60.8076C49.4731 60.7679 50.5176 61.072 51.0993 61.9444C51.5356 62.6054 51.6281 62.9755 52.2099 62.1559C52.5933 61.6272 52.9238 61.799 53.4262 62.1559C54.5368 62.9226 55.687 63.4382 57.181 63.3985C58.0668 63.3721 59.2566 63.8744 59.759 64.932C60.0367 65.5268 60.1821 65.0906 60.3937 64.932C60.711 64.694 60.9357 63.9934 61.4646 64.7204C61.5307 64.813 61.7686 64.7865 61.9273 64.7998C64.9285 64.9716 67.9296 65.117 70.9308 65.3153C71.5125 65.3549 72.2661 65.8044 72.6098 65.5797C73.2709 65.1302 73.8923 65.3946 74.5137 65.3285C75.1747 65.2624 75.8754 65.4343 76.4968 65.2888C78.5329 64.813 80.6218 64.7601 82.671 64.4296C84.8525 64.0859 87.0075 63.5307 89.2154 63.2796C90.2599 63.1606 91.2647 62.6583 92.2959 62.3146C98.1528 60.3978 103.706 57.7275 109.113 54.8193C111.982 53.2727 114.758 51.541 117.442 49.6904C119.478 48.2892 121.29 46.531 123.22 44.9712C124.648 43.8211 126.128 42.7504 127.556 41.6135C129.011 40.4502 129.949 38.6921 131.747 37.899C133.175 35.2023 136.163 33.8407 137.578 31.1176C137.723 30.84 138.027 30.6417 138.265 30.4037C140.672 28.0375 142.536 25.2087 144.677 22.6177C146.608 20.2912 148.194 17.7531 149.873 15.2812C151.447 12.9811 152.914 10.6016 154.13 8.09C154.977 6.3583 155.968 4.69268 156.933 3.02707C157.251 2.48509 157.859 2.08854 158.123 1.52012C158.493 0.740198 159.035 1.63908 159.379 1.29538C159.842 0.819494 160.291 0.50223 161.058 0.462573C161.508 0.436135 161.997 -0.0265145 162.605 0.0263618C163.041 0.0660189 163.174 0.211432 163.451 0.608004C164.522 2.15463 163.795 3.62192 163.213 4.87773C162.116 7.24395 161.283 9.74237 160.067 12.0425C158.414 15.1886 156.814 18.3612 154.871 21.3619C153.496 23.4637 151.962 25.4598 150.667 27.5881C149.781 29.0422 148.393 29.9675 147.494 31.382C147.137 31.9636 146.489 32.532 146.092 33.1137C144.744 35.1097 143.025 36.7489 141.24 38.2823C140.275 39.1019 140.156 40.5163 138.715 41.0451C137.657 41.4417 136.97 42.7768 136.031 43.5831C133.307 45.9229 130.584 48.2759 127.768 50.51C125.401 52.3871 122.929 54.0527 120.43 55.7183C118.725 56.8419 117.151 58.3092 115.367 59.142C112.894 60.2788 110.792 61.9973 108.254 63.0019C105.755 63.9802 103.441 65.421 101.035 66.6372C100.625 66.8355 100.136 66.8883 99.6864 67.0073C99.0122 67.1792 98.1793 67.1792 97.7033 67.5758C97.1084 68.0913 96.4341 68.1706 95.8127 68.4614C95.3235 68.6861 95.0327 69.0034 94.5831 68.4879C94.5303 68.4218 94.3584 68.4746 94.2394 68.4614C94.3584 69.7304 93.1949 69.1092 92.6925 69.4661C92.1373 69.8494 91.4498 70.2063 90.8019 70.246C89.4402 70.3385 88.1842 70.669 86.9546 71.2242C86.796 71.2903 86.4522 70.9466 86.1878 70.788C86.1878 70.6161 86.1878 70.4575 86.5183 70.0213C86.6638 69.3471 86.5316 69.0827 86.4126 68.8184C86.1746 69.0563 85.8176 69.2546 85.7515 69.5322C85.6986 69.7437 86.0292 70.0345 86.1878 70.2989C86.3993 70.1403 86.5977 69.9684 86.5183 70.0345C86.0556 70.3517 85.9102 70.4046 85.778 70.4575C85.9102 70.5633 86.0556 70.6822 86.1878 70.788C85.8176 71.3432 85.6061 72.2685 84.6277 71.4886C84.5484 71.4225 84.3369 71.4093 84.284 71.4622C82.9222 72.903 81.296 72.2553 79.736 72.0702C79.5641 72.0438 79.3393 71.9777 79.2203 72.0438C78.6783 72.361 78.2156 72.8369 77.647 73.0484C77.2636 73.1938 76.7348 72.9427 76.2853 72.9824C75.6639 73.0352 75.0425 73.1939 74.4211 73.2732C73.5618 73.3789 72.7421 73.2467 71.8563 73.6962C71.182 74.0266 70.1375 73.6301 69.2649 73.5243C69.0402 73.4979 68.6964 73.2335 68.6435 73.2996C68.0486 73.9341 67.0967 74.0399 66.634 73.7094C65.92 73.1938 65.5366 73.8944 65.0078 73.7887C64.6111 73.7094 64.1616 73.6962 63.765 73.7887C63.3419 73.8812 63.0907 72.8237 62.628 73.6565C62.4561 73.3921 62.3371 73.0088 62.0859 72.8898C61.8876 72.7841 61.4513 72.8898 61.2662 73.0617C60.711 73.564 60.2614 74.2382 59.4814 73.2996C59.4153 73.2203 58.7542 73.7887 58.5031 73.6962C55.7266 72.6254 52.7123 72.9295 49.8962 72.2289C47.8602 71.7265 45.758 71.4886 43.8013 70.7351C41.9504 70.0213 39.954 69.6379 38.2617 68.4746C37.9047 68.2235 37.3098 68.3292 36.9396 68.0913C33.6476 66.0423 30.0383 64.4957 26.9974 62.0898C24.4987 60.1202 22.1585 57.9126 19.9903 55.5861C17.8749 53.3124 16.0769 50.7611 14.1598 48.3156C13.8822 47.9587 13.5385 47.5357 13.4724 47.1126C13.2873 45.9229 12.8245 46.2534 12.2428 46.7954C12.018 47.0069 11.7536 47.2845 11.476 47.3374C10.8678 47.4299 10.8017 47.8 11.0529 48.157C11.1719 48.342 11.6346 48.2891 11.9387 48.3552C12.2296 48.9633 11.3438 49.426 11.7933 50.2059C11.9916 50.5496 11.2512 51.3956 11.0132 52.0434C10.7753 52.6911 10.6959 53.4049 10.4183 54.0394C10.2729 54.3699 9.86302 54.5946 9.54572 54.8326C9.38707 54.9648 9.16231 55.0176 8.97722 55.1234C9.20197 55.2027 9.45317 55.2159 9.62505 55.3613C9.7837 55.4935 9.98201 55.8504 9.92913 55.9033C9.67793 56.1941 9.3474 56.4189 9.04332 56.67C9.47962 57.027 9.54572 57.331 9.20197 57.8862C8.72602 58.6529 7.19238 58.5075 7.48324 59.8558C7.708 60.9265 6.59744 61.2703 6.29336 62.1163C6.0686 62.7376 6.22725 63.7686 5.03736 64.1123C4.36309 64.3106 3.97968 65.421 3.41118 66.0952C3.29219 66.2406 2.93522 66.3331 2.77657 66.2671C2.63114 66.201 2.51215 65.8837 2.49893 65.6722C2.45927 65.0113 2.51215 64.3371 2.45927 63.6894C2.45927 63.5572 2.14196 63.3324 1.97009 63.3456C1.81144 63.3456 1.5338 63.5704 1.50736 63.729C1.44125 64.1388 1.52058 64.5618 1.46769 64.9716C1.42803 65.2624 1.2826 65.5268 1.17683 65.8044C0.846306 65.6193 0.35713 65.5004 0.198478 65.2228C-0.0130583 64.8262 0.000163239 64.2974 0.000163239 63.8215C0.000163239 63.3721 0.661213 62.9887 0.0266058 62.4468C-0.0923831 62.341 0.383573 61.6536 0.462898 61.2042C0.568666 60.6622 0.714098 60.1334 0.833087 59.6311C1.15039 58.2695 1.26938 56.9212 1.89077 55.5728C2.43283 54.4096 2.22129 52.9158 2.49893 51.5939C2.96166 49.3995 3.37152 47.1523 4.13834 45.0637C4.78616 43.2791 4.94481 41.4284 5.40755 39.6307C5.90995 37.6742 6.21403 35.6914 6.78253 33.735C7.12628 32.5452 7.80055 31.4348 7.90632 30.2187C8.0253 28.9364 8.72602 27.8789 8.964 26.6628C9.14909 25.711 9.66471 24.9178 10.3919 24.2701C10.7488 23.9529 11.0397 23.8471 11.4363 24.204C11.5421 24.2966 11.8065 24.2833 11.9519 24.204C12.5337 23.9 15.244 23.0539 15.6803 22.9746C17.0949 22.6838 18.3245 23.6356 19.6994 23.5034C21.8545 24.7724 24.3797 24.9839 26.6801 25.8432C28.888 26.676 31.2546 27.2708 33.4889 28.064C35.2077 28.6721 37.0057 29.1479 38.6848 29.9146C39.5838 30.3244 40.2581 31.1308 41.5009 31.025C42.3999 30.9457 43.484 31.448 44.2905 31.9768C45.9563 33.0608 47.794 33.5499 49.6582 34.039C50.0284 34.1315 50.425 34.4752 50.7291 34.3959C51.8397 34.1315 51.8 35.6253 52.699 35.5856C52.6329 36.0351 52.699 36.5638 52.4743 36.8943C52.2363 37.238 51.7207 37.4099 51.3108 37.6214C51.1654 37.7007 50.9671 37.6478 50.7952 37.661C50.7952 37.4099 50.7952 37.1587 50.9406 36.6828C50.9935 36.5374 50.8878 36.6167 50.7952 36.6828C50.8745 36.7621 50.9406 36.8282 51.02 36.9075C51.0993 36.815 51.1786 36.7092 51.2447 36.6035C51.2447 36.5903 51.1522 36.4977 50.9406 36.6696C50.0152 37.0662 49.5657 38.5599 48.4683 37.4892C48.1907 37.8461 47.49 38.1633 47.8866 38.6656C48.3493 39.2341 48.3361 39.4985 47.913 40.0933C47.2784 41.0054 47.1066 41.1376 46.1811 40.5031C45.8373 40.2784 45.3746 39.2341 45.2556 40.6485C45.2556 40.7543 44.3963 41.0055 44.1715 40.8468C42.6643 39.8025 40.7473 40.014 39.1607 39.049C37.7461 38.1898 36.0274 37.8196 34.4408 37.2248C31.9289 36.2862 29.4433 35.2552 26.8784 34.4488C26.1248 34.2109 25.4638 33.8671 24.7499 33.5499C24.4061 33.4045 23.983 33.4706 23.5864 33.4441C23.5732 33.8936 23.3484 34.5017 23.5732 34.766C24.0227 35.308 23.8112 35.85 23.9169 36.5506C23.7186 36.4845 23.4145 36.2069 23.1105 35.9161C23.0311 36.0483 22.8593 36.2466 22.8989 36.3127C23.1369 36.6696 23.4278 36.9868 23.7054 37.3173C23.7583 37.1719 23.8244 37.0397 23.9169 36.5506L23.9434 36.6035ZM7.48324 57.331C7.33781 57.4235 7.15272 57.5293 6.96763 57.635C7.04695 57.7143 7.1395 57.873 7.19238 57.8597C7.44358 57.7937 7.68156 57.6747 7.91954 57.5822C7.78733 57.5161 7.66834 57.4499 6.96763 58.0977V57.8729C6.83542 57.9126 6.68998 57.9391 6.58422 58.0184C6.55777 58.0448 6.6371 58.2167 6.66354 58.3224C6.75609 58.2431 6.86186 58.1638 7.47002 57.331H7.48324ZM22.9518 34.9643C22.8593 34.8189 22.7535 34.6339 22.6477 34.4488C22.5684 34.5281 22.4097 34.6206 22.423 34.6735C22.4891 34.9247 22.6081 35.1626 22.7006 35.4005C22.7667 35.2683 22.8328 35.1494 22.4097 34.4488C22.3304 34.0655 22.6609 33.497 21.5504 33.6557C21.7619 33.3913 21.8941 33.3119 21.8941 33.2326C21.8941 33.0211 21.8148 32.8096 21.7751 32.5849C21.6694 32.6114 21.4578 32.6378 21.4578 32.6642C21.4578 32.9286 21.4975 33.2062 21.8941 33.4574C21.9735 33.8407 21.6429 34.4091 22.9254 34.9643H22.9518ZM40.5886 32.955C40.192 32.5585 39.9143 32.2809 39.6367 32.0033C39.4119 32.4395 39.1211 32.8625 39.0021 33.3384C38.9756 33.4573 39.5442 33.9332 39.6499 33.8804C39.9804 33.7085 40.2184 33.3648 40.6018 32.9682L40.5886 32.955ZM1.98331 60.6225C1.98331 60.9398 1.95687 61.2703 1.99653 61.5875C1.99653 61.6668 2.27417 61.799 2.30062 61.7726C2.76335 61.3231 2.11552 60.4242 2.97489 60.1202C2.80301 59.9483 2.65758 59.7368 2.45927 59.6179C2.34028 59.5518 2.00975 59.6179 1.99653 59.6443C1.95687 59.9616 1.97009 60.292 1.97009 60.6093L1.98331 60.6225ZM46.4587 38.1898C46.3133 37.6214 46.234 37.3173 46.1546 37.0265C46.0489 37.1719 45.8506 37.3173 45.8506 37.4627C45.8506 37.7668 45.9431 38.0576 46.0092 38.3616C46.1943 38.2955 46.3794 38.2162 46.472 38.1898H46.4587ZM10.22 50.3778C10.1274 50.5232 9.94235 50.7082 9.98201 50.7743C10.101 50.999 10.2729 51.2106 10.4712 51.3824C10.4976 51.4089 10.7488 51.1841 10.8943 51.0784C10.6695 50.8536 10.458 50.6157 10.2332 50.391L10.22 50.3778ZM9.94235 52.9819C9.66471 52.9423 9.45317 52.8894 9.22842 52.9026C9.16231 52.9026 9.09621 53.1009 9.04332 53.2198C9.25486 53.2727 9.47961 53.352 9.69115 53.3785C9.74403 53.3785 9.82336 53.1802 9.94235 52.9951V52.9819ZM59.759 72.2024C59.6401 72.0174 59.574 71.8191 59.5079 71.8191C59.2831 71.8323 59.0715 71.9116 58.86 71.9777C58.9261 72.0834 58.979 72.2817 59.0451 72.2949C59.2567 72.2949 59.4814 72.2421 59.759 72.2156V72.2024ZM160.741 8.96242L160.913 8.7906C160.807 8.73773 160.701 8.65838 160.582 8.63194C160.543 8.63194 160.477 8.73773 160.424 8.7906C160.529 8.8567 160.635 8.90954 160.741 8.96242ZM43.0874 32.4527C43.0874 32.4527 42.9287 32.5717 42.9287 32.6113C42.9552 32.7303 43.0345 32.8361 43.0874 32.9418C43.1403 32.8889 43.246 32.8228 43.246 32.7832C43.2196 32.6642 43.1403 32.5585 43.0874 32.4527ZM44.5813 36.4317C44.5813 36.4317 44.4227 36.5506 44.4227 36.5903C44.4491 36.7093 44.5285 36.815 44.5813 36.9208C44.6342 36.8679 44.74 36.8018 44.74 36.7621C44.7136 36.6432 44.6342 36.5374 44.5813 36.4317ZM24.8292 39.1019C24.7631 39.0358 24.7102 38.9829 24.6573 38.93C24.6044 39.0358 24.5251 39.1415 24.4987 39.2605C24.4987 39.3002 24.6044 39.3663 24.6573 39.4191C24.7234 39.3134 24.7763 39.2076 24.8292 39.1019ZM25.2258 40.3445C25.2919 40.2784 25.3448 40.2255 25.3977 40.1726C25.2919 40.1198 25.1862 40.0405 25.0672 40.014C25.0275 40.014 24.9614 40.1198 24.9085 40.1726C25.0143 40.2387 25.1201 40.2916 25.2258 40.3445ZM4.90515 52.6911C4.85227 52.5853 4.78616 52.4796 4.73328 52.3738C4.68039 52.4267 4.57463 52.4928 4.57463 52.5325C4.60107 52.6514 4.68039 52.7572 4.73328 52.8629L4.90515 52.6911ZM6.46523 60.5961C6.46523 60.5961 6.34624 60.4374 6.30658 60.4374C6.18759 60.4639 6.08182 60.5432 5.97605 60.5961C6.02894 60.649 6.09504 60.7547 6.1347 60.7547C6.25369 60.7283 6.35946 60.649 6.46523 60.5961ZM49.4863 66.7561C49.5921 66.7033 49.6979 66.6372 49.8036 66.5843C49.7508 66.5315 49.6847 66.4257 49.645 66.4257C49.526 66.4521 49.4202 66.5315 49.3145 66.5843C49.3673 66.6372 49.4202 66.6901 49.4863 66.7561ZM60.2747 70.0609C60.2747 70.0609 60.1557 69.9023 60.116 69.9023C59.997 69.9287 59.8913 70.008 59.7855 70.0609C59.8384 70.1138 59.9045 70.2196 59.9441 70.2196C60.0631 70.1931 60.1689 70.1138 60.2747 70.0609ZM61.7025 69.9948C61.6364 69.9287 61.5835 69.8759 61.5307 69.823C61.4778 69.9287 61.3984 70.0345 61.372 70.1535C61.372 70.1931 61.4778 70.2592 61.5307 70.3121C61.5968 70.2063 61.6496 70.1006 61.7025 69.9948ZM70.1772 69.9948C70.1111 69.9287 70.0582 69.8759 70.0053 69.823C69.9524 69.9287 69.8731 70.0345 69.8467 70.1535C69.8467 70.1931 69.9524 70.2592 70.0053 70.3121C70.0714 70.2063 70.1243 70.1006 70.1772 69.9948ZM88.5015 70.246C88.5676 70.1799 88.6205 70.127 88.6734 70.0741C88.5676 70.0213 88.4618 69.942 88.3428 69.9155C88.3032 69.9155 88.2371 70.0213 88.1842 70.0741C88.2899 70.1402 88.3957 70.1931 88.5015 70.246ZM51.139 71.7398C51.2051 71.6737 51.2579 71.6208 51.3108 71.5679C51.2051 71.515 51.0993 71.4357 50.9803 71.4093C50.9406 71.4093 50.8745 71.515 50.8217 71.5679C50.9274 71.634 51.0332 71.6869 51.139 71.7398ZM61.2134 71.9909C61.1473 71.9248 61.0944 71.8719 61.0415 71.8191C60.9886 71.9248 60.9093 72.0306 60.8828 72.1496C60.8828 72.1892 60.9886 72.2553 61.0415 72.3082C61.1076 72.2024 61.1605 72.0967 61.2134 71.9909ZM68.194 71.9909C68.1279 71.9248 68.075 71.8719 68.0222 71.8191C67.9693 71.9248 67.89 72.0306 67.8635 72.1496C67.8635 72.1892 67.9693 72.2553 68.0222 72.3082C68.0883 72.2024 68.1412 72.0967 68.194 71.9909Z" fill="#4F4F4F"/>
      <path d="M28.3858 44.4159C28.4916 44.2837 28.6105 44.1383 28.7163 44.0061C28.7692 44.1383 28.8221 44.2837 28.875 44.4159H28.3726H28.3858Z" fill="#4F4F4F"/>
      <path d="M28.8877 44.4159C29.0199 44.5217 29.1653 44.6406 29.2975 44.7464C29.1653 44.7993 29.0199 44.8521 28.8877 44.905V44.4027V44.4159Z" fill="#4F4F4F"/>
      <path d="M12.243 47.9454C12.243 47.9454 12.4017 48.0908 12.4017 48.104C12.3488 48.2098 12.2562 48.3023 12.1769 48.4081L11.9521 48.1834C12.0447 48.104 12.1505 48.0247 12.243 47.9454Z" fill="#4F4F4F"/>
      <path d="M8.27629 59.4328C8.34239 59.4989 8.39528 59.5518 8.44816 59.6046C8.34239 59.6575 8.23662 59.7368 8.11763 59.7633C8.07797 59.7633 8.01187 59.6575 7.95898 59.6046C8.06475 59.5385 8.17052 59.4857 8.27629 59.4328Z" fill="#4F4F4F"/>
    </g>
  </svg>