<svg xmlns="http://www.w3.org/2000/svg" width="49" height="49" viewBox="0 0 49 49" fill="none">
    <path d="M15.7542 13.8027C15.6789 14.2043 15.4906 14.4177 15.4529 14.6562C15.2646 15.7858 15.2583 15.88 14.3295 16.3695C14.0219 16.5265 13.7772 16.5955 13.6893 16.9972C13.6516 17.1729 13.388 17.6499 12.9613 16.6709C12.748 16.3948 12.5597 16.696 12.3714 16.9973C12.4718 17.06 12.5785 17.129 12.6789 17.1792C12.9738 17.3361 13.25 17.1729 13.2876 16.947C13.3316 16.6646 13.1936 16.3382 13.112 16.0433C13.0994 16.0182 12.9426 16.037 12.9676 16.6646C12.7227 18.1018 12.252 18.585 11.411 18.924C10.7395 19.1939 11.0471 18.8111 10.9341 18.5851C10.7459 18.2212 10.2501 18.2902 10.0806 18.7986C9.92995 19.2755 9.88601 19.4199 9.45301 19.0747C9.33377 18.9806 9.03252 19.1689 9.05765 18.7924C9.08278 18.4033 9.03888 18.0079 9.07028 17.6251C9.10169 17.1921 9.29623 17.487 9.45939 17.5497C9.54097 17.5811 9.75435 17.5309 9.7669 17.4932C10.018 16.1502 10.2691 15.6983 11.1352 14.8448C11.3298 14.6502 11.3863 14.1544 11.562 14.1293C12.0076 14.0602 12.2461 13.8594 12.3779 13.464C12.4721 13.169 12.5286 12.8615 12.6165 12.5603C12.6478 12.4662 12.6855 12.3406 12.7608 12.2904C13.8654 11.5247 14.2797 10.1817 15.2588 9.30298C16.1939 8.46823 16.5831 7.1754 17.6438 6.44106C18.0392 6.17118 18.4095 5.86364 18.786 5.56238C18.8739 5.48706 18.9869 5.36152 18.9869 5.27366C18.9367 4.49548 19.3007 4.06871 20.0538 3.89293C20.2421 3.85526 20.3928 3.64187 20.5622 3.52262C20.989 3.22135 21.1962 2.39923 21.9931 2.93261C22.0371 2.96399 22.5203 2.59367 22.5141 2.41167C22.489 1.69624 22.9346 1.76525 23.3802 1.77149C23.7755 1.77774 24.1646 1.79025 24.5537 1.76512C24.7922 1.75256 25.1437 1.56427 25.2252 1.6584C25.5139 1.95961 25.4574 2.31732 25.2063 2.68133C25.0369 2.9261 25.0055 3.25871 24.9113 3.55368C25.2753 3.62896 25.4008 3.87998 25.4886 4.20631C25.5075 4.27534 25.8338 4.3632 25.884 4.31299C26.2543 3.89249 26.4551 4.24391 26.6747 4.46354C30.0257 7.81455 33.3767 11.1656 36.7215 14.5103C36.9348 14.7236 37.1168 15.0186 37.1921 15.3073C37.2548 15.5583 37.7632 15.8658 37.2422 16.098C37.1042 16.1608 36.8155 15.8972 36.5959 15.7905C36.5017 15.7466 36.395 15.7278 36.3009 15.6964C36.3072 15.7906 36.2758 15.9098 36.3197 15.9788C36.6398 16.4871 36.715 17.1649 36.3071 17.4599C35.9556 17.711 35.3406 17.3847 34.9453 17.0019C34.87 16.9266 34.6754 16.9705 34.5311 16.9643C34.5248 17.1463 34.4432 17.4161 34.531 17.4914C35.0393 17.9244 35.3782 18.4641 35.535 19.0854C35.604 19.3678 35.7044 19.8322 35.2777 19.9326C35.0015 19.9954 34.6062 19.8888 34.3928 19.7131C33.8406 19.2487 33.3574 18.7027 32.8428 18.1881C32.7236 18.0689 32.6043 17.9497 32.4914 17.8367C32.46 17.8054 32.347 17.8054 32.3345 17.8305C32.2968 17.9058 32.2403 18.0125 32.2654 18.0752C32.4537 18.4392 32.6733 18.7969 32.8678 19.1672C33.0372 19.4872 33.1878 19.8135 33.3635 20.1273C33.5769 20.5164 33.2819 20.4474 33.0874 20.4286C32.4473 20.3408 31.8636 20.1463 31.4181 19.6129C30.3262 18.3327 29.2092 17.0651 28.0922 15.81C27.7973 15.4774 27.471 15.1762 27.1446 14.8624C27.0756 14.7934 26.9564 14.7871 26.856 14.7495C26.8371 14.8436 26.7995 14.944 26.812 15.0319C26.9751 16.9146 26.8996 18.8224 27.276 20.6926C27.2948 20.7993 27.276 20.9185 27.2823 21.0252C27.3637 22.7761 27.4264 24.5333 27.5266 26.278C27.5705 27.1378 27.6771 27.9975 27.7587 28.8573C27.8402 29.7171 27.5389 30.6083 27.9907 31.4366C28.0409 31.5245 27.9969 31.6563 27.9969 31.7692C28.0719 35.6351 28.1532 39.5072 28.2283 43.3731C28.2408 44.0885 27.9897 44.6785 27.5504 45.2684C27.1236 45.8333 26.885 46.5487 26.5837 47.2014C26.5084 47.352 26.7155 47.6846 26.3327 47.6156C26.0879 47.5717 25.6737 47.4588 25.6612 47.3458C25.611 46.8438 25.473 46.4923 24.9207 46.4422C25.0274 46.7873 25.1529 47.1262 25.2407 47.4776C25.2846 47.6471 25.3034 47.942 25.2218 47.9985C25.0587 48.0989 24.7386 48.168 24.6131 48.0802C24.2868 47.8417 23.8977 47.553 23.7659 47.1953C23.4522 46.3168 23.1699 45.4068 23.0507 44.4843C22.7559 42.2438 22.5929 39.9971 22.3107 37.7567C22.0221 35.4096 21.8466 33.0499 21.5769 30.6966C21.3198 28.4561 21.3388 26.1906 20.931 23.9627C20.7052 22.7452 20.8057 21.465 20.6551 20.2224C20.4356 18.3711 20.3479 16.5009 19.984 14.6558C19.7833 13.6517 19.8085 12.61 19.7207 11.5808C19.6956 11.2921 19.6266 11.0097 19.5701 10.7273C19.3693 10.903 19.0304 11.0536 18.9739 11.2607C18.7667 12.0829 18.0074 11.9888 17.43 12.3905C17.3735 12.2964 17.3923 12.1897 17.3547 12.152C17.2543 12.0516 17.1162 11.9889 16.9907 11.901C16.953 11.9638 16.8652 12.0767 16.8777 12.0893C17.0032 12.2148 17.1538 12.3278 17.4237 12.3842C17.5931 12.4532 18.0136 12.585 17.7437 12.9051C17.3483 13.3632 16.9153 13.7963 16.4571 14.1917C16.137 14.4616 16.0115 14.0474 15.7731 13.7336C15.7291 13.6395 15.7166 13.7274 15.704 13.8027L15.9174 13.8027C15.9111 13.7211 15.8986 13.6332 15.8798 13.5516C15.8735 13.5453 15.7856 13.5454 15.7668 13.7274L15.7542 13.8027ZM20.6559 9.34024C20.7061 9.62893 20.6873 9.83602 20.7814 9.95526C20.9006 10.1121 21.1077 10.1937 21.2709 10.3067C21.2521 10.0243 21.2521 9.73557 21.1956 9.46572C21.1831 9.41551 20.9446 9.40299 20.6497 9.33397L20.6559 9.34024ZM34.914 14.6234C34.8701 14.843 34.8513 14.9372 34.8262 15.0376C35.0584 15.0062 35.3031 14.9748 35.5353 14.9434C35.4977 14.8555 35.4726 14.7049 35.4036 14.6861C35.2404 14.6359 35.0647 14.6359 34.9078 14.6171L34.914 14.6234ZM20.832 4.10625C20.8509 4.16273 20.9011 4.2757 20.9512 4.40121C21.0391 4.36355 21.1772 4.35099 21.2211 4.28195C21.2776 4.18781 21.2651 4.04973 21.2776 3.92421C21.1898 3.96187 21.0893 3.99955 20.8383 4.09998L20.832 4.10625ZM31.0983 16.4185C31.0418 16.4374 30.9288 16.4876 30.8033 16.5378C30.8409 16.6256 30.8535 16.7637 30.9225 16.8076C31.0166 16.8641 31.1547 16.8515 31.2802 16.8641C31.2426 16.7762 31.2049 16.6758 31.1045 16.4248L31.0983 16.4185ZM24.5913 2.50566L24.4282 2.50568C24.4532 2.58098 24.4658 2.66884 24.5097 2.73787C24.5285 2.7567 24.6101 2.73786 24.6603 2.73786C24.6415 2.65627 24.6164 2.58097 24.5913 2.50566ZM15.974 12.2023L16.1372 12.2023C16.1121 12.127 16.0995 12.0391 16.0556 11.9701C16.0368 11.9513 15.9552 11.9701 15.905 11.9701C15.9238 12.0517 15.9489 12.127 15.974 12.2023ZM24.1833 3.99305C24.108 3.96796 24.0264 3.94911 23.9511 3.92402C23.9511 3.97422 23.9322 4.05582 23.9511 4.07465C24.0201 4.11857 24.108 4.1311 24.1833 4.1562C24.1833 4.10599 24.1833 4.05581 24.1833 3.99305ZM25.84 4.87151C25.84 4.87151 25.8212 5.00333 25.84 5.02215C25.909 5.06608 25.9969 5.07861 26.0722 5.10371C26.0722 5.0535 26.0911 4.97191 26.0722 4.95309C26.0032 4.90916 25.9153 4.89661 25.84 4.87151ZM26.5489 8.41728C26.5489 8.41728 26.5301 8.54906 26.5489 8.56789C26.618 8.61181 26.7058 8.62436 26.7811 8.64946C26.7811 8.59925 26.8 8.51767 26.7811 8.49885C26.7121 8.45492 26.6242 8.44237 26.5489 8.41728ZM30.0942 15.5149C30.0942 15.5149 29.9624 15.4961 29.9436 15.5149C29.8996 15.5839 29.8871 15.6718 29.862 15.7471C29.9122 15.7471 29.9938 15.7659 30.0126 15.7471C30.0565 15.6781 30.0691 15.5902 30.0942 15.5149ZM33.8094 15.9916C33.7467 15.9916 33.6965 15.9916 33.6462 15.9916C33.6713 16.0669 33.6839 16.1547 33.7278 16.2238C33.7466 16.2426 33.8282 16.2238 33.8784 16.2238C33.8596 16.1422 33.8345 16.0669 33.8094 15.9916Z" fill="#4F4F4F"/>
    <path d="M33.1885 10.0108C33.5399 10.6886 34.4247 10.883 34.5125 11.724C33.9917 11.2533 33.4081 10.8329 32.9563 10.2932C32.4919 9.75354 31.6949 9.48374 31.6008 8.64907C32.1342 9.10716 32.6739 9.57153 33.1885 10.0108Z" fill="#4F4F4F"/>
    <path d="M35.837 12.7342C36.0316 12.9287 36.2387 13.1107 36.4206 13.3178C36.4834 13.3806 36.4708 13.5186 36.4959 13.619C36.3955 13.5939 36.2575 13.6065 36.201 13.55C35.7617 13.1359 35.3287 12.7029 34.9145 12.2636C34.8518 12.2008 34.8643 12.0628 34.8455 11.9686C34.9459 11.9937 35.0714 11.9812 35.1468 12.0439C35.3915 12.2636 35.6111 12.5083 35.8496 12.7468L35.837 12.7342Z" fill="#4F4F4F"/>
    <path d="M37.3052 14.2026C37.5876 14.485 37.757 14.6293 37.8888 14.7987C37.9265 14.8364 37.8637 14.9619 37.8261 15.0372C37.8072 15.056 37.7005 15.0623 37.6692 15.0309C37.506 14.8803 37.3177 14.7423 37.2048 14.5666C37.0605 14.3344 36.5772 14.2905 36.7969 13.8575C37.0103 14.0081 37.2299 14.1524 37.299 14.1963L37.3052 14.2026Z" fill="#4F4F4F"/>
    <path d="M25.771 2.68126C25.8024 2.8256 25.8651 2.95109 25.8338 2.98247C25.7208 3.08289 25.5827 3.14568 25.4509 3.21472C25.4321 3.13314 25.3631 3.01389 25.3882 2.97623C25.4886 2.87581 25.6204 2.79423 25.7647 2.67498L25.771 2.68126Z" fill="#4F4F4F"/>
    <path d="M37.4303 16.462C37.5056 16.4871 37.5935 16.4997 37.6625 16.5436C37.6813 16.5624 37.6625 16.644 37.6625 16.6942C37.5872 16.6691 37.4993 16.6566 37.4303 16.6127C37.4115 16.5939 37.4303 16.5122 37.4303 16.462Z" fill="#4F4F4F"/>
  </svg>