<svg xmlns="http://www.w3.org/2000/svg" width="240" height="167" viewBox="0 0 240 167" fill="none">
    <g style="mix-blend-mode:screen">
      <path d="M218.809 101.109C218.764 100.973 218.657 100.962 218.629 100.905C218.309 100.22 217.996 99.5237 217.682 98.8274C216.856 99.146 216.024 99.4759 215.18 99.7718C214.943 99.85 214.62 99.8995 214.406 99.8194C214.203 99.7451 214.08 99.4564 213.922 99.2637C213.859 99.529 213.801 99.8113 213.727 100.071C213.463 101.07 214.063 102.152 213.488 103.121C214.103 103.474 213.582 103.834 213.49 104.183C214.07 104.689 214.09 105.265 213.692 105.885C214.306 106.238 213.785 106.597 213.693 106.947C214.273 107.453 214.293 108.029 213.895 108.649C214.475 109.154 214.496 109.731 214.097 110.351C214.712 110.704 214.191 111.063 214.099 111.413C214.919 112.648 214.456 113.957 214.298 115.251C214.438 115.505 214.725 115.778 214.702 116.021C214.6 117.399 214.973 118.791 214.436 120.246C214.419 120.28 214.453 120.212 214.481 120.156C214.577 120.247 214.69 120.332 214.746 120.445C214.757 120.479 214.615 120.592 214.547 120.67C214.502 120.563 214.446 120.45 214.447 120.252C212.923 118.364 211.654 116.364 210.578 114.235C210.286 113.663 209.734 113.214 209.375 112.665C207.713 110.041 205.972 107.491 204.038 105.07C201.845 102.321 199.652 99.571 197.255 96.973C195.264 94.8062 193.488 92.4651 191.178 90.5907C190.458 90 189.839 89.2346 189.141 88.5706C188.488 87.9576 187.949 87.0908 187.257 86.4437C185.63 84.9282 183.821 83.604 182.313 81.993C180.625 80.1777 178.278 79.2186 176.727 77.2174C175.974 76.2424 174.739 75.5196 173.577 75.0457C172.939 74.7944 172.932 73.7716 172.055 74.0222C171.15 74.2727 171.426 73.1381 170.754 72.9262C170.071 72.7086 169.589 71.7573 168.917 71.6019C168.031 71.3948 167.822 70.0999 166.735 70.4288C166.146 69.4374 165.136 68.9699 164.138 68.621C163.319 68.335 162.75 67.9767 162.131 67.3243C161.011 66.1781 159.523 65.3978 157.851 65.2325C157.393 65.1854 156.998 65.1555 157.192 64.6308C157.392 64.0949 157.138 63.9243 156.749 63.7701C154.582 62.9021 152.747 61.267 150.347 60.9462C149.864 60.1079 148.961 59.8498 148.177 59.4397C147.19 58.927 146.238 58.1771 145.194 58.0032C144.16 57.835 143.7 56.9516 142.797 56.6936C141.708 56.3839 140.624 56.0346 139.575 55.5895C138.481 55.1215 137.473 54.2019 136.371 54.0843C135.044 53.9375 134.081 53.2102 132.941 52.8042C132.173 52.5297 131.355 52.385 130.57 52.1162C129.786 51.8473 129.144 51.127 128.194 51.4677C127.084 50.525 125.569 50.6938 124.323 50.0784C123.533 49.6795 122.613 49.5118 121.749 49.2878C119.152 48.6271 116.613 47.8253 113.964 47.3226C111.858 46.9239 109.775 46.3388 107.675 45.9005C104.79 45.3064 101.847 45.0229 98.9728 44.4344C97.5951 44.1631 96.1881 44.1176 94.8049 43.801C93.5403 43.5019 92.1089 43.9253 90.8728 43.5698C88.7786 42.979 86.6311 43.0265 84.5185 42.8086C82.5697 42.6026 80.564 42.5094 78.5685 42.6762C76.9687 42.8164 75.3711 42.4198 73.7264 42.4807C68.634 42.6684 63.5374 42.5284 58.4431 43.1963C55.3673 43.5959 52.2142 43.5601 49.1379 44.1009C46.6836 44.5314 44.2075 44.7526 41.7644 45.217C40.4976 45.4547 39.2417 45.7828 37.9586 45.8565C36.6303 45.9357 35.5576 47.0782 34.1579 46.6542C33.7759 47.4945 32.9696 47.0448 32.3868 47.2175C29.241 48.1762 26.0894 49.1461 22.9103 49.9465C21.7562 50.2411 20.8207 51 19.577 51.136C18.4237 51.2612 17.2968 51.8102 16.1763 52.2066C15.2652 52.5249 14.3877 52.9168 13.4822 53.252C12.6333 53.5592 11.7732 53.8325 10.9243 54.1397C9.97355 54.4804 8.93848 54.7077 8.09992 55.2466C6.20179 56.4818 4.15272 57.3151 2.00284 57.9276C1.28996 58.1337 0.971857 58.5392 1.1213 59.3083C1.22095 59.8116 1.20752 60.3427 1.29579 60.8686C1.4115 61.5923 1.69801 62.006 2.57529 61.6707C3.11293 61.4752 3.74001 61.523 4.32231 61.4633C4.40873 62.4412 5.07648 62.2123 5.68702 62.1527C5.79446 62.1362 5.95201 62.3008 6.03631 62.4141C6.44109 62.93 6.7597 63.7846 7.26211 63.911C7.8549 64.0548 8.58056 63.4871 9.2761 63.3714C10.6163 63.1566 11.8392 62.5854 13.0732 62.0764C14.2393 61.5897 15.3271 60.8936 16.4542 60.2881C16.5901 60.2152 16.7597 60.1876 16.9012 60.1317C19.465 59.1762 22.0176 58.2151 24.5814 57.2596C25.3284 56.9859 26.0866 56.7461 26.8392 56.5176C27.5068 56.3169 28.1185 55.9748 28.7411 55.7232C29.4317 55.4492 30.2614 55.6843 30.8116 55.1838C31.4128 54.6382 32.1694 54.7939 32.8203 54.5424C33.4938 54.3022 34.1616 54.0451 34.8517 53.8841C35.587 53.7177 36.2222 53.161 37.1028 53.4077C37.3511 53.4765 37.3392 52.239 38.2746 52.9097C38.5957 53.1427 39.4228 52.6546 40.0335 52.5385C40.6952 52.4056 41.3792 52.369 42.0353 52.2192C42.6462 52.0748 43.2297 51.7326 43.8459 51.6617C45.0276 51.5084 46.0921 50.9987 47.3688 51.1058C48.4421 51.195 49.5299 50.4989 50.7227 50.4079C52.7407 50.2525 54.7372 49.8315 56.7559 49.5348C58.7405 49.2493 60.7869 49.0658 62.7534 49.0966C64.9741 49.1286 67.1644 48.2958 69.3827 48.921C69.5069 48.9555 69.6826 48.8319 69.8354 48.7817C71.08 48.4479 72.3344 48.4588 73.5996 48.6166C74.6446 48.734 75.6679 48.614 76.7084 48.4319C77.732 48.2554 78.7078 48.6776 79.8163 48.4732C81.0548 48.2355 82.4264 48.6311 83.7366 48.84C87.3679 49.4147 91.0874 49.1421 94.6721 50.033C96.2558 49.7006 97.7047 50.5317 99.27 50.5156C100.564 50.5041 101.925 50.8658 103.172 51.1988C104.753 51.6292 106.454 51.5685 107.949 52.2246C109.68 53.0004 111.665 52.7149 113.379 53.5809C113.819 53.8032 114.39 53.7377 114.893 53.8359C117.005 54.2516 118.944 55.4012 121.17 55.4218C121.453 55.423 121.734 55.7067 122.028 55.8266C123.81 56.5573 125.536 57.5421 127.388 57.9115C128.816 58.1944 129.92 59.0636 131.247 59.3799C134.346 60.1105 136.852 62.2118 139.799 63.1056C142.694 63.988 145.151 65.6256 147.893 66.7277C148.937 67.1558 149.549 68.1021 150.479 68.558C151.551 69.0993 152.513 70.0809 153.904 69.7929C154.279 70.8737 155.494 70.9071 156.174 71.6049C156.484 71.917 156.793 72.2573 157.16 72.4849C158.789 73.5201 160.412 74.5384 162.081 75.4947C162.74 75.8704 162.848 77.227 164.043 76.6274C164.51 77.1605 164.948 77.7217 165.443 78.2267C165.646 78.4423 165.99 78.5172 166.238 78.699C166.993 79.222 168.067 79.2548 168.555 80.1948C168.992 81.0386 170.411 80.779 170.559 81.9436C172.614 82.4438 173.51 84.51 175.269 85.4554C176.352 86.0306 177.32 86.9727 178.073 87.9478C178.534 88.5486 179.302 88.7383 179.582 89.2481C179.925 89.888 180.489 90.0316 180.939 90.4291C181.767 91.1445 182.64 91.8827 183.269 92.7669C183.972 93.7304 185.304 94.092 185.632 95.4043C185.688 95.6023 186.303 95.7574 186.653 95.7645C186.964 95.7658 187.355 95.6093 187.093 96.0998C186.677 96.8665 187.864 96.8432 187.675 97.4414C188.566 98.0045 189.479 98.5508 189.847 99.6429C189.898 99.7674 190.39 99.7186 190.661 99.7989C191.095 99.9194 191.53 100.068 191.941 100.262C192.054 100.319 192.087 100.562 192.16 100.726C190.468 101.245 191.957 102.053 192.17 102.331C193.334 103.839 194.719 105.161 195.74 106.81C196.016 107.246 196.601 107.91 197.158 106.918C197.158 106.918 197.429 107.054 197.564 107.123C196.676 108.882 197.973 109.565 199.258 110.356C199.292 110.373 199.224 110.339 199.168 110.311C199.258 110.215 199.344 110.102 199.457 110.046C199.491 110.035 199.603 110.177 199.682 110.245C199.575 110.29 199.461 110.346 199.264 110.345C199.721 111.822 200.557 113.164 201.768 114.271C201.875 114.368 202.106 114.414 202.151 114.522C203.207 117.447 205.498 119.638 206.821 122.373C207.426 123.613 208.349 124.56 209.011 125.716C209.101 125.874 209.037 126.281 208.901 126.382C208.742 126.5 208.296 126.487 208.2 126.368C207.756 125.733 206.974 126.272 206.44 125.761C205.944 125.285 205.193 125.089 204.562 124.77C203.93 124.451 203.316 123.957 202.644 123.83C200.29 123.391 198.408 121.874 196.213 121.175C194.808 120.735 193.517 119.814 192.162 119.667C190.032 119.426 188.548 117.657 186.366 117.659C185.728 117.662 185.109 117.01 184.454 116.764C183.907 116.558 183.251 116.623 182.738 116.378C182.095 116.053 181.422 116.096 180.785 115.929C179.159 115.504 177.691 116.419 176.121 116.305C176.008 116.305 175.855 116.44 175.758 116.547C175.208 117.16 175.364 119.065 176.057 119.43C178.228 120.569 180.353 121.94 182.661 122.667C184.078 123.114 185.353 123.757 186.701 124.283C187.615 124.631 188.558 124.895 189.495 125.17C190.358 125.423 191.04 125.979 192.073 126.063C193.322 126.17 194.516 127.113 195.683 127.773C196.901 128.473 198.176 128.919 199.554 129.134C199.622 129.14 199.707 129.084 199.786 129.067C199.922 129.051 200.12 128.967 200.176 129.024C201.819 130.816 204.145 131.34 206.226 132.321C206.773 132.583 207.229 133.026 207.771 133.299C209.88 134.393 212.074 135.346 214.109 136.558C215.547 137.411 217.196 137.481 218.64 138.238C219.159 138.5 219.663 138.259 220.01 137.713C220.243 137.335 220.527 136.969 220.856 136.682C220.964 136.581 221.291 136.746 221.522 136.792L221.203 137.424C223.724 137.338 223.56 137.298 224.147 134.877C224.658 132.743 224.339 130.628 224.449 128.504C224.628 124.956 224.224 121.412 223.826 117.884C223.493 114.984 223.075 112.112 222.771 109.212C222.537 106.956 221.602 104.828 221.594 102.517C221.596 102.065 221.395 101.567 221.153 101.176C220.777 100.547 220.294 99.9911 219.867 99.4073C219.79 100.119 219.049 100.381 218.792 101.087C218.893 101.138 219.091 101.11 219.25 101.021C219.663 100.791 219.775 101.046 219.819 101.379C220.056 102.928 220.304 104.483 220.518 106.049C220.721 107.525 220.771 109.023 221.07 110.476C221.303 111.585 221.485 112.653 221.514 113.8C221.555 114.953 222.098 116.12 221.884 117.356C221.821 117.706 221.802 118.107 221.897 118.452C222.119 119.329 222.342 120.121 222.146 121.126C221.99 121.883 222.297 122.845 222.259 123.76C222.22 125.155 222.457 126.563 222.513 127.965C222.569 129.508 222.569 131.05 222.557 132.587C222.55 132.796 222.408 133.106 222.243 133.207C222.028 133.325 221.615 133.386 221.491 133.266C221.295 133.068 221.127 132.672 221.173 132.412C221.513 130.729 221.028 129.055 221.21 127.349C221.428 125.237 221.211 123.089 221.016 120.952C220.806 118.538 220.912 116.086 220.628 113.678C220.202 110.009 219.697 106.357 218.853 102.759C218.736 102.262 218.778 101.731 218.775 101.092L218.809 101.109ZM214.513 102.606C214.558 102.713 214.614 102.826 214.659 102.934C214.557 102.967 214.472 102.995 214.37 103.029C214.342 102.916 214.32 102.791 214.31 102.673C214.315 102.661 214.434 102.622 214.471 103.306L214.568 103.114C214.663 103.205 214.776 103.29 214.832 103.404C214.843 103.438 214.702 103.55 214.633 103.629C214.589 103.521 214.533 103.408 214.53 102.6L214.513 102.606ZM216.026 119.648C215.996 120.044 216.001 120.23 215.955 120.405C215.926 120.546 215.824 120.665 215.756 120.8C215.66 120.624 215.48 120.448 215.504 120.29C215.532 120.121 215.737 119.969 215.665 120.98L215.761 120.789C215.857 120.879 215.97 120.965 216.026 121.078C216.037 121.112 215.895 121.224 215.827 121.303C215.782 121.195 215.726 121.082 216.032 119.637L216.026 119.648ZM215.313 113.045C215.5 112.956 215.641 112.872 215.788 112.804C215.816 112.946 215.9 113.116 215.855 113.206C215.763 113.386 215.576 113.504 215.435 113.645C215.396 113.47 215.374 113.289 215.548 112.188C215.593 112.295 215.649 112.408 215.693 112.516L215.405 112.611C215.377 112.498 215.355 112.373 215.344 112.255C215.35 112.243 215.469 112.204 215.313 113.045ZM215.63 115.669C215.788 115.635 215.958 115.551 215.997 115.585C216.341 115.915 216.286 116.864 215.928 117.32C215.888 117.371 215.781 117.444 215.747 117.426C215.645 117.375 215.499 117.273 215.494 117.199C215.524 116.691 215.582 116.183 215.751 114.952C215.796 115.059 215.852 115.172 215.897 115.28C215.795 115.313 215.71 115.341 215.608 115.375C215.581 115.262 215.558 115.137 215.548 115.018C215.553 115.007 215.672 114.968 215.635 115.657L215.63 115.669ZM167.999 72.2422C167.741 71.9417 167.651 71.8396 167.566 71.7262C167.736 71.6987 167.917 71.6203 168.075 71.6436C168.188 71.6723 168.261 71.8365 168.357 71.9555C168.215 72.068 168.079 72.1973 168.011 72.2479L167.999 72.2422ZM218.486 120.636C218.639 120.529 218.798 120.411 218.973 120.288C218.984 120.435 219.074 120.622 219.017 120.706C218.903 120.875 218.716 120.993 218.546 121.134C218.535 120.987 218.508 120.845 218.486 120.636ZM216.935 100.389L216.715 100.462C216.715 100.349 216.693 100.225 216.722 100.112C216.739 100.078 216.858 100.067 216.925 100.045C216.936 100.163 216.936 100.276 216.935 100.389ZM214.478 101.554C214.545 101.645 214.607 101.747 214.675 101.838C214.607 101.86 214.505 101.922 214.471 101.905C214.381 101.831 214.325 101.718 214.257 101.627C214.325 101.605 214.393 101.582 214.478 101.554ZM217.031 104.713C217.121 104.645 217.223 104.583 217.314 104.516C217.336 104.584 217.398 104.686 217.381 104.72C217.307 104.81 217.194 104.866 217.103 104.933C217.081 104.865 217.059 104.797 217.031 104.713ZM214.854 106.387C214.786 106.297 214.725 106.195 214.657 106.104C214.725 106.082 214.827 106.02 214.861 106.037C214.951 106.111 215.007 106.224 215.075 106.315C215.007 106.337 214.939 106.359 214.854 106.387ZM214.932 108.026C214.904 107.941 214.882 107.873 214.859 107.806C214.972 107.806 215.097 107.784 215.21 107.813C215.244 107.83 215.254 107.948 215.277 108.016C215.158 108.027 215.045 108.027 214.932 108.026ZM215.258 109.791C215.191 109.7 215.129 109.598 215.062 109.507C215.129 109.485 215.231 109.423 215.265 109.44C215.355 109.514 215.411 109.627 215.479 109.718C215.411 109.74 215.343 109.763 215.258 109.791ZM215.284 110.497C215.351 110.588 215.413 110.69 215.48 110.78C215.412 110.803 215.31 110.864 215.276 110.847C215.186 110.773 215.13 110.66 215.063 110.569C215.131 110.547 215.199 110.525 215.284 110.497ZM218.523 115.715C218.495 115.63 218.473 115.562 218.45 115.494C218.563 115.494 218.688 115.472 218.801 115.501C218.834 115.518 218.845 115.637 218.868 115.705C218.749 115.716 218.636 115.715 218.523 115.715ZM215.662 118.884C215.662 118.884 215.832 118.8 215.866 118.817C215.956 118.891 216.012 119.004 216.079 119.095C216.011 119.117 215.909 119.179 215.875 119.162C215.785 119.088 215.729 118.975 215.662 118.884ZM201.32 111.907C201.32 111.907 201.404 112.077 201.387 112.111C201.313 112.201 201.2 112.257 201.109 112.325C201.087 112.257 201.025 112.155 201.042 112.121C201.116 112.031 201.229 111.975 201.32 111.907ZM215.987 122.332C215.902 122.36 215.834 122.382 215.766 122.405C215.767 122.292 215.744 122.167 215.773 122.054C215.79 122.02 215.909 122.01 215.977 121.987C215.988 122.106 215.987 122.219 215.987 122.332ZM215.852 123.439C215.785 123.348 215.723 123.246 215.656 123.156C215.724 123.133 215.826 123.072 215.859 123.089C215.95 123.163 216.006 123.276 216.073 123.367C216.005 123.389 215.937 123.411 215.852 123.439ZM205.316 118.654C205.288 118.569 205.266 118.501 205.243 118.433C205.356 118.434 205.481 118.412 205.594 118.44C205.627 118.458 205.638 118.576 205.661 118.644C205.542 118.655 205.429 118.654 205.316 118.654ZM218.875 126.452C218.965 126.385 219.067 126.323 219.158 126.256C219.18 126.323 219.242 126.425 219.225 126.459C219.151 126.549 219.038 126.605 218.947 126.673L218.875 126.452ZM206.822 120.745C206.907 120.717 206.974 120.695 207.042 120.673C207.042 120.786 207.064 120.91 207.035 121.023C207.018 121.057 206.9 121.068 206.832 121.09C206.821 120.971 206.821 120.858 206.822 120.745ZM219.184 129.539C219.212 129.624 219.234 129.691 219.257 129.759C219.144 129.759 219.019 129.781 218.906 129.752C218.873 129.735 218.862 129.616 218.839 129.548C218.958 129.538 219.071 129.538 219.184 129.539ZM218.818 136.289C218.885 136.38 218.947 136.482 219.014 136.573C218.946 136.595 218.844 136.657 218.81 136.64C218.72 136.566 218.664 136.453 218.597 136.362C218.665 136.34 218.733 136.317 218.818 136.289ZM26.0574 54.2258L25.9848 54.0051C26.0978 54.0056 26.2222 53.9835 26.3351 54.0123C26.369 54.0294 26.3798 54.1481 26.4021 54.216C26.2834 54.2268 26.1704 54.2263 26.0574 54.2258Z" fill="#4F4F4F"/>
      <path d="M213.68 110.14C213.583 110.501 213.056 110.844 213.682 111.202L214.109 110.356L213.68 110.14Z" fill="#4F4F4F"/>
      <path d="M213.907 108.655L213.478 108.438C213.381 108.799 212.854 109.142 213.479 109.501L213.907 108.655Z" fill="#4F4F4F"/>
      <path d="M213.078 101.3C212.987 101.367 212.874 101.423 212.8 101.513C212.783 101.547 212.845 101.649 212.867 101.717C212.958 101.65 213.071 101.594 213.145 101.504C213.162 101.47 213.1 101.368 213.078 101.3Z" fill="#4F4F4F"/>
      <path d="M213.022 102.39C213.022 102.39 212.824 102.446 212.819 102.457C212.818 102.57 212.857 102.689 212.879 102.813L213.168 102.719C213.123 102.611 213.067 102.498 213.022 102.39Z" fill="#4F4F4F"/>
      <path d="M213.077 102.899C213.11 103.057 213.149 103.233 213.182 103.391C213.284 103.301 213.392 103.2 213.494 103.11L213.066 102.893L213.077 102.899Z" fill="#4F4F4F"/>
      <path d="M212.97 104.232C212.97 104.232 213.025 104.43 213.037 104.436C213.15 104.436 213.268 104.397 213.393 104.375L213.298 104.087C213.19 104.131 213.077 104.187 212.97 104.232Z" fill="#4F4F4F"/>
      <path d="M213.183 105.939C213.183 105.939 213.239 106.137 213.25 106.143C213.363 106.144 213.482 106.105 213.606 106.082C213.573 105.981 213.545 105.896 213.511 105.794C213.404 105.839 213.291 105.895 213.183 105.939Z" fill="#4F4F4F"/>
      <path d="M213.184 107.002C213.184 107.002 213.24 107.2 213.251 107.205C213.364 107.206 213.483 107.167 213.608 107.145C213.574 107.043 213.546 106.958 213.513 106.856C213.405 106.901 213.292 106.957 213.184 107.002Z" fill="#4F4F4F"/>
      <path d="M213.424 107.929C213.424 107.929 213.226 107.985 213.22 107.996C213.22 108.109 213.259 108.228 213.281 108.353C213.383 108.319 213.467 108.291 213.569 108.258C213.525 108.15 213.469 108.037 213.424 107.929Z" fill="#4F4F4F"/>
      <path d="M213.676 111.213C213.709 111.372 213.748 111.547 213.781 111.705C213.883 111.616 213.991 111.514 214.093 111.424L213.665 111.208L213.676 111.213Z" fill="#4F4F4F"/>
      <path d="M190.855 100.562C190.883 100.647 190.905 100.715 190.928 100.783C191.018 100.716 191.132 100.66 191.206 100.57C191.223 100.536 191.161 100.434 191.139 100.366C191.037 100.428 190.946 100.495 190.855 100.562Z" fill="#4F4F4F"/>
      <path d="M213.789 112.417C213.704 112.445 213.637 112.468 213.569 112.49C213.636 112.581 213.692 112.694 213.782 112.768C213.816 112.785 213.918 112.723 213.986 112.701C213.924 112.599 213.857 112.508 213.789 112.417Z" fill="#4F4F4F"/>
      <path d="M213.593 113.648C213.62 113.733 213.643 113.801 213.665 113.869C213.756 113.802 213.869 113.746 213.943 113.656C213.96 113.622 213.898 113.52 213.876 113.452C213.774 113.514 213.683 113.581 213.593 113.648Z" fill="#4F4F4F"/>
      <path d="M213.789 115.305C213.789 115.305 213.845 115.503 213.856 115.509C213.969 115.509 214.088 115.47 214.212 115.448C214.179 115.346 214.151 115.261 214.117 115.159C214.01 115.204 213.897 115.26 213.789 115.305Z" fill="#4F4F4F"/>
      <path d="M213.756 116.322C213.824 116.413 213.88 116.526 213.97 116.6C214.004 116.617 214.106 116.555 214.174 116.533C214.106 116.442 214.05 116.329 213.96 116.255C213.926 116.238 213.824 116.3 213.756 116.322Z" fill="#4F4F4F"/>
      <path d="M213.825 117.616C213.938 117.617 214.056 117.606 214.169 117.606C214.147 117.538 214.136 117.42 214.102 117.403C213.99 117.374 213.865 117.396 213.752 117.395L213.825 117.616Z" fill="#4F4F4F"/>
      <path d="M220.723 137.478C220.723 137.478 220.778 137.676 220.79 137.682C220.903 137.683 221.021 137.643 221.146 137.621C221.112 137.52 221.084 137.435 221.051 137.333C220.943 137.378 220.83 137.434 220.723 137.478Z" fill="#4F4F4F"/>
    </g>
  </svg>