<svg xmlns="http://www.w3.org/2000/svg" width="106" height="117" viewBox="0 0 106 117" fill="none">
    <g style="mix-blend-mode:screen">
      <path d="M79.8547 49.769C80.3112 50.7103 79.9401 51.6673 79.6845 52.5263C79.5004 53.1448 79.2616 53.8218 78.8611 54.4133C78.5126 54.9368 78.262 55.5758 78.1379 56.1862C77.9999 56.8529 77.1942 56.6018 77.0796 57.074C76.9861 57.4462 77.3138 57.8342 77.0266 58.2868C75.7266 60.383 74.9451 62.7773 73.3564 64.7128C73.3398 65.571 72.8999 66.1019 72.1184 66.4362C71.9722 66.5021 71.9607 66.8698 71.8708 67.0847C71.6115 67.6952 71.4201 68.3575 71.0584 68.9059C70.723 69.4046 69.6776 69.5914 69.7355 70.0833C69.8454 70.9129 68.6304 70.9543 68.9867 71.7393C68.8631 71.7773 68.7301 71.8183 68.6007 71.8374C67.768 71.9378 67.771 71.9474 68.0636 72.7623C68.1346 72.9589 68.172 73.2491 68.077 73.4136C67.8768 73.7769 67.5713 74.0687 67.3338 74.4124C66.8106 75.1458 66.2873 75.8792 65.8014 76.6323C65.534 77.0476 65.3777 77.5535 65.0795 77.9366C64.804 78.292 64.38 78.537 64.0336 78.831C63.8604 78.978 63.6777 79.1279 63.5045 79.2749C63.647 79.3662 63.7925 79.4671 63.9351 79.5584C63.7619 79.7054 63.558 79.8202 63.4345 79.9935C62.9142 80.7364 62.3939 81.4793 61.9482 82.2616C61.7187 82.6652 61.452 82.9138 60.9995 83.0324C60.547 83.151 61.1269 83.7838 60.4953 84.0304C60.1145 84.179 59.5429 84.6879 59.6557 85.3918C59.6777 85.5307 59.4914 85.8378 59.3905 85.8481C58.2478 85.888 58.3557 86.9472 57.9011 87.5657C57.6446 87.9153 56.891 88.2723 56.9532 88.4404C57.1639 89.1245 56.495 89.0809 56.3021 89.4004C56.0565 89.8193 55.8629 89.8998 55.8088 90.0621C55.7416 90.2493 55.6181 90.4226 55.5136 90.59C54.5746 92.0341 53.0455 93.0149 52.3661 94.6599C50.965 95.6845 50.1744 97.2389 49.0014 98.4638C48.0798 99.4239 47.4259 100.645 46.2023 101.334C45.8836 101.515 45.8194 102.118 45.5388 102.423C45.3225 102.666 44.9599 102.84 44.6412 102.886C44.272 102.938 43.9715 103.01 43.9278 103.273C43.8708 103.561 43.8826 103.869 43.7635 104.124C43.6379 104.392 43.4062 104.619 43.2184 104.854C43.5722 104.787 43.9319 104.738 44.2835 104.63C45.6548 104.218 47.0986 103.94 48.3895 103.334C51.3083 101.967 54.5351 101.43 57.4151 100.106C60.3711 98.7583 63.5029 98.1161 66.5007 97.0053C67.4144 96.6614 68.3487 96.6544 69.2773 97.0342C69.4798 97.1174 69.765 97.1648 69.9587 97.0843C70.5047 96.8641 70.6452 97.185 70.6862 97.5884C70.7273 97.9919 70.6456 98.4021 70.6866 98.8055C70.8105 99.8493 70.7527 99.7631 70.1892 100.197C69.1418 101.019 67.6549 101.258 67.0229 102.618C66.9667 102.74 66.7203 102.784 66.5551 102.856C65.4528 103.331 64.3527 103.847 63.2299 104.255C62.0595 104.678 60.8358 104.961 59.656 105.387C58.1114 105.946 56.6144 106.626 55.0734 107.163C53.485 107.715 51.737 107.952 50.2788 108.723C48.5691 109.625 46.7437 110.083 44.9499 110.677C43.1085 111.286 41.232 111.781 39.4059 112.406C37.7414 112.981 36.1092 113.661 34.4681 114.312C33.4396 114.723 32.2668 114.293 31.2779 114.9C30.5562 114.55 29.8091 114.624 29.0312 114.666C28.6408 114.682 27.9995 114.12 27.8678 113.692C27.6277 112.913 26.9593 112.162 27.4021 111.235C27.1323 108.738 27.3472 106.227 27.1183 103.728C26.9995 102.464 27.1044 101.183 27.096 99.9064C27.0917 97.7647 27.0654 95.6192 27.0801 93.4716C27.0931 90.5754 27.0966 87.6822 27.163 84.7904C27.1839 83.8788 27.3876 82.9526 27.5781 82.0512C27.6344 81.7946 27.8982 81.5365 28.1343 81.3909C28.3097 81.2849 28.5919 81.3228 28.8142 81.3687C28.858 81.376 28.8633 81.6969 28.8531 81.8665C28.7586 83.6538 28.4345 85.439 28.6763 87.2371C28.1377 87.8192 28.8105 88.3818 28.7025 88.9769C28.5908 89.5939 28.6136 90.2422 28.6336 90.8811C28.6484 91.4695 28.8576 92.0813 28.7445 92.6259C28.3394 94.6546 29.1515 96.6827 28.6835 98.7099C29.1269 100.082 29.1003 101.515 29.1936 102.933C29.306 104.615 29.2356 106.311 29.4108 107.995C29.4849 108.742 29.4515 109.511 29.5255 110.258C29.5321 110.381 29.8444 110.483 30.0213 110.584C30.1031 110.445 30.2603 110.313 30.2507 110.181C30.1624 108.138 29.9198 106.1 29.9915 104.07C30.051 102.44 29.7325 100.832 29.8519 99.1927C29.9363 97.9807 29.7225 96.7461 29.6687 95.5246C29.5847 93.4282 29.5227 91.3354 29.4511 89.2456C29.4098 88.0307 29.2998 86.7954 29.3747 85.5863C29.4555 84.261 29.6868 82.9517 29.8963 81.6388C29.9291 81.4414 30.1396 81.1789 30.3362 81.1079C30.8091 80.9206 30.7479 81.3972 30.881 81.6267C30.9629 81.7575 31.096 81.8517 31.2035 81.9643C31.2013 81.7881 31.1464 81.5761 31.2246 81.4584C31.3481 81.2851 31.5534 81.1074 31.7464 81.0584C32.2457 80.9566 33.6393 81.63 33.7294 82.0912C33.9527 83.1876 34.6563 84.0528 35.0389 85.0585C35.134 85.2997 35.0676 85.5907 35.0706 85.8706C34.9558 85.6667 34.8219 85.4687 34.7261 85.2589C34.6515 85.0843 34.6339 84.892 34.5432 84.7327C34.5132 84.6691 34.3655 84.6626 34.2683 84.6509C34.2493 84.6568 34.1777 84.7621 34.1923 84.8096C34.3591 85.3512 34.5231 85.8833 34.6899 86.4249C34.6103 86.6055 34.4517 86.8 34.4795 86.9578C34.5696 87.419 34.7386 87.8663 34.8791 88.3224C34.7995 88.503 34.6409 88.6975 34.6687 88.8554C34.7588 89.3166 34.9278 89.7639 35.0683 90.22C34.9887 90.4006 34.8301 90.5951 34.8579 90.753C34.9479 91.2142 35.117 91.6615 35.2575 92.1176C35.1778 92.2981 35.0193 92.4927 35.0471 92.6505C35.1372 93.1118 35.3062 93.559 35.552 94.3572C35.6223 94.5852 35.6032 94.4558 35.552 94.3572C35.4855 94.2424 35.3773 94.1613 35.2851 94.0649C35.2625 94.2279 35.2114 94.3997 35.2392 94.5576C35.281 94.7944 35.3607 95.0195 35.45 95.2417C35.4792 95.3367 35.6036 95.4025 35.6803 95.4829C35.7088 95.3388 35.7687 95.1955 35.7657 95.0508C35.762 94.9375 35.6955 94.8228 35.555 94.3667C35.5731 93.9866 35.6872 93.9514 35.8107 93.9134C35.8826 94.6195 36.4135 95.1946 36.1235 96.0433C35.9446 96.577 36.64 97.2471 36.2901 97.9687C36.2112 98.1178 36.4372 98.4123 36.5293 98.644C36.734 98.4977 36.954 98.3676 37.1433 98.2052C37.6981 97.743 38.0049 96.9827 38.4982 96.5914C39.7759 95.6048 40.3288 94.1236 41.3213 92.9544C42.188 91.9175 43.1322 90.9296 43.8915 89.7802C44.3314 89.1141 45.0835 88.6847 45.4759 87.898C45.8682 87.1113 46.5216 86.4627 47.0507 85.7483C47.5535 85.0836 47.9699 84.3415 48.5495 83.7573C49.6319 82.6435 50.3647 81.2734 51.3542 80.0947C52.1143 79.1843 52.72 78.1446 53.4954 77.2503C54.2774 76.3436 54.8488 75.2937 55.5628 74.3351C57.1493 72.2234 58.5135 69.9305 60.0137 67.7413C61.3576 65.7876 62.5588 63.7426 63.8405 61.756C64.7408 60.3551 65.4729 58.8811 66.3388 57.47C66.8451 56.6482 67.4042 55.8621 67.9076 55.0308C68.0056 54.8758 67.9273 54.5879 67.8658 54.3883C67.8511 54.3408 67.536 54.365 67.3686 54.3958C66.2757 54.5973 65.5164 55.4762 64.4126 55.7434C63.3848 55.9873 62.1983 56.0199 61.4148 56.9895C61.2497 57.1964 60.841 57.187 60.5369 57.2807C57.1348 58.3288 53.7181 59.3294 50.3423 60.463C49.721 60.6752 49.0454 60.3736 48.4315 60.9476C47.9878 61.3652 47.1632 61.3904 46.4979 61.5953C45.7852 61.8149 45.0301 61.9643 44.3561 62.276C42.7728 63.0134 41.0227 63.074 39.3595 63.3159C37.2417 63.6354 34.9878 63.716 33.0347 62.341C32.6757 62.0875 32.1603 62.0694 31.8012 61.8159C29.22 59.9894 29.082 58.0553 30.2619 55.4343C31.0107 53.7783 31.9438 52.18 32.961 50.6182C34.0498 48.9511 35.1854 47.3009 36.3268 45.6696C37.6955 43.7291 39.0861 41.7921 40.4549 39.8516C42.0055 37.6573 43.7419 35.5931 45.2122 33.3403C46.1446 31.9087 47.2846 30.6107 48.3319 29.2478C49.5216 27.7057 50.7084 26.1541 51.9076 24.609C52.8087 23.4472 53.7192 22.2823 54.6451 21.1336C56.6424 18.6665 58.6521 16.2059 60.6494 13.7388C62.3098 11.698 63.9146 9.61189 65.8155 7.77785C66.5296 7.08971 67.0286 6.17651 67.7398 5.47887C69.056 4.17867 70.4154 2.91721 71.8297 1.73247C72.3106 1.33463 73.0072 0.995165 73.6931 1.39767C74.2144 1.70522 74.5902 1.7767 74.8415 1.10629C74.8715 1.03464 75.1683 0.984841 75.1712 0.994343C75.5173 1.81364 76.3191 1.27533 76.8412 1.55144C77.3632 1.82755 77.6829 2.56132 77.7081 3.38586C77.7206 3.79813 77.5766 3.76968 77.3163 3.60019C76.9163 3.34888 76.3548 3.28258 76.2844 2.64884C76.2573 2.45953 76.1366 2.1014 75.8911 2.52035C75.8027 2.67243 75.7464 2.92902 75.8152 3.08469C76.0325 3.62115 76.0751 4.23226 75.8765 5.0737C75.7149 4.98824 75.5657 4.90934 75.3281 4.8473C75.2996 4.85608 75.3566 4.83852 75.4041 4.82389C75.3463 4.73765 75.2952 4.63897 75.2147 4.58053C75.1899 4.56738 75.0839 4.66245 75.0137 4.70487C75.0912 4.75382 75.1717 4.81227 75.3252 4.83779C75.5628 4.89983 75.7215 4.9758 75.8736 5.06419C75.7093 5.91585 74.9621 5.71949 74.4278 5.97773C74.0016 6.18184 74.7228 7.2393 73.899 7.63874C73.3741 7.89406 73.4658 8.83335 72.6324 8.83002C72.4972 8.83007 72.2304 9.21394 72.2546 9.39375C72.3806 10.3433 71.6022 10.6871 71.0292 11.259C71.0007 11.2677 71.0577 11.2502 71.1052 11.2355C71.0474 11.1493 70.9962 11.0507 70.9158 10.9922C70.8909 10.9791 70.7849 11.0741 70.7148 11.1166C70.7923 11.1655 70.8727 11.224 71.0262 11.2495C70.7384 12.004 70.3767 12.4171 69.5902 12.9715C69.5134 13.0263 69.387 13.0549 69.3636 13.1141C69.2942 13.3956 69.3214 13.7201 69.1869 13.9592C68.9312 14.4125 68.5731 14.8037 68.2706 15.2403C67.724 16.0329 67.1773 16.8254 66.668 17.6378C66.4656 17.9602 66.3261 18.2841 65.8816 18.3274C65.1915 18.384 65.2779 18.7319 65.2766 19.3356C65.2738 19.8671 64.676 20.4258 64.3026 20.9361C63.6463 21.8457 62.9375 22.7195 62.2842 23.6386C60.6589 25.9287 59.0308 28.2093 57.4458 30.5286C56.3197 32.1759 55.3487 33.9212 54.167 35.5232C52.8787 37.2518 51.9405 39.2053 50.5125 40.852C49.8533 41.6169 49.5064 42.6185 48.8582 43.4528C47.925 44.6454 47.3442 46.1039 46.4263 47.3126C45.5151 48.5089 44.8582 49.8556 43.947 51.0518C42.8413 52.4952 42.0288 54.1812 41.1118 55.7641C41.0395 55.9009 41.0257 56.2276 41.0754 56.2539C41.2589 56.343 41.5156 56.3992 41.7056 56.3406C46.7737 54.7897 51.8388 53.2293 56.9039 51.6689C58.9871 50.2573 61.5085 50.0319 63.7935 49.1407C64.3871 48.9058 64.9156 48.4933 65.5157 48.246C66.0873 48.0075 66.7189 47.8961 67.2964 47.6766C68.1531 47.3503 69.0377 47.317 69.9362 47.2275C70.7557 47.1519 71.5108 46.732 72.4042 46.8625C73.2537 46.9857 74.1339 46.8706 75.0017 46.8842C75.2312 46.8863 75.4521 46.9951 75.6802 47.0601C76.1891 47.2258 76.6884 47.3945 77.1973 47.5602C77.7559 47.7523 78.3174 47.9538 78.876 48.1458C78.4662 49.0107 79.4541 49.8196 78.9682 50.7079C78.8432 50.9441 78.8514 51.2745 78.8354 51.5603C78.8303 51.6451 78.9634 51.7393 79.0336 51.8321C79.1045 51.7583 79.1812 51.7034 79.2492 51.6201C79.7242 51.068 79.2217 50.2137 79.8218 49.6959L79.8547 49.769ZM35.8196 99.0083C35.8992 98.8278 36.0512 98.6457 36.03 98.4754C35.9845 98.1252 35.8411 97.7949 35.903 96.7459C35.8503 96.5749 35.8166 96.398 35.7449 96.2328C35.7061 96.1407 35.5913 96.072 35.5145 95.9917C35.4685 96.0787 35.3655 96.1833 35.3765 96.2527C35.4628 96.6006 35.5682 96.9427 35.6926 97.2789C35.7102 97.3359 35.8322 97.3607 35.9068 97.4001C35.947 97.2941 36.0062 97.1823 36.0054 97.0785C36.0017 96.9652 35.9352 96.8504 35.7358 97.4528C35.6561 97.6334 35.5041 97.8155 35.5254 97.9858C35.5708 98.3359 35.7142 98.6663 35.9922 99.2985C35.8591 99.2042 35.7604 99.1202 35.6551 99.0486C35.6149 99.1546 35.5272 99.2753 35.5507 99.3513C35.5975 99.5033 35.7269 99.6195 35.8183 99.7474C35.8717 99.6165 35.9126 99.4791 35.8167 98.9988L35.8196 99.0083ZM33.3682 55.6217C33.3682 55.6217 33.3412 55.5676 33.3002 55.5698C33.184 55.564 33.0305 55.5385 32.9566 55.6028C32.3858 56.0804 32.5396 56.7821 32.4279 57.3991C32.414 57.4554 32.5742 57.6037 32.6743 57.6248C32.784 57.6431 32.9989 57.5977 33.0128 57.5414C33.153 56.9156 33.2522 56.292 33.3741 55.6407L33.3682 55.6217ZM34.7665 97.8867C34.6305 97.7829 34.482 97.6726 34.3336 97.5623C34.3453 97.7355 34.3001 97.9263 34.3659 98.0725C34.4376 98.2377 34.6109 98.3612 34.7367 98.4993C34.7469 98.3297 34.7571 98.1601 34.7599 97.8991L34.7665 97.8867ZM73.6714 2.20543C73.6203 2.37723 73.5356 2.50738 73.5714 2.58996C73.6372 2.73613 73.7667 2.85231 73.88 2.98385C73.9078 2.87127 73.9955 2.75061 73.9662 2.6556C73.9193 2.50357 73.7965 2.37498 73.6809 2.20251L73.6714 2.20543ZM74.0983 6.63065C73.8994 6.39024 73.832 6.30694 73.7523 6.21705C73.7085 6.34499 73.6237 6.47513 73.6209 6.60086C73.6282 6.69223 73.7459 6.7704 73.8256 6.86028C73.9316 6.76521 74.05 6.67672 74.0983 6.63065ZM34.3427 91.411C34.1438 91.1706 34.0765 91.0873 33.9997 91.0069C33.9559 91.1349 33.8711 91.265 33.8682 91.3908C33.8756 91.4821 33.9933 91.5603 34.073 91.6502C34.179 91.5551 34.2974 91.4666 34.3456 91.4205L34.3427 91.411ZM34.3122 94.3854C34.2055 94.5119 34.0776 94.6034 34.0922 94.6509C34.1515 94.8095 34.2553 94.9439 34.3497 95.0813C34.411 95.0104 34.5419 94.9285 34.5367 94.878C34.4899 94.726 34.4021 94.5762 34.3217 94.3825L34.3122 94.3854ZM34.3931 95.9314C34.2864 96.0579 34.1584 96.1494 34.1731 96.1969C34.2323 96.3555 34.3362 96.4899 34.4305 96.6273C34.4919 96.5564 34.6228 96.4745 34.6177 96.424C34.5708 96.272 34.483 96.1222 34.4025 95.9285L34.3931 95.9314ZM34.8877 99.7324C34.7831 99.6293 34.6756 99.5168 34.5557 99.3977C34.5279 99.5103 34.4336 99.6434 34.4666 99.7165C34.5324 99.8626 34.6619 99.9788 34.7752 100.11C34.803 99.9978 34.8431 99.8917 34.8877 99.7324ZM33.8347 89.4244C33.8347 89.4244 33.747 89.5451 33.7558 89.5736C33.8012 89.6533 33.8816 89.7117 33.943 89.776C33.9693 89.7263 34.0307 89.6553 34.0219 89.6268C33.9766 89.5472 33.8961 89.4887 33.8347 89.4244ZM34.0748 92.9396C34.042 93.0018 34.0157 93.0515 33.9894 93.1012C34.0771 93.1158 34.1707 93.1494 34.2621 93.1421C34.2906 93.1333 34.3147 93.0426 34.341 92.9929C34.2503 92.9688 34.1626 92.9542 34.0748 92.9396ZM41.8051 94.7612C41.8379 94.6991 41.8642 94.6493 41.8905 94.5996C41.8028 94.585 41.7092 94.5514 41.6178 94.5588C41.5893 94.5676 41.5652 94.6582 41.5389 94.7079C41.6296 94.732 41.7173 94.7466 41.8051 94.7612ZM34.8727 101.069C34.8727 101.069 34.7521 100.981 34.7236 100.99C34.6439 101.035 34.5854 101.115 34.5211 101.177C34.5709 101.203 34.6418 101.265 34.6703 101.256C34.75 101.21 34.8084 101.13 34.8727 101.069Z" fill="#4F4F4F"/>
      <path d="M35.6214 92.0158C35.7619 92.4719 35.9309 92.9192 36.021 93.3804C36.0488 93.5383 35.8902 93.7328 35.8106 93.9134L35.2603 92.1271L35.6214 92.0158Z" fill="#4F4F4F"/>
      <path d="M35.4295 90.1088C35.57 90.5649 35.739 91.0122 35.829 91.4734C35.8569 91.6312 35.6983 91.8258 35.6187 92.0063L35.0684 90.22L35.4295 90.1088Z" fill="#4F4F4F"/>
      <path d="M35.24 88.2112C35.3805 88.6673 35.5495 89.1146 35.6396 89.5758C35.6674 89.7337 35.5089 89.9282 35.4292 90.1088L34.8789 88.3224L35.24 88.2112Z" fill="#4F4F4F"/>
      <path d="M34.687 86.4154C35.3787 86.8369 35.5719 87.464 35.2373 88.2017L34.687 86.4154Z" fill="#4F4F4F"/>
      <path d="M79.9615 49.372C79.9615 49.372 80.1077 49.4414 80.1107 49.4509C80.0961 49.5386 80.0501 49.6256 80.0165 49.7192L79.8051 49.6074C79.8541 49.5299 79.9126 49.4495 79.9615 49.372Z" fill="#4F4F4F"/>
      <path d="M34.6529 82.9615C34.715 82.9943 34.7647 83.0206 34.8145 83.0469C34.7502 83.1084 34.6917 83.1888 34.612 83.2341C34.5835 83.2429 34.5126 83.1816 34.4629 83.1553C34.5242 83.0843 34.5886 83.0229 34.6529 82.9615Z" fill="#4F4F4F"/>
    </g>
  </svg>