<svg xmlns="http://www.w3.org/2000/svg" width="153" height="80" viewBox="0 0 153 80" fill="none">
    <g style="mix-blend-mode:screen">
      <path d="M30.6671 10.4107C30.6517 10.6624 30.799 11.0083 30.3544 11.0725C28.625 11.3189 26.9007 11.4814 25.3661 12.5059C24.7161 12.9395 23.7943 12.9303 23.073 13.2857C21.4989 14.0489 19.9324 14.8229 18.5076 15.8665C17.9462 16.2778 17.3363 16.6431 16.7977 17.0866C16.348 17.4514 15.7659 17.5483 15.3278 18.0093C15.0512 18.3005 14.2772 19.0141 13.6509 18.1706C13.5602 18.2585 13.433 18.3401 13.3849 18.4542C13.3524 18.5333 13.3986 18.7015 13.4654 18.7508C13.8648 19.0556 12.8326 19.357 13.4717 19.6375C13.2022 19.7791 12.9382 19.9971 12.6555 20.0517C12.2169 20.1358 12.3566 20.471 12.268 20.71C12.1702 20.7307 12.0632 20.7498 11.9654 20.7705C12.0442 20.8596 12.1305 20.9593 12.2093 21.0484C12.5724 21.997 11.2914 21.8312 11.232 22.4993C11.1163 22.4604 10.9914 22.4199 10.8757 22.3809C10.46 22.224 9.75848 22.14 9.70509 21.9046C9.60269 21.4629 9.35963 21.2888 9.05413 21.0945C8.95229 21.0297 8.82582 20.9984 8.70093 20.9578C8.7014 21.1181 8.62514 21.3404 8.70551 21.4203C8.91478 21.6262 9.43692 21.6037 9.17865 22.1148C9.09203 22.2882 8.93746 22.5817 8.83525 22.5734C8.58351 22.5579 8.34801 22.3946 8.10299 22.2862C8.87706 21.7892 8.21724 21.6276 7.82064 21.361C7.79319 21.3562 7.84808 21.3657 7.89382 21.3737C7.88224 21.2775 7.8814 21.1737 7.83921 21.091C7.82409 21.0695 7.69565 21.1038 7.6193 21.1094C7.66307 21.1829 7.70526 21.2656 7.82222 21.3519C7.26722 21.7266 7.25807 21.725 7.21411 21.2181C7.18853 20.931 7.63003 20.1785 6.75142 20.7892C6.69775 20.827 6.35724 20.6172 6.29872 20.4657C5.83052 19.2539 6.42836 17.7089 7.55134 16.613C9.47929 14.7335 11.613 13.1346 13.821 11.5957C15.9969 10.0795 18.3865 9.01498 20.8123 8.01322C22.8616 7.17225 24.9961 6.60045 27.1668 6.09145C28.798 5.70553 30.4351 5.33947 32.0862 5.16428C33.4959 5.02258 34.9339 4.98945 36.3627 4.9547C38.7106 4.89098 40.901 5.57245 43.1703 5.85311C44.8494 6.05963 46.3676 6.81295 47.9546 7.33324C50.8362 8.26656 54.9276 11.1339 56.7128 12.8474C57.8108 13.9046 58.6783 15.2046 59.6273 16.415C60.7323 17.8126 61.7971 19.2786 62.4548 20.919C63.2881 23.0138 64.3587 24.9896 65.1828 27.0828C65.8433 28.7613 66.6246 30.3948 67.3233 32.0706C67.723 33.0255 67.8749 34.0506 68.3923 34.9788C69.4211 36.8155 70.1298 38.8133 71.1861 40.6547C72.2499 42.5068 73.464 44.2531 74.7226 45.96C76.3035 48.0903 78.1806 49.9799 80.4007 51.4674C81.9795 52.5233 83.6589 53.3799 85.4492 54.0862C87.3111 54.8144 89.2411 54.9325 91.1263 55.3632C91.9782 55.5581 92.8452 55.7745 93.7074 55.8016C95.5813 55.8629 97.4601 56.1135 99.3302 55.8162C100.038 55.7034 100.716 56.0284 101.481 55.803C102.244 55.5868 103.148 55.9133 103.96 55.7997C104.704 55.6932 105.508 55.9458 106.214 55.5125C108.144 55.9603 110.077 55.41 111.989 55.3556C113.76 55.3049 115.594 55.4911 117.345 54.9564C118.612 55.3082 119.884 54.9824 121.138 54.8702C123.417 54.6626 125.712 54.5802 127.983 54.4656C130.17 54.355 132.326 53.9283 134.525 54.0178C134.778 54.024 135.04 53.8716 135.305 53.8139C135.462 53.7752 135.624 53.7656 135.789 53.7377C135.671 53.5477 135.589 53.2603 135.422 53.1935C133.787 52.5142 132.601 51.2061 131.163 50.2595C128.238 48.3293 125.377 46.2974 122.603 44.1484C121.655 43.4188 120.734 42.6465 119.891 41.8031C119.586 41.4958 119.323 40.8943 119.417 40.5149C119.528 40.035 120.004 39.6276 120.358 39.2179C120.429 39.136 120.691 39.2568 120.848 39.2181C121.299 39.1174 121.503 39.6803 121.981 39.5843C122.353 39.5074 122.764 39.5788 123.152 39.6272C124.222 39.7564 125.101 40.3422 126.024 40.8321C128.024 41.9045 129.805 43.3158 131.833 44.3366C132.257 44.5515 132.596 44.9307 132.987 45.234C134.1 46.096 135.327 46.7894 136.483 47.5647C137.59 48.3031 138.617 49.2256 139.922 49.6875C140.304 49.8198 140.579 50.2443 140.918 50.5198C142.39 51.6986 144.183 52.443 145.545 53.7722C145.82 54.0365 146.117 54.2766 146.39 54.55C146.745 54.8942 146.639 55.2903 146.409 55.6367C145.885 56.4314 145.741 57.3674 145.349 58.2134C145.275 58.37 145.289 58.5609 145.253 58.988C145.188 59.0333 145.142 58.8652 145.094 58.7061C145.007 58.8322 144.873 58.9503 144.858 59.0891C144.823 59.2903 144.872 59.4967 144.883 59.7058C145.002 59.5662 145.122 59.4175 145.262 58.9896C145.405 58.5998 145.566 58.4864 145.675 58.3452C145.797 58.1873 145.877 57.994 145.975 57.8131C145.993 58.033 146.082 58.2839 146.004 58.4588C145.597 59.3397 145.171 60.2175 144.711 61.0797C142.918 64.4618 140.961 67.7589 139.142 71.1271C138.337 72.6173 137.68 74.284 136.328 75.4531C136.043 76.5531 134.807 76.2915 134.213 76.9423C134.135 76.8532 133.996 76.7821 133.994 76.6875C133.976 76.5149 134.063 76.3415 134.064 76.1721C134.06 75.87 134.027 75.5721 134.003 75.2759C133.911 75.5332 133.898 75.8796 133.719 76.0462C133.345 76.4054 132.905 76.7153 132.44 76.9549C132.222 77.0679 131.873 77.0167 131.636 76.919C131.547 76.8849 131.583 76.5142 131.563 76.3035C131.553 76.1981 131.554 76.0852 131.544 75.9798C131.44 76.0371 131.321 76.073 131.242 76.1442C130.997 76.3654 130.781 76.6295 130.52 76.8292C129.793 77.3814 129.555 77.3401 128.959 76.596C128.773 76.3658 128.693 76.173 128.891 75.8493C129.366 75.0649 129.773 74.2405 130.196 73.4284C130.224 73.3767 130.105 73.1958 130.009 73.1509C129.931 73.1092 129.737 73.1415 129.708 73.2023C129.322 73.8514 128.874 74.4802 128.602 75.1774C128.433 75.6097 128.19 75.869 127.8 75.9427C127.488 76.0017 126.837 75.0878 126.893 74.6548C127.039 73.5402 127.239 72.4442 127.864 71.4503C129.198 69.2982 130.497 67.1307 131.849 64.9909C133.209 62.8527 134.679 60.7901 135.867 58.5561C135.965 58.3752 136.027 58.1787 136.097 57.993C135.92 58.0376 135.736 58.1188 135.554 58.1344C133.122 58.3059 130.701 58.5172 128.288 58.9559C127.461 59.1045 126.565 59.1657 125.707 59.2241C124.887 59.2797 124.085 59.3949 123.287 59.4827C122.432 59.5792 121.541 59.7732 120.705 59.76C118.824 59.7353 117.05 60.2942 115.21 60.4178C113.208 60.551 111.221 60.8186 109.224 61.0281C108.035 61.1514 106.849 61.3037 105.66 61.3706C104.29 61.4439 102.906 61.3828 101.549 61.4958C100.631 61.5721 99.7113 61.4409 98.7712 61.6452C98.0467 61.8021 97.24 61.2382 96.4512 61.6572C95.2424 61.1837 93.9732 61.5476 92.7395 61.3807C91.6263 61.2252 90.556 60.8229 89.3714 61.079C88.8914 61.1842 88.1807 61.0985 87.6194 60.5866C87.2538 60.25 86.5284 60.3031 85.972 60.1972C85.0589 60.0293 84.1334 59.8782 83.2186 59.7195C82.6798 58.8063 81.3944 59.5349 80.8555 58.6217C77.2792 57.728 74.4197 55.5267 71.5459 53.4076C69.6412 52.0031 67.8613 50.4225 66.4364 48.4794C66.04 47.9396 65.5547 47.4785 65.094 46.984C64.6953 46.5663 64.7475 45.831 64.1035 45.578C63.2111 43.6614 62.0598 41.8789 61.1384 39.9667C60.152 37.9395 59.4381 35.8089 58.5221 33.7563C58.0603 32.7246 57.8022 31.6058 57.4323 30.5336C56.1621 26.8838 54.9225 23.2206 53.2973 19.7165C52.0151 16.9503 50.4034 14.4001 47.8392 12.5609C47.0173 11.9755 46.0695 11.7357 45.2302 11.2509C43.6443 10.3445 41.8332 10.247 40.0884 10.0385C38.8059 9.88195 37.4733 10.1218 36.1602 10.1955C35.4563 10.2336 34.7552 10.3098 34.0482 10.3661C33.781 10.3857 33.4684 10.3409 33.2433 10.4431C32.4195 10.8467 31.601 10.6764 30.691 10.4902C30.6636 10.4855 30.7185 10.495 30.7642 10.5029C30.7526 10.4067 30.7518 10.303 30.7096 10.2203C30.6945 10.1988 30.566 10.233 30.4897 10.2386C30.5334 10.3122 30.5756 10.3949 30.6926 10.4811L30.6671 10.4107ZM140.461 66.9467C140.305 67.1929 140.22 67.3007 140.171 67.424C140.126 67.5198 140.134 67.6343 140.115 67.7441C140.249 67.6824 140.432 67.6577 140.487 67.5543C140.545 67.4417 140.491 67.2628 140.135 68.0678C140.064 67.933 140.017 67.8213 139.96 67.7171C139.881 67.7883 139.757 67.8516 139.745 67.9248C139.719 68.0711 139.778 68.2226 139.8 68.3677C139.9 68.2814 139.992 68.1843 140.47 66.9483L140.461 66.9467ZM12.0466 19.1076C11.8908 19.3538 11.8062 19.4616 11.7565 19.5849C11.7116 19.6807 11.72 19.7952 11.701 19.905C11.8342 19.8433 12.0175 19.8186 12.0731 19.7152C12.1304 19.6026 12.0766 19.4237 11.7202 20.2286C11.6494 20.0939 11.6028 19.9822 11.5455 19.878C11.4672 19.9492 11.3431 20.0125 11.3304 20.0856C11.305 20.232 11.3636 20.3835 11.3855 20.5286C11.4853 20.4423 11.5775 20.3452 12.0558 19.1092L12.0466 19.1076ZM142.603 63.5593C143.3 63.5105 142.934 62.9007 143.13 62.5861C143.827 62.5373 143.461 61.9275 143.657 61.6129C144.354 61.5642 143.988 60.9543 144.539 59.8439C144.383 60.0901 144.298 60.1979 144.249 60.3212C144.204 60.417 144.212 60.5316 144.193 60.6413C144.326 60.5796 144.51 60.5549 144.565 60.4515C144.623 60.3389 144.569 60.16 144.193 60.6413C143.497 60.6901 143.862 61.2999 143.666 61.6145C142.97 61.6633 143.335 62.2731 143.139 62.5877C142.443 62.6365 142.808 63.2463 142.632 63.8845C142.561 63.7498 142.514 63.6381 142.457 63.5339C142.379 63.6051 142.255 63.6684 142.242 63.7416C142.217 63.8879 142.275 64.0394 142.297 64.1845C142.397 64.0982 142.489 64.0011 142.613 63.5609L142.603 63.5593ZM132.58 67.5672C132.646 67.8332 132.697 68.0305 132.748 68.2277C132.828 68.0908 132.884 67.931 132.99 67.808C133.096 67.6851 133.306 67.6179 133.368 67.4779C133.833 66.315 134.579 65.3326 135.274 64.3132C135.967 63.303 136.63 62.2498 137.18 61.1486C137.767 59.9881 138.631 59.0263 139.243 57.8888C139.313 57.7596 139.306 57.5795 139.333 57.424C139.156 57.4686 138.955 57.5939 138.801 57.5578C138.251 57.4153 138.346 57.8462 138.184 58.129C137.376 59.5811 136.643 61.0931 135.642 62.408C134.629 63.7397 134.143 65.3984 132.937 66.5929C132.869 66.6566 133.081 66.9571 133.03 67.0895C132.951 67.2737 132.741 67.3974 132.57 67.5657L132.58 67.5672ZM7.46258 19.1885C7.5323 19.4926 7.58289 19.6898 7.6319 19.8962C7.82353 19.7693 8.07601 19.6718 8.18251 19.4924C8.57436 18.8632 8.89022 18.1831 9.28206 17.5539C9.43944 17.2986 9.92537 17.2133 9.63685 16.7581C9.40509 16.9535 9.17491 17.1397 8.95229 17.3366C8.74199 17.5168 8.50743 17.6739 8.33811 17.8895C8.01935 18.3147 7.74316 18.7661 7.46258 19.1885ZM19.3315 14.7564C19.2714 14.614 19.2494 14.4689 19.2037 14.461C19.0466 14.4431 18.8907 14.4726 18.7364 14.493C18.7695 14.5741 18.7823 14.7176 18.8264 14.7347C18.9728 14.7601 19.1346 14.7505 19.3299 14.7655L19.3315 14.7564ZM9.99369 19.8066C9.87235 19.6914 9.79992 19.5657 9.716 19.5606C9.56647 19.5535 9.41498 19.612 9.25752 19.6506C9.33947 19.7214 9.40276 19.8454 9.49423 19.8613C9.64059 19.8867 9.79964 19.8389 9.99211 19.8158L9.99369 19.8066ZM142.09 61.633C141.974 61.7543 141.849 61.8267 141.844 61.9106C141.836 62.0602 141.895 62.2116 141.934 62.3691C142.004 62.2871 142.128 62.2239 142.144 62.1324C142.17 61.9861 142.122 61.827 142.099 61.6346L142.09 61.633ZM141.897 65.1891C141.956 65.0109 142.019 64.8618 142.037 64.7047C142.045 64.659 141.916 64.5894 141.84 64.5385C141.778 64.6785 141.696 64.8245 141.652 64.9677C141.646 65.0043 141.774 65.0829 141.887 65.1875L141.897 65.1891ZM145.574 54.9643C145.598 55.0438 145.631 55.1249 145.655 55.2044C145.698 55.1742 145.779 55.1411 145.784 55.1137C145.78 55.0282 145.737 54.9455 145.713 54.866C145.671 54.8962 145.628 54.9265 145.574 54.9643ZM144.41 57.5982C144.434 57.6777 144.467 57.7588 144.491 57.8383C144.534 57.8081 144.615 57.7751 144.62 57.7476C144.616 57.6621 144.574 57.5794 144.55 57.4999C144.507 57.5302 144.464 57.5604 144.41 57.5982ZM144.092 58.1272C144.092 58.1272 143.968 58.1904 143.964 58.2179C143.968 58.3034 144.01 58.386 144.034 58.4656C144.077 58.4353 144.158 58.4023 144.162 58.3749C144.158 58.2894 144.116 58.2067 144.092 58.1272ZM142.516 61.3489C142.569 61.3111 142.612 61.2809 142.655 61.2507C142.588 61.2014 142.525 61.1338 142.446 61.1012C142.418 61.0965 142.36 61.1617 142.317 61.1919C142.382 61.2504 142.449 61.2997 142.516 61.3489ZM141.29 65.7527C141.37 65.7288 141.451 65.6958 141.53 65.6719C141.5 65.629 141.467 65.5479 141.439 65.5431C141.354 65.5471 141.271 65.5893 141.192 65.6132C141.222 65.6561 141.252 65.6991 141.29 65.7527ZM140.864 66.7434C140.917 66.7056 140.96 66.6754 141.003 66.6451C140.936 66.5958 140.873 66.5283 140.794 66.4957C140.766 66.4909 140.708 66.5562 140.665 66.5864C140.73 66.6448 140.797 66.6941 140.864 66.7434ZM138.68 70.0954C138.704 70.1749 138.737 70.256 138.761 70.3355C138.804 70.3053 138.885 70.2723 138.89 70.2448C138.886 70.1593 138.844 70.0767 138.82 69.9971L138.68 70.0954ZM131.306 71.049C131.283 70.9694 131.25 70.8883 131.226 70.8088C131.183 70.8391 131.102 70.8721 131.097 70.8995C131.101 70.985 131.143 71.0677 131.167 71.1472C131.21 71.117 131.253 71.0868 131.306 71.049Z" fill="#4F4F4F"/>
      <path d="M12.2772 20.7116C12.356 20.8006 12.4423 20.9004 12.5211 20.9894C12.4233 21.0102 12.3163 21.0293 12.2185 21.05L12.2788 20.7024L12.2772 20.7116Z" fill="#4F4F4F"/>
      <path d="M146.451 57.0761C146.385 57.0269 146.319 56.9684 146.252 56.9192C146.295 56.8889 146.354 56.8237 146.381 56.8284C146.46 56.861 146.524 56.9286 146.591 56.9779L146.451 57.0761Z" fill="#4F4F4F"/>
    </g>
  </svg>