<svg xmlns="http://www.w3.org/2000/svg" width="22" height="22" viewBox="0 0 22 22" fill="none">
    <path d="M21.9988 1.62478V1.53629H21.8515C21.8885 1.51051 21.9244 1.48474 21.9453 1.45896C21.9461 1.45547 21.9477 1.44781 21.9491 1.44084C21.8423 1.44014 21.7181 1.43875 21.6112 1.43805C21.5285 1.40879 21.4455 1.37883 21.3619 1.34957C21.2259 1.31961 21.1076 1.28965 20.9533 1.25969C20.8946 1.19768 20.8189 1.13219 20.7423 1.07018C20.6847 1.00469 20.2318 1.04092 19.9855 1.02768C19.8849 0.99981 19.7661 0.966367 19.6651 0.938497C19.6904 0.902964 19.7322 0.870218 19.7577 0.834684C19.5427 0.838865 19.3107 0.843045 19.0785 0.847226C18.8934 0.882062 18.8157 0.913415 18.7192 0.948949C18.0731 0.885546 18.5386 1.04858 17.9311 1.06182C17.8869 1.01444 17.5809 1.02977 17.422 1.02489C17.4184 1.04301 17.4154 1.05764 17.4007 1.1294C16.4489 1.16842 17.1333 0.957309 16.5857 0.930833C16.0579 0.900874 16.527 1.04579 16.1352 1.04649C15.4994 0.845832 14.2255 0.979605 13.2517 0.953826C13.2264 0.990056 13.2537 1.02977 13.1414 1.05764C12.8527 1.07784 12.5628 1.09875 12.2739 1.11895C12.1297 1.04161 11.6449 1.05973 11.4209 1.11198C11.0647 1.1092 10.8421 1.06739 10.8377 1.0026C10.3213 1.0019 9.79699 1.1308 9.2873 1.09457C9.20332 1.07088 9.11954 1.04719 9.03476 1.0235C9.20131 0.992146 9.35681 1.01514 9.4649 1.00887C9.74435 0.949645 9.45666 0.875095 9.05988 0.900874C8.9986 0.936407 8.93853 0.971941 8.87806 1.00399C8.28721 1.02071 8.36717 0.89112 8.14176 0.860464C7.6401 0.787307 7.20696 0.902964 6.84774 0.918292C6.80797 0.852799 6.64945 0.844439 6.44614 0.792184C6.19702 0.703699 5.37051 0.739929 4.92029 0.67792C4.31959 0.828414 4.24466 0.585255 3.47741 0.68001C3.28354 0.670953 2.91649 0.635419 3.07139 0.5755C3.27531 0.53718 3.34421 0.458449 3.76792 0.476564C3.64878 0.363694 4.22296 0.429883 4.39373 0.376932C4.47107 0.348366 4.5655 0.320497 4.66052 0.292627C4.80658 0.276602 4.95203 0.261274 5.09729 0.245946C5.29116 0.167912 6.02766 0.137953 5.66242 0.00487712C5.46654 0.00348366 5.25359 0.00139346 5.05851 0C4.96047 0.0425006 4.88132 0.0815176 4.78468 0.120535C4.7216 0.167216 4.65932 0.209716 4.57856 0.256397C4.45661 0.244553 4.2991 0.232708 4.07329 0.201355C4.05601 0.201355 4.02005 0.201355 4.00197 0.201355C3.99654 0.229921 3.99032 0.259184 3.98469 0.28775C3.15436 0.342095 2.2276 0.345579 1.80591 0.493286C1.57527 0.489802 1.33098 0.486319 1.1136 0.493286C1.00491 0.49677 0.902854 0.50304 0.812649 0.512794C0.76182 0.519065 0.714408 0.525336 0.671013 0.530213C0.607126 0.53718 0.549869 0.544844 0.499844 0.554598C0.400799 0.581771 0.214162 0.597796 0 0.60964C0.00200902 1.13916 0.00421894 1.71953 0.00642886 2.27831C0.00763428 2.55282 0.00883969 2.82246 0.0098442 3.07816C0.0114514 3.23911 0.0128577 3.39169 0.0140631 3.52964C0.0206929 4.08076 0.0311398 4.39986 0.05123 4.13023C0.0385732 5.76824 0.073731 4.80327 0.0849815 5.14049C0.0807626 3.64739 0.109291 4.76773 0.107081 3.40284C0.124961 3.07746 0.129582 4.01457 0.140832 4.349C0.137015 5.26729 0.147462 6.77502 0.129582 6.97846C0.134203 7.79294 0.105875 9.51526 0.137417 9.09583C0.194674 7.63409 0.148868 11.9657 0.190656 11.8855C0.195879 13.3779 0.195277 14.1806 0.207934 15.5072C0.215568 15.898 0.224408 16.3502 0.232042 16.7397C0.227421 17.3465 0.224809 18.0196 0.246105 18.8745C0.248114 18.138 0.249922 17.4636 0.25173 16.7891C0.258762 16.4902 0.263583 16.3753 0.2672 16.3822V21.2914H0.980402C0.941628 21.3005 0.889393 21.3074 0.82852 21.3137C0.748159 21.3207 0.652932 21.329 0.554088 21.3381C0.453034 21.3472 0.346355 21.3597 0.242288 21.3778C0.240078 21.2357 0.237265 21.0984 0.234252 20.9688C0.217577 20.7786 0.206929 21.0392 0.198893 21.5283C0.267601 21.5443 0.357204 21.5569 0.451829 21.5694C0.499643 21.5757 0.548061 21.582 0.595474 21.5882C0.642284 21.5952 0.687888 21.6015 0.730681 21.6077C0.87754 21.6349 0.98221 21.6677 0.940021 21.7234C0.901246 21.7311 0.852628 21.7352 0.798184 21.738C0.771062 21.738 0.742333 21.7394 0.7128 21.7401C0.67483 21.7401 0.635855 21.7401 0.596277 21.7401C0.436962 21.7387 0.271419 21.7345 0.139225 21.7373C0.138221 21.2308 0.134604 20.879 0.124358 20.8929C0.125162 20.6309 0.126166 20.3662 0.12697 20.1028C0.12697 19.8757 0.12697 19.6499 0.12697 19.4284C0.126166 19.0403 0.123756 18.6682 0.12034 18.3352C0.113309 17.6698 0.101456 17.1619 0.0873924 17.0051C0.0857852 17.681 0.0807626 18.3477 0.0775482 19.0264C0.0769455 19.1964 0.0763428 19.3664 0.0755391 19.5378C0.0753383 19.7523 0.0751373 19.969 0.0749364 20.1871C0.0749364 20.6867 0.0763428 21.1939 0.0793563 21.7004C0.0787536 21.7847 0.0781509 21.869 0.0773473 21.9526C0.251931 21.9686 0.426716 21.984 0.600094 22C0.632841 21.9993 0.663981 21.9979 0.694317 21.9972C0.716818 21.9958 0.738918 21.9944 0.760816 21.993C0.801398 21.9902 0.842181 21.9868 0.887384 21.984C1.12284 21.9624 1.3585 21.9408 1.57708 21.9213C1.648 21.9213 1.70144 21.9227 1.75488 21.9227C1.79044 21.9227 1.80792 21.9227 1.84348 21.9234C2.27381 21.9101 2.77466 21.8948 3.13427 21.8836C3.23392 21.8307 3.51096 21.8683 3.66686 21.8014C3.62688 21.7359 2.88636 21.7875 3.27551 21.6245C3.51538 21.5834 3.90513 21.5938 4.20749 21.5959C4.30633 21.4593 5.17082 21.5861 5.50893 21.5018C5.97523 21.4823 6.44212 21.4635 6.89134 21.4447C6.95965 21.46 7.01128 21.4712 7.06171 21.4823C7.11535 21.5694 6.61992 21.6412 7.1055 21.7067C7.30058 21.7081 7.49626 21.7102 7.69214 21.7116C7.93422 21.6593 7.88661 21.63 8.14678 21.5778C8.43547 21.5576 8.72497 21.5367 9.01387 21.5165C9.07515 21.5638 9.25053 21.5799 9.17077 21.6189C9.32708 21.637 9.50146 21.6572 9.67584 21.6774C10.0138 21.6802 10.3509 21.683 10.6888 21.6858C10.8847 21.5973 10.3444 21.6286 10.1904 21.5952C10.1789 21.5659 10.1492 21.5374 10.1371 21.5081C10.559 21.5367 10.8965 21.5395 11.2358 21.5353C10.9725 21.692 12.0238 21.5994 12.4095 21.6321C12.5387 21.6063 12.6496 21.5847 12.7615 21.5625C12.962 21.6293 13.5032 21.5938 13.6963 21.6063C13.8371 21.6133 13.9786 21.621 14.1194 21.6279C14.2972 21.6293 14.4571 21.6307 14.6351 21.6321C14.8676 21.6279 15.0994 21.6238 15.3142 21.6196C15.4747 21.6175 15.6493 21.637 15.9257 21.5882C16.0651 21.6015 16.2048 21.6147 16.3452 21.6279C16.4326 21.6349 16.5208 21.6426 16.5905 21.6482C16.6809 21.6426 16.7707 21.6377 16.8609 21.6321C17.0011 21.6454 17.1408 21.6586 17.28 21.6718C17.2772 21.6865 17.274 21.7046 17.2697 21.7227C17.4289 21.8147 17.898 21.699 18.2047 21.7666C18.2662 21.7262 18.3285 21.6858 18.39 21.6454C18.6761 21.637 19.059 21.6802 19.2567 21.5841C19.328 21.5841 19.381 21.5847 19.4345 21.5854C19.6249 21.6126 19.9988 21.6154 20.2101 21.5381C20.3214 21.5172 20.45 21.497 20.5615 21.4726C20.763 21.4454 20.981 21.4252 21.0059 21.3897C21.0477 21.3611 21.0889 21.3325 21.1126 21.304C21.1327 21.3005 21.153 21.2963 21.1739 21.2928H21.9986V1.63314C22.0006 1.63035 22.0004 1.62757 21.9986 1.62478H21.9988Z" fill="#231F20"/>
  </svg>