<svg xmlns="http://www.w3.org/2000/svg" width="36" height="36" viewBox="0 0 36 36" fill="none">
    <path d="M35.998 2.65873V2.51393H35.757C35.8175 2.47175 35.8763 2.42957 35.9105 2.38738C35.9118 2.38168 35.9145 2.36914 35.9168 2.35774C35.7419 2.3566 35.5387 2.35432 35.3638 2.35318C35.2284 2.30529 35.0926 2.25627 34.9559 2.20839C34.7333 2.15936 34.5397 2.11034 34.2872 2.06131C34.1912 1.95984 34.0672 1.85267 33.942 1.7512C33.8476 1.64403 33.1066 1.70332 32.7036 1.68166C32.5389 1.63605 32.3446 1.58133 32.1792 1.53572C32.2207 1.47758 32.289 1.42399 32.3308 1.36585C31.979 1.37269 31.5993 1.37953 31.2193 1.38637C30.9165 1.44337 30.7893 1.49468 30.6315 1.55282C29.5742 1.44908 30.3359 1.71586 29.3418 1.73752C29.2695 1.65999 28.7688 1.68508 28.5088 1.6771C28.5028 1.70674 28.4979 1.73068 28.4739 1.84811C26.9163 1.91196 28.0363 1.56651 27.1402 1.52318C26.2766 1.47416 27.0442 1.7113 26.4031 1.71244C25.3626 1.38409 23.278 1.60299 21.6846 1.56081C21.6432 1.62009 21.6879 1.68508 21.5041 1.73068C21.0317 1.76374 20.5573 1.79795 20.0846 1.83101C19.8485 1.70446 19.0553 1.7341 18.6887 1.81961C18.1058 1.81505 17.7416 1.74664 17.7344 1.64061C16.8895 1.63947 16.0314 1.85039 15.1974 1.79111C15.06 1.75234 14.9229 1.71358 14.7842 1.67482C15.0567 1.62351 15.3111 1.66113 15.488 1.65087C15.9453 1.55396 15.4745 1.43197 14.8253 1.47416C14.725 1.5323 14.6267 1.59045 14.5277 1.64289C13.5609 1.67026 13.6917 1.4582 13.3229 1.40803C12.502 1.28832 11.7932 1.47758 11.2054 1.50266C11.1403 1.39549 10.8809 1.38181 10.5482 1.2963C10.1406 1.15151 8.78811 1.21079 8.05138 1.10932C7.06843 1.35559 6.9458 0.957689 5.69031 1.11274C5.37307 1.09792 4.77245 1.03978 5.02591 0.941728C5.35959 0.879022 5.47235 0.75019 6.16568 0.779833C5.97073 0.595136 6.9103 0.703446 7.18973 0.616798C7.3163 0.570053 7.47081 0.524449 7.62631 0.478845C7.86531 0.452622 8.10333 0.42754 8.34101 0.402458C8.65825 0.274766 9.86345 0.225741 9.26578 0.00798075C8.94525 0.00570053 8.59678 0.00228021 8.27756 0C8.11713 0.0695465 7.98761 0.133392 7.82948 0.197238C7.72625 0.273626 7.62434 0.343172 7.49218 0.419559C7.29263 0.400177 7.03489 0.380796 6.66538 0.329491C6.63711 0.329491 6.57826 0.329491 6.54867 0.329491C6.5398 0.376235 6.52961 0.42412 6.5204 0.470864C5.16168 0.559792 3.64517 0.565493 2.95512 0.807195C2.57772 0.801495 2.17796 0.795794 1.82225 0.807195C1.6444 0.812896 1.4774 0.823157 1.32979 0.839118C1.24662 0.849379 1.16903 0.85964 1.09802 0.867621C0.993479 0.879022 0.899785 0.891563 0.817927 0.907525C0.655854 0.951989 0.350446 0.978211 0 0.997593C0.00328749 1.86407 0.00690372 2.81378 0.01052 3.72815C0.0124925 4.17735 0.0144649 4.61857 0.0161087 5.03699C0.0187387 5.30035 0.0210399 5.55004 0.0230124 5.77578C0.0338611 6.6776 0.050956 7.19977 0.0838309 6.75855C0.0631198 9.43894 0.120651 7.85989 0.139061 8.41171C0.132157 5.96846 0.178839 7.80175 0.175223 5.56828C0.204482 5.03585 0.212043 6.56929 0.230453 7.11654C0.224207 8.6192 0.241302 11.0864 0.212043 11.4193C0.219604 12.7521 0.173251 15.5704 0.224864 14.8841C0.318558 12.4921 0.243603 19.5802 0.311983 19.4491C0.32053 21.8912 0.319544 23.2046 0.340255 25.3753C0.352747 26.0149 0.367212 26.7549 0.379705 27.3922C0.372144 28.3852 0.36787 29.4866 0.402717 30.8855C0.406005 29.6804 0.408963 28.5768 0.411922 27.4731C0.423428 26.984 0.431318 26.7959 0.437236 26.8073V34.8405H1.60429C1.54085 34.8553 1.45537 34.8667 1.35576 34.877C1.22426 34.8884 1.06843 34.9021 0.906689 34.9169C0.741328 34.9317 0.566763 34.9522 0.396471 34.9819C0.392855 34.7493 0.388252 34.5247 0.383321 34.3126C0.356035 34.0014 0.338611 34.4278 0.325461 35.2281C0.437893 35.2544 0.584515 35.2749 0.739356 35.2954C0.817598 35.3057 0.896826 35.3159 0.974411 35.3262C1.05101 35.3376 1.12564 35.3479 1.19566 35.3581C1.43597 35.4026 1.60725 35.4562 1.53822 35.5474C1.47477 35.5599 1.39521 35.5668 1.30612 35.5713C1.26174 35.5713 1.21473 35.5736 1.1664 35.5747C1.10427 35.5747 1.04049 35.5747 0.975726 35.5747C0.715028 35.5725 0.44414 35.5656 0.227823 35.5702C0.226179 34.7413 0.220262 34.1656 0.203495 34.1884C0.20481 33.7597 0.206454 33.3265 0.207769 32.8955C0.207769 32.5238 0.207769 32.1544 0.207769 31.7919C0.206454 31.1568 0.202509 30.548 0.19692 30.003C0.185414 28.9142 0.166018 28.0831 0.143006 27.8266C0.140376 28.9325 0.132157 30.0236 0.126897 31.134C0.125911 31.4122 0.124925 31.6904 0.12361 31.9709C0.123281 32.322 0.122952 32.6766 0.122623 33.0334C0.122623 33.8509 0.124925 34.6809 0.129856 35.5098C0.128869 35.6477 0.127883 35.7857 0.126568 35.9225C0.412251 35.9487 0.698262 35.9738 0.981972 36C1.03556 35.9989 1.08651 35.9966 1.13616 35.9954C1.17298 35.9932 1.20914 35.9909 1.24497 35.9886C1.31138 35.984 1.37811 35.9783 1.45208 35.9738C1.83738 35.9384 2.223 35.9031 2.58068 35.8712C2.69673 35.8712 2.78417 35.8735 2.87162 35.8735C2.92981 35.8735 2.95841 35.8734 3.0166 35.8746C3.72078 35.8529 4.54035 35.8278 5.12881 35.8096C5.29187 35.723 5.74521 35.7845 6.00032 35.6751C5.9349 35.5679 4.72313 35.6523 5.35992 35.3855C5.75244 35.3182 6.39022 35.3353 6.88498 35.3387C7.04673 35.1153 8.46133 35.3228 9.01462 35.1848C9.77764 35.1529 10.5417 35.1221 11.2767 35.0913C11.3885 35.1164 11.473 35.1347 11.5555 35.1529C11.6433 35.2954 10.8326 35.4128 11.6272 35.52C11.9464 35.5223 12.2666 35.5257 12.5871 35.528C12.9833 35.4425 12.9054 35.3946 13.3311 35.3091C13.8035 35.276 14.2772 35.2418 14.75 35.2088C14.8502 35.2863 15.1372 35.3125 15.0067 35.3764C15.2625 35.406 15.5478 35.4391 15.8332 35.4721C16.3862 35.4767 16.9378 35.4813 17.4907 35.4858C17.8113 35.341 16.9273 35.3923 16.6751 35.3376C16.6564 35.2897 16.6077 35.243 16.588 35.1951C17.2784 35.2418 17.8307 35.2464 18.3859 35.2395C17.9549 35.4961 19.6753 35.3444 20.3065 35.398C20.5179 35.3558 20.6993 35.3205 20.8824 35.284C21.2105 35.3935 22.0962 35.3353 22.4121 35.3558C22.6426 35.3672 22.874 35.3798 23.1045 35.3912C23.3954 35.3935 23.6571 35.3957 23.9484 35.398C24.3287 35.3912 24.7081 35.3843 25.0595 35.3775C25.3222 35.3741 25.6079 35.406 26.0602 35.3262C26.2884 35.3479 26.5169 35.3695 26.7467 35.3912C26.8897 35.4026 27.034 35.4151 27.1481 35.4242C27.296 35.4151 27.443 35.4071 27.5906 35.398C27.82 35.4197 28.0485 35.4413 28.2763 35.463C28.2717 35.487 28.2665 35.5166 28.2596 35.5462C28.5199 35.6967 29.2876 35.5075 29.7896 35.6181C29.8902 35.5519 29.9921 35.4858 30.0927 35.4197C30.5608 35.406 31.1874 35.4767 31.5109 35.3194C31.6276 35.3194 31.7144 35.3205 31.8018 35.3216C32.1135 35.3661 32.7253 35.3707 33.0711 35.2441C33.2533 35.2099 33.4637 35.1768 33.6461 35.1369C33.9759 35.0925 34.3325 35.0594 34.3733 35.0013C34.4417 34.9545 34.5091 34.9078 34.5479 34.861C34.5807 34.8553 34.6139 34.8485 34.6481 34.8428H35.9977V2.67241C36.0009 2.66785 36.0006 2.66329 35.9977 2.65873H35.998Z" fill="#B52A2D"/>
  </svg>