<svg xmlns="http://www.w3.org/2000/svg" width="1920" height="138" viewBox="0 0 1920 138" fill="none">
    <path d="M-86.8806 571.432L-86.8806 573.914L-72.583 573.914C-76.1719 574.637 -79.6633 575.36 -81.6919 576.083C-81.77 576.18 -81.926 576.395 -82.0627 576.591C-71.6855 576.61 -59.6309 576.649 -49.2539 576.669C-41.2175 577.49 -33.1619 578.33 -25.0474 579.151C-11.842 579.991 -0.353024 580.831 14.6276 581.671C20.3232 583.41 27.6769 585.247 35.1085 586.986C40.7067 588.823 84.6726 587.807 108.587 588.178C118.359 588.96 129.887 589.898 139.698 590.679C137.241 591.676 133.183 592.594 130.706 593.591C151.577 593.473 174.106 593.356 196.655 593.239C214.62 592.262 222.169 591.383 231.531 590.386C294.262 592.164 249.067 587.592 308.052 587.221C312.344 588.549 342.051 588.12 357.48 588.256C357.831 587.748 358.124 587.338 359.548 585.325C451.966 584.231 385.51 590.152 438.683 590.894C489.924 591.734 444.378 587.67 482.415 587.651C544.15 593.278 667.836 589.526 762.381 590.249C764.838 589.233 762.186 588.12 773.089 587.338C801.119 586.771 829.266 586.185 857.315 585.618C871.32 587.787 918.388 587.279 940.137 585.814C974.72 585.892 996.333 587.064 996.762 588.882C1046.89 588.901 1097.8 585.286 1147.29 586.302C1155.44 586.967 1163.58 587.631 1171.81 588.295C1155.64 589.175 1140.54 588.53 1130.04 588.706C1102.91 590.367 1130.84 592.457 1169.37 591.735C1175.32 590.738 1181.15 589.741 1187.02 588.843C1244.39 588.374 1236.62 592.008 1258.51 592.868C1307.22 594.92 1349.27 591.676 1384.15 591.246C1388.01 593.083 1403.4 593.317 1423.14 594.783C1447.33 597.264 1527.57 596.248 1571.28 597.987C1629.61 593.767 1636.88 600.586 1711.37 597.929C1730.2 598.183 1765.83 599.179 1750.8 600.86C1731 601.935 1724.31 604.143 1683.17 603.635C1694.74 606.8 1638.99 604.944 1622.41 606.429C1614.9 607.23 1605.73 608.011 1596.51 608.793C1582.32 609.243 1568.2 609.672 1554.1 610.102C1535.28 612.291 1463.77 613.131 1499.23 616.863C1518.25 616.902 1538.92 616.961 1557.86 617C1567.38 615.808 1575.07 614.714 1584.45 613.62C1590.58 612.31 1596.62 611.118 1604.46 609.809C1616.3 610.141 1631.6 610.474 1653.52 611.353C1655.2 611.353 1658.69 611.353 1660.45 611.353C1660.97 610.552 1661.58 609.731 1662.12 608.93C1742.74 607.406 1832.72 607.308 1873.66 603.166C1896.06 603.263 1919.77 603.361 1940.88 603.166C1951.43 603.068 1961.34 602.892 1970.1 602.618C1975.03 602.443 1979.64 602.267 1983.85 602.13C1990.05 601.935 1995.61 601.72 2000.47 601.446C2010.09 600.684 2028.21 600.235 2049 599.902C2048.8 585.052 2048.59 568.775 2048.38 553.104C2048.26 545.405 2048.14 537.843 2048.04 530.672C2047.89 526.158 2047.75 521.879 2047.63 518.01C2046.99 502.553 2045.98 493.604 2044.03 501.166C2045.25 455.227 2041.84 482.29 2040.75 472.833C2041.16 514.707 2038.39 483.287 2038.6 521.566C2036.87 530.691 2036.42 504.41 2035.33 495.03C2035.7 469.276 2034.68 426.992 2036.42 421.286C2035.97 398.443 2038.72 350.14 2035.66 361.903C2030.1 402.899 2034.55 281.417 2030.49 283.665C2029.98 241.81 2030.04 219.299 2028.81 182.095C2028.07 171.133 2027.21 158.451 2026.47 147.528C2026.92 130.509 2027.17 111.633 2025.11 87.6573C2024.91 108.311 2024.73 127.226 2024.56 146.141C2023.88 154.524 2023.41 157.748 2023.06 157.552L2023.06 19.8726L1953.81 19.8726C1957.58 19.6185 1962.65 19.4231 1968.56 19.2472C1976.36 19.0519 1985.61 18.8174 1995.2 18.5633C2005.01 18.3093 2015.37 17.9576 2025.48 17.4495C2025.69 21.4357 2025.96 25.2852 2026.26 28.9196C2027.88 34.254 2028.91 26.946 2029.69 13.2289C2023.02 12.7794 2014.32 12.4277 2005.13 12.076C2000.49 11.9001 1995.79 11.7243 1991.18 11.5485C1986.64 11.353 1982.21 11.1772 1978.06 11.0013C1963.8 10.2393 1953.64 9.32085 1957.73 7.75762C1961.5 7.54272 1966.22 7.42547 1971.5 7.34728C1974.14 7.34728 1976.93 7.30822 1979.79 7.28869C1983.48 7.28869 1987.26 7.28869 1991.11 7.28869C2006.58 7.32776 2022.65 7.44494 2035.48 7.36682C2035.58 21.5725 2035.93 31.4402 2036.93 31.0494C2036.85 38.3965 2036.75 45.8219 2036.67 53.2081C2036.67 59.5781 2036.67 65.9091 2036.67 72.1229C2036.75 83.0068 2036.98 93.4412 2037.32 102.781C2038 121.442 2039.15 135.687 2040.52 140.084C2040.67 121.13 2041.16 102.43 2041.47 83.3975C2041.53 78.6298 2041.59 73.8619 2041.67 69.0551C2041.69 63.0367 2041.7 56.9597 2041.72 50.8436C2041.72 36.8334 2041.59 22.6082 2041.3 8.40247C2041.35 6.03809 2041.41 3.67371 2041.49 1.32892C2024.54 0.879514 2007.57 0.449642 1990.74 0.000178012C1987.56 0.019709 1984.53 0.0588323 1981.59 0.0783632C1979.4 0.117426 1977.26 0.156549 1975.13 0.195611C1971.19 0.273797 1967.23 0.371453 1962.84 0.449638C1939.98 1.05535 1917.1 1.66112 1895.88 2.20824C1888.99 2.20824 1883.81 2.16911 1878.62 2.16911C1875.16 2.16911 1873.47 2.16917 1870.02 2.14964C1828.23 2.52085 1779.61 2.95078 1744.69 3.2634C1735.02 4.74845 1708.12 3.69327 1692.98 5.56912C1696.86 7.40591 1768.76 5.95988 1730.98 10.5323C1707.69 11.6852 1669.85 11.3921 1640.49 11.3334C1630.89 15.1633 1546.96 11.607 1514.13 13.9713C1468.86 14.5184 1423.53 15.0461 1379.91 15.5737C1373.28 15.1437 1368.27 14.8311 1363.37 14.5184C1358.16 12.0759 1406.27 10.0633 1359.12 8.2265C1340.18 8.18744 1321.18 8.12878 1302.16 8.08972C1278.66 9.55523 1283.28 10.376 1258.02 11.8415C1229.99 12.4081 1201.88 12.9943 1173.84 13.561C1167.89 12.2323 1150.86 11.7828 1158.6 10.6886C1143.43 10.1805 1126.49 9.61387 1109.56 9.04722C1076.76 8.96903 1044.02 8.8909 1011.22 8.81271C992.198 11.2943 1044.65 10.415 1059.61 11.3529C1060.72 12.1736 1063.61 12.9748 1064.78 13.7954C1023.82 12.9943 991.047 12.9162 958.101 13.0334C983.674 8.63687 881.6 11.2357 844.149 10.3173C831.607 11.0403 820.839 11.646 809.975 12.2713C790.508 10.3955 737.96 11.392 719.215 11.0402C705.541 10.8449 691.809 10.6299 678.135 10.4345C660.873 10.3954 645.346 10.3564 628.064 10.3173C605.496 10.4345 582.986 10.5518 562.135 10.669C546.549 10.7276 529.599 10.1805 502.759 11.5483C489.222 11.177 475.666 10.8058 462.031 10.4345C453.546 10.2391 444.983 10.0242 438.215 9.86784C429.437 10.0242 420.718 10.1609 411.96 10.3172C398.345 9.94596 384.788 9.57468 371.271 9.20347C371.544 8.79313 371.856 8.28507 372.266 7.77708C356.817 5.19773 311.271 8.44138 281.486 6.54599C275.517 7.67935 269.47 8.81265 263.502 9.94595C235.725 10.1804 198.547 8.96895 179.354 11.6655C172.429 11.6655 167.28 11.646 162.091 11.6264C143.6 10.8644 107.299 10.7862 86.7793 12.9552C75.9732 13.5413 63.4893 14.108 52.6636 14.7919C33.0994 15.554 11.9357 16.1207 9.51702 17.1172C5.45989 17.9183 1.46111 18.7195 -0.840524 19.5206C-2.79121 19.6183 -4.76118 19.7355 -6.78974 19.8333L-86.861 19.8332L-86.8611 571.198C-87.0561 571.276 -87.0366 571.354 -86.8611 571.432L-86.8806 571.432Z" fill="#B52A2D"/>
  </svg>