<svg xmlns="http://www.w3.org/2000/svg" width="1920" height="500" viewBox="0 0 1920 500" fill="none">
    <path
        d="M2051.39 291.271C2051.27 295.519 2051.82 303.344 2050.4 300.795C2051.17 287.161 2049.99 288.307 2049.53 276.689C2048.09 274.812 2047.79 278.981 2046.69 278.823C2046.59 275.385 2045.92 274.693 2045.76 271.532L2046.02 197.04C2043.69 194.511 2045.29 208.777 2044.55 208.915C2042.66 206.208 2044.65 199.154 2044.14 189.65L2046.04 189.828L2046.08 180.225C2045.96 175.206 2044.77 183.683 2044.67 175.285C2044.97 170.326 2045.62 167.164 2046.61 165.84C2046.89 154.677 2046.79 152.582 2047.18 139.442C2045.74 137.565 2045.44 141.734 2044.34 141.576C2044.34 138.375 2044.36 135.174 2044.38 131.973C2043.03 125.453 2040.45 142.742 2040.13 126.777C2039.3 127.449 2038.63 128.99 2037.98 130.61V24.6027H1636.93C1640.56 24.5434 1643.27 24.1087 1644.02 22.8244C1631.28 24.5434 1616.46 20.8287 1607.93 23.1603C1614.07 24.0099 1615.53 22.4885 1612.63 24.6027H1607.77C1607.77 24.6027 1607.79 24.6027 1607.81 24.6027C1607.67 24.6027 1607.55 24.6027 1607.43 24.6027H1605.34C1601.45 24.4051 1603.76 23.0417 1595.88 23.595C1598.03 24.2668 1595.1 24.4842 1592.89 24.6027H1587.54C1590.36 24.247 1592.14 23.7136 1591.11 23.101C1584.87 23.101 1585.05 22.1526 1579.18 22.1131C1571.58 22.0538 1564.23 23.2591 1561.01 24.6027H1535.56C1535.88 24.247 1536.51 23.8519 1538.21 23.3974C1531.61 23.1998 1534.85 21.876 1528.73 21.9352C1526.93 21.955 1526.4 23.1405 1521.44 22.8639C1515.93 22.5478 1517.43 21.4017 1509.56 21.4017C1505.4 21.9945 1500.02 22.3502 1499.75 23.7333C1508.64 24.6422 1510.75 23.7531 1521.42 23.3381C1522.35 24.168 1520.07 24.3458 1518.24 24.6027H1445.85C1446.17 24.5632 1446.47 24.5237 1446.8 24.4842C1454.41 24.4249 1461.18 24.2075 1461.4 22.6466C1451.74 21.955 1453.7 23.6543 1446.9 23.5357C1442.14 23.5357 1443.98 22.2316 1437.36 22.5478C1436.94 23.101 1437.66 23.8914 1434.83 23.9704C1425.31 22.7849 1424.99 24.3458 1415.57 24.3656L1415.69 22.9429C1422.07 22.9429 1429.83 23.2591 1430.19 22.0538C1418.2 21.0461 1418.97 22.607 1406.13 22.449C1404.11 21.2239 1394.53 21.2634 1391.73 22.3897C1396.47 21.6981 1403.64 23.6148 1406.01 23.8716C1405.47 23.8123 1407.02 23.1208 1408.46 23.4172C1410.45 23.8123 1411.28 24.1878 1411.3 24.6027H1401.05C1400.56 24.3063 1399.29 24.1483 1396.35 24.3063C1396.43 24.4051 1396.45 24.5039 1396.51 24.6027H1367.54C1368.57 23.4962 1363.87 24.0495 1360.37 23.7136C1359.43 23.6148 1359.21 22.8639 1358.04 22.7454C1355.34 22.5083 1351.27 22.9034 1348.44 22.7058C1347.32 22.6268 1340.1 20.4928 1338.88 22.1921C1347.91 23.022 1333.59 22.9429 1333.96 23.595C1336.33 23.7531 1337.97 24.0692 1338.47 24.583H1310.02C1310.73 22.6861 1301.52 22.6861 1302.98 20.6311C1288.92 21.2832 1291.45 18.7935 1279.08 19.1295C1275.72 19.4061 1278.55 20.9473 1274.1 21.0066C1267.72 20.5126 1261.52 19.9791 1252.57 19.9791C1245.52 18.9911 1250.06 15.8099 1236.09 16.1261C1232.12 17.7266 1246.11 18.181 1238.23 18.9911C1234.18 18.3588 1228.88 17.9834 1228.84 16.5805C1222.48 16.541 1214.66 16.7979 1214.52 15.5728C1224.5 15.5333 1227.66 16.4422 1233.78 15.1579C1220.51 15.316 1205.99 14.7627 1195.34 15.0196C1191.33 15.1184 1191.15 15.6123 1185.64 15.9285C1185.42 15.9285 1176.18 15.316 1178.39 16.3829C1180.58 16.8967 1187.24 16.5608 1185.46 17.8254C1183.05 17.8254 1182.58 18.2008 1180.62 18.2798C1174.95 18.1217 1176.31 16.6201 1168.75 16.8176C1167.58 18.4379 1175.8 18.2601 1178.13 19.2282C1172.19 20.1372 1165.13 19.5641 1161.4 18.2205C1156.72 16.541 1162.07 18.1613 1156.54 18.675C1152.47 19.0504 1143.56 18.6157 1149.47 17.2326C1141.78 16.7781 1146.03 18.7935 1139.73 18.6157C1133.37 18.596 1125.56 18.8331 1125.39 17.6278C1122.6 16.047 1145.1 17.2128 1137.54 16.2446C1110.79 15.889 1090.18 16.6991 1072.68 16.0075C1071.89 16.9757 1067.74 17.2523 1065.29 17.8846C1070.53 19.5049 1081.19 17.0548 1082.1 17.9439C1075.92 18.5367 1084.12 20.2755 1079.49 20.315C1072.44 19.7617 1062.54 20.0976 1060.31 19.7815C1063.33 18.6355 1070.55 15.4543 1055.85 15.968C1054.78 17.114 1060.15 17.0152 1058.04 18.3391C1048.66 18.675 1041.13 19.3863 1038.56 21.1054C1035.86 19.0702 1018.19 18.6948 1007.47 19.5839C1007.09 17.7858 994.587 18.2996 993.322 16.6793C998.735 15.2962 1007.94 15.5333 1017.46 15.3357C1025.25 15.1776 1033.05 14.1304 1039.21 13.9921C1051.96 13.7155 1067.72 14.5651 1082.46 14.1502C1103.83 13.5574 1133.52 13.2017 1147.41 13.4388C1145.24 12.5299 1158.34 12.5102 1159.5 12.5299C1159.84 12.5299 1157.19 13.4784 1157.01 13.4784C1168.91 14.328 1193.24 13.3005 1178.94 10.2379C1175.43 11.2851 1165.82 11.1073 1161.95 12.0755C1161.26 11.4234 1158.61 11.1666 1159.72 10.1786C1174.67 9.88221 1172.24 10.1786 1183.78 9.78342C1185.18 10.9097 1185.05 11.8779 1190.68 13.1227C1198.36 13.5574 1195.75 11.9174 1200.42 11.7396C1214.36 11.7 1231.47 12.2928 1238.94 10.9294C1261.91 12.7473 1289.2 10.7714 1308.65 10.6923C1293.36 10.2576 1302.81 8.08414 1304.29 5.9304C1295.38 5.71305 1297.83 7.82727 1287.34 7.29378C1284.43 5.77233 1280.37 3.93474 1290.1 3.50004C1290.14 4.15209 1288.88 4.54727 1287.58 4.92269C1305.28 5.27835 1320.31 6.14775 1330.56 7.92607C1323.14 8.61763 1310.73 6.32558 1306.4 9.26968C1319.24 8.91402 1312.15 10.0008 1315.92 10.2576C1315 10.1984 1319.12 9.78342 1320.78 9.80318C1323.79 9.84269 1325.92 10.7319 1327.9 10.7714C1334.55 10.9097 1343.52 10.2181 1352 9.90197C1349.39 9.78342 1346.29 9.11161 1349.69 8.95354C1389.65 8.81522 1407.85 6.701 1453.16 7.43209C1455.4 6.60221 1459.07 6.06871 1460.59 5.08076C1447.97 4.21136 1445.16 6.7998 1441.37 5.02148C1437.52 5.35739 1441.71 7.35305 1434 6.89859C1434.4 6.34534 1438.37 5.83161 1434.12 5.47594C1431.45 6.54293 1418.99 5.5945 1412.45 5.87112C1418.77 4.40895 1405.4 5.73281 1398.13 4.86341C1400.58 6.81956 1389.73 6.04896 1388.29 7.19498C1378.23 6.83932 1390.78 5.04124 1381.31 4.80413C1376.99 6.00944 1383.61 7.09619 1373.85 7.62968C1367.96 7.39257 1364.58 4.2904 1359.5 6.62197C1366.18 6.0292 1371.12 8.04462 1366.58 8.06438C1358.04 8.28173 1360.83 6.3651 1352.29 6.60221C1346.03 6.7998 1342.04 9.94149 1335.28 8.4398C1340.66 8.24221 1343.94 7.62968 1345.08 6.58245C1334.49 5.85136 1328.8 6.68125 1316.28 6.00944C1316.44 4.88317 1312.27 4.60654 1314.15 3.16413C1299.21 2.74919 1284.22 2.82823 1275.7 3.02582C1264.26 3.28269 1253.58 1.781 1249.23 3.40124C1256.44 3.421 1263.65 3.46052 1270.86 3.48028C1266.54 4.86341 1271.36 3.9545 1277.9 5.39691C1279.83 5.83161 1280.7 6.40462 1282.58 6.83932C1281.1 7.11594 1271.08 7.90631 1270.57 6.7998C1273.41 6.58245 1276.06 6.30582 1277.86 5.87112C1265.86 5.17956 1268.33 7.47161 1260.87 7.70872C1255.95 7.41233 1244.11 8.42004 1246.54 6.72076C1234.51 7.15546 1219.93 7.07643 1215.09 8.9733C1210.89 8.06438 1208.79 6.76028 1203.34 6.08847C1200.44 6.78004 1201.07 8.20269 1193.56 7.94583C1187.85 7.33329 1186.67 5.85136 1176.91 5.98968C1176.43 6.701 1177.62 7.74823 1174.34 7.88655C1168.67 7.78775 1166.18 8.71643 1162.25 8.79546C1158.93 8.8745 1158.2 7.84703 1155.14 7.82727C1154.6 7.82727 1151.01 9.34872 1150.28 8.28173C1150.57 7.53088 1156.44 7.92607 1155.22 6.87884C1145.6 7.31354 1148.1 5.43642 1138.48 5.87112C1139.21 7.47161 1127.99 6.62197 1123.94 7.2345C1123.86 6.62197 1120.92 6.56269 1121.67 5.81185C1125.52 4.46823 1132.79 6.83932 1136.11 5.39691C1130.15 6.10823 1129.22 3.7569 1133.86 3.97425C1139.02 4.38919 1141.94 5.23883 1150.57 4.98197C1149.78 5.75257 1153.71 6.2663 1155.35 5.47594C1149.21 4.84365 1150 3.16413 1160.33 3.59883C1159.98 5.69329 1165.8 6.60221 1171.99 7.43209C1179.73 5.14004 1161.58 5.95016 1165.19 3.14437C1176.08 2.53184 1177.01 5.02148 1184.37 3.67787C1187.77 4.58678 1187.67 6.14775 1193.74 6.56269C1196.13 6.10823 1198.58 5.63402 1201.07 5.1598C1205.1 6.18727 1230.09 4.88317 1222.56 6.66149C1230.09 6.91835 1229.02 5.41667 1234.71 5.27835C1247.59 4.76462 1255.45 6.06871 1263.61 4.42871C1257.92 3.06534 1251.9 4.68558 1246.8 4.36944C1245.75 4.31016 1246.82 2.84799 1242.1 3.40124C1241.29 4.32992 1245.26 4.34968 1246.76 4.84365C1237.73 5.1598 1235.13 4.27064 1234.93 2.90726C1224.18 3.44076 1210.25 3.34196 1196.45 3.24317C1195.44 4.05329 1199.9 4.46823 1196.33 4.66582C1188.76 4.70534 1191.82 2.72943 1186.94 2.25522C1172.52 3.36172 1146.03 1.64269 1138.8 3.02582C1141.62 3.10486 1145.63 2.96654 1145.97 3.5198C1135.8 4.05329 1135.5 2.70967 1129.24 2.51208C1118.29 2.35401 1112.39 3.24317 1105.1 3.8557C1104.94 3.10486 1105.57 2.2157 1100.42 2.41329C1090.97 3.04558 1102.79 3.7569 1097.83 4.31016C1095.42 4.31016 1094.94 4.68558 1092.99 4.76462C1090.46 4.31016 1092.39 3.00606 1085.91 3.32221C1069.04 3.0851 1063.97 5.27835 1052.02 6.04896C1051.01 4.78438 1040.2 4.15209 1047.51 2.70967C1043.99 2.94678 1035.14 2.1169 1035.46 3.14437C1039.79 3.7569 1050.08 5.91064 1039.96 6.48365C1039.33 3.421 1020.8 5.87112 1013.81 3.53955C1019.04 3.63835 1021.49 3.18389 1021.16 2.13666C1011.56 1.93907 1007.74 2.92702 997.096 2.53184C992.532 2.31449 992.868 1.16847 985.183 1.54389C983.524 3.77666 973.646 4.32992 965.586 5.25859C967.463 5.37715 968.352 5.67353 967.917 6.20703C957.486 5.51546 962.643 8.02486 953.377 7.5704C950.75 6.06871 957.249 6.42438 958.336 5.69329C942.413 6.58245 926.411 4.56703 917.364 6.97763C921.789 7.92607 926.155 7.15546 931.785 7.03691C935.183 7.94583 935.104 9.50679 941.129 9.92173C944.369 8.75595 934.274 7.92607 941.366 7.55064C953.456 7.43209 958.771 8.57811 967.66 9.07209C965.053 11.5222 947.214 8.20269 945.91 10.4157C964.243 10.2181 945.179 12.1545 952.864 13.2808C952.943 12.8066 957.131 12.7078 957.664 13.2808C955.787 15.5728 946.779 12.6485 945.614 13.7155C952.034 14.822 954.01 15.3752 964.756 14.7429C966.12 16.1854 977.597 15.7111 978.96 17.1535C974.654 17.4104 968.964 17.3511 966.85 18.0625C974.397 18.7343 981.449 16.9362 983.662 18.1217C985.815 19.8408 973.212 18.9319 971.611 18.5564C973.093 20.1569 967.423 20.2755 961.833 20.4138C959.6 19.6037 953.931 19.4258 952.39 18.4774C957.842 18.6355 961.418 18.3984 962.089 17.5685C955.057 17.4302 954.602 18.6157 947.589 18.4576C947.372 17.8846 946.977 17.3314 942.868 17.4894C937.771 19.0307 933.78 17.6475 928.407 17.9044C926.905 17.9834 926.412 18.8331 923.527 18.8331C923.488 18.8331 922.461 18.6355 921.058 18.3786C919.655 18.1415 917.897 17.9044 916.396 17.8649C910.943 17.687 903.95 17.7068 897.194 17.7858C889.469 17.8846 876.569 17.9637 873.033 19.1295C877.28 19.248 885.103 18.6948 882.555 20.1174C876.727 20.2952 877.399 19.2282 870.564 19.6037C863.234 20.3743 869.754 21.7376 865.506 22.4292C867.344 20.5323 853.633 21.5796 851.263 20.4928C843.874 20.4533 836.921 23.0022 829.552 21.3622C837.237 21.7969 834.649 20.1569 839.291 19.9791C848.932 19.5444 853.752 19.5642 863.313 20.0581C864.36 19.1492 872.658 19.7222 870.702 18.181C852.389 19.3073 825.028 17.5487 812.958 18.9319C812.385 18.2601 807.742 18.3786 805.846 17.9637C803.475 18.8528 796.225 18.3391 791.385 18.3786C787.375 18.4181 779.552 18.8923 776.924 18.8133C775.739 18.7738 774.87 17.8649 772.203 17.8451C755.905 17.7858 738.224 18.3391 719.239 18.596C717.876 19.2875 721.827 21.0658 716.631 20.967C712.878 20.5916 713.174 19.4456 707.149 19.5049C704.778 20.3743 714.201 21.1054 706.991 21.4017C706.773 20.8287 706.378 20.2755 702.269 20.4335C690.159 21.4413 681.763 20.4335 671.036 20.315C670.286 20.315 669.318 20.8485 666.177 20.7695C664.497 20.7299 662.542 20.2162 661.435 20.2755C660.645 20.315 659.697 21.9945 654.126 21.2042C650.353 21.1449 652.368 19.9791 647.014 20.236C638.085 19.7025 643.043 21.9945 634.865 21.6191C632.336 19.9198 619.969 20.1174 613.45 19.169C634.272 19.4258 665.288 19.2875 685.537 19.4258C689.547 19.4654 694.723 21.1646 695.177 18.9911C670.266 17.8451 621.826 18.6552 594.327 18.1613C593.26 20.3743 607.741 19.6432 606.002 21.9945C612.383 21.9945 619.712 22.2316 622.853 21.5796C624.809 22.1328 625.915 22.8639 625.026 23.9507C615.406 23.595 611.277 24.3458 603.355 24.3458C603.533 24.4249 603.612 24.5237 603.612 24.6225H598.258C599.582 24.1285 605.666 24.6225 603.454 23.3974C594.07 22.5675 596.184 22.5675 586.622 23.3381C582.573 22.7058 577.278 22.3304 577.219 20.9275C581.012 20.888 585.556 21.0263 584.509 19.9988C578.72 20.1767 579.372 19.1097 572.537 19.4851C573.031 21.0461 566.452 21.8957 553.098 21.7969C557.464 23.4567 550.056 23.9704 543.24 24.6027C533.758 24.7015 536.089 22.5478 526.586 22.6466C514.733 21.9945 514.694 23.7531 504.876 23.516C509.162 21.955 503.631 21.461 497.941 20.6509C497.843 21.4413 491.244 20.888 490.652 21.5796C494.583 21.4413 497.072 22.2514 492.963 22.528C486.404 21.2832 486.464 21.6981 490.79 20.1569C479.964 19.2282 487.353 22.034 478.641 21.5401C475.104 21.4413 476.547 20.394 476.408 19.6432C469.138 19.7617 457.779 19.0504 457.107 20.5323C461.414 20.4928 462.678 21.0263 461.789 21.9748C460.189 21.0263 448.356 22.0538 447.467 20.9868C454.836 20.7299 453.789 18.7343 459.735 18.181C437.767 17.3709 420.323 17.9834 390.118 17.4499C383.282 18.6355 378.304 20.1767 363.468 19.7222C364.851 19.0307 360.88 17.2523 366.095 17.3511C373.148 17.2326 374.847 19.2875 378.107 17.3907C373.583 16.541 363.369 16.7781 363.903 14.9603C371.765 15.3357 382.038 15.2369 385.396 16.462C395.017 15.5728 419.81 14.7034 426.27 16.1261C436.503 14.2292 445.847 15.8494 459.952 15.7704C460.525 15.395 460.091 14.8417 462.441 14.822C468.842 15.7704 483.402 15.1776 493.635 15.4147C499.008 14.7429 490.711 14.249 496.164 14.0119C505.883 16.4817 532.73 14.8022 544.169 14.6639C540.632 13.9328 540.731 12.5299 532.355 12.7275C528.601 13.2413 526.31 14.0711 522.576 14.5849C522.062 13.2017 528.127 13.1425 527.633 11.7593C522.003 12.0755 507.029 12.9844 508.51 10.7516C513.054 10.6528 513.746 11.3049 518.072 11.2653C520.581 10.6528 520.581 9.52655 523.09 8.91402C516.61 8.18293 507.779 10.4157 501.26 11.2061C499.877 10.3762 489.842 11.2061 489.308 10.2181C483.362 9.86245 479.253 12.2731 474.848 10.6331C481.13 10.7911 485.199 10.4947 484.587 9.24992C473.03 8.51884 466.037 11.2258 460.486 10.1193C461.375 9.01281 471.015 9.68462 472.635 8.73619C465.247 7.21474 464.437 9.50679 455.764 9.15113C454.006 7.51113 458.609 7.15546 460.841 6.32558C445.966 5.69329 448.119 8.55836 436.582 8.61763C435.555 7.11594 444.978 7.39257 439.209 6.24655C408.549 6.62197 383.302 4.70534 364.693 6.4639C361.137 5.89088 358.944 5.08076 352.82 5.00173C349.383 5.10052 348.691 5.77233 345.51 5.9304C341.224 4.48799 332.571 5.55498 323.938 5.37715C306.138 5.02148 285.356 3.79642 264.001 3.73715C249.362 3.69763 236.541 4.11257 225.557 3.59883C225.261 4.34968 225.735 5.23883 220.638 5.00173C220.895 4.17184 220.223 3.5198 218.406 3.10486C195.253 3.46052 181.464 1.86003 170.322 3.40124C170.796 1.89955 164.296 1.74148 158.488 1.46485C150.389 2.5516 141.558 3.48028 138.891 5.65377C129.191 5.1598 121.744 4.25088 112.617 3.65811C116.094 2.76895 130.93 3.32221 124.727 2.74919C122.751 2.57136 119.175 3.32221 112.755 2.23546C106.631 0.970877 116.686 1.87979 115.323 0.358346C104.339 0.654732 94.3826 0.417624 88.8709 0.733768C90.1945 0.733768 91.5576 1.12895 88.8314 1.20799C66.0735 1.70196 37.5667 1.62293 8.88222 1.44509C-5.46005 1.3463 -19.8418 1.26726 -33.5914 1.16847C-40.4662 1.14871 -47.1632 1.10919 -53.6232 1.08943C-62.8884 1.08943 -71.7782 1.08943 -80.2136 1.08943C-74.0698 1.2475 -80.3717 1.76124 -87.6811 1.54389C-84.3622 2.63064 -88.1355 3.40124 -92.936 3.69763C-97.7562 3.99401 -103.821 3.79642 -105.678 2.92702C-100.996 2.76895 -95.5634 2.35401 -92.2446 1.82052C-88.9454 1.30678 -87.7404 0.674491 -91.9482 0.101479C-104.552 -0.214666 -104.987 0.259551 -104.295 0.812805C-103.624 1.36606 -101.944 1.97859 -110.004 1.95883C-115.437 1.72172 -114.331 1.40558 -113.007 1.06967C-111.703 0.733769 -110.182 0.378105 -115.161 0.0619605C-118.183 0.0619605 -121.166 0.0619605 -123.28 0.0817196C-123.201 19.8408 -123.122 37.1695 -123.063 53.4114C-123.043 57.4225 -123.003 61.3546 -122.984 65.2471C-122.944 67.6972 -122.905 70.1276 -122.885 72.5382C-122.786 77.3594 -122.707 82.1213 -122.608 86.9228C-123.28 87.8119 -123.418 89.7483 -124.031 86.8042C-124.465 99.6871 -123.142 106.583 -124.129 115.633C-122.865 115.02 -122.589 119.11 -122.747 125.374C-123.952 124.998 -124.386 120.829 -125.097 117.964C-125.354 105.872 -124.366 87.6341 -125.433 79.4736C-125.907 91.1907 -125.038 112.965 -126.085 127.488C-124.208 124.623 -124.702 133.297 -124.702 139.64C-124.031 145.291 -123.181 135.076 -123.3 144.58C-123.794 147.86 -124.07 143.493 -124.742 149.263L-124.801 166.078C-124.801 169.259 -123.971 168.35 -123.873 170.958C-124.742 176.945 -125.552 183.406 -125.374 194.867L-126.322 194.787C-126.461 203.304 -124.11 199.747 -124.485 209.389C-125.631 211.523 -125.749 219.091 -126.441 223.636C-127.014 217.807 -126.757 208.382 -126.836 199.549C-126.915 189.927 -125.947 177.024 -127.705 175.424C-127.152 201.229 -128.732 238.712 -127.547 266.79C-124.959 261.949 -126.204 275.958 -125.216 279.02C-124.426 269.121 -124.129 283.822 -122.371 276.867C-122.747 284.237 -121.087 281.609 -121.462 288.979C-122.885 298.858 -124.11 301.388 -125.789 305.399C-125.413 321.048 -127.251 337.072 -126.026 350.153C-126.085 347.644 -125.493 343.455 -125.453 343.909C-125.216 347.663 -126.243 365.091 -124.11 365.664C-124.939 368.667 -125.986 370.465 -126.046 377.5C-125.413 379.91 -125.453 385.66 -124.663 387.241L-126.085 387.122C-126.401 395.737 -124.663 394.354 -124.722 401.665C-127.172 396.409 -125.848 417.097 -125.73 418.401C-125.631 415.714 -125.196 414.706 -124.762 413.678C-125.315 426.443 -123.774 414.37 -123.359 421.029C-125.73 421.78 -123.221 428.517 -123.398 433.042C-124.88 436.698 -125.749 443.475 -125.374 456.891C-123.497 454.007 -124.169 463.59 -123.517 466.672C-124.347 466.791 -124.999 466.02 -125.413 464.103C-125.433 469.715 -125.453 475.307 -125.473 480.918C-124.643 482.381 -122.668 478.271 -122.628 483.586C-121.858 488.427 -122.687 486.629 -122.668 493.209C-123.912 495.896 -124.683 485.601 -124.564 495.441C-124.702 509.115 -122.964 495.343 -122.687 500.401C-122.687 502.811 -122.687 505.202 -122.707 507.613C-124.011 507.712 -123.655 503.543 -124.604 507.435C-124.623 513.047 -124.643 518.658 -124.663 524.27C-123.932 524.566 -123.023 524.112 -123.26 529.21C-123.477 537.311 -125.078 522.63 -124.702 533.892C-124.604 533.853 -123.813 534.88 -123.26 536.935C-122.984 537.963 -122.766 539.227 -122.747 540.749C-122.747 541.5 -122.747 542.33 -122.845 543.219C-122.984 544.385 -123.142 545.649 -123.319 547.013C-123.319 546.183 -123.319 545.412 -123.319 544.681C-123.319 544.207 -123.339 543.752 -123.359 543.337C-123.398 542.547 -123.458 541.875 -123.537 541.282C-123.695 540.117 -123.932 539.326 -124.228 538.773C-124.189 544.799 -124.149 549.858 -124.11 554.402C-124.11 560.014 -124.11 565.033 -124.11 570.071C-124.189 580.227 -124.248 590.482 -124.366 605.835C-124.09 610.459 -123.636 608.048 -123.181 605.993C-122.727 603.938 -122.272 602.219 -121.996 607.772C-121.996 607.93 -121.996 608.107 -121.996 608.167C-115.477 608.384 -115.892 608.779 -117.176 609.234C-118.46 609.688 -120.633 610.182 -117.255 610.538C-99.8108 610.439 -83.0386 610.36 -67.7284 610.281C-64.1527 610.281 -60.656 610.281 -57.2384 610.281C-55.006 610.281 -52.8527 610.32 -50.7587 610.34C-46.5706 610.4 -42.6788 610.538 -39.1031 610.735C-38.7673 610.162 -38.2932 609.609 -34.2236 609.807C-25.6696 610.419 -17.9651 610.716 -10.221 610.36C-6.15147 610.182 -5.0452 609.53 -0.521255 609.451C4.37802 609.372 10.5417 610.281 16.2509 609.985C19.0364 609.846 20.9329 609.036 23.5406 609.056C23.5998 609.056 24.6666 609.254 26.089 609.491C27.5113 609.728 29.2696 609.965 30.6524 610.024C36.8556 610.301 43.355 609.866 49.8742 610.083C53.0548 610.083 52.1461 609.253 54.7537 609.155C60.6408 610.716 65.5401 609.234 73.9755 609.214C78.4205 609.214 79.3884 609.609 83.537 609.708C90.3723 609.906 96.615 609.174 102.798 609.313C107.283 609.392 110.76 610.182 114.73 610.301C139.365 611.071 167.121 610.696 191.499 612C189.089 610.716 196.853 611.466 198.789 611.071C203.214 610.202 202.76 608.088 211.116 607.791C198.334 607.574 209.397 604.946 204.261 603.978C209.733 604.136 213.309 603.899 213.961 603.069C206.829 602.713 206.078 601.152 207.086 599.255C194.186 595.6 173.779 595.244 147.327 595.719C138.061 595.896 127.077 595.877 118.464 596.094C116.113 595.225 111.372 595.185 108.942 595.106C100.981 594.869 95.884 595.916 89.6414 595.975C86.6189 596.015 86.362 595.442 82.4703 595.481C63.9201 595.64 43.2365 596.153 19.9649 595.738C14.0186 596.351 24.153 597.181 17.3769 597.635C14.9273 597.675 12.695 595.58 10.2058 597.141C15.2434 598.05 -1.50901 598.584 -4.43278 599.453C-5.97368 597.912 -17.9651 599.078 -11.4261 597.062C-16.1476 596.904 -16.2464 597.675 -18.7158 597.991C-26.282 597.576 -33.5322 597.833 -40.9601 597.991C-44.6741 598.07 -48.4276 598.109 -52.3193 598.03C-54.2553 597.991 -56.2309 597.932 -58.2261 597.813C-60.7943 597.714 -63.5205 597.556 -66.2072 597.359C-69.052 598.09 -66.2665 598.584 -63.7378 598.939C-61.2289 599.295 -59.0558 599.532 -63.56 599.73C-70.5139 598.999 -70.4151 597.339 -81.9126 597.299C-82.0706 599.236 -86.239 597.201 -94.8325 597.734C-93.2323 599.255 -100.976 599.196 -106.172 599.611C-107.021 599.038 -109.313 598.643 -112.197 598.346C-111.743 593.328 -111.466 587.36 -111.032 582.5C-112.513 582.678 -111.782 567.048 -111.921 557.524C-113.778 552.585 -112.118 571.435 -113.383 570.783C-113.067 563.017 -113.185 557.485 -113.185 552.94C-113.185 550.668 -113.165 548.653 -113.047 546.775C-112.987 545.886 -112.908 544.839 -112.79 544.167C-112.671 543.515 -112.533 542.883 -112.355 542.251C-112.75 534.722 -113.758 530.257 -114.173 522.847C-113.264 523.894 -113.837 532.193 -112.296 530.237C-112.731 518.717 -111.703 509.036 -111.723 501.428C-111.723 494.098 -111.427 484.139 -113.067 479.674C-113.738 489.474 -111.802 498.01 -113.165 508.522C-113.6 505.104 -114.351 499.709 -114.528 493.979C-114.825 484.574 -113.758 474.003 -114.43 467.542C-112.968 461.495 -112.968 441.855 -113.343 429.169C-113.383 428.102 -114.173 423.953 -114.272 421.878C-114.449 417.808 -113.541 404.984 -115.161 407.375C-116.603 407.968 -113.521 417.65 -115.2 419.389C-117.828 420.1 -115.121 408.462 -116.563 402.435C-115.753 406.94 -114.923 402.87 -115.121 395.362C-115.654 389.394 -116.939 400.124 -117.492 392.754C-115.793 391.904 -116.366 379.12 -114.588 378.586C-113.995 371.216 -115.496 370.86 -115.496 366.474C-115.496 366.434 -115.299 365.407 -115.042 364.004C-114.805 362.601 -114.568 360.843 -114.509 359.361C-114.41 356.219 -114.568 352.88 -114.469 349.738C-113.106 351.358 -112.79 346.853 -112.553 345.114C-112.415 344.008 -111.684 341.815 -112.553 340.293C-112.671 342.98 -113.086 343.988 -113.521 345.016C-113.501 335.452 -113.916 328.062 -114.864 323.261C-116.385 331.402 -113.857 334.01 -114.469 344.937C-114.607 347.071 -115.793 355.35 -115.911 349.619C-115.496 346.873 -115.259 343.237 -115.398 337.645C-115.951 336.44 -116.464 334.978 -116.8 332.725C-116.721 312.571 -116.129 303.008 -116.622 282.261C-114.746 283.091 -114.054 276.215 -111.842 273.093C-110.637 251.713 -109.491 225.276 -109.234 206.011C-109.906 202.217 -110.202 196.566 -110.597 191.488C-109.432 185.935 -109.194 163.647 -110.004 155.487C-109.906 156.534 -110.479 158.391 -110.479 155.447C-108.622 140.411 -110.419 120.256 -109.807 97.81C-110.36 97.3951 -111.15 98.1064 -111.21 95.3006C-111.348 87.7132 -109.748 85.5001 -109.728 76.1936C-109.728 74.0399 -109.945 71.5898 -110.182 69.1001C-110.281 67.8553 -110.4 66.5907 -110.498 65.3459C-110.577 63.8442 -110.637 62.1844 -110.637 60.663C-110.637 60.2085 -109.649 65.504 -109.688 60.8803C-109.688 60.4654 -110.558 56.7705 -110.617 54.4586C-110.933 42.9391 -110.222 28.2186 -110.004 13.4784C-98.586 13.6562 -87.5626 13.5574 -77.6455 12.5892C-84.9549 12.2138 -101.529 13.3796 -100.206 11.5815C-88.8269 11.4234 -82.2484 11.8779 -75.5909 12.4114C-72.2523 12.6682 -68.8742 12.9449 -64.8046 13.182C-62.7896 13.3005 -60.498 13.3993 -58.1471 13.4784C-56.2111 13.5574 -54.0775 13.6167 -51.6674 13.6364C-48.3288 12.8263 -38.9648 10.475 -34.757 12.7473C-38.5302 12.7868 -43.0739 12.6485 -42.0466 13.676C-28.7712 14.0909 -13.5597 13.4784 -3.56355 13.34C1.395 13.261 8.05251 14.5058 8.50687 12.9053C4.23976 12.7868 -3.5833 13.34 -1.03488 11.9174C7.28204 11.8976 10.2058 12.8856 15.6582 13.3993C18.582 13.5574 30.5141 13.3796 22.9084 12.9449C20.0834 12.8658 16.0731 13.0041 15.7373 12.4509C25.121 13.2413 16.7645 10.4157 23.106 10.5738C23.9554 12.2138 43.9477 11.8581 37.2704 13.4586C53.035 14.7429 71.2888 13.1227 87.6856 14.1107C93.059 13.4388 84.7619 12.9449 90.2143 12.688C95.3704 13.1029 98.2942 13.9526 106.947 13.6957C110.128 13.6957 109.219 12.8658 111.826 12.767C121.763 12.7275 130.258 13.3796 138.2 13.34C141.005 13.3203 147.781 11.5815 147.82 13.3796C146.2 14.328 136.56 13.6562 135.671 14.7627C142.566 14.8417 147.03 15.395 145.074 17.1733C129.981 16.3237 113.585 16.5608 99.3412 17.9637C80.9096 17.1535 61.0161 16.047 36.9543 16.7979C37.2506 18.1415 28.7559 17.687 31.897 19.6234C35.3147 20.6904 50.9608 19.4061 50.9805 21.1251C40.5893 21.2437 26.4051 19.5049 15.0458 20.0384C11.1541 21.7179 23.185 20.3545 22.1182 21.4808C14.1569 22.3897 13.663 20.1174 12.6357 20.0186C8.86246 19.6629 6.15599 20.809 5.42505 19.9988C4.12122 18.1613 14.3741 19.821 17.4955 19.5642C19.1154 19.4258 20.8736 18.3984 22.4145 18.1613C25.6149 17.6673 34.1688 18.3588 29.7634 16.7584C21.4465 16.0273 21.565 17.4697 17.6535 17.6673C16.9423 17.7068 10.8972 17.1733 5.64236 17.6278C0.861603 17.608 2.67909 16.3237 -3.87963 16.6398C-12.7695 16.7781 -24.0892 16.9362 -35.9423 17.114C-41.8688 17.1733 -47.9337 17.2326 -53.8997 17.2919C-60.6758 17.2919 -67.3333 17.3116 -73.5957 17.3314C-85.2117 17.2919 -96.4919 16.9757 -106.666 16.8374C-106.804 27.3295 -106.725 36.9324 -105.895 44.6384C-106.705 42.7415 -107.002 47.9777 -107.021 53.9844C-107.021 59.9517 -106.765 66.6697 -106.449 66.9069C-106.389 66.2153 -106.33 65.6423 -106.29 65.1483C-106.231 64.5555 -106.192 64.0813 -106.132 63.7059C-106.034 62.955 -105.935 62.5994 -105.816 62.5401C-105.619 62.4216 -105.402 63.5083 -105.204 65.1088C-104.809 67.8948 -104.414 72.4789 -104.098 74.3363C-102.577 77.4384 -103.703 66.5907 -102.181 69.6929C-102.478 74.6327 -102.26 79.9478 -102.715 84.0775C-102.833 85.0852 -103.959 85.0062 -104.137 86.33C-104.947 91.9021 -103.722 99.4105 -105.145 100.675C-106.409 92.811 -105.006 83.3069 -104.117 79.1377C-104.947 76.9049 -104.69 69.3372 -106.468 71.7281C-106.093 78.545 -107.16 77.8929 -106.982 83.7021C-106.982 86.8833 -106.152 85.9743 -106.053 88.6023C-107.357 114.111 -105.797 132.211 -106.31 163.094C-106.31 166.275 -105.481 165.366 -105.382 167.994C-106.547 175.957 -106.073 176.925 -105.915 187.18C-105.658 205.477 -106.666 227.37 -105.125 232.922C-106.35 239.245 -104.888 245.608 -105.204 254.559C-102.952 253.353 -104.967 259.617 -103.327 261.929C-103.465 261.731 -101.885 256.772 -101.905 262.067C-102.557 269.457 -101.569 271.433 -102.912 276.392C-105.026 276.373 -101.905 264.142 -104.295 264.241C-104.513 277.44 -104.829 280.601 -104.394 293.069C-104.987 292.476 -105.342 289.236 -105.342 295.381C-104.651 303.403 -104.157 290.5 -102.972 293.188C-102.675 300.894 -100.818 295.005 -100.621 298.206C-101.352 303.719 -101.786 301.763 -102.991 300.38C-102.952 306.347 -102.952 312.058 -103.979 312.314C-103.821 306.031 -103.782 300.301 -105.362 302.573C-105.639 308.679 -104.631 311.386 -104.473 317.057C-104.295 323.498 -105.895 331.777 -104.058 333.931C-103.801 327.193 -104.829 313.539 -102.577 317.234C-103.051 327.766 -103.051 339.206 -102.221 350.924C-104.078 344.68 -102.004 359.618 -103.228 365.249C-102.656 371.433 -100.897 363.233 -100.858 367.857C-100.226 379.377 -102.873 373.647 -102.339 384.553C-102.181 392.694 -100.482 378.329 -100.937 389.493C-101.569 394.611 -102.814 385.64 -103.327 394.097C-103.367 391.173 -103.446 388.387 -104.256 389.197C-103.979 397.318 -104.947 411.465 -103.88 415.674C-102.379 410.161 -104.73 397.14 -102.853 396.547C-103.288 408.916 -102.695 416.247 -101.036 418.341C-101.648 435.235 -101.036 445.431 -101.668 463.965C-102.142 463.906 -102.221 461.97 -102.616 461.456C-102.3 472.975 -103.406 476.848 -103.189 487.854C-103.861 487.222 -103.979 483.823 -104.592 482.934C-104.592 487.716 -104.631 492.537 -104.651 497.338C-103.189 493.999 -102.221 497.141 -102.32 507.158L-104.69 506.941C-104.69 512.276 -104.75 520.931 -104.769 528.558C-104.809 531.561 -104.868 535.987 -104.927 539.563C-104.927 541.342 -104.868 542.922 -104.71 544.009C-104.552 545.096 -104.295 545.866 -103.88 545.59C-103.861 544.543 -103.841 543.397 -103.801 542.191C-103.801 541.026 -103.801 539.781 -103.801 538.516C-103.821 535.987 -103.861 533.3 -103.88 530.771C-103.92 525.692 -103.861 521.108 -103.307 519.093C-103.09 532.47 -101.885 521.82 -101.411 516.86C-99.2774 522.531 -100.621 522.867 -100.976 531.304C-101.154 535.532 -100.364 535.829 -101.016 540.907L-102.438 540.788C-102.616 544.345 -102.774 547.665 -102.952 550.964C-103.13 554.422 -103.327 557.919 -103.465 561.713C-103.051 565.665 -102.695 563.689 -102.359 561.713C-102.043 559.718 -101.767 557.722 -101.569 561.18C-102.043 575.051 -102.873 581.611 -104.019 589.02C-104.275 590.64 -104.789 586.096 -104.967 587.044C-105.085 587.775 -105.085 589.376 -105.046 591.154C-102.3 591.095 -99.0403 590.957 -97.9538 591.115C-96.5907 590.008 -100.403 589.672 -103.09 589.198C-102.853 587.301 -102.577 585.641 -102.142 584.752C-102.181 586.274 -102.162 587.42 -102.122 588.23C-97.5587 587.973 -96.6697 586.926 -89.301 587.36C-90.3283 588.25 -98.0328 587.657 -98.3489 588.763C-93.7657 589.83 -89.9925 588.171 -82.2879 588.348C-82.8213 588.961 -86.0809 589 -85.8834 589.771C-79.8778 589.08 -73.971 589.89 -67.0765 589.83C-65.3775 589.83 -63.5798 589.751 -61.7426 589.653C-59.9843 589.554 -58.2064 589.455 -56.4087 589.336C-53.07 589.119 -49.7512 588.921 -46.8274 588.941C-40.3872 589 -35.3101 590.72 -30.0552 589.475C-32.6432 589.356 -35.7447 588.665 -32.3666 588.526C-22.3902 588.19 -25.235 590.265 -15.6735 590.008C-11.5644 588.111 -28.1785 587.775 -20.1777 586.669C-13.8165 586.61 -17.1551 587.993 -15.5549 588.586C-14.6857 588.902 -7.35654 588.803 -10.873 590.028C2.50128 590.344 6.09674 588.665 18.0881 588.704L17.9498 590.127C32.7662 590.285 33.6947 590.206 44.2835 591.174C50.4471 590.344 38.8508 588.25 49.4001 587.874C54.6352 587.815 57.0058 588.289 56.4724 589.317C51.9683 589.751 48.5901 587.874 46.8714 589.277C52.5609 589.554 56.67 591.154 51.4151 592.142C60.1667 591.293 67.4168 592.636 73.0865 591.747C70.2813 591.648 70.5381 590.996 70.8147 590.324C80.2379 589.771 90.6489 590.838 97.3657 589C94.2246 589 94.4419 587.677 97.4842 587.578C100.546 587.617 100.764 588.19 104.655 588.072C103.233 589.04 97.3459 588.981 102.087 589.969C116.686 589.06 126.663 591.589 142.921 590.107C142.111 591.352 143.613 592.142 149.954 592.024C153.135 592.024 152.226 591.194 154.853 591.095C172.1 591.569 182.056 590.799 195.608 592.182C198.374 590.976 208.587 591.293 217.319 591.312C220.836 591.055 229.686 591.905 229.37 590.878C222.1 590.561 208.607 591.411 205.387 590.324C212.677 588.803 230.358 589.613 236.58 590.917C242.072 590.463 257.264 588.961 260.603 590.996C256.059 591.075 236.897 590.581 243.752 591.411C252.128 591.233 278.264 592.142 265.462 590.542C274.53 590.759 286.225 589.02 291.934 590.166C294.601 591.885 270.046 590.463 277.395 591.549L299.007 591.628C299.619 590.739 296.399 590.561 296.794 589.732C304.42 590.759 311.769 588.092 318.367 590.285C314.337 591.826 303.412 588.961 303.867 591.174C305.566 592.241 317.32 591.411 323.049 591.707C323.207 590.443 321.982 588.902 328.106 588.882C333.855 589.336 339.663 589.791 344.799 590.364C345.708 591.668 335.791 590.779 335.06 591.747C345.53 591.786 357.285 592.103 361.571 590.897C362.5 591.49 364.574 591.885 368.683 591.866C364.732 589.119 382.255 590.779 383.361 589.08C377.692 588.724 362.895 587.736 371.607 586.195C380.556 587.914 391.856 589.178 399.995 591.036C394.049 592.518 385.08 588.902 380.734 591.431C389.525 591.154 393.496 591.806 397.467 592.439C401.22 590.68 421.884 593.13 431.189 591.609C435.574 590.344 420.699 590.66 428.917 590.186C435.278 590.522 441.086 590.976 445.61 591.668C450.233 591.569 452.959 591.075 457.7 590.759C467.835 590.107 461.296 591.115 469.672 591.273C479.431 591.668 478.087 589.771 488.973 590.403C483.066 591.47 492.608 591.688 493.556 592.794C499.522 593.15 503.631 590.739 508.017 592.379C500.944 593.762 489.901 592.458 483.895 593.249C486.029 593.407 494.307 594.573 488.578 594.691C488.044 593.703 478.028 594.533 476.645 593.703C473.939 594.908 486.839 595.402 478.838 596.074C469.02 596.39 470.699 594.513 459.695 595.067C455.902 595.086 457.7 596.272 452.406 595.995C452.979 595.402 456.238 595.047 450.075 595.047C437.866 594.632 444.306 598.05 433.006 597.833C433.342 596.548 429.095 596.865 433.184 595.936C424.432 596.786 417.202 595.442 411.513 596.331C414.258 597.556 397.032 598.821 396.657 601.014C402.563 602.239 406.139 600.5 413.508 600.599C414.733 602.081 424.689 601.883 425.262 603.484C419.652 602.773 420.876 602.456 413.29 602.97C411.137 604.768 424.828 603.563 422.694 605.381L410.683 605.341C413.231 603.76 407.482 603.78 401.2 603.879C401.991 605.598 412.955 605.361 417.795 606.309C418.249 605.756 421.647 605.796 425.045 605.855C423.109 603.523 432.828 603.583 437.352 602.575C438.498 603.938 445.215 606.645 453.947 605.005C445.729 605.341 444.741 603.168 451.714 603.108C455.231 603.681 455.29 604.926 458.708 605.499C460.703 604.452 467.222 604.353 470.897 603.642C469.988 601.646 459.735 601.429 456.831 599.809C461.552 598.9 471.588 599.374 468.724 601.271C474.492 601.488 474.018 600.421 480.774 600.836C480.873 601.666 480.103 602.298 478.206 602.713C482.631 603.188 486.365 601.33 487.827 602.753C479.865 602.397 483.856 603.721 485.298 604.175C481.505 604.215 476.981 604.077 478.008 605.104C489.605 605.815 495.591 604.413 499.719 604.235C508.273 603.859 512.481 604.551 514.22 603.346C512.916 605.321 535.299 605.203 540.553 604.393C537.728 604.314 533.738 604.452 533.382 603.899C538.953 602.97 543.062 604.254 547.744 604.432C569.87 605.203 596.559 603.958 622.32 603.741C625.935 603.721 630.854 604.255 634.292 604.255C648.259 604.255 665.959 603.859 668.053 602.95C680.894 604.531 699.583 602.693 706.536 602.614C711.278 602.555 715.861 603.108 720.898 603.128C725.403 603.168 726.292 602.615 730.559 602.693C733.7 602.753 733.759 603.247 737.73 603.188C738.658 603.188 742.906 602.279 745.019 602.259C748.141 602.219 754.956 602.595 759.401 602.792C762.582 602.931 766.632 603.681 771.333 603.78C776.687 603.899 783.443 603.089 790.595 603.365C793.657 603.484 793.874 603.879 797.766 603.859C803.791 603.859 810.923 602.871 817.067 602.97C829.848 603.188 848.339 602.753 862.76 602.654C868.055 602.615 872.539 603.168 877.142 603.188C880.777 603.188 892.195 602.259 894.033 602.298C899.821 602.437 902.784 602.516 908.494 601.883C905.649 602.852 912.05 604.156 913.215 602.852C911.358 602.733 910.449 602.437 910.904 601.903C915.428 602.022 916.257 601.389 920.544 601.468C920.347 602.081 917.403 602.12 918.016 602.891C922.875 603.207 922.638 602.061 925.305 601.962C934.057 601.627 959.956 602.121 966.139 602.101C972.895 602.101 979.237 601.271 985.44 601.212C988.324 601.192 991.307 601.765 992.611 601.706C996.799 601.547 1001.07 600.362 1004.74 600.322C1004.21 600.322 1009.42 601.192 1011.85 601.291C1023.82 601.765 1027.91 600.461 1033.56 600.421C1036.23 600.421 1040.34 600.836 1045.54 600.935C1051.64 601.054 1058.06 600.52 1062.41 600.52C1065.53 600.52 1065.61 601.053 1069.58 601.014C1089.94 600.836 1147.02 601.212 1139.25 601.271C1152.67 601.192 1156.48 600.303 1144.19 599.868C1156.86 598.959 1171.79 599.868 1187.48 599.552C1194.81 599.394 1199.96 598.761 1206.78 598.663C1251.52 598.07 1317.21 598.465 1343.76 598.663C1344.96 598.109 1346.41 597.596 1348.7 597.26C1361.7 597.102 1372.64 597.359 1379.83 598.327C1380.27 597.773 1379.54 596.983 1382.36 596.904C1388.13 598.09 1392.81 596.588 1401.58 596.983C1407.9 596.865 1403.3 598.821 1411.07 598.445C1411.38 597.872 1411.9 597.319 1415.96 597.517C1420.75 597.536 1418.89 598.821 1425.49 598.505C1428.13 596.766 1435.52 598.07 1439.95 598.09C1455.63 598.129 1485.48 597.853 1500.02 598.307C1507.21 598.544 1513.52 597.951 1521.69 597.912C1524.78 597.912 1524.91 598.445 1528.87 598.406C1535.86 598.327 1541.55 597.536 1548.13 597.991C1552.91 598.011 1551.05 599.295 1557.65 598.979C1563.89 598.011 1571.58 597.319 1579.48 596.687C1570.86 596.311 1576.3 594.454 1579.74 593.841C1572.45 593.308 1567.61 592.083 1558.28 591.866C1553.05 591.747 1548.03 592.794 1543.88 591.806C1551.9 590.759 1558.64 590.048 1567.94 591.411C1571.58 589.633 1561.42 590.482 1563.36 589.02C1572.56 589.159 1573.87 590.463 1570.31 591.885H1575.11C1576.71 591.905 1578.31 591.905 1579.91 591.925C1577.96 590.621 1568.79 589.139 1575.51 587.637C1571.04 587.558 1567.51 587.301 1565.99 586.649C1570.53 586.61 1567.8 585.088 1573.31 585.246C1602.28 585.147 1632.38 585.78 1655 585.543C1656.5 585.444 1657.45 585.227 1658.22 584.97H1664.94C1665.97 585.424 1667.27 585.819 1669.38 586.076C1675.21 586.432 1675.49 585.641 1676.38 584.97H1683.35C1686.41 585.582 1689.55 586.155 1695.8 586.175C1697.4 585.918 1699.83 585.385 1702.39 584.97H1712.08C1712.31 585.068 1712.53 585.167 1712.71 585.286C1709.11 585.365 1703.86 585.088 1703.07 585.72C1708.74 585.72 1710.06 586.57 1717.45 586.254C1717.63 585.78 1717.53 585.246 1718.71 584.97H1723.06C1722.68 585.207 1722.43 585.483 1722.29 585.78C1727.82 586.926 1734.1 585.74 1741.51 585.859C1736.79 586.55 1745.54 587.874 1736.49 588.21C1729.34 587.558 1718.16 587.657 1707.71 587.637C1704.55 589.791 1723.95 587.637 1724.4 589.119C1722.53 589.218 1721.58 589.514 1721.91 590.068C1715.65 588.744 1713.46 590.384 1707.45 590.482C1704.01 589.356 1702.45 589.573 1705.26 588.111C1699.1 587.716 1682.09 586.965 1676.44 588.013C1681.93 587.894 1685.46 588.151 1685.96 589C1682.38 589.238 1679.83 589.672 1676.26 589.909C1677.11 588.665 1671.36 588.665 1666.78 588.447C1654.33 589.573 1641.79 588.21 1632.98 590.226C1629.28 591.075 1633.21 593.249 1625.43 594C1629.89 594.079 1633.43 594.335 1634.95 594.987C1625.94 594.75 1626.32 596.45 1620.37 596.825C1616.08 596.825 1606.5 595.501 1603.56 596.766C1611.36 598.702 1626.18 596.687 1634.87 595.936L1634.69 597.833C1646.35 597.793 1653.9 598.524 1663.44 598.88C1668.67 598.347 1674.56 597.932 1680.39 597.517C1719.66 598.663 1759.31 598.03 1793.47 596.015C1797 596.272 1799.45 596.746 1802.99 597.003C1811.68 595.857 1826.26 595.659 1836.71 596.173C1842.24 595.699 1845.36 594.731 1853.64 594.81C1853.94 595.442 1843.74 596.213 1851.07 596.707C1852.55 595.56 1860.24 595.679 1865.61 595.343L1865.49 596.766C1877.76 596.39 1894.73 595.146 1903.94 596.904C1905.16 596.351 1906.58 595.837 1908.86 595.501C1919.92 595.916 1939.48 594.691 1956.96 595.205C1957.34 595.205 1960.85 596.114 1961.68 596.173C1968.38 596.707 1975.65 595.877 1978.45 596.707C1978.38 597.339 1974.21 597.121 1973.55 597.635C1984.56 598.267 1985.29 596.805 1990.5 596.272C1989.97 597.299 1992.32 597.793 1997.58 597.714C2004.99 597.932 2006.64 596.845 2013.16 596.805C2018.62 596.766 2026.7 597.833 2032.33 597.813C2040.58 597.773 2038.57 596.924 2047.4 596.904C2047.97 597.121 2048.94 597.279 2050.44 597.359C2050.5 596.529 2050.52 595.343 2050.48 593.802C2051.03 594.81 2051.55 600.619 2051.9 595.284C2051.37 586.175 2051.09 575.96 2051 564.875C2051 559.342 2050.96 553.573 2050.94 547.625C2050.98 542.883 2050.99 537.983 2051.03 533.023C2051.23 514.173 2051.63 494.117 2051.33 476.552C2051.09 463.55 2051.47 445.965 2051.49 430.888C2050.38 428.893 2050.15 406.466 2051.53 418.875C2050.34 405.399 2052.06 392.398 2051.69 375.622C2050.42 374.694 2050.11 369.181 2049.83 363.431C2050.3 363.471 2050.4 361.534 2050.78 361.119C2051.57 361.238 2051.01 367.818 2051.71 368.41C2052.26 356.99 2051.15 353.808 2050.34 349.066C2053.05 343.712 2051.37 315.318 2051.94 298.74C2052.1 295.796 2051.92 283.881 2051.49 291.488L2051.39 291.271ZM1118.87 10.0403C1126.16 10.4552 1124.52 11.4037 1133.25 10.5738C1130.96 11.4037 1125.64 11.6013 1118.75 11.4629L1118.87 10.0403ZM1085.68 5.17956C1087.48 6.95787 1070.78 6.00944 1068.81 5.5945C1067.96 4.40895 1083.94 4.25088 1085.68 5.17956ZM1061.18 10.3169C1064.97 9.26968 1078.27 8.77571 1075.5 11.3049C1064.97 12.7275 1056.48 10.4552 1044.33 10.7121C1048.79 9.26968 1051.7 10.4947 1061.18 10.2972V10.3169ZM1010.69 10.6133C1018.13 9.92173 1033.11 8.14341 1037.12 10.7121C1029.24 9.15113 1018.57 12.1743 1010.69 10.6133ZM1032.79 5.47594C1024.75 7.64944 1012.5 5.39691 1001.56 5.35739C1009.24 4.07305 1020.39 6.10823 1032.79 5.47594ZM520.067 14.5651C509.992 14.9208 508.807 13.5969 500.924 13.5376C508.135 12.7473 520.482 12.194 520.067 14.5651ZM491.501 11.621C485.753 12.4114 481.663 12.9844 491.323 13.5179C487.076 14.8813 482.671 12.4114 474.551 12.9844C476.843 11.8384 484.33 11.7593 491.501 11.621ZM455.468 11.5025C446.637 11.621 448.356 9.7439 446.104 8.61763C450.588 9.32896 456.673 9.72414 455.468 11.5025ZM445.649 13.834C429.549 13.7747 451.675 11.621 438.715 10.969C444.681 10.0798 449.423 12.3323 445.649 13.834ZM-122.45 578.904C-122.529 586.372 -122.865 594.829 -123.082 596.904C-123.734 592.952 -123.557 587.657 -123.359 582.263C-123.161 576.849 -122.944 571.356 -123.477 566.238C-122.569 564.835 -122.371 571.435 -122.43 578.904H-122.45ZM146.082 607.001C157.421 606.547 141.993 608.582 150.724 608.918C150.29 609.471 146.319 609.293 143.455 609.372C145.252 607.89 143.375 607.436 146.082 607.001ZM48.4913 596.687C40.9054 597.872 34.9986 597.22 24.4296 597.082C29.4671 596.371 45.8837 596.39 48.4913 596.687ZM-85.508 609.53C-94.6744 609.53 -96.2944 608.68 -108.286 608.997C-106.33 607.515 -84.461 608.147 -85.508 609.53ZM-122.134 27.6654C-119.862 29.7993 -121.522 36.5372 -121.245 50.6847C-122.075 46.97 -122.272 38.4341 -122.134 27.6654ZM-122.628 180.68C-123.379 183.288 -123.636 188.386 -125.018 187.674C-124.801 183.92 -123.517 185.758 -124.031 178.131C-121.937 179.988 -120.475 171.274 -120.732 185.639C-122.035 187.279 -121.66 180.798 -122.608 180.68H-122.628ZM-120.317 332.33C-120.929 329.821 -122.055 329.821 -122.668 327.312C-122.569 322.056 -121.462 322.273 -120.277 322.727C-120.277 325.928 -120.297 329.129 -120.317 332.35V332.33ZM-111.427 232.191C-112.533 226.204 -112.316 235.708 -113.797 234.385C-114.528 222.371 -112.118 226.856 -112.316 217.688C-111.486 219.98 -111.289 225.315 -111.427 232.191ZM-55.3221 12.1545C-55.9345 12.2731 -56.6852 12.3521 -57.5149 12.4114C-57.9496 12.4311 -58.4237 12.4509 -58.8978 12.4706C-59.4707 12.4706 -60.0634 12.4706 -60.6363 12.4706C-65.2787 12.4706 -70.02 11.9767 -68.5383 11.0282C-63.6983 11.0282 -58.8583 11.048 -53.9985 11.0678C-53.4651 11.542 -54.0973 11.8976 -55.3221 12.1347V12.1545ZM-48.6251 4.94245C-48.2498 3.73715 -40.5057 4.03353 -34.1446 4.05329C-32.0308 5.77233 -43.6666 4.68558 -48.6251 4.94245ZM-10.3988 7.45185C-15.9303 6.60221 -3.95865 5.25859 4.18048 5.61426C8.13152 8.45956 -9.39133 6.87884 -10.3988 7.45185ZM42.1499 10.969C51.4941 10.8899 57.1836 11.5222 58.7838 12.9251C50.2496 12.8461 37.8236 13.4981 42.1499 10.969ZM88.5351 3.06534C85.3545 2.67016 79.7836 3.34196 81.4035 2.09714C89.5031 3.61859 97.9781 2.25522 105.287 3.59883C102.621 5.4957 94.027 3.73715 88.5351 3.06534ZM-102.754 194.511L-104.651 194.353C-104.75 187.299 -103.545 187.062 -103.643 180.008C-102.833 182.3 -102.616 187.615 -102.754 194.511ZM415.898 599.927C409.32 600.243 411.137 598.959 406.376 598.939C413.152 598.366 419.395 598.03 418.545 597.082C428.403 596.944 417.301 599.295 415.878 599.927H415.898ZM457.048 596.746C461.217 596.311 461.138 595.007 469.178 595.363C468.724 595.916 469.632 596.213 471.489 596.331C471.094 597.378 461.276 596.489 457.029 596.746H457.048ZM1647.26 590.068C1651.96 588.467 1655.61 590.917 1661.64 590.601C1658.16 591.964 1649.79 590.423 1647.26 590.068ZM1692.56 594.019C1689.81 593.782 1691.13 594.889 1690.07 594.968C1687.36 595.146 1675.11 593.861 1675.82 593.012C1684.12 593.427 1685.13 592.34 1692.68 592.597C1691.77 593.545 1693.03 594.079 1697.36 594.039C1698.96 595.6 1692.52 594.75 1692.56 594.039V594.019ZM1738.47 591.332C1732.88 591.154 1728.61 590.719 1724.15 590.324C1726.1 589.396 1739.65 590.127 1738.47 591.332ZM1127.36 22.4095C1129.77 22.4095 1132.18 22.4095 1134.57 22.4292C1133.15 23.0813 1133.01 23.9902 1131.41 24.6027H1125.25C1126.35 23.9507 1128.63 23.5357 1127.36 22.4095ZM1182.42 24.6027C1182.42 24.6027 1182.46 24.5434 1182.46 24.5039C1183.7 24.5039 1184.65 24.5434 1185.48 24.6027H1182.44H1182.42ZM1050.3 24.6027H1048.44C1050.22 24.168 1052.07 23.7531 1055.16 23.5752C1061.99 23.8519 1051.2 24.2668 1050.26 24.5039C1050.26 24.5434 1050.28 24.5632 1050.28 24.6027H1050.3ZM1634.24 24.6027H1612.71C1618.87 23.7136 1627.54 24.4842 1634.24 24.6027ZM1576.71 23.0615C1578.85 23.2196 1587.12 24.3854 1581.39 24.5039C1574.8 24.8201 1576.63 23.5357 1571.85 23.516C1571.38 23.9902 1571.81 24.3458 1572.78 24.6027H1567.43C1569.52 23.8716 1570.53 22.943 1576.71 23.0615ZM1531.04 23.3776C1531.69 23.9704 1531.08 24.3261 1530.25 24.6027H1521.52C1522.7 23.8914 1527.15 23.1998 1531.04 23.3776ZM1341.15 23.6543C1347.06 21.7574 1351.03 24.1878 1355.18 24.6225H1352.23C1348.84 24.247 1343.68 24.2075 1341.15 23.6543ZM1306.76 24.6225H1300.16C1302.31 24.4842 1304.53 24.4644 1306.76 24.6225ZM1273.79 24.3656C1279.89 24.7608 1285.01 22.5478 1288.25 23.9507C1286.65 24.0495 1285.34 24.3063 1284.45 24.6225H1268.89C1267.39 24.0495 1261.22 24.3656 1261.87 23.3776C1269.16 23.4172 1264.42 21.0066 1271.69 21.0461C1270.15 22.5873 1273.11 23.2591 1273.79 24.3656ZM1247.71 20.4731C1252.94 20.5521 1252.75 21.6784 1252.31 22.8639C1256.96 22.6861 1254.37 21.0263 1262.03 21.4808C1262.94 23.4369 1252.91 23.1603 1247.41 23.7926C1247.51 22.6861 1247.61 21.5796 1247.71 20.4731ZM1190.4 16.4817C1199.86 15.7704 1195.26 17.7266 1199.88 17.9439C1203.32 17.3511 1200.24 15.4345 1209.66 16.0866C1212.59 17.9637 1201.66 17.035 1204.6 18.9121C1213.49 19.4456 1212.45 17.9439 1216.73 17.529C1221.42 18.4774 1218.02 20.236 1216.4 21.3227C1219.32 21.382 1222.07 21.4808 1221.12 22.2909C1228.74 22.7256 1230.27 21.9155 1233.23 21.382C1239.49 22.5083 1226.71 22.6268 1233.01 23.7531C1241.05 23.4172 1244.37 23.8716 1244.63 24.6225H1226.63C1224.36 24.247 1221.59 23.9507 1218.59 23.6938C1218.69 24.0099 1218.87 24.3261 1219.08 24.6225H1211.76C1211.78 24.5039 1211.68 24.3458 1211.36 24.1483C1202.08 24.5237 1190.74 24.9386 1189.87 22.6466C1191.96 21.955 1195.99 21.6389 1201.96 21.7376C1201.32 22.4095 1197.93 22.528 1197.02 23.1405C1202.59 23.3184 1206.26 23.101 1209.09 22.7058C1210.43 21.7376 1205.18 21.7969 1204.41 21.2634C1203.87 20.9078 1205.51 20.1372 1204.54 19.8408C1202.77 19.3073 1193.62 19.6432 1197.45 18.3984C1189.04 17.529 1184.93 19.9396 1182.99 18.8331C1189.55 18.2601 1188.98 16.9955 1190.42 16.4817H1190.4ZM1175.68 19.742C1180.74 19.5642 1182 20.0976 1185.24 20.2557C1184.34 20.8682 1180.96 20.9868 1180.32 21.6586C1176.1 21.5203 1174.93 20.8287 1175.68 19.742ZM1154.07 19.6629C1153.1 21.4017 1157.53 22.1131 1163.41 22.5478C1168.29 22.2316 1163.71 20.6707 1161.22 20.1767C1159.64 19.8605 1154.78 20.1767 1156.5 19.2085C1167.86 19.5246 1172.3 21.1646 1172.94 23.5357C1170.72 23.8519 1169.28 24.3063 1167.05 24.6225H1156.99C1153.93 24.1483 1152.96 23.2789 1148.95 22.9825C1149.61 22.4687 1153.75 22.6861 1153.83 22.0538C1153.04 21.4215 1149.68 21.2832 1149.15 20.6114C1137.99 20.0581 1130.09 21.7772 1122.72 20.5126C1130.94 19.7815 1141.9 19.6037 1154.03 19.6827L1154.07 19.6629ZM1089.33 18.0032C1096.78 17.687 1120.37 17.8649 1117.9 20.9473C1108.85 20.8287 1104.37 20.5719 1108.46 19.0109C1102.47 18.596 1087.69 19.8605 1089.31 18.0032H1089.33ZM1103.6 19.9593C1097.81 21.0066 1098.78 21.6586 1108.22 21.876C1106.56 22.5083 1103 22.7454 1098.52 22.7849C1096.48 22.0933 1096.78 20.9473 1089.04 21.3227C1085.76 21.0856 1097.43 19.8605 1103.6 19.9593ZM1038.52 22.0933C1050.61 21.8364 1059.48 20.9078 1072.28 20.7892C1067.23 22.4885 1073.39 22.8837 1084.12 22.7256L1083.94 24.6027H1083.58C1073.25 24.1087 1065.55 23.1208 1057.72 22.1526C1053.42 22.5675 1051.52 23.4567 1043.24 23.0417C1049.98 25.8278 1033.64 23.2789 1031.17 24.583H1026.27C1024.38 23.7333 1040.66 23.7926 1038.54 22.0736L1038.52 22.0933ZM980.758 22.8442C986.566 22.6663 985.894 23.7333 992.73 23.3579C993.303 24.583 976.333 24.9386 980.758 22.8442ZM942.275 23.1801C942.018 24.1878 944.507 24.2075 943.717 24.6225H934.57C932.832 24.5039 930.817 24.4249 927.715 24.5632C927.676 24.583 927.656 24.6027 927.617 24.6225H924.1C923.389 24.583 922.243 24.5434 920.525 24.5434C923.073 23.1405 935.084 23.6543 942.275 23.1998V23.1801ZM899.11 22.0736C892.867 21.2634 912.8 22.2316 915.882 22.607C912.978 23.7333 899.505 22.9825 899.11 22.0736ZM894.645 18.2601C902.409 18.181 904.74 19.1295 913.828 18.7935C913.768 19.4258 913.709 20.0581 913.669 20.6904C908.316 20.9275 910.331 19.7815 906.538 19.7222C898.833 19.1097 904.562 21.2437 896.858 20.6311C902.844 19.5444 893.361 19.742 894.665 18.2601H894.645ZM887.059 22.5083C877.676 22.5873 874.692 21.4413 867.976 21.0263C873.171 19.9198 888.422 20.8287 887.059 22.5083ZM863.037 22.4292C860.37 24.3063 847.371 22.6663 841.405 22.3502C842.175 20.8485 857.11 22.1131 863.037 22.4292ZM820.05 19.4258L829.67 19.4654C827.418 20.4533 829.335 22.2909 819.832 21.7969C819.931 21.3425 822.815 21.4413 824.672 21.3425C824.732 20.394 818.173 20.7102 820.05 19.4258ZM786.446 18.8331C794.467 20.6707 802.507 19.6629 815.15 20.3545C811.16 21.2634 805.49 23.4369 798.161 22.1921C801.144 21.5203 807.821 21.5993 807.94 20.3348C799.188 20.4731 796.343 21.8364 783.838 21.2042C782.969 20.0581 788.323 20.1964 786.446 18.8331ZM728.781 18.6355C738.797 18.1217 738.066 19.6629 745.513 19.6432C749.583 19.8408 750.077 19.2875 750.393 18.7145C760.112 19.1887 761.91 19.7815 771.985 19.2678C773.664 21.382 768.508 22.0933 769.141 23.9902C762.621 23.516 764.814 21.4017 752.507 22.034C749.78 22.1131 751.124 22.5083 752.467 22.5083C751.657 23.1405 746.402 22.8837 742.807 22.9429C738.362 22.0143 744.308 22.0933 743.004 20.5719C738.915 20.4533 736.703 21.3622 735.794 20.5521C730.341 20.7892 738.639 21.3029 733.245 21.9748C728.484 21.955 730.322 20.6707 723.723 20.9868C721.787 19.4654 727.635 19.5444 728.741 18.6355H728.781ZM718.785 22.8639C728.425 23.4172 736.406 22.5675 742.688 24.3656C748.18 24.1483 755.035 23.4764 759.5 24.4249C759.421 24.5039 759.302 24.5632 759.125 24.6225H737.532C737.532 24.6225 737.71 24.4446 737.868 24.3656C737.216 24.4644 736.683 24.5434 736.189 24.6225H730.618C729.67 24.4249 728.267 24.1483 725.896 23.8321C722.894 23.4369 717.007 24.1285 718.785 22.8639ZM701.854 24.2273C693.695 24.0692 682.317 24.5237 677.852 23.674C684.746 22.6268 700.333 21.4215 701.854 24.2273ZM632.336 22.0736C648.93 21.9748 657.227 23.0615 668.429 21.7179C668.547 22.4687 667.105 23.516 670.641 23.6148C662.719 24.2075 651.874 22.7256 641.858 23.0417C637.966 23.1603 644.94 24.4644 632.158 23.9507L632.316 22.0538L632.336 22.0736ZM658.551 24.5434C659.519 24.5434 660.27 24.583 660.882 24.6225H652.229C654.6 24.4644 657.504 24.5434 658.551 24.5434ZM567.381 22.8046C570.581 22.2119 576.291 22.2316 579.392 22.8442C577.239 23.5357 575.658 24.3261 569.653 24.2273C568.428 23.8321 567.223 23.4567 567.381 22.8046ZM449.996 18.596L449.877 20.0186C442.271 20.5323 444.109 19.248 440.355 19.0307C441.165 18.3984 446.4 18.6552 449.996 18.596ZM428.324 18.9911C428.798 17.8056 436.463 18.8726 437.925 19.0307C439.071 21.382 428.996 21.6981 420.936 20.8682C423.089 20.1767 423.01 19.0504 430.675 19.4851C431.149 19.0899 429.766 19.0307 428.304 18.9911H428.324ZM387.49 18.8528C394.76 17.9242 410.189 18.6552 421.173 18.4972C418.407 20.2557 407.779 18.8133 401.911 18.9121C397.15 18.9911 386.325 21.1054 387.49 18.8528ZM382.255 23.5752C382.077 24.8793 370.817 24.662 367.794 23.9902C368.189 22.9429 377.988 23.8321 382.255 23.5752ZM361.71 11.6408C363.863 11.2851 367.182 11.1468 371.35 11.2061C371.074 11.8779 370.817 12.5497 373.622 12.6287C371.785 13.676 359.912 12.8066 361.71 11.6408ZM354.973 6.40462C366.708 6.62197 369.967 7.74823 381.346 6.97763C384.883 8.99306 368.92 7.01715 369.217 8.36076C372.911 9.54631 386.009 8.61763 390.849 8.4398C396.104 8.8745 402.84 11.4037 409.932 9.94149C400.43 9.56607 397.526 7.94582 386.068 7.96558C387.056 6.22679 395.57 7.55064 400.529 7.55064C408.213 7.55064 415.345 7.01715 422.161 7.62968C423.998 7.80751 417.103 8.18293 417.321 8.08414C416.274 8.59787 424.571 8.59787 426.882 8.59787C434.014 8.20269 421.37 7.86679 424.65 6.701C427.85 6.701 431.07 6.72076 434.27 6.74052C431.781 8.16317 429.114 9.54631 426.665 10.9887C428.62 12.3719 430.201 11.542 436.246 11.5025C439.545 13.3005 429.549 12.3916 431.228 13.8538C426.25 13.5772 426.21 13.1029 428.956 12.4311C426.843 11.5815 420.62 11.542 417.083 10.969C417.518 10.4157 421.509 10.5935 424.334 10.5343C422.437 9.13137 416.59 10.7911 412.342 10.4947C409.379 11.127 416.728 11.621 417.064 11.4629C414.14 12.8263 397.802 12.688 392.765 14.2292C388.518 13.3203 402.149 11.9767 409.814 11.9174C404.025 11.7593 401.516 10.2379 395.57 9.96125C384.685 9.46727 370.165 10.4947 359.497 10.3169C358.272 9.26968 364.159 9.66486 364.416 8.91402C364.199 8.5386 356.613 7.45185 357.265 8.42004C354.005 8.26197 355.368 7.2345 355.033 6.52317L354.973 6.40462ZM358.786 17.3314C356.969 18.7738 357.028 18.2403 358.569 19.7025C351.002 19.4456 349.995 20.5323 341.698 20.1174C340.73 19.3666 334.171 19.6827 337.075 18.2008C330.694 18.2008 323.365 17.9637 320.204 18.6157C321.231 19.0504 322.239 19.4654 324.926 19.5839C316.648 21.1251 309.398 18.5169 308.331 17.1535C325.143 17.2128 341.974 17.2721 358.786 17.3314ZM279.37 18.4774C283.519 17.3907 291.737 17.1535 301.121 17.1338C295.293 18.3786 302.78 19.9198 312.914 19.5444C311.611 21.6784 296.399 18.4576 286.443 19.9198L286.561 18.4972C279.765 18.5169 270.5 20.5126 267.339 18.4379C264.06 18.5762 265.245 19.6234 264.751 20.3348C263.151 20.3348 261.551 20.3348 259.951 20.3348C259.951 19.8803 257.047 19.9593 255.19 19.8408C255.526 18.9516 263.151 19.5444 262.519 18.4379C256.494 18.8133 249.599 19.0109 240.848 18.8331C245.47 15.6123 266.727 18.8528 279.331 18.4972L279.37 18.4774ZM191.835 3.46052C199.322 4.03353 198.196 3.34196 203.787 3.97425C200.567 5.45618 198.809 4.1916 191.697 4.88317L191.835 3.46052ZM190.827 14.3675C184.901 14.407 179.251 14.407 176.465 13.834C176.564 13.1029 194.364 12.8658 190.827 14.3675ZM202.562 17.2523C211.393 17.4499 215.758 18.4774 224.056 18.754C214.534 17.6278 225.083 17.7858 233.755 17.8451C232.945 19.1295 230.456 20.0779 226.288 20.6707C217.615 20.2952 212.854 19.1887 207.284 18.2403C200.507 18.675 210.662 19.5246 204.715 20.1372C196.26 20.3348 189.01 20.7892 178.243 20.5126C171.349 19.7222 189.642 17.9834 173.66 18.1217C181.068 16.7584 196.833 19.4258 202.562 17.2721V17.2523ZM159.239 18.0427C166.015 17.9834 164.691 19.4851 171.112 19.5049C169.591 19.9198 168.148 20.3348 171.033 20.4533C165.64 21.8167 154.458 18.6948 159.239 18.0427ZM142.19 20.3545C137.311 21.6981 127.216 20.1372 120.578 20.2755C125.734 18.9121 131.937 17.7661 142.447 17.5092C140.551 17.8254 136.856 20.1372 142.19 20.3545ZM82.2134 19.1887C95.1333 19.9396 113.387 17.9242 128.045 17.4499C123.956 18.0625 122.751 19.2678 113.506 18.8133C111.57 20.2755 120.025 19.742 118.089 21.2042C111.826 21.461 109.456 20.9868 111.016 19.7617C106.018 19.5444 104.636 20.0581 101.356 20.1964C95.3704 19.7815 80.5738 21.0461 82.2134 19.1887ZM-30.7269 19.2678C-38.0956 18.9121 -35.3299 18.9121 -42.7381 19.2282C-42.3035 18.675 -43.1924 18.3786 -45.0692 18.2798C-46.4916 17.9834 -28.3958 17.8649 -30.7269 19.2875V19.2678ZM-84.7178 18.1415C-85.0537 18.9714 -88.9257 19.2085 -95.2473 19.0504L-96.2351 17.6278C-90.4666 17.4499 -88.5701 17.9834 -84.7376 18.1415H-84.7178ZM-102.3 21.2832C-102.735 26.7762 -103.999 26.8355 -105.046 28.4755L-105.006 18.5564H-103.9C-99.5935 18.8331 -102.754 19.6037 -103.07 19.5049C-100.087 20.4731 -94.7337 19.7025 -96.1758 21.4215C-98.6057 21.461 -100.621 21.4017 -102.28 21.2832H-102.3ZM171.724 589.139C172.949 589.534 174.154 589.909 173.996 590.561C168.86 591.214 165.047 589.949 159.673 589.554C151.692 588.981 141.795 589.89 157.342 588.605C158.765 589.257 166.588 588.704 166.884 589.593C170.144 589.455 168.978 588.408 169.452 587.696C175.596 588.388 188.556 587.795 190.946 589.198C186.323 590.245 180.1 587.696 171.724 589.139ZM202.858 590.186C198.552 590.226 197.841 589.593 193.297 589.672C196.458 588.862 198.433 587.815 205.486 587.815C206.375 588.961 201.001 588.823 202.858 590.166V590.186ZM347.19 588.803C346.281 587.499 356.198 588.388 356.929 587.42C356.672 586.629 346.854 587.874 340.117 587.36C340.552 586.807 339.663 586.511 337.806 586.412C344.049 586.254 352.899 586.254 361.907 585.543C365.009 586.55 360.584 586.946 364.041 588.388C356.001 588.645 355.704 589.751 347.19 588.803ZM469.889 587.341C465.622 586.511 470.798 585.483 477.278 585.464C477.831 586.708 476.211 587.499 469.889 587.341ZM493.595 590.739C494.702 590.166 496.756 589.771 500.905 589.811C498.179 589.099 498.218 588.605 501.083 587.914C510.367 588.013 510.387 589.87 517.677 590.344C512.837 592.024 505.784 589.633 493.595 590.739ZM580.301 588.684C572.932 588.309 577.219 590.305 568.191 589.593C566.097 587.222 583.442 588.862 587.59 587.775C592.766 587.894 585.733 588.467 585.141 588.25C588.361 589.494 598.1 588.388 606.713 588.803C604.185 590.976 585.003 589.139 580.281 588.704L580.301 588.684ZM639.922 593.644C644.446 593.881 654.442 593.051 651.854 594.632C645.967 594.928 639.408 595.541 639.922 593.644ZM646.915 596.035C649.029 595.126 657.563 594.79 661.376 595.6C659.262 596.509 650.728 596.845 646.915 596.035ZM663.292 600.836C664.932 600.204 668.508 599.967 672.992 599.927C673.466 599.532 672.083 599.473 670.641 599.453C673.921 598.406 680.894 600.56 682.475 601.389C679.037 600.639 670.207 600.935 663.292 600.856V600.836ZM736.288 591.134C732.633 591.885 722.518 591.786 724.356 590.146C728.01 589.415 738.125 589.494 736.288 591.134ZM860.311 601.528C855.747 602.437 851.5 601.646 845.889 601.468C844.546 600.382 862.681 599.809 860.311 601.528ZM884.412 600.658C879.71 600.421 880.402 597.319 889.43 598.307C892.749 600.105 882.753 599.196 884.412 600.658ZM889.509 597.359C881.943 597.556 883.286 596.054 877.636 595.896C882.16 593.585 902.211 596.153 889.509 597.359ZM1097.25 585.76C1091.25 585.661 1089.67 586.452 1087.52 587.143C1071.16 586.471 1053.87 586.491 1039.47 586.965C1036.31 587.064 1031.51 587.084 1029.77 587.874C1023.17 588.19 1025.01 586.906 1020.25 586.886C1008.4 587.321 1015.63 588.783 1005.61 589.218C1007.64 590.067 1013.1 590.621 1007.8 591.589C1005 591.51 1005.85 590.72 1005.53 590.166C1000.87 589.692 995.733 590.72 991.07 590.601C990.734 590.601 991.525 589.712 991.169 589.653C989.766 589.435 976.392 589.791 974.357 589.593C973.488 589.514 971.552 588.171 969.675 588.151C963.235 589.83 954.76 588.408 943.203 588.526C943.48 589.396 951.303 588.842 952.725 589.514C949.742 592.063 938.996 588.566 935.874 589.929C933.148 589.83 934.59 589.455 935.914 589.455C934.472 587.025 918.608 590.107 914.203 590.324C909.876 590.522 906.123 590.285 902.231 589.811C904.562 588.23 906.716 589.593 914.282 589.376C916.83 587.953 909.007 588.526 904.76 588.388C903.298 589.87 888.541 588.605 890.121 590.7C884.313 590.621 883.306 589.356 878.248 589.238C877.715 589.238 866.218 590.601 868.667 588.724C860.172 588.941 857.802 590.068 849.406 589.139C850.255 590.403 794.111 591.115 806.241 588.032C814.696 588.329 807.959 589.06 818.212 588.546C824.139 588.25 831.112 588.111 835.103 587.657C832.081 586.274 823.862 587.321 813.57 586.629C816.909 584.654 821.452 586.649 827.991 586.669C830.757 586.234 831.547 585.385 833.483 584.772H837.335C837.237 585.068 835.538 585.385 835.281 585.76C838.995 586.945 853.337 586.906 868.786 587.301C873.092 586.886 872.026 585.385 880.935 585.918C879.039 586.333 878.248 586.985 878.367 587.815C882.219 586.55 889.943 586.689 900.078 586.946C906.399 587.104 912.049 585.938 907.249 587.44C911.318 587.637 911.812 587.084 912.148 586.511C922.302 585.938 932.121 587.815 933.82 586.116C934.669 584.891 921.117 586.412 924.12 584.792H931.094C936.309 584.989 939.667 585.325 945.396 584.792H945.91C944.942 585.701 939.371 585.661 938.6 586.61C943.282 585.8 958.237 587.104 955.61 584.792H955.748C962.504 585.641 972.678 585.74 982.022 584.871C990.596 586.175 1007.63 585.068 1025.23 585.503C1026.25 585.207 1027.74 584.989 1029.34 584.792H1039.53C1039.53 584.792 1039.53 584.97 1039.67 585.068C1042.73 584.989 1045.56 584.891 1048.28 584.792H1162.35C1162.35 584.792 1162.29 584.95 1162.23 585.029C1135.14 585.147 1123.05 585.365 1097.27 585.74L1097.25 585.76ZM1544.12 587.36C1547 587.044 1561.88 585.464 1560.95 587.42C1556.31 588.348 1549.57 587.617 1544.12 587.36ZM1176.63 585.108C1174.12 585.088 1172.13 584.97 1170.55 584.812H1176.67C1176.67 584.812 1176.67 585.009 1176.63 585.108ZM2042.78 175.127L2040.88 174.949C2040.54 165.663 2043.19 165.9 2042.78 175.127ZM2043.49 240.095C2043.49 232.784 2043.27 224.248 2044.95 225.809C2044.91 232.962 2044.95 240.451 2043.49 240.095ZM2048.11 538.575C2047.91 531.008 2049.41 532.332 2049.57 526.7C2050.56 528.913 2049.38 540.097 2048.11 538.575ZM2050.24 339.266C2049.1 340.115 2050.54 328.339 2048.84 331.935C2048.68 327.825 2049.24 327.43 2049.81 327.213C2050.46 321.265 2047.95 319.526 2049.38 317.57C2051.29 316.8 2049.85 332.587 2050.24 339.285V339.266Z"
        fill="#B52A2D" />
</svg>