<svg xmlns="http://www.w3.org/2000/svg" width="241" height="60" viewBox="0 0 241 60" fill="none">
    <path d="M240.987 4.43121V4.18989H239.373C239.778 4.11958 240.172 4.04928 240.401 3.97897C240.41 3.96947 240.428 3.94857 240.443 3.92957C239.272 3.92767 237.912 3.92387 236.741 3.92197C235.834 3.84216 234.926 3.76045 234.01 3.68064C232.52 3.59894 231.224 3.51723 229.534 3.43552C228.891 3.2664 228.061 3.08779 227.223 2.91867C226.591 2.74006 221.631 2.83886 218.932 2.80276C217.83 2.72675 216.529 2.63555 215.422 2.55954C215.699 2.46263 216.157 2.37332 216.437 2.27641C214.082 2.28781 211.54 2.29921 208.996 2.31062C206.969 2.40562 206.117 2.49113 205.061 2.58804C197.983 2.41513 203.082 2.85977 196.427 2.89587C195.943 2.76666 192.591 2.80846 190.85 2.79516C190.811 2.84457 190.778 2.88447 190.617 3.08019C180.19 3.1866 187.688 2.61084 181.688 2.53864C175.907 2.45693 181.046 2.85217 176.754 2.85407C169.789 2.30682 155.834 2.67165 145.166 2.60134C144.889 2.70015 145.188 2.80846 143.958 2.88447C140.796 2.93957 137.62 2.99658 134.455 3.05168C132.875 2.84076 127.564 2.89017 125.111 3.03268C121.209 3.02508 118.77 2.91107 118.722 2.73435C113.066 2.73245 107.322 3.08399 101.738 2.98518C100.818 2.92057 99.9005 2.85597 98.9717 2.79136C100.796 2.70585 102.5 2.76856 103.684 2.75146C106.745 2.58994 103.593 2.38662 99.2468 2.45693C98.5756 2.55384 97.9175 2.65075 97.2551 2.73816C90.7826 2.78376 91.6585 2.43033 89.1892 2.34672C83.6938 2.1472 78.9489 2.46263 75.0139 2.50443C74.5782 2.32582 72.8418 2.30301 70.6145 2.1605C67.8856 1.91918 58.8315 2.01799 53.8996 1.84887C47.3192 2.25931 46.4983 1.59615 38.0935 1.85457C35.9697 1.82987 31.9489 1.73296 33.6457 1.56955C35.8795 1.46504 36.6344 1.25032 41.2758 1.29972C39.9707 0.991893 46.2606 1.17241 48.1313 1.028C48.9786 0.950089 50.013 0.874081 51.0539 0.798074C52.6539 0.75437 54.2473 0.712566 55.8384 0.670763C57.9622 0.457943 66.0303 0.376235 62.0293 0.0133012C59.8835 0.00950089 57.5507 0.00380035 55.4137 0C54.3397 0.115911 53.4726 0.222321 52.414 0.328731C51.723 0.456043 51.0407 0.571953 50.156 0.699265C48.8201 0.666962 47.0947 0.634659 44.621 0.549151C44.4318 0.549151 44.0378 0.549151 43.8397 0.549151C43.7803 0.627059 43.7121 0.706866 43.6505 0.784773C34.5546 0.932987 24.4024 0.942488 19.7829 1.34533C17.2564 1.33582 14.5802 1.32632 12.199 1.34533C11.0084 1.35483 9.89035 1.37193 8.9022 1.39853C8.3454 1.41563 7.82601 1.43273 7.35064 1.44603C6.65079 1.46504 6.02356 1.48594 5.47557 1.51254C4.39058 1.58665 2.34604 1.63035 0 1.66266C0.0220079 3.10679 0.0462166 4.68964 0.0704253 6.21358C0.08363 6.96225 0.0968348 7.69762 0.107839 8.39498C0.125445 8.83392 0.140851 9.25006 0.154055 9.6263C0.226681 11.1293 0.341122 11.9996 0.561201 11.2643C0.422552 15.7316 0.80769 13.0998 0.930934 14.0195C0.884718 9.94743 1.19723 13.0029 1.17302 9.28047C1.36889 8.39308 1.41951 10.9488 1.54275 11.8609C1.50094 14.3653 1.61538 18.4773 1.41951 19.0322C1.47013 21.2535 1.15982 25.9507 1.50534 24.8068C2.13257 20.8202 1.63079 32.6336 2.08855 32.4151C2.14577 36.4853 2.13917 38.6743 2.27782 42.2922C2.36145 43.3582 2.45828 44.5915 2.54191 45.6537C2.49129 47.3087 2.46268 49.1443 2.69597 51.4758C2.71798 49.4673 2.73778 47.6279 2.75759 45.7886C2.83462 44.9734 2.88744 44.6599 2.92705 44.6789V58.0675H10.7399C10.3151 58.0922 9.7429 58.1112 9.07606 58.1283C8.19574 58.1473 7.15257 58.1701 6.06978 58.1948C4.96278 58.2195 3.79416 58.2537 2.65415 58.3031C2.62994 57.9155 2.59913 57.5412 2.56612 57.1877C2.38346 56.669 2.26681 57.3797 2.17878 58.7136C2.93145 58.7573 3.913 58.7915 4.94958 58.8257C5.47336 58.8428 6.00376 58.8599 6.52314 58.877C7.03593 58.896 7.53551 58.9131 8.00427 58.9302C9.61305 59.0043 10.7597 59.0936 10.2975 59.2456C9.87274 59.2665 9.34015 59.2779 8.74374 59.2855C8.44663 59.2855 8.13192 59.2893 7.8084 59.2912C7.39245 59.2912 6.9655 59.2912 6.53194 59.2912C4.78672 59.2874 2.97327 59.276 1.52515 59.2836C1.51414 57.9022 1.47453 56.9426 1.36229 56.9806C1.37109 56.2662 1.3821 55.5441 1.3909 54.8258C1.3909 54.2064 1.3909 53.5907 1.3909 52.9864C1.3821 51.928 1.35569 50.9133 1.31827 50.0051C1.24125 48.1904 1.1114 46.8052 0.957344 46.3776C0.939737 48.2208 0.884718 50.0393 0.849505 51.89C0.842903 52.3537 0.8363 52.8173 0.827497 53.2848C0.825296 53.87 0.823096 54.461 0.820895 55.0557C0.820895 56.4182 0.8363 57.8015 0.869312 59.1829C0.86271 59.4128 0.856107 59.6428 0.847304 59.8708C2.75979 59.9145 4.67448 59.9563 6.57376 60C6.93249 59.9981 7.27361 59.9943 7.60593 59.9924C7.85242 59.9886 8.09451 59.9848 8.33439 59.981C8.77895 59.9734 9.22571 59.9639 9.72089 59.9563C12.3002 59.8974 14.8817 59.8385 17.2762 59.7853C18.0531 59.7853 18.6385 59.7891 19.2239 59.7891C19.6134 59.7891 19.8049 59.7891 20.1945 59.791C24.9085 59.7549 30.3951 59.7131 34.3345 59.6827C35.4261 59.5383 38.461 59.6409 40.1688 59.4585C39.7309 59.2798 31.6187 59.4204 35.8817 58.9758C38.5094 58.8637 42.779 58.8922 46.0911 58.8979C47.1739 58.5255 56.6439 58.8713 60.3479 58.6414C65.4559 58.5882 70.5705 58.5369 75.4915 58.4856C76.2398 58.5274 76.8054 58.5578 77.3578 58.5882C77.9454 58.8257 72.5182 59.0214 77.8375 59.2C79.9745 59.2038 82.1181 59.2095 84.2638 59.2133C86.9158 59.0708 86.3942 58.991 89.2442 58.8485C92.4068 58.7934 95.5781 58.7364 98.7429 58.6813C99.4141 58.8105 101.335 58.8542 100.462 58.9606C102.174 59.01 104.084 59.0651 105.994 59.1202C109.696 59.1278 113.389 59.1354 117.091 59.143C119.237 58.9017 113.319 58.9872 111.631 58.896C111.505 58.8162 111.18 58.7383 111.047 58.6585C115.669 58.7364 119.366 58.744 123.084 58.7326C120.198 59.1601 131.715 58.9074 135.941 58.9967C137.356 58.9264 138.571 58.8675 139.796 58.8067C141.993 58.9891 147.922 58.8922 150.037 58.9264C151.579 58.9454 153.129 58.9663 154.672 58.9853C156.619 58.9891 158.371 58.9929 160.321 58.9967C162.867 58.9853 165.407 58.9739 167.76 58.9625C169.518 58.9568 171.431 59.01 174.459 58.877C175.986 58.9131 177.516 58.9492 179.054 58.9853C180.011 59.0043 180.978 59.0252 181.741 59.0404C182.732 59.0252 183.715 59.0119 184.704 58.9967C186.24 59.0328 187.769 59.0689 189.294 59.105C189.264 59.1449 189.228 59.1943 189.182 59.2437C190.925 59.4946 196.064 59.1791 199.425 59.3634C200.098 59.2532 200.78 59.143 201.454 59.0328C204.588 59.01 208.782 59.1278 210.948 58.8656C211.729 58.8656 212.31 58.8675 212.896 58.8694C214.982 58.9435 219.078 58.9511 221.393 58.7402C222.612 58.6832 224.021 58.6281 225.242 58.5616C227.449 58.4875 229.837 58.4324 230.11 58.3354C230.568 58.2575 231.019 58.1796 231.279 58.1017C231.499 58.0922 231.721 58.0808 231.95 58.0713H240.984V4.45402C241.006 4.44641 241.004 4.43881 240.984 4.43121H240.987Z" fill="#F2F2F2"/>
  </svg>