<svg xmlns="http://www.w3.org/2000/svg" width="16" height="18" viewBox="0 0 16 18" fill="none">
    <path d="M8.49294 4.5L7.50706 4.5C7.23492 4.5 7.00257 4.58095 6.81001 4.74287C6.61746 4.90478 6.52118 5.11526 6.52118 5.37432L6.52118 10.6352L4.25674 8.44565C4.07189 8.25634 3.84082 8.16168 3.56354 8.16168C3.28627 8.16168 3.0552 8.25634 2.87035 8.44565L2.28498 9.00611C2.09499 9.19044 2 9.41463 2 9.67867C2 9.93773 2.09499 10.1644 2.28498 10.3587L7.3068 15.2235C7.49679 15.4078 7.72786 15.5 8 15.5C8.26701 15.5 8.50064 15.4078 8.7009 15.2235L13.7073 10.3587C13.9024 10.1694 14 9.94271 14 9.67867C14 9.41961 13.9024 9.19543 13.7073 9.00611L13.1374 8.44565C12.9422 8.25634 12.7086 8.16168 12.4365 8.16168C12.1643 8.16168 11.9307 8.25634 11.7356 8.44565L9.47882 10.6352L9.47882 5.37432C9.47882 5.11526 9.38254 4.90478 9.18999 4.74287C8.99743 4.58095 8.76508 4.5 8.49294 4.5Z" fill="#F2F2F2"/>
  </svg>