<svg width="24" height="24" viewBox="0 0 24 24" fill="none" xmlns="http://www.w3.org/2000/svg">
    <path d="M23.9987 1.77249V1.67596H23.838C23.8783 1.64783 23.9176 1.61971 23.9404 1.59159C23.9412 1.58779 23.943 1.57943 23.9445 1.57183C23.8279 1.57107 23.6925 1.56955 23.5759 1.56879C23.4856 1.53686 23.3951 1.50418 23.3039 1.47226C23.1555 1.43957 23.0264 1.40689 22.8581 1.37421C22.7941 1.30656 22.7115 1.23512 22.628 1.16747C22.5651 1.09602 22.0711 1.13555 21.8024 1.1211C21.6926 1.0907 21.5631 1.05422 21.4528 1.02382C21.4804 0.985052 21.526 0.949329 21.5539 0.910565C21.3194 0.915125 21.0662 0.919686 20.8129 0.924246C20.611 0.96225 20.5262 0.996453 20.421 1.03522C19.7162 0.96605 20.224 1.14391 19.5612 1.15835C19.513 1.10666 19.1792 1.12338 19.0058 1.11806C19.0019 1.13783 18.9986 1.15379 18.9826 1.23207C17.9442 1.27464 18.6909 1.04434 18.0935 1.01545C17.5177 0.982772 18.0295 1.14087 17.6021 1.14163C16.9084 0.922726 15.5187 1.06866 14.4564 1.04054C14.4288 1.08006 14.4586 1.12338 14.3361 1.15379C14.0211 1.17583 13.7049 1.19863 13.3897 1.22067C13.2324 1.13631 12.7035 1.15607 12.4591 1.21307C12.0706 1.21003 11.8277 1.16443 11.8229 1.09374C11.2596 1.09298 10.6876 1.2336 10.1316 1.19407C10.04 1.16823 9.94859 1.14239 9.85611 1.11654C10.0378 1.08234 10.2074 1.10742 10.3253 1.10058C10.6302 1.03598 10.3164 0.954649 9.8835 0.982772C9.81666 1.02154 9.75113 1.0603 9.68516 1.09526C9.04059 1.1135 9.12782 0.972131 8.88191 0.938688C8.33466 0.85888 7.86214 0.985052 7.47027 1.00177C7.42687 0.930327 7.25395 0.921206 7.03215 0.864201C6.76039 0.767672 5.85874 0.807195 5.36759 0.739549C4.71228 0.903724 4.63054 0.63846 3.79354 0.741829C3.58205 0.731948 3.18163 0.693185 3.35061 0.627819C3.57306 0.586015 3.64823 0.500127 4.11046 0.519889C3.98049 0.396757 4.60687 0.468964 4.79316 0.411198C4.87753 0.380035 4.98054 0.349633 5.08421 0.31923C5.24354 0.301748 5.40222 0.285027 5.56068 0.268305C5.77217 0.183177 6.57563 0.150494 6.17719 0.0053205C5.9635 0.00380036 5.73119 0.00152014 5.51838 0C5.41142 0.0463643 5.32507 0.0889283 5.21965 0.131492C5.15084 0.182417 5.08289 0.228781 4.99479 0.279706C4.86175 0.266785 4.68993 0.253864 4.44359 0.219661C4.42474 0.219661 4.38551 0.219661 4.36578 0.219661C4.35987 0.250823 4.35307 0.282746 4.34693 0.313909C3.44112 0.373195 2.43011 0.376995 1.97008 0.53813C1.71848 0.53433 1.45197 0.530529 1.21484 0.53813C1.09627 0.541931 0.984931 0.548771 0.886526 0.559412C0.831077 0.566253 0.779354 0.573093 0.732014 0.578414C0.662319 0.586015 0.599857 0.594375 0.545285 0.605016C0.437236 0.634659 0.233631 0.652141 0 0.665062C0.00219166 1.24272 0.00460248 1.87585 0.00701331 2.48543C0.0083283 2.7849 0.0096433 3.07905 0.0107391 3.35799C0.0124925 3.53357 0.0140266 3.70003 0.0153416 3.85052C0.0225741 4.45174 0.0339707 4.79985 0.0558873 4.5057C0.0420798 6.29263 0.0804339 5.23993 0.0927071 5.6078C0.0881047 3.97897 0.119226 5.20117 0.116815 3.71219C0.136321 3.35723 0.141362 4.37953 0.153635 4.74436C0.149471 5.74614 0.160868 7.39093 0.141362 7.61287C0.146403 8.50139 0.1155 10.3803 0.149909 9.92273C0.212372 8.3281 0.162402 13.0535 0.207988 12.966C0.213687 14.5941 0.213029 15.4697 0.226837 16.9169C0.235165 17.3433 0.244808 17.8366 0.253137 18.2615C0.248096 18.9235 0.245247 19.6577 0.268478 20.5903C0.27067 19.7869 0.272642 19.0512 0.274615 18.3154C0.282286 17.9894 0.287546 17.8639 0.291491 17.8715V23.227H1.06953C1.02723 23.2369 0.970247 23.2445 0.90384 23.2513C0.816174 23.2589 0.712289 23.2681 0.604459 23.2779C0.494219 23.2878 0.377842 23.3015 0.264314 23.3213C0.261903 23.1662 0.258835 23.0165 0.255547 22.8751C0.237357 22.6676 0.225741 22.9519 0.216974 23.4854C0.291929 23.5029 0.389677 23.5166 0.492904 23.5303C0.545065 23.5371 0.597884 23.544 0.649607 23.5508C0.700673 23.5584 0.750424 23.5652 0.797106 23.5721C0.957316 23.6017 1.0715 23.6374 1.02548 23.6983C0.983178 23.7066 0.93014 23.7112 0.870746 23.7142C0.841158 23.7142 0.809818 23.7157 0.7776 23.7165C0.736178 23.7165 0.69366 23.7165 0.650484 23.7165C0.476686 23.715 0.296093 23.7104 0.151882 23.7135C0.150786 23.1609 0.146841 22.777 0.135664 22.7922C0.13654 22.5065 0.137636 22.2176 0.138513 21.9303C0.138513 21.6825 0.138513 21.4363 0.138513 21.1946C0.137636 20.7712 0.135006 20.3653 0.13128 20.002C0.12361 19.2762 0.110679 18.7221 0.0953371 18.5511C0.0935838 19.2883 0.0881047 20.0157 0.084598 20.756C0.0839405 20.9415 0.083283 21.1269 0.0824063 21.3139C0.0821872 21.548 0.081968 21.7844 0.0817489 22.0223C0.0817489 22.5673 0.083283 23.1206 0.0865705 23.6732C0.085913 23.7651 0.0852555 23.8571 0.0843788 23.9483C0.274834 23.9658 0.465508 23.9825 0.654648 24C0.690372 23.9992 0.724343 23.9977 0.757437 23.997C0.781984 23.9954 0.806092 23.9939 0.829981 23.9924C0.874252 23.9894 0.918743 23.9856 0.968055 23.9825C1.22492 23.959 1.482 23.9354 1.72045 23.9141C1.79782 23.9141 1.85612 23.9156 1.91441 23.9156C1.95321 23.9156 1.97227 23.9156 2.01107 23.9164C2.48052 23.902 3.0269 23.8852 3.41921 23.8731C3.52791 23.8153 3.83014 23.8563 4.00021 23.7834C3.9566 23.7119 3.14876 23.7682 3.57328 23.5903C3.83496 23.5455 4.26014 23.5569 4.58999 23.5592C4.69782 23.4102 5.64089 23.5485 6.00975 23.4565C6.51843 23.4353 7.02777 23.4147 7.51783 23.3942C7.59234 23.4109 7.64867 23.4231 7.70368 23.4353C7.7622 23.5303 7.22173 23.6086 7.75146 23.68C7.96427 23.6815 8.17773 23.6838 8.39142 23.6853C8.65552 23.6283 8.60357 23.5964 8.88739 23.5394C9.20233 23.5174 9.51815 23.4946 9.83331 23.4725C9.90016 23.5242 10.0915 23.5417 10.0045 23.5842C10.175 23.604 10.3652 23.626 10.5555 23.6481C10.9241 23.6511 11.2919 23.6542 11.6605 23.6572C11.8742 23.5607 11.2848 23.5949 11.1167 23.5584C11.1043 23.5265 11.0718 23.4953 11.0587 23.4634C11.5189 23.4946 11.8871 23.4976 12.2573 23.493C11.97 23.664 13.1169 23.563 13.5377 23.5987C13.6786 23.5706 13.7996 23.547 13.9216 23.5227C14.1404 23.5956 14.7308 23.5569 14.9414 23.5706C15.095 23.5782 15.2493 23.5865 15.403 23.5941C15.5969 23.5956 15.7714 23.5972 15.9656 23.5987C16.2191 23.5941 16.4721 23.5896 16.7064 23.585C16.8815 23.5827 17.0719 23.604 17.3735 23.5508C17.5256 23.5652 17.6779 23.5797 17.8311 23.5941C17.9264 23.6017 18.0227 23.6101 18.0987 23.6162C18.1973 23.6101 18.2953 23.6048 18.3937 23.5987C18.5467 23.6131 18.699 23.6276 18.8509 23.642C18.8478 23.658 18.8443 23.6777 18.8397 23.6975C19.0133 23.7978 19.525 23.6716 19.8597 23.7454C19.9268 23.7013 19.9947 23.6572 20.0618 23.6131C20.3739 23.604 20.7916 23.6511 21.0073 23.5462C21.0851 23.5462 21.1429 23.547 21.2012 23.5478C21.409 23.5774 21.8169 23.5804 22.0474 23.4961C22.1688 23.4733 22.3091 23.4512 22.4307 23.4246C22.6506 23.395 22.8884 23.3729 22.9155 23.3342C22.9611 23.303 23.0061 23.2719 23.0319 23.2407C23.0538 23.2369 23.076 23.2323 23.0988 23.2285H23.9984V1.78161C24.0006 1.77857 24.0004 1.77553 23.9984 1.77249H23.9987Z" fill="#B52A2D" />
    <path d="M9.94973 11.488C9.84173 11.224 9.76973 11.104 9.74573 11.104V11.128C9.74573 11.2 9.81773 11.452 9.94973 11.884C10.0937 12.328 10.2617 12.892 10.3337 13.156C10.3937 13.408 10.4657 13.6 10.4897 13.6L10.5017 13.588V13.564C10.5017 13.336 10.1417 11.944 9.94973 11.488ZM12.5897 12.592V12.604C12.6857 12.604 13.1777 10.9 13.1777 10.708V10.696L13.1657 10.684C13.0577 10.684 12.5777 12.412 12.5777 12.58C12.5777 12.592 12.5897 12.592 12.5897 12.592ZM13.1897 8.26C13.4777 7.732 13.5617 7.588 13.6457 7.588C13.7417 7.588 13.8497 7.78 14.2937 7.78C14.5217 7.78 14.7617 7.84 14.7977 7.9C14.8217 7.936 14.8937 7.96 14.9657 7.96C15.0017 7.96 15.0377 7.96 15.0737 7.948C15.1097 7.936 15.1577 7.924 15.1817 7.924C15.2657 7.924 15.2777 8.008 15.2777 8.272V8.356C15.2777 8.62 15.2057 8.944 15.1217 9.1C14.8457 9.592 14.9657 9.748 14.7017 10.456C14.4017 11.236 14.0177 13.096 13.7297 13.864C13.6217 14.152 13.5257 14.572 13.5257 14.776C13.5257 14.992 13.4777 15.16 13.4057 15.16C13.3337 15.16 13.1777 15.232 13.0577 15.34C12.9017 15.484 12.6257 15.532 11.9777 15.556H11.7617C11.3777 15.556 11.0657 15.532 11.0417 15.484C11.0057 15.424 10.8977 15.376 10.7897 15.376C10.6337 15.376 10.5617 15.172 10.4177 14.404C10.2017 13.264 9.75773 11.8 9.38573 11.044C9.04973 10.36 9.32573 10.552 9.06173 9.916C8.88173 9.484 8.88173 9.232 8.73773 8.86C8.72573 8.836 8.72573 8.812 8.72573 8.788C8.72573 8.704 8.80973 8.656 9.06173 8.608C9.64973 8.5 10.2617 8.164 10.9457 8.092C11.0897 8.08 11.1977 8.068 11.2817 8.068C11.5097 8.068 11.5577 8.14 11.6537 8.356C11.7137 8.488 11.7377 8.656 11.7377 8.788C11.7377 8.824 11.7377 8.872 11.7257 8.896C11.7137 8.956 11.7137 9.016 11.7137 9.1C11.7137 9.808 12.1817 11.392 12.3737 11.908C12.3977 11.956 12.4097 11.992 12.4337 11.992C12.4817 11.992 12.5417 11.848 12.6497 11.5C12.7217 11.248 13.0817 9.436 13.2377 9.436C13.2497 9.436 13.2497 9.424 13.2497 9.412C13.2497 9.376 13.1777 9.304 13.0697 9.208L12.8057 8.98L13.1897 8.26Z" fill="#F2F2F2" />
</svg>