<svg xmlns="http://www.w3.org/2000/svg" width="18" height="15" viewBox="0 0 18 15" fill="none">
    <path d="M12.1233 4.30464C11.7049 4.02574 11.2598 3.75055 11.0422 3.20762C10.7711 3.11837 10.6439 2.83574 10.4464 2.64609C10.2188 2.4304 10.0448 2.14779 9.85732 1.88376C9.83389 1.85029 9.86402 1.74617 9.89414 1.70154C9.94769 1.62345 9.99789 1.60114 9.87405 1.52676C9.72343 1.4338 9.57616 1.2962 9.47909 1.14001C9.25818 0.779299 9.28161 0.749545 9.68661 0.693764C9.74351 0.686327 9.79707 0.649143 9.85063 0.62683C9.79707 0.600799 9.74352 0.582201 9.69331 0.552452C9.65984 0.533858 9.61967 0.511553 9.59624 0.478084C9.54938 0.407429 9.46905 0.314462 9.48244 0.258681C9.50922 0.158276 9.59959 0.00580036 9.66319 0.00580036C9.96108 0.00951909 10.2422 -0.0648529 10.5267 0.228925C11.1828 0.894575 11.9258 1.4561 12.5953 2.11059C13.1141 2.61634 13.6463 3.11465 14.1852 3.59437C14.8579 4.18936 15.5106 4.81782 16.2303 5.35703C16.7189 5.72519 17.1273 6.23093 17.5658 6.68089C17.5992 6.71808 17.6126 6.77759 17.6361 6.82593C17.5758 6.83709 17.5189 6.84451 17.4587 6.86311C17.4018 6.87798 17.3482 6.90402 17.2947 6.92633C17.3449 6.95236 17.4051 6.96351 17.4419 7.00442C17.5557 7.13086 17.626 7.29076 17.7967 7.37629C17.9607 7.46182 17.9942 7.66635 17.8536 7.84113C17.7666 7.94897 17.7532 8.06798 17.8637 8.12376C18.1381 8.26507 17.9139 8.45844 17.9105 8.61834C17.9038 8.78568 17.8436 8.95675 17.79 9.12037C17.7398 9.27655 17.6561 9.39927 17.4787 9.38812C17.3114 9.38068 17.144 9.38812 16.9733 9.38812C16.729 9.3844 16.5817 9.53686 16.3909 9.70049C15.755 10.2509 15.1926 10.8979 14.5299 11.4185C13.9341 11.8871 13.4053 12.4635 12.843 12.9878C12.689 13.1291 12.5183 13.2481 12.361 13.3857C11.8522 13.8245 11.3301 14.2485 10.8447 14.7207C10.5836 14.9736 10.3125 15.022 9.9979 14.9922C9.89414 14.9848 9.78703 14.9959 9.68327 14.9848C9.66653 14.9848 9.62972 14.8844 9.6431 14.8695C9.71005 14.7802 9.78033 14.691 9.86401 14.6203C9.9845 14.5199 9.941 14.453 9.85063 14.3675C9.78703 14.308 9.74017 14.1964 9.66988 14.1778C9.45901 14.1183 9.35859 14.0514 9.55273 13.8283C9.5862 13.7911 9.59624 13.6944 9.58285 13.6386C9.56611 13.5679 9.51926 13.4713 9.46571 13.4564C9.36864 13.4266 9.25483 13.4601 9.15442 13.4452C9.04396 13.4266 8.86991 13.5382 8.83978 13.3448C8.81635 13.1775 8.76281 12.9692 8.94021 12.8354C9.08748 12.7238 9.23475 12.6048 9.37868 12.4895C9.4088 12.4635 9.43223 12.4263 9.45566 12.3928C9.42219 12.3705 9.38871 12.3371 9.3519 12.3333C9.26822 12.3259 9.18454 12.3333 9.10086 12.3333C8.91007 12.3259 8.97703 12.2515 9.05736 12.1474C9.17116 11.9949 9.24144 11.783 9.37533 11.6714C9.90083 11.24 10.4498 10.8384 10.9886 10.4256C11.5108 10.0277 12.0397 9.63355 12.5618 9.23565C12.6689 9.15384 12.766 9.05715 12.8664 8.79312C12.8664 8.71131 12.863 8.80428 12.8664 8.89724C12.8664 8.92327 12.9099 8.96791 12.9266 8.96419C13.0338 8.94188 13.2647 8.55141 13.2379 8.41754C13.2245 8.35804 13.1442 8.28366 13.0873 8.27622C13.0003 8.26135 12.8664 8.22044 12.8664 8.41009C12.8664 8.48075 12.8664 8.5514 12.8664 8.79312C12.1635 9.02368 11.4807 8.71874 10.7778 8.82659C10.3694 8.59974 9.92091 8.77453 9.50921 8.67041C8.93685 8.52538 8.35111 8.64438 7.79883 8.52166C7.26329 8.40266 6.72775 8.50306 6.21229 8.38778C5.6801 8.2725 5.1479 8.33201 4.62574 8.24276C4.28433 8.18698 3.92955 8.19813 3.60822 8.10144C3.26347 8.00104 2.91201 8.05681 2.58734 7.96756C2.16225 7.84857 1.72043 7.84485 1.30204 7.69982C1.21167 7.67007 1.11125 7.61057 1.051 7.53248C0.87026 7.28705 0.585748 7.14573 0.492029 6.81105C0.475294 6.75527 0.314638 6.75899 0.227613 6.7218C-0.0100349 6.61768 -0.0468524 6.45033 0.143934 6.22349C0.294555 6.04127 0.230961 6.02268 0.0602567 6.01524C0.0368249 6.01524 -0.013386 5.87022 0.00335096 5.8479C0.133888 5.68056 0.224262 5.47231 0.475298 5.46116C1.44597 5.42769 2.41329 5.34587 3.38396 5.331C4.78976 5.30869 6.19889 5.31241 7.60469 5.331C8.84648 5.34587 10.0849 5.54668 11.3334 5.46859C11.8087 5.66196 12.3041 5.59875 12.7928 5.61362C12.8831 5.61362 12.9635 5.71403 13.0572 5.74006C13.1074 5.75493 13.1911 5.72891 13.2178 5.688C13.2446 5.65082 13.2379 5.53925 13.2078 5.5095C13.0873 5.3905 12.9501 5.29754 12.8262 5.18598C12.6555 5.02979 12.4848 4.89964 12.4681 4.5947C12.4547 4.35299 12.3375 4.66163 12.2873 4.61329C12.2137 4.54263 12.1635 4.43851 12.1066 4.31951C12.1066 4.30835 12.1066 4.33067 12.1066 4.34926C12.1401 4.33811 12.1769 4.33067 12.2037 4.30835C12.2104 4.30092 12.1903 4.25258 12.1836 4.22283C12.1601 4.24514 12.1334 4.26745 12.1099 4.31951L12.1233 4.30464ZM5.93447 6.01896C5.07426 6.01896 4.21405 6.01896 3.35384 6.01896C3.27016 6.01896 3.18648 6.01897 3.1028 6.02268C3.08607 6.02268 3.05929 6.05987 3.05929 6.06731C3.07267 6.10078 3.09611 6.15284 3.11619 6.15284C3.26347 6.16028 3.41073 6.15283 3.55801 6.15655C4.81988 6.23093 6.0851 6.03012 7.34697 6.27928C7.87581 6.3834 8.43479 6.31646 8.98037 6.29043C9.53599 6.2644 10.0782 6.3834 10.6272 6.42802C11.551 6.5024 12.4815 6.52843 13.4053 6.57677C13.4655 6.57677 13.5559 6.56189 13.5827 6.59908C13.7333 6.79989 13.9341 6.68834 14.1082 6.71065C14.155 6.71809 14.2086 6.66602 14.2588 6.63999C14.2052 6.61768 14.1517 6.59165 14.0948 6.57677C13.9308 6.53215 13.894 6.13425 13.6563 6.34993C13.3919 6.58793 13.3551 6.25324 13.2145 6.18259C13.1944 6.17143 13.1409 6.2049 13.1308 6.23093C13.0137 6.53587 12.8363 6.29415 12.6923 6.29043C12.12 6.27556 11.551 6.23837 10.9786 6.18259C9.59624 6.04871 8.20383 6.05987 6.81477 6.01524C6.52022 6.0078 6.22567 6.01524 5.93447 6.01524L5.93447 6.01896ZM0.830093 6.18631C0.840133 6.164 0.856874 6.11565 0.876957 6.06359C0.843487 6.04871 0.803322 6.01153 0.773197 6.01896C0.733032 6.03012 0.699554 6.07474 0.662737 6.10821C0.696207 6.12308 0.733022 6.14168 0.826742 6.18631L0.830093 6.18631ZM13.4019 5.64709C13.4153 5.67684 13.4321 5.70659 13.4454 5.73634C13.4588 5.72146 13.4856 5.70287 13.4856 5.69171C13.4789 5.65825 13.4588 5.6285 13.4454 5.59875C13.4321 5.61362 13.4187 5.6285 13.4019 5.64709Z" fill="#B52A2D"/>
  </svg>