<svg xmlns="http://www.w3.org/2000/svg" width="194" height="75" viewBox="0 0 194 75" fill="none">
    <g filter="url(#filter0_d_149_89)">
      <path d="M181.99 16.1927V15.9916H180.853C181.138 15.933 181.416 15.8744 181.578 15.8158C181.584 15.8079 181.596 15.7905 181.607 15.7746C180.781 15.7731 179.822 15.7699 178.996 15.7683C178.356 15.7018 177.715 15.6337 177.069 15.5672C176.018 15.4991 175.104 15.431 173.912 15.3629C173.458 15.222 172.873 15.0732 172.282 14.9322C171.836 14.7834 168.337 14.8657 166.434 14.8356C165.656 14.7723 164.738 14.6963 163.958 14.6329C164.153 14.5522 164.476 14.4778 164.673 14.397C163.012 14.4065 161.219 14.416 159.424 14.4255C157.995 14.5047 157.394 14.5759 156.649 14.6567C151.656 14.5126 155.253 14.8831 150.559 14.9132C150.217 14.8055 147.853 14.8404 146.625 14.8293C146.597 14.8705 146.573 14.9037 146.46 15.0668C139.105 15.1555 144.394 14.6757 140.162 14.6155C136.084 14.5474 139.709 14.8768 136.681 14.8784C131.768 14.4223 121.924 14.7264 114.399 14.6678C114.204 14.7501 114.415 14.8404 113.547 14.9037C111.316 14.9496 109.076 14.9971 106.844 15.0431C105.729 14.8673 101.983 14.9085 100.252 15.0272C97.4998 15.0209 95.7797 14.9259 95.7455 14.7786C91.7558 14.777 87.704 15.07 83.7655 14.9876C83.1166 14.9338 82.4692 14.88 81.8141 14.8261C83.101 14.7549 84.3026 14.8071 85.1378 14.7929C87.2972 14.6583 85.0742 14.4889 82.0081 14.5474C81.5346 14.6282 81.0705 14.709 80.6032 14.7818C76.0375 14.8198 76.6554 14.5253 74.9136 14.4556C71.0372 14.2893 67.6901 14.5522 64.9144 14.587C64.607 14.4382 63.3821 14.4192 61.8111 14.3004C59.8861 14.0993 53.4994 14.1817 50.0204 14.0407C45.3787 14.3828 44.7996 13.8301 38.8709 14.0455C37.3728 14.0249 34.5365 13.9441 35.7335 13.808C37.3092 13.7209 37.8417 13.5419 41.1157 13.5831C40.1951 13.3266 44.632 13.477 45.9515 13.3567C46.5492 13.2917 47.2788 13.2284 48.0131 13.1651C49.1418 13.1286 50.2657 13.0938 51.3881 13.059C52.8862 12.8816 58.5774 12.8135 55.7551 12.5111C54.2415 12.5079 52.5959 12.5032 51.0885 12.5C50.3309 12.5966 49.7193 12.6853 48.9725 12.7739C48.4851 12.88 48.0038 12.9766 47.3798 13.0827C46.4374 13.0558 45.2203 13.0289 43.4754 12.9576C43.3419 12.9576 43.064 12.9576 42.9243 12.9576C42.8824 13.0225 42.8343 13.0891 42.7908 13.154C36.3746 13.2775 29.2133 13.2854 25.9547 13.6211C24.1726 13.6132 22.2848 13.6053 20.6051 13.6211C19.7652 13.629 18.9766 13.6433 18.2796 13.6654C17.8868 13.6797 17.5204 13.6939 17.1851 13.705C16.6914 13.7209 16.249 13.7383 15.8624 13.7605C15.0971 13.8222 13.6549 13.8586 12 13.8855C12.0155 15.089 12.0326 16.408 12.0497 17.678C12.059 18.3019 12.0683 18.9147 12.0761 19.4958C12.0885 19.8616 12.0994 20.2084 12.1087 20.5219C12.1599 21.7744 12.2406 22.4997 12.3959 21.8869C12.2981 25.6096 12.5697 23.4165 12.6567 24.1829C12.6241 20.7895 12.8445 23.3358 12.8274 20.2337C12.9656 19.4942 13.0013 21.624 13.0882 22.3841C13.0588 24.4711 13.1395 27.8978 13.0013 28.3601C13.037 30.2112 12.8181 34.1256 13.0619 33.1723C13.5043 29.8502 13.1503 39.6947 13.4733 39.5126C13.5136 42.9044 13.509 44.7286 13.6068 47.7435C13.6658 48.6319 13.7341 49.6595 13.7931 50.5447C13.7573 51.9239 13.7372 53.4536 13.9017 55.3965C13.9172 53.7228 13.9312 52.19 13.9452 50.6571C13.9995 49.9778 14.0368 49.7166 14.0647 49.7324V60.8896H19.5758C19.2762 60.9102 18.8726 60.926 18.4022 60.9403C17.7812 60.9561 17.0454 60.9751 16.2816 60.9957C15.5007 61.0163 14.6764 61.0448 13.8722 61.086C13.8551 60.7629 13.8334 60.451 13.8101 60.1565C13.6813 59.7242 13.599 60.3164 13.5369 61.428C14.0678 61.4644 14.7602 61.4929 15.4914 61.5214C15.8609 61.5357 16.235 61.5499 16.6014 61.5642C16.9631 61.58 17.3155 61.5942 17.6462 61.6085C18.781 61.6703 19.5898 61.7447 19.2638 61.8714C18.9642 61.8888 18.5885 61.8983 18.1678 61.9046C17.9582 61.9046 17.7362 61.9078 17.508 61.9094C17.2146 61.9094 16.9134 61.9094 16.6076 61.9094C15.3765 61.9062 14.0973 61.8967 13.0758 61.903C13.0681 60.7518 13.0401 59.9522 12.961 59.9839C12.9672 59.3885 12.9749 58.7867 12.9811 58.1882C12.9811 57.672 12.9811 57.1589 12.9811 56.6554C12.9749 55.7734 12.9563 54.9278 12.9299 54.1709C12.8756 52.6587 12.784 51.5043 12.6753 51.148C12.6629 52.684 12.6241 54.1994 12.5992 55.7417C12.5946 56.1281 12.5899 56.5144 12.5837 56.904C12.5822 57.3917 12.5806 57.8842 12.5791 58.3798C12.5791 59.5151 12.5899 60.6679 12.6132 61.8191C12.6086 62.0107 12.6039 62.2023 12.5977 62.3923C13.9467 62.4287 15.2973 62.4636 16.6371 62.5C16.8901 62.4984 17.1308 62.4953 17.3652 62.4937C17.5391 62.4905 17.7098 62.4873 17.879 62.4842C18.1926 62.4778 18.5078 62.4699 18.8571 62.4636C20.6765 62.4145 22.4975 62.3654 24.1865 62.3211C24.7345 62.3211 25.1475 62.3242 25.5604 62.3242C25.8352 62.3242 25.9703 62.3242 26.245 62.3258C29.5703 62.2957 33.4405 62.2609 36.2194 62.2356C36.9894 62.1152 39.1302 62.2007 40.3349 62.0487C40.0259 61.8999 34.3037 62.017 37.3107 61.6465C39.1643 61.5531 42.176 61.5768 44.5124 61.5816C45.2762 61.2712 51.9563 61.5594 54.569 61.3678C58.1722 61.3235 61.78 61.2807 65.2513 61.238C65.7791 61.2728 66.1781 61.2981 66.5677 61.3235C66.9822 61.5214 63.1539 61.6845 66.9062 61.8334C68.4136 61.8365 69.9256 61.8413 71.4392 61.8444C73.3099 61.7257 72.942 61.6592 74.9524 61.5404C77.1832 61.4945 79.4202 61.447 81.6526 61.4011C82.1261 61.5087 83.4814 61.5452 82.8651 61.6338C84.0729 61.675 85.4204 61.7209 86.7679 61.7668C89.3791 61.7732 91.984 61.7795 94.5952 61.7859C96.1088 61.5847 91.9343 61.656 90.7436 61.58C90.6551 61.5135 90.4254 61.4486 90.3322 61.3821C93.5923 61.447 96.2004 61.4533 98.8224 61.4438C96.7872 61.8001 104.911 61.5895 107.892 61.6639C108.89 61.6053 109.747 61.5562 110.612 61.5056C112.161 61.6576 116.343 61.5768 117.835 61.6053C118.923 61.6212 120.016 61.6386 121.104 61.6544C122.478 61.6576 123.714 61.6608 125.089 61.6639C126.886 61.6544 128.677 61.6449 130.337 61.6354C131.577 61.6307 132.926 61.675 135.062 61.5642C136.14 61.5942 137.219 61.6243 138.304 61.6544C138.979 61.6703 139.661 61.6877 140.199 61.7003C140.898 61.6877 141.592 61.6766 142.289 61.6639C143.372 61.694 144.451 61.7241 145.527 61.7542C145.505 61.7874 145.481 61.8286 145.448 61.8698C146.677 62.0788 150.302 61.8159 152.673 61.9695C153.148 61.8777 153.629 61.7859 154.104 61.694C156.315 61.675 159.274 61.7732 160.801 61.5547C161.353 61.5547 161.762 61.5562 162.175 61.5578C163.647 61.6196 166.536 61.6259 168.169 61.4502C169.029 61.4026 170.023 61.3567 170.884 61.3013C172.442 61.2396 174.126 61.1936 174.318 61.1129C174.641 61.0479 174.96 60.983 175.143 60.9181C175.298 60.9102 175.455 60.9007 175.616 60.8928H181.989V16.2117C182.004 16.2053 182.003 16.199 181.989 16.1927H181.99Z" fill="#B52A2D"/>
    </g>
    <defs>
      <filter id="filter0_d_149_89" x="0" y="0.5" width="194" height="74" filterUnits="userSpaceOnUse" color-interpolation-filters="sRGB">
        <feFlood flood-opacity="0" result="BackgroundImageFix"/>
        <feColorMatrix in="SourceAlpha" type="matrix" values="0 0 0 0 0 0 0 0 0 0 0 0 0 0 0 0 0 0 127 0" result="hardAlpha"/>
        <feOffset/>
        <feGaussianBlur stdDeviation="6"/>
        <feComposite in2="hardAlpha" operator="out"/>
        <feColorMatrix type="matrix" values="0 0 0 0 0 0 0 0 0 0 0 0 0 0 0 0 0 0 0.25 0"/>
        <feBlend mode="normal" in2="BackgroundImageFix" result="effect1_dropShadow_149_89"/>
        <feBlend mode="normal" in="SourceGraphic" in2="effect1_dropShadow_149_89" result="shape"/>
      </filter>
    </defs>
  </svg>