<svg xmlns="http://www.w3.org/2000/svg" width="1114" height="338" viewBox="0 0 1114 338" fill="none">
    <path fill-rule="evenodd" clip-rule="evenodd" d="M1113.62 163.624C1113.35 160.655 1113.04 164.2 1112.68 161.671C1112.57 148.643 1114.81 139.073 1113.68 130.255C1113.52 131.612 1113.57 134.805 1113.57 137.569C1112.58 144.474 1111.85 153.673 1111.14 162.911C1110.98 162.618 1110.91 161.456 1110.67 161.935C1110.74 165.538 1110.99 167.452 1111.04 171.271C1110.82 172.726 1110.59 174.23 1110.7 178.624C1110.15 174.425 1110.19 181.886 1109.76 181.876C1109.58 178.517 1109.53 178.956 1109.05 179.884C1109.05 177.814 1108.73 178.614 1108.81 175.753C1109.07 166.388 1109.45 155.577 1109.45 143.35C1108.67 147.931 1108.55 158.165 1108.08 165.431C1107.03 164.054 1106.72 167.95 1105.98 174.054C1105.85 177.442 1106.37 174.796 1106.23 178.194C1105.05 181.398 1104.15 191.378 1102.72 189.093C1102.78 176.153 1101.4 176.466 1101.49 163.204C1100.97 163.067 1100.86 159.112 1100.43 158.136C1100.19 158.487 1100.12 160.265 1099.97 161.329C1099.65 160.675 1099.52 158.253 1099.37 156.192C1097.81 153.058 1098.19 166.651 1097.04 166.944C1096.71 157.882 1096.87 144.444 1096.28 137.852C1096.19 141.895 1095.4 143.634 1095.1 140.098C1094.74 145.87 1093.8 146.69 1093.48 152.833C1094.08 163.077 1095.43 162.413 1095.99 174.376C1094.12 181.358 1094.42 212.003 1094.07 221.564C1094.11 220.236 1094.21 219.406 1094.42 219.425C1094.53 224.454 1094.32 226.808 1094.2 229.884C1094.67 229.083 1094.41 235.031 1094.68 236.076C1094.78 234.523 1094.85 232.745 1095.14 232.882C1095.12 241.027 1095.3 247.326 1095.51 253.634C1095.6 257.267 1095.7 260.9 1095.81 264.796C1095.91 268.888 1095.99 273.283 1096.04 278.244C1096.17 278.478 1096.37 278.117 1096.39 279.611C1096.36 290.246 1096.44 299.513 1096.55 308.332C1082.94 308.547 1070.46 308.732 1055.46 308.967C1055.32 309.103 1055.81 309.299 1054.3 309.318C1051.6 309.221 1048.54 309.172 1045.73 309.142C1043.34 309.123 1041.17 309.113 1039.75 309.103C1040.56 309.123 1040.96 309.201 1040.81 309.338C1024.61 309.181 1003.32 309.846 999.845 308.117C1001.36 308.244 1002.41 308.244 1002.97 307.99C999.933 307.814 994.523 307.443 997.591 306.945C992.259 307.092 988.622 306.408 991.18 306.017C990.828 305.861 989.661 305.793 990.073 305.549C986.711 305.461 987.897 305.451 985.907 305.676C985.937 305.51 985.378 305.422 984.819 305.324C986.456 305.314 988.446 305.324 987.917 305.08C980.86 305.197 986.427 304.553 983.624 304.269C979.644 304.338 981.154 305.002 975.341 304.875C977.723 304.611 974.92 304.416 975.224 304.054C975.871 304.084 979.291 304.338 979.409 304.054C976.724 304.054 977.674 303.625 976.194 303.478C974.371 303.478 972.94 303.508 972.019 303.605C975.773 303.176 966.609 303.625 968.804 303.029C975.773 303.332 981.614 303.117 988.642 302.873C991.465 303.654 1003.78 303.342 1006.61 304.133C1005.38 304.191 1004.26 304.26 1003.51 304.377C1005.82 304.465 1006.19 304.787 1007.76 304.953C1019.14 304.777 1020.86 306.672 1033.13 306.789C1033.3 306.154 1038.57 306.125 1043.53 306.301C1043.5 306.154 1043.7 306.056 1044.07 305.988C1044.48 305.92 1045.12 305.881 1045.89 305.871C1047.44 305.842 1049.58 305.9 1051.89 305.939C1050.4 305.392 1052.93 305.08 1055.16 304.797C1057.42 304.513 1059.4 304.26 1057.07 303.82C1058.67 303.967 1061.48 303.967 1061.65 303.693C1060.69 303.508 1055.99 303.732 1056.86 303.351C1056.99 303.176 1059.59 303.244 1061.4 303.224C1060.77 302.609 1057.19 302.326 1053.25 302.092C1051.29 301.974 1049.21 301.857 1047.35 301.74C1045.5 301.613 1043.84 301.467 1042.83 301.262C1051.29 300.91 1057.71 301.164 1063.88 301.457C1070.03 301.75 1076.03 302.082 1083.08 301.896L1083.54 302.365C1086.52 302.453 1088.77 302.424 1090.54 302.345C1090.22 295.041 1089.06 292.57 1089.22 283.986C1088.49 277.941 1087.96 270.451 1087.66 261.085C1087.54 261.808 1087.38 257.423 1087.16 255.128V22.1095H277.329C278.201 22.09 279.083 22.0802 279.956 22.0607C278.682 22.09 277.407 22.1095 276.133 22.1095H274.046C261.48 22.0314 248.611 20.9474 236.007 22.0216C240.995 22.0216 245.818 22.0704 250.542 22.1095H228.175C229.851 21.9044 235.262 22.0997 234.909 21.67C232.223 21.8556 225.892 21.4943 222.373 21.8068C222.559 21.9533 223.177 22.0411 224.02 22.1095H26.9733V92.2662C26.5616 85.7134 26.9929 76.104 26.7381 70.3129C26.7185 71.1137 26.7381 72.3637 26.6204 72.4125C26.7381 64.7953 26.7969 55.8011 26.7381 46.9143C26.6891 38.008 26.5224 29.1017 26.2088 21.3673C26.4832 21.3575 26.7087 21.3478 26.9243 21.338L27.4438 21.8068C35.3044 21.5724 45.3018 21.3185 55.8088 21.1915C61.033 21.1329 66.4433 21.1036 71.589 21.1232C76.6857 21.1427 81.655 21.2208 86.291 21.3575C86.0656 21.1036 87.1045 20.9865 89.3785 20.9962C134.131 21.2306 185.383 19.9806 227.362 20.2736C226.568 20.254 226.058 20.2052 226.313 20.0587C245.916 20.6837 262.852 20.381 280.759 20.3126C283.024 20.4884 284.033 20.8107 286.072 21.006C286.013 20.4982 284.504 20.7423 283.867 20.1857C292.021 20.6935 303.352 20.6349 312.143 20.3712L312.192 20.7228C318.426 20.2736 326.63 20.1075 332.383 20.4103C331.893 20.3517 331.942 20.2247 331.991 20.0978C337.401 19.9904 341.939 19.922 342.488 20.3126C345.292 20.1954 349.006 20.2638 350.898 20.6544C354.887 20.547 350.692 20.0782 352.897 19.9513C392.661 20.42 447.108 20.1759 490.989 19.8243C455.174 19.7364 419.262 19.5411 382.194 20.0099C382.341 19.6778 375.372 20.1661 376.92 19.6681C356.72 20.1075 330.227 19.1798 311.016 19.7853C310.83 19.6486 311.153 19.4532 309.928 19.4337C310.84 19.8829 307.762 19.8927 305.822 20.0294C303.587 19.5118 296.069 20.0489 291.09 19.4728C289.718 19.9904 276.898 19.4825 274.34 19.3849C273.301 19.5411 273.399 19.8243 271.262 19.8634C270.595 19.4337 266.136 19.922 263.901 19.5216C260.892 20.0489 255.325 19.7364 250.346 19.8927C249.376 19.1896 243.103 19.5607 237.741 19.5607C235.448 19.7364 239.094 19.8439 236.742 19.9122C210.023 19.6486 184.285 19.9903 155.077 19.5802C155.89 19.5509 157.145 19.5802 157.155 19.463C153.93 19.3751 155.194 19.7853 151.96 19.7071C152.009 19.3849 150.176 19.4728 151.901 19.2384C146.952 19.4825 140.404 19.2286 135.151 19.1505C134.004 19.5216 136.817 19.4337 137.297 19.6193C134.778 19.5802 135.063 19.8341 132.083 19.7462C132.063 19.5118 134.915 19.59 134.122 19.2775C129.231 19.131 130.662 19.6681 125.79 19.5216C126.339 18.965 120.498 19.4044 117.351 19.0626C115.332 19.5021 114.901 19.5118 115.362 19.7657C112.5 19.6681 110.402 19.59 109.109 19.8927L109.06 19.5411C107.021 19.6486 98.7681 20.1075 97.5528 19.5607C102.12 19.6974 106.511 19.0626 112.196 19.5314C111.628 18.5841 91.5838 19.756 88.0357 18.8673C111.216 18.6817 128.917 18.8478 152.901 18.8673C153.293 18.6622 151.313 18.5646 152.852 18.5157C154.704 18.5841 158.978 18.3595 159.154 18.6232C157.978 18.9161 154.763 18.3497 154.998 18.8673C160.252 18.9161 170.083 18.8087 172.768 18.7208C170.69 18.7208 165.996 18.4083 169.553 18.1446C188.117 18.672 210.582 18.2423 227.117 18.2814C251.101 18.3399 275.251 18.5841 301.47 18.7403L301.489 18.9747C311.193 18.4083 319.857 19.1993 327.6 18.5743C330.501 18.672 333.383 18.7794 333.961 19.1505C335.794 19.0821 340.126 19.2775 340.214 19.0235C335.627 19.0724 333.118 18.8966 332.805 18.4474C338.636 18.3888 354.093 18.4278 361.091 18.6329C370.804 18.1739 385.928 18.5353 394.494 18.1056C388.408 17.7638 374.588 18.5841 373.47 17.4415C380.106 17.7052 385.095 16.8946 392.279 17.295C391.975 16.8946 394.328 16.8946 398.523 17.0509C403.286 16.1036 419.301 17.0313 427.74 16.4161C430.181 16.6896 433.67 16.8458 437.238 16.9825C437.836 16.6017 433.445 16.8263 436.121 16.5138C434.278 16.4454 430.005 16.67 429.838 16.4063C452.41 16.1524 468.69 15.8399 488.323 15.7227C488.038 14.629 499.584 15.4884 502.897 15.2247C498.134 14.6876 511.562 15.1075 515.443 15.088C524.931 15.0294 535.3 14.6681 540.466 14.463C535.643 13.9161 529.968 14.6974 523.715 14.3751C524.019 14.1016 524.715 13.8673 526.773 13.7891C527.636 13.9845 533.791 13.7891 532.997 13.4278C527.234 13.5938 524.284 13.4083 519.363 13.213C525.421 12.8614 533.32 12.129 540.24 12.8223C544.7 12.295 552.257 12.5196 561.098 12.3145C559.196 11.6798 569.037 11.8555 575.672 11.8165C580.769 11.2794 575.799 11.0157 583.915 10.8692C581.21 10.6446 579.122 10.9962 577.623 10.7618C579.622 10.2051 581.455 9.63873 588.973 9.68756C588.747 9.85357 587.287 9.88287 586.944 10.0391C592.364 9.961 598.49 9.64849 599.411 9.43365C604.223 9.71685 603.214 9.38482 606.713 9.30669C612.261 9.17974 620.856 9.59966 623.405 8.92583C619.504 8.66216 614.348 9.12115 612.878 8.47661C616.818 8.15434 619.798 8.78911 620.18 8.34966C617.142 8.02739 606.919 8.53521 606.517 7.90044H612.8C612.858 7.52934 607.301 7.5684 610.604 7.18754C609.085 7.2559 605.184 7.06059 605.39 7.3145C607.683 7.2852 608.742 7.40239 608.585 7.65629C605.909 7.67583 600.225 7.60747 596.02 7.55864C603.332 6.83598 620.729 6.83598 629.413 6.9141C630.226 6.68949 630.697 6.43558 632.471 6.3184C627.619 6.3184 622.787 6.3184 628.315 6.56254C624.385 6.62113 623.513 6.3184 621.984 6.10355C629.482 5.53714 627.884 6.2305 634.529 6.08402C630.765 6.00589 629.256 5.81058 632.353 5.49808C623.101 5.293 610.732 5.12698 604.086 5.31253C600.342 4.44339 582.798 5.58597 580.916 4.2969C576.691 4.25784 579.397 4.9805 574.731 4.89261C571.399 4.72659 568.86 4.46292 565.234 4.3262C562.323 4.71682 556.069 4.54104 554.736 4.11135C556.128 4.11135 555.677 3.90627 556.814 3.87698C560.813 4.24807 571.409 4.12112 575.633 3.84768C568.037 3.84768 558.334 3.58401 551.58 3.88674C552.806 3.90627 554.531 3.86721 554.727 4.00393C551.659 3.97463 551.551 4.27737 548.473 4.24807C547.777 3.99416 551.384 3.87698 547.385 3.89651C546.003 4.0137 545.376 4.21877 543.249 4.25784C536.398 3.9258 525.852 3.75002 519.158 4.06252C509.562 3.10549 489.509 4.39456 487.607 2.83205C479.188 3.11525 470.602 3.17385 462.467 2.63673C460.487 2.65627 461.79 3.02736 459.379 2.99806C450.93 2.3047 438.189 3.34963 427.995 3.05666C428.593 2.58791 438.483 3.15432 435.258 2.57814C420.409 3.06642 408.128 2.13868 396.474 2.17775C396.827 1.90431 401.042 2.06056 400.61 1.69923C397.356 1.73829 390.27 1.53321 385.967 1.72853C385.604 1.57227 384.448 1.50391 384.85 1.25977C377.126 1.54298 370.393 1.04493 361.777 0.830083C360.376 1.10352 364.532 1.26954 361.836 1.29884C359.749 1.29884 357.651 1.29884 355.563 1.3086C356.896 1.15235 356.887 0.869146 354.446 0.839849C345.527 1.05469 334.481 0.761723 326.248 1.24024C329.325 0.800786 323.523 1.13282 323.101 1.13282C322.944 1.13282 323.239 0.908208 323.072 0.898443C307.105 0.371096 275.016 1.55274 267.616 0.878911C269.419 1.15235 263.068 1.64063 259.285 1.24024C258.481 0.917974 261.323 1.00587 261.323 0.771489C236.016 1.0254 208.21 0.800786 178.688 0.917974C179.502 0.947271 180.756 0.917974 180.796 1.03516C166.936 0.908208 161.036 0.585941 149.382 0.85938C138.914 0.683598 119.361 0.849614 113.803 0.800786C114.744 0.869146 119.802 1.03516 116.989 1.14258C105.688 0.400393 96.014 0.439456 80.2828 0.507815C79.6555 0.234376 76.5093 0.0878911 73.5297 0.0976568C72.7848 0.107423 72.0497 0.117188 71.3636 0.126954C70.5795 0.156251 69.864 0.185548 69.2465 0.205079C67.6195 0.273439 66.5609 0.380862 66.5707 0.527347C67.8449 0.527347 68.9819 0.537112 69.9816 0.546878C70.6873 0.546878 71.2362 0.527347 71.7556 0.507815C72.7652 0.468753 73.4807 0.390627 73.9707 0.283205C75.3135 0.449221 79.4987 0.283205 78.2245 0.742192C75.1273 0.742192 68.7662 0.751958 64.3752 0.761723C58.7003 0.742192 55.5442 0.654301 61.7975 0.419924C49.6732 0.644535 41.7243 0.546878 34.0009 0.42969C26.297 0.312502 18.8382 0.185548 8.16452 0.36133C7.44902 0.205079 6.28266 0.0878911 4.77325 0C4.50862 4.04299 4.52822 11.6895 4.55762 18.0274C4.58703 24.3654 4.61643 29.4142 4.342 28.4767C4.63604 34.4631 4.58703 43.3694 4.13617 49.1702C3.82252 35.3127 4.02835 25.8009 3.74411 17.0509C3.78332 22.4025 3.77352 26.9337 3.51868 28.2131C3.91074 35.5178 3.86173 42.5491 3.53829 49.1604C4.05776 48.9163 3.6167 55.6546 3.53829 57.1878C3.92054 59.141 3.6265 51.9827 4.00875 53.9554C4.05776 56.5628 4.08716 59.307 4.09696 62.1293C4.09696 63.3793 4.09696 64.6488 4.09696 65.9281C4.08716 66.8656 4.07736 67.8129 4.06756 68.7602C4.00875 72.5395 3.88133 76.3286 3.69511 79.7563C3.6755 77.8227 3.60689 76.2895 3.45007 75.6157C3.6363 81.4067 3.00901 88.0376 3.70491 89.1411C3.77352 86.9732 3.54809 82.3149 3.81272 81.8266C4.02835 89.3365 3.89113 94.815 3.60689 99.5807C3.6167 98.2037 3.60689 92.0318 3.47948 95.4205C3.37166 100.284 3.6461 101.69 3.73431 104.766C2.9012 115.372 3.21484 122.94 2.96001 134.063C3.39126 135.44 3.28345 141.71 3.33246 146.515C3.16583 146.495 3.07762 147.042 2.97961 147.608C2.67577 147.96 2.8816 143.565 2.49934 144.542C2.46994 148.78 2.68557 158.214 2.1857 164.395C2.43073 166.983 2.72477 179.542 1.97987 181.095C1.86226 173.829 1.71524 167.442 1.95047 163.38C1.54861 162.296 2.13669 141.876 1.4408 143.643C1.60742 142.716 1.81325 142.032 1.78384 139.425C1.59762 137.94 1.42119 134.737 1.06835 132.227C1.91126 132.637 0.666491 126.036 1.41139 124.893C1.50941 121.524 1.10755 122.774 1.04874 120.762C1.15656 117.95 1.4506 116.661 1.50941 113.409C1.03894 101.612 1.05855 88.9654 1.15656 76.3481C1.20557 68.5453 1.25457 60.7425 1.30358 53.0862C1.34278 43.2131 1.34278 33.5354 1.26437 24.1408C1.15656 32.5002 1.21537 43.0862 0.823313 47.4319C0.784107 44.4827 1.14676 39.1311 0.813511 37.383C0.705697 40.303 0.784107 45.7327 0.588081 47.4221C0.382252 38.2912 0.999737 32.3928 0.80371 29.0041C0.754703 38.6428 0.36265 28.4377 0.333246 28.8576C0.137219 32.1096 0.460663 37.2951 0 42.3245C0.225431 42.7249 0.254835 40.4592 0.470464 40.6838C0.44106 44.1213 0.156821 43.9553 0.127417 47.4221C0.284239 50.3714 0.401855 53.5159 0.490067 56.7972C0.548875 59.8246 0.617485 63.0082 0.676293 66.2992C0.754703 70.7133 0.754703 75.4301 0.744902 80.2348C0.715498 89.8345 0.607683 99.776 0.931128 108.282C0.323444 109.249 0.646889 112.882 0.931128 112.452C0.754703 117.178 0.50967 117.93 0.235232 119.844C1.02914 124.073 0.186226 136.856 0.744902 142.716C0.0490068 149.19 0.882121 163.692 0.793909 170.851C0.813511 170.04 0.891922 169.63 1.02914 169.786C1.08795 173.468 1.21537 175.694 0.921326 178.136C0.627286 175.714 1.08795 176.173 1.02914 172.911C0.205828 180.499 0.882121 192.403 0.607683 203.204C0.784108 204.796 0.862518 207.228 0.970333 209.406C0.646889 211.388 0.754703 217.189 0.754703 221.954C1.09775 222.697 1.33298 224.445 1.23497 229.181C2.03868 223.732 1.81325 213.937 1.66623 207.218C2.11709 210.812 2.1955 205.021 2.48954 209.191C1.89166 211.993 2.25431 226.105 2.2053 231.847C2.23471 230.245 2.28371 228.781 2.51895 229.005C2.52875 232.14 2.85219 237.882 2.53855 240.46C2.61696 235.226 2.11709 236.456 2.52875 233.165C2.1661 235.197 1.86226 237.726 1.71524 241.613C2.07788 242.345 1.85245 238.009 2.30332 239.455C2.30332 240.509 2.40133 240.685 2.42093 241.525C2.09749 242.98 2.31312 252.921 1.84265 249.933C1.89166 251.828 1.93086 253.947 1.94067 256.125C1.95047 259.552 1.94067 263.058 1.90146 266.359C1.82305 272.941 1.63682 278.703 1.29378 281.32C1.51921 296.847 1.78384 309.572 1.78384 324.074C5.97882 324.074 10.3306 324.094 14.898 324.152C15.0843 324.328 14.0453 324.582 16.2996 324.621C17.7698 324.357 22.2785 324.318 24.8562 324.142C25.1699 324.553 29.355 324.123 29.7569 324.367C27.3948 324.396 27.7378 324.631 26.2774 324.719C30.1685 324.68 32.6973 324.728 34.5987 324.826C35.9709 324.465 28.8944 324.689 31.4525 324.24C35.5887 324.25 36.657 324.045 39.8229 323.996C42.9691 324.211 47.1249 324.123 51.9079 324.035C56.7008 323.947 62.1013 323.859 67.9919 324.084C67.4921 324.24 65.6592 324.309 66.4041 324.553C67.9331 324.543 69.0603 324.504 69.9816 324.445C70.5599 324.396 71.0009 324.328 71.442 324.26C72.3241 324.123 73.1768 323.986 74.9803 323.947C74.7548 324.113 73.2847 324.152 72.9318 324.299C78.0481 323.439 90.5546 324.367 93.8773 324.377C92.7403 324.348 91.3387 324.191 92.7991 324.142C109.726 324.338 124.183 324.064 139.885 324.064C140.002 324.191 138.385 324.25 139.914 324.299C147.01 324.191 183.118 322.814 176.532 324.24C177.346 324.269 178.59 324.24 178.639 324.357C177.414 324.377 175.669 324.348 175.522 324.484C178.777 324.66 184.726 324.299 189.088 324.23C190.156 324.387 190.862 324.582 192.293 324.689C199.957 323.859 205.348 325.129 213.228 324.768C213.581 325.07 209.18 324.865 210.16 325.236C220.785 324.26 238.996 325.051 254.021 324.689C254.394 325.002 248.15 324.592 249.885 325.051C260.735 324.709 281.191 325.08 294.834 324.738C291.688 325.1 298.716 324.894 299.078 325.197C289.973 325.998 280.073 325.305 267.792 325.959C268.39 326.125 266.655 326.564 268.929 326.545C272.173 325.451 285.239 326.086 293.913 325.685C294.393 325.871 297.216 325.783 296.079 326.154C304.126 325.461 320.2 325.607 332.667 325.969C335.706 325.451 342.92 326.027 348.32 325.705C346.076 325.881 346.742 326.379 343.184 326.418C341.92 326.115 346.34 325.91 342.077 325.949C340.812 326.809 327.179 326.252 324.375 326.564C327.061 326.594 322.964 326.769 324.434 327.033C328.884 326.701 332.971 327.043 336.931 326.662C339.225 327.004 347.438 327.326 343.665 326.721C347.516 327.277 355.348 326.789 359.004 327.326C347.605 327.248 343.498 327.795 335 327.834C339.979 328.234 342.763 328 347.585 328.049C347.654 328.215 347.124 328.303 346.585 328.4C361.738 328.439 371.824 328.303 383.301 329.045C383.438 328.908 383.066 328.713 384.301 328.693C391.074 329.162 403.541 328.937 410.49 328.879C409.206 328.869 408.001 328.85 408.363 328.654C412.94 328.644 418.38 328.527 418.87 328.986C421.281 328.937 419.801 328.469 422.987 328.508C426.26 328.762 427.75 329.23 431.485 329.426C428.133 328.977 445.569 328.703 440.913 329.523C447.451 329.592 450.97 329.24 455.606 329.846C457.507 329.631 459.075 329.377 461.8 329.25C460.957 328.127 463.143 327.99 462.555 327.141C457.017 327.404 452.95 327.551 450.999 326.809C449.882 327.121 441.472 327.121 439.492 326.828C432.455 327.58 422.536 326.594 411.235 326.76C411.754 326.193 407.726 326.623 405.923 326.184C409.696 326.135 412.911 326.018 416.351 325.93C414.891 326.291 416.577 326.379 418.537 326.633C419.939 326.281 425.29 326.359 426.907 326.623C428.083 326.135 422.467 326.418 421.624 326.164C425.643 325.988 430.524 325.9 434.102 325.676C436.199 326.33 443.922 326.271 448.784 325.998C450.891 326.271 450.891 326.31 448.872 326.584C458.477 326.057 470.386 326.193 477.129 326.652C479.805 325.793 488.372 326.906 491.773 326.623C490.263 326.564 489.205 326.447 488.587 326.281C491.802 326.359 491.635 326.076 494.84 326.154C494.664 326.613 498.79 326.574 501.202 326.73C502.172 326.516 498.016 326.35 501.133 326.262C509.984 326.379 513.336 326.467 519.951 326.115C520.912 326.496 520.079 326.828 526.332 326.809C526.224 326.603 526.509 326.437 527.312 326.34C527.273 326.34 527.234 326.34 527.195 326.34C530.557 326.418 533.556 326.584 536.722 326.213C536.731 326.213 536.741 326.213 536.761 326.213C537.094 326.174 537.417 326.144 537.751 326.096C539.29 326.193 541.808 326.184 540.956 326.555C538.946 326.506 540.054 326.105 536.761 326.213C536.751 326.213 536.741 326.213 536.731 326.213C538.064 326.75 532.732 326.769 529.478 326.809C536.29 326.848 540.505 328.107 543.161 327.258C553.56 327.521 560.607 327.99 571.556 328.381C571.33 328.547 569.87 328.586 569.517 328.732C575.055 328.967 578.269 328.117 578.946 328.83C573.839 328.85 567.704 328.762 565.371 329.084C567.321 329.094 568.88 329.152 569.595 329.309C564.949 329.045 568.684 329.768 560.215 329.562C561.117 330.012 557.206 329.924 557.167 330.275C559.696 330.461 564.146 330.422 565.606 330.725C557.52 331.076 552.502 331.008 547.787 330.519C549.307 330.451 553.207 330.646 553.002 330.393C547.229 330.471 556.618 329.973 550.855 330.041C547.807 330.529 544.092 330.549 540.495 330.764C542.553 330.285 535.781 331.086 534.173 330.422C532.389 330.539 532.125 330.812 530.057 330.9C521.843 330.168 505.985 330.295 497.516 330.139C499.084 330.275 502.211 330.227 501.77 330.598C500.721 330.598 500.535 330.695 499.692 330.715C496.399 330.197 489.469 330.793 488.097 330.148C482.716 330.168 482.942 330.275 479.717 330.051C478.805 330.314 480.344 330.598 474.552 330.529C474.826 330.295 477.345 330.295 477.629 330.06C469.377 330.031 454.498 330.49 449.343 329.875C435.964 331.701 414.254 329.211 403.404 330.539C403.374 330.383 401.561 330.432 401.287 330.305C404.011 330.373 405.041 330.246 404.374 329.943C399.072 329.992 399.238 329.943 391.779 329.728C393.426 330.373 401.532 330.266 404.482 330.764C402.267 330.988 396.827 330.861 392.985 330.9C394.377 331.242 403.786 331.232 406.628 331.232C406.766 331.232 407.138 330.852 408.667 330.881C410.118 330.9 411.402 331.203 412.911 331.223C419.909 331.32 430.054 330.715 433.857 331.418C430.152 331.359 428.476 331.525 427.633 331.779C445.099 331.486 455.9 331.818 475.747 331.691C475.777 331.809 474.934 331.838 474.748 331.926C481.52 331.652 489.067 332.082 496.664 331.535C496.438 331.701 494.968 331.74 494.615 331.887C498.986 331.789 502.505 331.594 506.063 331.398C503.897 331.682 509.601 331.779 510.336 332.092C510.111 331.838 511.15 331.721 513.434 331.74C515.766 331.906 512.15 332.023 514.522 332.092C519.883 331.945 525.989 331.877 530.155 331.594C530.243 331.809 524.842 332.004 528.136 332.18C534.634 331.564 552.325 332.385 558.52 332.482C555.413 332.346 561.725 332.102 562.685 332.355C564.038 332.062 558.5 331.994 561.588 331.887C563.048 332.346 569.909 331.994 571.046 332.219C572.732 332.629 567.508 332.297 567.958 332.58C572.242 332.844 577.172 333.02 582.68 333.137C572.928 333.664 553.501 332.775 539.868 333.684C540.789 333.957 544.435 333.576 546.121 333.557C546.915 334.328 549.757 333.615 552.443 333.898C549.934 334.846 541.201 333.85 536.78 334.162C538.055 334.172 539.27 334.191 538.907 334.396C537.859 334.396 537.682 334.494 536.829 334.514C530.282 334.445 518.648 334.045 518.021 334.66C512.895 334.611 508.798 333.82 504.338 334.094C509.788 334.299 514.845 334.543 517.041 335.129C516.972 335.295 509.523 335.217 512.885 335.373C520.442 334.982 523.304 335.041 530.615 334.992C529.812 334.807 525.499 335.031 526.381 334.65C529.547 334.68 534.497 334.504 534.781 334.865C531.772 335.061 536.428 335.48 536.908 335.217C534.065 335.119 537.731 334.787 538.946 334.748C539.172 334.924 541.495 334.855 543.151 334.855C543.102 335.061 543.436 335.217 544.259 335.324C547.503 335.324 549.238 335.168 551.551 335.08C564.93 335.705 583.425 334.426 596.226 334.758C598.852 334.436 604.116 334.719 603.773 334.396C604.968 334.504 610.712 334.689 611.114 334.504C610.447 334.299 606.154 334.523 605.85 334.279C606.047 334.143 606.987 334.094 607.899 334.045C610.683 334.357 611.133 334.201 614.182 334.035C615.221 334.152 616.279 334.26 617.357 334.377C623.856 334.191 626.688 334.23 633.02 334.113C633.088 334.279 632.569 334.367 632.03 334.465C634.794 334.338 637.332 334.338 639.361 334.572C636.342 334.699 634.108 334.924 632.128 335.168C636.695 334.973 644.086 335.08 645.644 334.562C643.772 334.494 641.351 334.914 640.42 334.562C643.625 334.445 646.408 334.289 648.731 334.084C648.614 334.289 649.8 334.357 651.887 334.309C649.623 334.611 653.191 334.953 655.151 335.119C655.778 334.689 652.818 334.67 652.936 334.299C657.807 334.387 654.005 334.113 656.053 334.055C661.395 333.996 662.051 334.475 666.58 334.504C665.394 334.875 661.208 334.924 659.356 335.217C665.256 335.285 665.737 334.758 670.794 334.728C670.716 335.021 668.854 335.1 671.902 335.197C678.41 334.465 691.847 334.68 700.061 334.562C698.63 334.279 696.934 334.777 695.866 334.455C696.111 334.289 698.14 334.318 698.973 334.211C699.591 334.494 703.05 334.455 702.207 334.904C708.029 334.475 714.449 334.826 722.045 334.641C723.045 334.816 724.702 335.51 727.348 335.1C726.064 335.09 724.858 335.07 725.221 334.865C729.612 334.748 732.709 334.738 739.845 334.728C740.639 335.549 749.234 335.471 753.606 335.871C755.899 335.695 752.243 335.588 754.605 335.52C765.397 336.076 771.915 336.008 786.097 336.281C779.275 336.477 792.674 336.428 788.253 336.75C792.419 336.516 799.623 336.33 802.995 336.447C802.299 336.311 802.544 335.959 803.847 336.018C806.004 336.223 804.2 336.447 808.052 336.242C807.494 336.662 808.532 336.906 811.296 336.936C812.737 336.857 811.394 336.486 813.325 336.467C816.589 336.652 817.403 336.564 819.637 336.691C818.138 336.76 817.109 336.877 816.55 337.043C820.02 336.955 818.265 337.277 817.638 337.395C820.882 337.492 824.058 337.609 826.077 337.844C825.979 337.268 823.313 336.984 825.891 336.555C822.588 336.496 822.921 336.027 821.607 335.744C837.035 335.656 857.559 336.076 870.938 336.945C868.958 337.326 869.036 337.668 872.133 338C878.112 335.773 898.489 338.293 911.809 337.346C913.181 336.691 910.829 336.633 910.564 335.939C918.807 336.027 920.581 335.412 924.031 334.982C930.216 334.768 932.882 334.875 939.684 334.719C939.821 334.865 940.037 334.992 941.801 334.953C944.634 334.836 938.988 334.738 940.674 334.367C947.8 334.279 949.388 333.156 956.229 333.4C954.073 332.766 956.141 332.375 957.101 332.111C957.14 332.268 960.032 332.258 960.238 332.111C958.552 332.082 960.296 331.945 962.316 331.994C960.1 332.189 967.667 332.873 968.637 332.336C964.893 332.111 958.277 331.926 961.169 331.291C957.474 331.359 955.768 331.203 954.837 330.949C956.052 330.773 957.425 330.617 958.964 330.471C957.993 330.227 956.013 330.1 954.7 329.895C959.346 329.523 971.205 329.172 976.684 329.973C980.85 329.807 985.329 328.781 989.191 329.602C987.75 329.641 984.388 329.846 982.996 330.197C987.152 330.197 992.425 329.455 995.532 330.06C986.995 330.842 973.322 331.311 961.139 331.057C968.863 331.691 983.153 331.154 993.513 330.646C997.953 330.91 1007.79 330.764 1013.36 330.383C1015.79 330.461 1016.21 330.764 1018.65 330.842C1026.54 330.793 1044.33 329.66 1043.78 331.037C1044.11 331.037 1044.4 331.057 1044.66 331.057C1044.98 331.057 1045.25 331.057 1045.5 331.057C1045.98 331.057 1046.32 331.057 1046.56 331.037C1047.03 331.008 1047.09 330.959 1047.08 330.9C1047.06 330.783 1046.76 330.646 1048.95 330.676C1052.16 330.783 1055.36 330.891 1054.64 331.262C1052.45 331.379 1050.14 331.506 1047.72 331.643C1046.52 331.701 1045.29 331.76 1044.05 331.818C1043.33 331.877 1042.62 331.926 1041.88 331.984C1038.95 332.189 1035.87 332.395 1032.78 332.609C1026.58 333.01 1020.29 333.41 1014.9 333.898C1017.8 334.201 1022.12 334.338 1022.37 334.943C1028.18 334.943 1033.04 334.768 1037.44 334.494C1039.64 334.357 1041.73 334.211 1043.75 334.045C1047.32 333.869 1050.78 333.703 1054.26 333.527C1068.45 332.824 1082.22 332.131 1103.25 332.15C1099.65 331.603 1102.08 331.203 1104.04 330.822C1106.01 330.441 1107.5 330.07 1102.42 329.572C1105.54 329.572 1107.96 329.543 1109.45 329.445C1106.43 328.508 1102.87 327.863 1110.41 327.219C1110.16 327.023 1105.53 327.16 1104.96 326.994C1110.79 326.994 1109.1 326.525 1111.05 326.281C1109.8 326.115 1104.45 326.271 1103.95 326.057C1099.02 324.758 1093.79 323.791 1087.8 322.795C1081.83 321.799 1075.1 320.783 1067.55 319.406C1061.32 319.133 1056.8 318.723 1052.41 318.322C1048.64 317.99 1044.89 317.658 1039.81 317.219C1042.36 316.74 1034.67 316.232 1037.51 315.695C1035.13 315.734 1033.58 315.676 1033.3 315.471C1035.68 315.5 1037.22 315.431 1037.45 315.226C1032.37 315.334 1035.42 314.689 1035.28 314.641C1032.21 313.742 1023.52 313.019 1021.32 311.974C1026.9 311.75 1032.43 312.014 1037.75 312.258C1039.07 312.316 1040.38 312.365 1041.68 312.424C1042.32 312.443 1042.97 312.463 1043.61 312.492C1044.39 312.512 1045.17 312.521 1045.94 312.541C1049.24 312.58 1052.45 312.56 1055.47 312.394C1060.48 312.717 1068.44 312.775 1069.86 313.43C1065.46 313.459 1061.56 313.517 1061.7 313.908C1071.55 314.338 1082.23 314.728 1096.5 314.797C1097.53 315.139 1100.17 315.324 1103.7 315.441C1103.94 308.654 1103.86 297.59 1104.07 290.324C1104.31 290.431 1104.23 294.347 1104.54 293.429C1104.44 285.558 1104.45 276.769 1104.53 267.921C1104.59 263.625 1104.64 259.308 1104.7 255.109C1104.79 252.023 1104.87 249.005 1104.95 246.164C1106.32 241.867 1105.99 218.478 1107.38 217.677C1107.5 212.667 1107.59 207.208 1108.06 205.079C1108.65 206.427 1108.97 210.138 1109.84 208.995C1110.47 206.222 1110.41 197.511 1110.86 193.224C1110.42 192.95 1110.04 186.681 1110.37 182.862C1110.61 183.546 1110.65 185.997 1110.85 186.974C1111.55 182.804 1112.14 183.712 1112.84 180.431C1112.8 176.983 1112.64 171.739 1113.18 171.007C1113.25 172.853 1112.84 175.382 1113.18 176.222C1113.19 172.892 1113.61 173.067 1113.64 169.894C1112.85 169.981 1113.6 165.753 1113.63 163.644L1113.62 163.624ZM123.722 19.5216C124.173 20.0196 119.194 19.629 117.469 19.6486C117.44 19.3263 122.36 19.3653 123.722 19.5216ZM614.721 6.47465C614.868 6.33793 614.456 6.26957 613.652 6.24027C614.27 5.98636 620.072 6.12308 620.974 6.2305C620.974 6.46488 618.132 6.38676 618.935 6.69926C615.642 6.75785 615.211 6.49418 611.604 6.59184C611.751 6.45512 613.495 6.49418 614.721 6.47465ZM575.456 10.0587C575.309 10.1954 575.721 10.2637 576.535 10.293C575.555 10.5372 572.546 10.5567 569.242 10.5372C569.703 10.2051 573.173 10.1954 575.447 10.0587H575.456ZM522.627 13.8966C521.529 14.1602 512.659 14.502 513.208 13.9161C517.501 14.0235 517.442 13.8966 522.627 13.8966ZM394.426 2.41212C396.072 2.44142 400.277 2.52931 401.747 2.40236C405.805 2.57814 393.308 2.91017 394.426 2.41212ZM362.993 2.11915C368.384 2.20704 370.922 1.98243 374.47 1.86525C375.411 2.10939 369.187 2.10939 372.431 2.21681C371.667 2.37306 362.248 2.52931 363.003 2.11915H362.993ZM1.23497 147.823C1.56821 150.089 1.23497 155.255 1.25457 158.253C0.970333 156.407 1.17616 150.099 1.23497 147.823ZM0.980134 203.116C0.901724 200.568 1.03894 196.241 1.07815 192.677C1.55841 192.491 1.11735 200.831 1.4506 202.013C1.42119 205.665 0.921326 200.196 0.980134 203.116ZM2.12689 188.351C2.07788 190.743 1.90146 193.712 2.13669 195.655C2.00928 198.224 1.40159 187.706 2.12689 188.351ZM2.56795 254.552C2.53855 256.574 2.51895 258.703 2.48954 260.968C2.44053 259.035 2.39153 257.072 2.34252 255.099C2.31312 253.722 2.30332 252.335 2.30332 250.939C2.30332 248.146 2.37193 245.333 2.46014 242.521C2.52875 245.119 2.56795 247.638 2.57775 250.343C2.57775 251.691 2.57775 253.087 2.56795 254.552ZM3.26385 162.14C3.17564 158.966 3.38146 158.331 3.37166 155.87C3.6363 156.671 3.77352 162.804 3.26385 162.14ZM4.91047 6.6016C5.42014 12.0411 5.1163 17.9689 5.28292 27.2365C4.99869 23.1154 4.63604 12.9493 4.91047 6.6016ZM425.986 327.18C425.633 327.375 426.829 327.394 428.113 327.414C426.064 327.707 424.192 327.072 420.801 327.424C420.948 327.287 420.536 327.219 419.723 327.189C422.036 326.945 421.703 327.434 425.996 327.18H425.986ZM517.619 331.477C519.05 331.291 522.98 331.135 524.921 331.35C524.499 331.613 519.765 331.408 517.619 331.477ZM570.693 329.396C571.487 329.289 571.771 329.133 571.663 328.928C574.878 328.83 573.722 329.25 576.937 329.152C576.858 329.455 573.457 329.387 570.693 329.396ZM1028.55 303.752C1028.91 303.556 1027.71 303.537 1026.42 303.517C1026.83 303.254 1031.96 303.42 1032.7 303.508C1032.03 303.664 1030.5 303.732 1028.55 303.752ZM26.9733 95.5084V98.3111C26.9537 97.2857 26.9243 96.2799 26.9047 95.3033C26.9341 95.3619 26.9537 95.4302 26.9733 95.5084ZM65.2573 19.1896C71.3342 19.2091 77.6168 19.2286 81.8314 19.2384C80.0966 19.463 77.9207 19.5802 75.4703 19.6388C72.9906 19.6974 70.3736 19.6974 67.3058 19.6778C61.3172 19.6388 54.7993 19.5118 49.3694 19.6486C52.7214 19.2872 58.8865 19.1993 65.2573 19.1896ZM23.1214 150.03C23.2194 146.065 23.5918 149.21 23.9447 148.878C23.9447 151.905 23.288 151.427 23.1214 150.03ZM23.9545 155.128C23.6212 154.317 23.6506 156.642 23.3664 156.251C23.3664 153.477 23.6898 153.546 23.8271 152.013C23.9643 152.159 23.9349 153.907 23.9545 155.128ZM38.2644 323.723C36.6766 323.332 43.4199 323.537 46.5368 323.478C47.6639 323.879 40.6854 323.908 38.2644 323.723ZM66.3747 299.67C65.9728 299.953 71.2068 299.592 69.5993 300.012C62.6404 300.041 58.5924 299.748 51.4375 299.806C53.7604 300.051 58.2886 300.138 65.326 300.138C50.771 300.744 40.607 300.881 25.2091 300.724C25.2189 299.758 25.2385 298.537 25.2483 297.267C24.9836 297.59 24.8856 299.289 24.8072 301.115C26.542 301.193 28.4533 301.262 28.816 301.486C27.3065 301.467 25.8657 301.457 24.4838 301.437C24.4936 292.082 23.9643 285.558 24.1603 278.439C24.2387 278.381 24.3171 278.332 24.3955 278.283C24.6504 277.609 24.621 279.699 24.6308 281.427C24.9836 279.259 24.5524 275.627 24.1505 277.326C24.1407 273.673 23.9447 271.896 24.0133 267.384C24.2681 267.443 24.2681 270.07 24.2583 272.824C24.7582 269.298 24.1211 261.818 23.8761 256.261C23.6898 252.55 24.2779 255.568 24.2191 253.078C23.9741 249.025 23.8761 226.622 24.2779 221.788C24.1211 219.113 24.0329 218.546 23.6898 219.777C23.6114 216.036 23.7193 213.898 24.0329 213.478C23.435 209.523 23.9055 203.068 24.1211 197.833C24.1015 194.142 23.7389 200.099 23.7683 196.837C23.7585 194.181 23.8565 195.558 24.0035 195.773C24.0035 191.866 23.4938 192.687 23.6408 187.482C23.9349 188.312 24.2681 188.751 24.6994 188.37C24.6798 186.085 24.1995 187.999 23.9937 187.433C23.8761 182.98 24.3171 183.37 24.3367 180.089C24.1015 180.821 23.7977 179.757 23.631 178.107C23.435 176.183 23.4056 173.478 23.8565 171.827C23.9545 175.411 23.7389 176.241 23.631 178.107C23.9251 177.95 23.9937 176.105 24.2191 178.019C23.8859 173.038 24.1603 172.628 24.3171 167.579C24.0427 167.198 23.6898 164.708 23.2586 167.726C23.435 164.415 23.5134 160.372 23.7095 157.237C24.0133 157.306 23.9447 160.694 23.9545 163.458C23.9839 165.284 24.3857 161.837 24.5426 161.3C24.474 158.956 24.3661 162.589 24.1897 160.304C24.2191 157.862 24.3661 156.368 24.2975 152.999C24.5328 151.222 24.4446 153.067 24.768 152.931C24.4053 146.388 23.6016 149.542 23.6898 142.647C23.5428 143.126 23.4448 144.015 23.4644 145.811C22.4549 134.395 23.8271 117.374 23.043 108.331C23.2978 105.01 23.4154 106.944 23.1508 103.106C23.7193 101.133 23.9349 104.952 24.1799 108.555C24.1995 107.413 24.2191 106.26 24.2191 105.049C24.5916 106.153 24.5328 105.489 24.8072 103.926C24.6896 100.372 24.1309 106.807 23.9839 102.989C24.3073 101.387 23.7487 94.2877 24.1995 89.4048C24.1603 87.9497 23.9937 89.3462 23.9643 90.4693C23.6604 88.8091 24.3073 86.6509 24.1897 83.145C24.0819 83.9165 24.0133 85.0688 23.9643 86.2993C23.6114 85.6646 24.0721 84.063 23.9643 82.1294C23.8467 82.1782 23.8761 83.4282 23.8467 84.229C23.533 83.897 23.7291 78.936 23.484 78.0278C23.7193 76.3774 24.0623 72.5785 23.5918 70.7133C23.6506 69.0043 23.6996 67.266 23.7585 65.518C23.7977 63.6527 23.8467 61.7777 23.8859 59.8832C23.9349 56.0941 23.9839 52.2562 24.0427 48.3987C24.1113 40.7034 24.1113 32.9494 24.1015 25.4005L24.4544 25.6544C24.3661 23.506 24.2975 21.3966 24.2583 19.3556C32.4719 19.1798 40.6266 19.3263 49.1831 19.2677C43.4984 19.9513 34.1087 19.7267 24.572 19.6681C24.5524 22.4318 24.5426 25.2248 24.572 27.9591C24.6602 34.5705 25.1404 40.0686 24.9542 46.7776C24.4936 47.6565 24.8562 40.9768 24.5916 40.0784C24.4347 40.7815 24.6504 43.0374 24.4838 45.5471C24.7876 48.4475 24.964 51.8753 25.062 55.6546C25.111 57.5394 25.1404 59.5121 25.16 61.5531C25.16 63.5551 25.16 65.6254 25.16 67.725C25.1306 75.9575 24.964 84.7856 25.0228 92.4126C25.1306 104.922 25.6795 115.587 25.5521 124.649C25.4345 125.352 25.4345 127.071 25.1993 126.788C25.5227 130.352 25.1404 134.62 25.2189 139.298C24.8366 140.763 24.9248 138.136 24.9934 143.487C24.768 141.573 24.6994 143.419 24.4053 143.575C24.3171 140.782 24.6406 141.534 24.7484 140.401C24.5622 138.917 24.4249 136.973 24.1505 136.309C24.2289 134.229 24.5034 133.878 24.6112 132.071C24.572 129.962 24.2877 130.069 24.2485 127.96C23.8663 130.089 24.2289 137.696 23.6898 140.528C24.1799 147.237 25.1306 146.905 25.2385 155.968C25.5227 155.333 25.4933 151.993 25.5815 149.669C26.1696 157.335 25.4835 165.099 26.0912 170.45C25.9736 171.847 25.9834 174.347 25.7481 174.669C25.8265 177.599 26.3166 183.956 25.8853 185.069C25.905 187.042 26.2774 185.743 26.248 188.155C25.4933 195.167 26.6008 209.142 26.0618 216.329C26.6008 221.408 26.5126 233.859 26.3362 238.185C27.2477 243.654 26.9047 262.785 26.395 270.695C26.4636 278.81 26.7675 277.775 26.7773 285.187C26.7969 283.996 26.9047 282.199 26.9831 280.656V298.957H59.9842C59.9842 298.957 60.043 298.957 60.0724 298.957C55.75 298.947 51.9961 299.006 49.5262 299.211C50.7808 299.113 54.3386 299.201 57.7985 299.211C60.8369 299.23 63.7871 299.191 64.9339 298.937H69.2367C69.7758 299.006 70.1776 299.084 70.5795 299.162C70.256 299.435 69.9816 299.709 66.4041 299.64L66.3747 299.67ZM25.8069 141.319L25.4541 141.378C25.4541 139.991 25.4541 138.604 25.4541 137.218C25.7677 136.866 25.8461 138.604 25.8167 141.329L25.8069 141.319ZM70.6481 299.904C70.7265 299.338 76.9405 299.435 82.0863 299.416C81.41 300.011 74.6372 299.924 70.6481 299.904ZM179.668 324.094C181.472 323.85 178.865 323.869 180.649 323.625C187.362 323.859 189.107 323.859 195.321 323.83C193.145 324.25 184.991 324.016 179.659 324.094H179.668ZM197.438 323.947C196.419 323.518 202.917 323.723 203.692 323.82C202.839 324.045 199.144 324.143 197.438 323.947ZM300.156 325.295C299.843 325.109 301.127 325.09 301.156 324.943C304.528 324.914 305.616 325.139 309.546 325.041C309.125 325.412 302.391 325.48 300.166 325.295H300.156ZM317.926 325.148C321.729 325.334 322.993 325.119 326.316 325.256C325.983 325.646 317.397 325.578 317.926 325.148ZM352.819 327.785C355.054 327.57 357.602 327.57 360.131 327.658C359.141 328.117 356.534 327.678 352.819 327.785ZM362.267 328C363.208 327.795 365.502 327.736 368.521 327.756C367.982 328.039 364.541 328.254 362.267 328ZM365.159 326.232C365.237 326.008 369.079 326.32 370.403 326.34C369.315 326.809 366.286 326.428 365.159 326.232ZM373.47 325.754C373.549 325.451 376.94 325.519 379.714 325.51C380.067 325.891 375.195 325.939 373.47 325.754ZM383.977 326.086C382.782 326.066 383.38 325.969 383.958 325.969C384.223 325.656 379.89 325.881 380.753 325.51C383.272 325.549 382.988 325.295 385.967 325.383C386.438 325.49 386.908 325.588 388.084 325.617C388.016 325.92 384.026 325.793 383.968 326.096L383.977 326.086ZM397.935 328.644C396.582 328.801 394.092 328.801 392.71 328.644C392.416 328.264 398.395 328.107 397.935 328.644ZM393.416 326.193C392.867 325.822 396.18 325.881 396.464 325.598C397.886 325.676 398.444 325.842 398.63 326.066C397.435 326.164 395.857 326.223 393.416 326.193ZM522.127 326.32C523.588 326.262 524.95 326.262 526.254 326.291C524.254 326.301 522.921 326.613 522.127 326.32ZM567.174 326.711C563.832 326.398 561.323 326.447 557.706 326.379C559.627 326.164 569.125 326.086 567.174 326.711ZM555.648 334.23C556.364 333.967 560.509 333.83 561.901 333.986C560.96 334.191 558.657 334.25 555.648 334.23ZM563.087 335.041C561.695 335.041 560.304 335.041 558.902 335.041C558.02 334.592 563.852 334.582 563.087 335.041ZM580.808 334.543C575.525 334.533 571.565 334.103 567.184 334.328C566.243 334.162 566.282 333.879 562.94 333.986C568.723 333.439 578.25 334.016 583.846 333.83C582.072 333.986 581.063 334.221 580.798 334.533L580.808 334.543ZM573.673 328.342L573.633 327.99C578.711 327.707 581.426 328.059 587.257 328.205C583.043 328.498 578.73 328.107 573.673 328.342ZM612.447 328.742C607.546 328.371 597.451 328.156 595.696 328.654C593.844 328.625 593.285 328.459 593.53 328.185C590.502 328.293 592.383 328.361 592.55 328.654C589.521 328.605 590.012 328.156 587.238 328.078C595.99 327.707 603.037 328.391 613.388 328.029C612.378 328.312 613.074 328.283 612.437 328.732L612.447 328.742ZM622.895 328.605C620.533 328.342 618.818 328.654 615.573 328.615C615.613 328.156 620.062 328.176 623.875 328.137C624.042 328.342 622.63 328.391 622.895 328.605ZM791.37 336.281C788.616 336.32 790.488 335.832 787.136 335.939C789.645 335.451 792.507 336.037 796.565 336.037C797.075 336.359 790.841 335.959 791.361 336.281H791.37ZM844.572 335.139C839.328 335.451 835.839 335.441 829.978 335.52C828.606 335.363 828.576 335.09 829.89 334.934C826.587 334.797 822.607 334.738 820.412 334.484C826.41 334.299 832.281 334.748 838.162 334.221C841.857 334.191 840.308 334.768 844.494 334.68C845.523 334.895 841.416 335.08 844.562 335.148L844.572 335.139ZM925.355 329.133C921.15 328.83 914.848 328.762 914.73 327.98C918.092 327.814 922.855 327.824 920.924 327.385C928.756 327.238 931.804 328.664 925.355 329.133ZM973.479 329.045C978.429 329.26 984.78 328.586 986.045 329.143C983.359 329.328 974.273 329.66 973.479 329.045ZM1042.02 325.295C1042.95 325.295 1043.5 325.324 1044.07 325.353C1044.9 325.383 1045.9 325.422 1047.48 325.402C1048.99 325.734 1045.18 325.705 1045.94 325.988C1045.39 325.949 1044.75 325.9 1044.12 325.851C1043.73 325.803 1043.33 325.754 1042.99 325.715C1042.3 325.617 1041.84 325.49 1042.01 325.295H1042.02ZM1028.5 326.018C1028.87 325.09 1024.76 324.846 1029.31 324.26C1033.25 324.201 1034.25 324.484 1036.67 324.601C1037.8 325.607 1037.28 325.607 1034.84 326.477C1032.05 326.594 1026.64 326.428 1027.57 326.955C1026.19 326.838 1023.71 326.848 1022.32 326.73C1021.4 326.164 1026.28 326.242 1028.49 326.018H1028.5Z" fill="#B52A2D"/>
  </svg>