<svg xmlns="http://www.w3.org/2000/svg" width="36" height="36" viewBox="0 0 36 36" fill="none">
    <path d="M18.4042 9.01519C19.4085 9 20.4071 9.009 21.4044 9C21.4649 10.1481 21.8873 11.3176 22.7471 12.1294C23.6052 12.9613 24.819 13.3422 26 13.471V16.4912C24.8933 16.4558 23.7814 16.2308 22.7771 15.765C22.3397 15.5715 21.9322 15.3223 21.5334 15.0674C21.5282 17.2591 21.5426 19.4479 21.519 21.6305C21.4591 22.679 21.1052 23.7225 20.4813 24.5866C19.4776 26.025 17.7355 26.9627 15.9462 26.992C14.8487 27.0533 13.7523 26.7608 12.8171 26.2219C11.2672 25.3286 10.1766 23.6933 10.0177 21.9382C9.99772 21.5665 9.99465 21.1941 10.0085 20.8221C10.1466 19.395 10.8689 18.0297 11.99 17.101C13.2608 16.0192 15.0409 15.504 16.7076 15.8089C16.7231 16.9199 16.6777 18.0297 16.6777 19.1407C15.9163 18.9 15.0265 18.9675 14.3612 19.4192C13.8744 19.7326 13.5066 20.1937 13.3143 20.7316C13.1555 21.1118 13.2009 21.5343 13.2102 21.9382C13.3926 23.169 14.6035 24.2035 15.8961 24.0916C16.7531 24.0826 17.5743 23.5965 18.0209 22.8849C18.1654 22.6357 18.3271 22.3809 18.3358 22.0878C18.4112 20.7462 18.3812 19.4102 18.3904 18.0685C18.3968 15.0449 18.3812 12.0298 18.4048 9.01575L18.4042 9.01519Z" fill="#B52A2D"/>
    <path d="M11.7 3H24.3C29.1 3 33 6.9 33 11.7V24.3C33 26.6074 32.0834 28.8203 30.4518 30.4518C28.8203 32.0834 26.6074 33 24.3 33H11.7C6.9 33 3 29.1 3 24.3V11.7C3 9.39262 3.9166 7.17974 5.54817 5.54817C7.17974 3.9166 9.39262 3 11.7 3ZM11.4 6C9.96783 6 8.59432 6.56893 7.58162 7.58162C6.56893 8.59432 6 9.96783 6 11.4V24.6C6 27.585 8.415 30 11.4 30H24.6C26.0322 30 27.4057 29.4311 28.4184 28.4184C29.4311 27.4057 30 26.0322 30 24.6V11.4C30 8.415 27.585 6 24.6 6H11.4Z" fill="#B52A2D"/>
  </svg>