<svg xmlns="http://www.w3.org/2000/svg" width="36" height="36" viewBox="0 0 36 36" fill="none">
    <path d="M23.1761 10H25.9362L19.9061 16.7774L27 26H21.4447L17.0943 20.4066L12.1164 26H9.35461L15.8043 18.7508L9 10H14.6946L18.627 15.1126L23.1744 10H23.1761ZM22.2073 24.3754H23.7368L13.8644 11.5393H12.2232L22.2073 24.3754Z" fill="white"/>
    <path d="M11.7 3H24.3C29.1 3 33 6.9 33 11.7V24.3C33 26.6074 32.0834 28.8203 30.4518 30.4518C28.8203 32.0834 26.6074 33 24.3 33H11.7C6.9 33 3 29.1 3 24.3V11.7C3 9.39262 3.9166 7.17974 5.54817 5.54817C7.17974 3.9166 9.39262 3 11.7 3ZM11.4 6C9.96783 6 8.59432 6.56893 7.58162 7.58162C6.56893 8.59432 6 9.96783 6 11.4V24.6C6 27.585 8.415 30 11.4 30H24.6C26.0322 30 27.4057 29.4311 28.4184 28.4184C29.4311 27.4057 30 26.0322 30 24.6V11.4C30 8.415 27.585 6 24.6 6H11.4Z" fill="white"/>
  </svg>